<svg width="16" height="16" viewBox="0 0 16 16" fill="none" xmlns="http://www.w3.org/2000/svg">
<rect width="16" height="16" rx="8" fill="#C62828"/>
<path fill-rule="evenodd" clip-rule="evenodd" d="M4.56988 9.93681C4.69712 9.79009 4.91921 9.7743 5.06593 9.90155L6.05812 10.762C6.05877 10.7622 6.05942 10.7623 6.06008 10.7625L7.38314 11.0966C7.57144 11.1441 7.68555 11.3353 7.638 11.5236C7.59046 11.7119 7.39927 11.826 7.21097 11.7785L5.89142 11.4453C5.78216 11.4197 5.68096 11.3674 5.59694 11.293L4.60514 10.4329C4.45843 10.3056 4.44264 10.0835 4.56988 9.93681Z" fill="white"/>
<path fill-rule="evenodd" clip-rule="evenodd" d="M7.91674 4.91411L9.43712 5.60399C9.61398 5.68424 9.8224 5.60593 9.90265 5.42908C9.9829 5.25222 9.90458 5.0438 9.72773 4.96355L8.20686 4.27345L8.20638 4.27323C8.05447 4.20457 7.88311 4.19211 7.72287 4.23806L5.46618 4.89791C5.27978 4.95241 5.17285 5.14771 5.22736 5.33411C5.28186 5.52051 5.47716 5.62744 5.66356 5.57294L7.91674 4.91411Z" fill="white"/>
<path fill-rule="evenodd" clip-rule="evenodd" d="M8.67344 5.63542L6.95518 7.34929C6.95491 7.34965 6.95469 7.35005 6.95453 7.35047C6.95432 7.35106 6.95423 7.35168 6.95428 7.3523C6.95433 7.35292 6.9545 7.35353 6.9548 7.35407C6.9551 7.35462 6.95551 7.3551 6.956 7.35548L7.19195 7.53462C7.37475 7.6707 7.59658 7.7442 7.82449 7.7442C8.05271 7.7442 8.27483 7.6705 8.45777 7.53407C8.45789 7.53399 8.458 7.5339 8.45811 7.53382L9.02009 7.11233C9.14359 7.01971 9.31306 7.01846 9.4379 7.10926L11.372 8.51585C11.529 8.63007 11.5637 8.85 11.4495 9.00706C11.3353 9.16413 11.1154 9.19885 10.9583 9.08462L9.23429 7.8308L8.87877 8.09743C8.57426 8.32471 8.20446 8.44749 7.82449 8.44749C7.44452 8.44749 7.07472 8.32471 6.77021 8.09743L6.76789 8.0957L6.53054 7.91548C6.45076 7.85482 6.38459 7.77778 6.33676 7.68971C6.28894 7.60164 6.26036 7.50441 6.25293 7.40447C6.24549 7.30453 6.25937 7.20414 6.29364 7.10997C6.32792 7.01579 6.3818 6.92997 6.45173 6.85818L6.45529 6.85458L8.17865 5.13561C8.2438 5.07079 8.32109 5.01945 8.4061 4.98453C8.49089 4.94971 8.58169 4.9319 8.67335 4.93213C8.67359 4.93213 8.67383 4.93213 8.67407 4.93213L8.67284 5.28378V4.93213H8.67335H10.4618C10.656 4.93213 10.8135 5.08957 10.8135 5.28378C10.8135 5.47799 10.656 5.63542 10.4618 5.63542H8.67344Z" fill="white"/>
<path fill-rule="evenodd" clip-rule="evenodd" d="M3.85475 7.71353C3.97425 7.56044 4.19523 7.53322 4.34832 7.65272L6.75269 9.52963L6.75796 9.53383L9.28964 10.1667C9.29242 10.1671 9.29524 10.1668 9.29794 10.1661C9.30062 10.1653 9.30313 10.1641 9.30534 10.1624L10.9062 8.56157L11.6003 7.74596C11.7262 7.59806 11.9482 7.5802 12.0961 7.70607C12.2439 7.83194 12.2618 8.05388 12.1359 8.20177L11.4326 9.02814C11.4265 9.03531 11.4202 9.04223 11.4135 9.04888L9.79593 10.6665C9.79442 10.668 9.79289 10.6695 9.79135 10.671C9.79006 10.6722 9.78876 10.6734 9.78746 10.6746C9.70188 10.7547 9.59819 10.8128 9.48526 10.844C9.37232 10.8752 9.25351 10.8786 9.13898 10.8538C9.13529 10.853 9.1316 10.8522 9.12793 10.8513L6.5785 10.2139C6.57544 10.2131 6.5724 10.2123 6.56937 10.2115C6.47755 10.1859 6.39191 10.1419 6.31764 10.0822L3.91555 8.2071C3.76247 8.08759 3.73524 7.86662 3.85475 7.71353Z" fill="white"/>
<path fill-rule="evenodd" clip-rule="evenodd" d="M4.28573 5.00226L3.20512 7.07123L3.98047 7.46048L5.06129 5.39004L4.28573 5.00226ZM4.06523 4.33441C4.23928 4.27694 4.4289 4.2897 4.59369 4.36996L4.59698 4.37156L5.69587 4.92103C5.78024 4.96321 5.84412 5.03752 5.87317 5.12726C5.90221 5.21701 5.89399 5.31466 5.85034 5.39828L4.44375 8.09276C4.35489 8.263 4.14588 8.33046 3.97426 8.2443L2.88981 7.69988C2.80639 7.65871 2.73202 7.60128 2.67106 7.53098C2.60969 7.46018 2.56317 7.37776 2.53429 7.28863C2.5054 7.19949 2.49473 7.10546 2.50292 7.01212C2.51106 6.91926 2.5377 6.82897 2.58125 6.74656L3.66183 4.67765C3.66189 4.67754 3.66195 4.67742 3.66201 4.67731C3.74663 4.51487 3.89129 4.39185 4.06523 4.33441Z" fill="white"/>
<path fill-rule="evenodd" clip-rule="evenodd" d="M11.7162 5.04962L12.796 7.11693L12.7959 7.11693L12.7968 7.11859L12.02 7.50545L10.939 5.4382L11.7162 5.04962ZM12.9537 7.43302L13.1105 7.74803L12.0248 8.28868C11.8534 8.37405 11.6452 8.30655 11.5565 8.13684L10.1499 5.44675C10.1062 5.36313 10.0979 5.26544 10.1269 5.17564C10.1559 5.08585 10.2198 5.0115 10.3042 4.96929L11.4021 4.42035C11.5662 4.33721 11.7564 4.32206 11.9316 4.37825C12.1071 4.43454 12.2532 4.55787 12.3382 4.72139C12.3383 4.72155 12.3384 4.72171 12.3385 4.72187L13.4185 6.78968C13.4186 6.79 13.4188 6.79032 13.419 6.79065C13.4625 6.87327 13.4892 6.96375 13.4974 7.05679C13.5056 7.1502 13.4951 7.24432 13.4664 7.3336C13.4378 7.42288 13.3915 7.50553 13.3305 7.57668C13.2694 7.64784 13.1947 7.70605 13.1108 7.74791L12.9537 7.43302Z" fill="white"/>
</svg>
