<svg width="16" height="16" viewBox="0 0 16 16" fill="none" xmlns="http://www.w3.org/2000/svg">
<rect width="16" height="16" rx="8" fill="#C62828"/>
<path d="M13 8C12.9986 6.67436 12.4713 5.40342 11.534 4.46605C10.5966 3.52868 9.3257 3.00143 8.00009 3C7.88958 3 7.7836 3.0439 7.70547 3.12204C7.62733 3.20018 7.58343 3.30616 7.58343 3.41667C7.58343 3.52717 7.62733 3.63315 7.70547 3.71129C7.7836 3.78943 7.88958 3.83333 8.00009 3.83333C8.78869 3.83328 9.56112 4.05703 10.2276 4.47859C10.8941 4.90015 11.4272 5.50219 11.7651 6.21476C12.103 6.92733 12.2317 7.72116 12.1364 8.50399C12.041 9.28682 11.7254 10.0265 11.2263 10.6371L10.2263 9.63708L9.80089 12.6162L12.7796 12.1904L11.8158 11.2267C12.5824 10.3265 13.0023 9.18229 13 8Z" fill="white"/>
<path d="M8.00009 12.1667C7.21148 12.1667 6.43905 11.943 5.77257 11.5214C5.10609 11.0999 4.57293 10.4978 4.23504 9.78524C3.89716 9.07267 3.76843 8.27884 3.86382 7.49601C3.95921 6.71318 4.27479 5.97349 4.7739 5.36292L5.77388 6.36292L6.19929 3.38375L3.2206 3.80958L4.18433 4.77333C3.56799 5.5008 3.17266 6.38943 3.04499 7.33431C2.91733 8.27918 3.06268 9.24086 3.46386 10.1058C3.86505 10.9708 4.50533 11.7029 5.30912 12.2157C6.11291 12.7285 7.04664 13.0007 8.00009 13C8.11059 13 8.21657 12.9561 8.29471 12.878C8.37285 12.7998 8.41675 12.6938 8.41675 12.5833C8.41675 12.4728 8.37285 12.3668 8.29471 12.2887C8.21657 12.2106 8.11059 12.1667 8.00009 12.1667Z" fill="white"/>
<path d="M9.65964 8.9225C9.66361 9.08011 9.63252 9.23663 9.5686 9.38074C9.50468 9.52486 9.40955 9.65298 9.29006 9.75583C8.98493 9.99807 8.61203 10.1395 8.223 10.1604V10.9167H7.75968V10.1808C7.27363 10.1896 6.79086 10.0998 6.34054 9.91667V9.18042C6.56497 9.28648 6.79985 9.36887 7.04136 9.42625C7.27607 9.48791 7.51709 9.52244 7.75968 9.52917V8.225L7.46801 8.11667C7.15124 8.01189 6.86459 7.83189 6.63261 7.59208C6.45428 7.38188 6.36016 7.11304 6.36845 6.8375C6.36543 6.68552 6.39772 6.53492 6.46279 6.39754C6.52786 6.26016 6.62394 6.13977 6.74345 6.04583C7.03749 5.8225 7.39146 5.69193 7.76009 5.67083V5.08333H8.22342V5.65875C8.68443 5.67271 9.13917 5.76953 9.56589 5.94458L9.31089 6.58333C8.96319 6.44348 8.59648 6.35654 8.223 6.32542V7.59458L8.48799 7.69583C8.8296 7.80465 9.14272 7.98811 9.40464 8.23292C9.57467 8.42172 9.66592 8.66849 9.65964 8.9225ZM7.1876 6.83042C7.18421 6.95283 7.22911 7.07167 7.3126 7.16125C7.44225 7.27865 7.59494 7.36777 7.76093 7.42292V6.33958C7.60555 6.35457 7.45775 6.41387 7.3351 6.51042C7.2883 6.54946 7.25078 6.59843 7.22526 6.65378C7.19975 6.70913 7.18689 6.76947 7.1876 6.83042ZM8.83674 8.97458C8.83859 8.91213 8.82693 8.85001 8.80255 8.79247C8.77817 8.73494 8.74165 8.68336 8.69549 8.64125C8.55515 8.5282 8.3949 8.44242 8.223 8.38833V9.5C8.63216 9.43805 8.83674 9.26292 8.83674 8.97458Z" fill="white"/>
</svg>
