<svg width="16" height="16" viewBox="0 0 16 16" fill="none" xmlns="http://www.w3.org/2000/svg">
<path fill-rule="evenodd" clip-rule="evenodd" d="M7.99984 1.99935C4.68613 1.99935 1.99984 4.68564 1.99984 7.99935C1.99984 11.3131 4.68613 13.9993 7.99984 13.9993C11.3135 13.9993 13.9998 11.3131 13.9998 7.99935C13.9998 4.68564 11.3135 1.99935 7.99984 1.99935ZM0.666504 7.99935C0.666504 3.94926 3.94975 0.666016 7.99984 0.666016C12.0499 0.666016 15.3332 3.94926 15.3332 7.99935C15.3332 12.0494 12.0499 15.3327 7.99984 15.3327C3.94975 15.3327 0.666504 12.0494 0.666504 7.99935Z" fill="#595959"/>
<path fill-rule="evenodd" clip-rule="evenodd" d="M8.00016 4.66602C8.36835 4.66602 8.66683 4.96449 8.66683 5.33268V7.99935C8.66683 8.36754 8.36835 8.66602 8.00016 8.66602C7.63197 8.66602 7.3335 8.36754 7.3335 7.99935V5.33268C7.3335 4.96449 7.63197 4.66602 8.00016 4.66602Z" fill="#595959"/>
<path fill-rule="evenodd" clip-rule="evenodd" d="M7.3335 10.6667C7.3335 10.2985 7.63197 10 8.00016 10H8.00683C8.37502 10 8.6735 10.2985 8.6735 10.6667C8.6735 11.0349 8.37502 11.3333 8.00683 11.3333H8.00016C7.63197 11.3333 7.3335 11.0349 7.3335 10.6667Z" fill="#595959"/>
</svg>
