<svg width="24" height="24" viewBox="0 0 24 24" fill="none" xmlns="http://www.w3.org/2000/svg">
<path fill-rule="evenodd" clip-rule="evenodd" d="M6.66699 12.0007C6.66699 11.6325 6.96547 11.334 7.33366 11.334H16.667C17.0352 11.334 17.3337 11.6325 17.3337 12.0007C17.3337 12.3688 17.0352 12.6673 16.667 12.6673H7.33366C6.96547 12.6673 6.66699 12.3688 6.66699 12.0007Z" fill="#595959"/>
<path fill-rule="evenodd" clip-rule="evenodd" d="M11.5283 6.86128C11.7886 6.60093 12.2107 6.60093 12.4711 6.86128L17.1377 11.5279C17.3981 11.7883 17.3981 12.2104 17.1377 12.4708L12.4711 17.1374C12.2107 17.3978 11.7886 17.3978 11.5283 17.1374C11.2679 16.8771 11.2679 16.455 11.5283 16.1946L15.7235 11.9993L11.5283 7.80409C11.2679 7.54374 11.2679 7.12163 11.5283 6.86128Z" fill="#595959"/>
</svg>
