<svg width="24" height="24" viewBox="0 0 24 24" fill="none" xmlns="http://www.w3.org/2000/svg">
<path fill-rule="evenodd" clip-rule="evenodd" d="M12 10.125C10.3431 10.125 9 11.4681 9 13.125C9 14.7819 10.3431 16.125 12 16.125C13.6569 16.125 15 14.7819 15 13.125C15 11.4681 13.6569 10.125 12 10.125ZM7.5 13.125C7.5 10.6397 9.51472 8.625 12 8.625C14.4853 8.625 16.5 10.6397 16.5 13.125C16.5 15.6103 14.4853 17.625 12 17.625C9.51472 17.625 7.5 15.6103 7.5 13.125Z" fill="#C62828"/>
<path fill-rule="evenodd" clip-rule="evenodd" d="M20.5562 12.1377C19.8794 11.7993 19.1329 11.6237 18.3763 11.625C17.962 11.6257 17.6257 11.2905 17.625 10.8763C17.6243 10.462 17.9595 10.1257 18.3737 10.125C19.3641 10.1234 20.3412 10.3531 21.227 10.796C22.1128 11.239 22.8829 11.8827 23.4758 12.676C23.7237 13.0078 23.6558 13.4778 23.324 13.7258C22.9922 13.9737 22.5222 13.9058 22.2742 13.574C21.8213 12.9679 21.2329 12.4761 20.5562 12.1377Z" fill="#C62828"/>
<path fill-rule="evenodd" clip-rule="evenodd" d="M5.62376 11.625C4.86711 11.6237 4.12063 11.7993 3.44385 12.1377C2.76708 12.4761 2.17875 12.9679 1.72577 13.574C1.47779 13.9058 1.00781 13.9737 0.676019 13.7258C0.344233 13.4778 0.276289 13.0078 0.524263 12.676C1.11716 11.8827 1.88722 11.239 2.77303 10.796C3.65885 10.3531 4.6359 10.1234 5.62627 10.125C6.04048 10.1257 6.37571 10.462 6.37501 10.8763C6.37432 11.2905 6.03797 11.6257 5.62376 11.625Z" fill="#C62828"/>
<path fill-rule="evenodd" clip-rule="evenodd" d="M12 17.627C11.0149 17.627 10.0495 17.9036 9.21396 18.4255C8.37839 18.9474 7.7062 19.6934 7.27394 20.5786C7.09219 20.9508 6.64312 21.1052 6.27091 20.9235C5.8987 20.7418 5.7443 20.2927 5.92605 19.9205C6.48158 18.7828 7.34549 17.8239 8.41936 17.1532C9.49323 16.4826 10.7339 16.127 12 16.127C13.2661 16.127 14.5068 16.4826 15.5806 17.1532C16.6545 17.8239 17.5184 18.7828 18.0739 19.9205C18.2557 20.2927 18.1013 20.7418 17.7291 20.9235C17.3569 21.1052 16.9078 20.9508 16.726 20.5786C16.2938 19.6934 15.6216 18.9474 14.786 18.4255C13.9505 17.9036 12.9851 17.627 12 17.627Z" fill="#C62828"/>
<path fill-rule="evenodd" clip-rule="evenodd" d="M6.18075 5.6955C5.76708 5.58944 5.33177 5.60329 4.92569 5.73544C4.5196 5.86759 4.15951 6.11258 3.88748 6.44178C3.61546 6.77098 3.44274 7.1708 3.3895 7.59452C3.33627 8.01823 3.40471 8.44835 3.58685 8.83461C3.76898 9.22088 4.05728 9.54733 4.41806 9.77583C4.77883 10.0043 5.19718 10.1254 5.62423 10.125C6.03845 10.1246 6.37457 10.46 6.37499 10.8742C6.37541 11.2885 6.03997 11.6246 5.62575 11.625C4.91401 11.6257 4.21675 11.4239 3.61546 11.043C3.01417 10.6622 2.53367 10.1181 2.23011 9.47436C1.92656 8.83059 1.81248 8.11372 1.9012 7.40753C1.98993 6.70133 2.27779 6.03497 2.73117 5.4863C3.18454 4.93763 3.7847 4.52932 4.46151 4.30907C5.13832 4.08882 5.86384 4.06573 6.55329 4.24249C7.24273 4.41926 7.86764 4.78858 8.35498 5.30731C8.84233 5.82604 9.17199 6.47275 9.30544 7.17187C9.38311 7.57874 9.11624 7.97153 8.70937 8.0492C8.3025 8.12686 7.90971 7.85999 7.83205 7.45312C7.75197 7.03365 7.55418 6.64562 7.26177 6.33439C6.96936 6.02315 6.59442 5.80156 6.18075 5.6955Z" fill="#C62828"/>
<path fill-rule="evenodd" clip-rule="evenodd" d="M19.0743 5.73544C18.6682 5.60329 18.2329 5.58944 17.8193 5.6955C17.4056 5.80156 17.0306 6.02315 16.7382 6.33439C16.4458 6.64562 16.248 7.03365 16.168 7.45312C16.0903 7.85999 15.6975 8.12686 15.2906 8.0492C14.8838 7.97153 14.6169 7.57874 14.6946 7.17187C14.828 6.47275 15.1577 5.82604 15.645 5.30731C16.1324 4.78858 16.7573 4.41926 17.4467 4.24249C18.1362 4.06573 18.8617 4.08882 19.5385 4.30907C20.2153 4.52932 20.8155 4.93763 21.2688 5.4863C21.7222 6.03497 22.0101 6.70133 22.0988 7.40753C22.1875 8.11373 22.0734 8.83059 21.7699 9.47436C21.4663 10.1181 20.9858 10.6622 20.3845 11.043C19.7833 11.4239 19.086 11.6257 18.3742 11.625C17.96 11.6246 17.6246 11.2885 17.625 10.8742C17.6254 10.46 17.9616 10.1246 18.3758 10.125C18.8028 10.1254 19.2212 10.0043 19.5819 9.77583C19.9427 9.54733 20.231 9.22088 20.4132 8.83461C20.5953 8.44835 20.6637 8.01823 20.6105 7.59452C20.5573 7.1708 20.3845 6.77098 20.1125 6.44178C19.8405 6.11258 19.4804 5.86759 19.0743 5.73544Z" fill="#C62828"/>
</svg>
