<svg width="15" height="18" viewBox="0 0 15 18" fill="none" xmlns="http://www.w3.org/2000/svg">
<path d="M12.0977 9.46289C12.0898 8.13086 12.6934 7.12695 13.9121 6.38672C13.2305 5.41016 12.1992 4.87305 10.8398 4.76953C9.55273 4.66797 8.14453 5.51953 7.62891 5.51953C7.08398 5.51953 5.83789 4.80469 4.85742 4.80469C2.83398 4.83594 0.683594 6.41797 0.683594 9.63672C0.683594 10.5879 0.857422 11.5703 1.20508 12.582C1.66992 13.9141 3.3457 17.1777 5.09375 17.125C6.00781 17.1035 6.6543 16.4766 7.84375 16.4766C8.99805 16.4766 9.5957 17.125 10.6152 17.125C12.3789 17.0996 13.8945 14.1328 14.3359 12.7969C11.9707 11.6816 12.0977 9.53125 12.0977 9.46289ZM10.0449 3.50586C11.0352 2.33008 10.9453 1.25977 10.916 0.875C10.041 0.925781 9.0293 1.4707 8.45312 2.14063C7.81836 2.85938 7.44531 3.74805 7.52539 4.75C8.4707 4.82227 9.33398 4.33594 10.0449 3.50586Z" fill="#8C8C8C"/>
</svg>
