<svg width="32" height="32" viewBox="0 0 32 32" fill="none" xmlns="http://www.w3.org/2000/svg">
<rect x="0.5" y="0.5" width="31" height="31" rx="15.5" fill="white"/>
<path d="M24.6522 9.96582H7.34777C6.60461 9.96582 6 10.5705 6 11.3136V20.6864C6 21.4295 6.60461 22.0342 7.34777 22.0342H24.6522C25.3954 22.0342 26 21.4295 26 20.6864V11.3136C26 10.5705 25.3954 9.96582 24.6522 9.96582ZM25.2187 20.6864C25.2187 20.9988 24.9646 21.253 24.6522 21.253H7.34777C7.03539 21.253 6.78125 20.9988 6.78125 20.6864V11.3136C6.78125 11.0012 7.03539 10.7471 7.34777 10.7471H24.6522C24.9646 10.7471 25.2187 11.0012 25.2187 11.3136V20.6864Z" fill="#C62828"/>
<path d="M23.5184 13.6225C22.904 13.6225 22.4042 13.1272 22.4042 12.5186C22.4042 12.4974 22.4048 12.4765 22.406 12.4557C22.4122 12.3484 22.3738 12.2434 22.3 12.1652C22.2262 12.0871 22.1234 12.0429 22.016 12.0429H17.8544C17.8535 12.0429 17.8526 12.0429 17.8518 12.0429C17.2892 11.7786 16.6616 11.6309 16.0002 11.6309C15.3388 11.6309 14.7112 11.7786 14.1486 12.0429H9.98428C9.87682 12.0429 9.77412 12.0871 9.7003 12.1652C9.6265 12.2434 9.58814 12.3484 9.59428 12.4557C9.59545 12.4765 9.59608 12.4974 9.59608 12.5186C9.59608 13.1272 9.09627 13.6225 8.48194 13.6225C8.26623 13.6225 8.09131 13.7974 8.09131 14.0131V18.0721C8.09131 18.2877 8.26623 18.4627 8.48194 18.4627C9.09631 18.4627 9.59608 18.9579 9.59608 19.5666C9.59608 19.7823 9.771 19.9572 9.9867 19.9572H14.1442C14.1456 19.9572 14.1471 19.9572 14.1485 19.9572C14.711 20.2215 15.3386 20.3692 16.0002 20.3692C16.6616 20.3692 17.2892 20.2215 17.8517 19.9572C17.8526 19.9572 17.8534 19.9572 17.8543 19.9572H22.0136C22.2292 19.9572 22.4042 19.7823 22.4042 19.5666C22.4042 18.9579 22.904 18.4627 23.5183 18.4627C23.734 18.4627 23.9089 18.2877 23.9089 18.0721V14.0131C23.909 13.7973 23.734 13.6225 23.5184 13.6225ZM10.3364 19.176C10.1818 18.4487 9.60412 17.8747 8.87256 17.7217V14.3635C9.6324 14.2045 10.2262 13.5915 10.3525 12.8241H13.0026C12.1585 13.6213 11.631 14.7502 11.631 16.0001C11.631 17.2499 12.1585 18.3789 13.0026 19.176H10.3364ZM12.4122 16.0001C12.4122 14.0217 14.0218 12.4121 16.0002 12.4121C17.9786 12.4121 19.5881 14.0217 19.5881 16.0001C19.5881 17.9785 17.9785 19.588 16.0002 19.588C14.0218 19.588 12.4122 17.9784 12.4122 16.0001ZM23.1277 17.7217C22.3962 17.8747 21.8185 18.4487 21.6638 19.1759H18.9977C19.8418 18.3788 20.3693 17.2499 20.3693 16C20.3693 14.7501 19.8418 13.6212 18.9977 12.8241H21.6478C21.774 13.5915 22.3679 14.2044 23.1277 14.3634V17.7217Z" fill="#C62828"/>
<path d="M16.0147 14.6877C16.0147 14.0161 15.5201 13.4697 14.9121 13.4697C14.3042 13.4697 13.8096 14.0161 13.8096 14.6877C13.8096 15.3593 14.3042 15.9056 14.9121 15.9056C15.5201 15.9056 16.0147 15.3593 16.0147 14.6877ZM14.5908 14.6877C14.5908 14.4509 14.738 14.251 14.9122 14.251C15.0863 14.251 15.2335 14.4509 15.2335 14.6877C15.2335 14.9243 15.0863 15.1243 14.9122 15.1243C14.738 15.1243 14.5908 14.9243 14.5908 14.6877Z" fill="#C62828"/>
<path d="M17.0879 16.0944C16.692 16.0944 16.3441 16.3262 16.1496 16.6734L17.1917 14.1903C17.2752 13.9914 17.1816 13.7624 16.9827 13.679C16.7837 13.5955 16.5548 13.6891 16.4713 13.888L14.8601 17.7271C14.7766 17.926 14.8702 18.155 15.0692 18.2385C15.1186 18.2592 15.1698 18.269 15.2202 18.269C15.3728 18.269 15.5178 18.179 15.5805 18.0294L16.0388 16.9375C16.0041 17.0556 15.9854 17.1816 15.9854 17.3124C15.9854 17.984 16.4799 18.5303 17.0879 18.5303C17.6958 18.5303 18.1905 17.984 18.1905 17.3124C18.1905 16.6408 17.6958 16.0944 17.0879 16.0944ZM17.0879 17.749C16.9138 17.749 16.7666 17.5491 16.7666 17.3124C16.7666 17.0756 16.9138 16.8757 17.0879 16.8757C17.2621 16.8757 17.4092 17.0756 17.4092 17.3124C17.4092 17.5491 17.2621 17.749 17.0879 17.749Z" fill="#C62828"/>
<rect x="0.5" y="0.5" width="31" height="31" rx="15.5" stroke="#C62828"/>
</svg>
