<svg width="32" height="32" viewBox="0 0 32 32" fill="none" xmlns="http://www.w3.org/2000/svg">
<rect x="0.5" y="0.5" width="31" height="31" rx="15.5" fill="white"/>
<path d="M25.6094 20.344H24.6017V9.32637C24.6017 8.6677 24.0658 8.13184 23.4071 8.13184H8.59289C7.93422 8.13184 7.39836 8.6677 7.39836 9.32637V20.344H6.39063C6.17488 20.344 6 20.5188 6 20.7346V22.6272C6 23.3116 6.55672 23.8683 7.24101 23.8683H24.759C25.4433 23.8683 26 23.3116 26 22.6272V20.7346C26 20.5188 25.8251 20.344 25.6094 20.344ZM8.17961 9.32637C8.17961 9.09848 8.365 8.91309 8.59289 8.91309H23.4071C23.635 8.91309 23.8204 9.09848 23.8204 9.32637V20.344H19.2683C18.5921 20.344 18.021 20.8024 17.8495 21.4247H14.1505C13.9789 20.8024 13.4079 20.344 12.7317 20.344H8.17961V9.32637ZM25.2187 22.6272C25.2187 22.8808 25.0125 23.087 24.759 23.087H7.24101C6.9875 23.087 6.78125 22.8808 6.78125 22.6272V21.1252H12.7317C13.1123 21.1252 13.4219 21.4347 13.4219 21.8152C13.4219 22.031 13.5967 22.2059 13.8125 22.2059H18.1875C18.4032 22.2059 18.5781 22.031 18.5781 21.8152C18.5781 21.4347 18.8877 21.1252 19.2683 21.1252H25.2187V22.6272Z" fill="#C62828"/>
<path d="M13.3089 18.5306V14.5927C13.3089 14.377 13.134 14.2021 12.9182 14.2021H10.6443C10.4285 14.2021 10.2537 14.377 10.2537 14.5927V18.5306C10.2537 18.7463 10.4285 18.9212 10.6443 18.9212H12.9182C13.134 18.9212 13.3089 18.7463 13.3089 18.5306ZM12.5276 18.1399H11.0349V14.9834H12.5276V18.1399Z" fill="#C62828"/>
<path d="M14.8631 18.9212H17.137C17.3527 18.9212 17.5276 18.7463 17.5276 18.5306V12.6397C17.5276 12.4239 17.3527 12.249 17.137 12.249H14.8631C14.6473 12.249 14.4724 12.4239 14.4724 12.6397V18.5306C14.4724 18.7463 14.6473 18.9212 14.8631 18.9212ZM15.2537 13.0303H16.7463V18.1399H15.2537V13.0303Z" fill="#C62828"/>
<path d="M19.0818 18.9212H21.3558C21.5715 18.9212 21.7464 18.7463 21.7464 18.5306V10.6865C21.7464 10.4708 21.5715 10.2959 21.3558 10.2959H19.0818C18.8661 10.2959 18.6912 10.4708 18.6912 10.6865V18.5306C18.6912 18.7463 18.8661 18.9212 19.0818 18.9212ZM19.4724 11.0772H20.9652V18.14H19.4724V11.0772Z" fill="#C62828"/>
<rect x="0.5" y="0.5" width="31" height="31" rx="15.5" stroke="#C62828"/>
</svg>
