<svg width="33" height="32" viewBox="0 0 33 32" fill="none" xmlns="http://www.w3.org/2000/svg">
<rect x="1" y="0.5" width="31" height="31" rx="15.5" fill="white"/>
<path d="M22.8669 15.166C23.3819 15.166 23.5969 14.5043 23.1786 14.1993L16.8136 9.5693C16.7227 9.5027 16.6129 9.4668 16.5002 9.4668C16.3876 9.4668 16.2778 9.5027 16.1869 9.5693L9.82191 14.1993C9.40357 14.5026 9.61857 15.166 10.1352 15.166H11.1669V21.3993H9.96691C9.89357 21.3993 9.83357 21.4593 9.83357 21.5326V22.3993C9.83357 22.4726 9.89357 22.5326 9.96691 22.5326H23.0336C23.1069 22.5326 23.1669 22.4726 23.1669 22.3993V21.5326C23.1669 21.4593 23.1069 21.3993 23.0336 21.3993H21.8336V15.166H22.8669ZM14.3169 21.3993H12.3669V15.166H14.3169V21.3993ZM17.4669 21.3993H15.5169V15.166H17.4669V21.3993ZM20.6336 21.3993H18.6669V15.166H20.6336V21.3993Z" fill="#C62828"/>
<rect x="1" y="0.5" width="31" height="31" rx="15.5" stroke="#C62828"/>
</svg>
