<svg width="32" height="32" viewBox="0 0 32 32" fill="none" xmlns="http://www.w3.org/2000/svg">
<rect x="0.5" y="0.5" width="31" height="31" rx="15.5" fill="white"/>
<path d="M23.4612 15.0225C24.0647 15.0225 24.3167 14.2471 23.8265 13.8896L16.3675 8.46387C16.261 8.38582 16.1323 8.34375 16.0003 8.34375C15.8682 8.34375 15.7396 8.38582 15.6331 8.46387L8.17411 13.8896C7.68388 14.2451 7.93583 15.0225 8.5413 15.0225H9.75028V22.3271H8.34403C8.2581 22.3271 8.18778 22.3975 8.18778 22.4834V23.499C8.18778 23.585 8.2581 23.6553 8.34403 23.6553H23.6565C23.7425 23.6553 23.8128 23.585 23.8128 23.499V22.4834C23.8128 22.3975 23.7425 22.3271 23.6565 22.3271H22.2503V15.0225H23.4612ZM16.0003 9.84082L21.2952 13.6924H10.7054L16.0003 9.84082ZM11.1565 15.0225H13.4417V22.3271H11.1565V15.0225ZM14.8479 15.0225H17.1331V22.3271H14.8479V15.0225ZM20.844 22.3271H18.5393V15.0225H20.844V22.3271Z" fill="#C62828"/>
<rect x="0.5" y="0.5" width="31" height="31" rx="15.5" stroke="#C62828"/>
</svg>
