<svg width="18" height="21" viewBox="0 0 18 21" fill="none" xmlns="http://www.w3.org/2000/svg">
<path fill-rule="evenodd" clip-rule="evenodd" d="M4.37166 2.09447C5.59918 0.844068 7.26404 0.141602 9 0.141602C10.736 0.141602 12.4008 0.844068 13.6283 2.09447C14.8558 3.34487 15.5455 5.04077 15.5455 6.8091V9.30942C15.5455 10.3806 16.0013 11.0415 16.568 11.6959C16.6336 11.7715 16.7056 11.8523 16.7809 11.9367C17.0089 12.1924 17.2667 12.4815 17.4641 12.763C17.748 13.1679 18 13.6751 18 14.31C18 15.017 17.5959 15.5668 17.1097 15.9546C16.6234 16.3426 15.964 16.6483 15.2043 16.8877C13.6765 17.3692 11.542 17.6438 9 17.6438C6.45798 17.6438 4.32346 17.3692 2.7957 16.8877C2.03598 16.6483 1.37664 16.3426 0.890315 15.9546C0.404146 15.5668 0 15.017 0 14.31C0 13.6751 0.251957 13.1679 0.535923 12.763C0.733335 12.4815 0.991113 12.1924 1.21907 11.9367C1.29437 11.8523 1.36641 11.7715 1.43195 11.6959C1.99874 11.0415 2.45455 10.3806 2.45455 9.30942V6.8091C2.45455 5.04077 3.14415 3.34487 4.37166 2.09447ZM9 1.80848C7.69803 1.80848 6.44938 2.33533 5.52875 3.27313C4.60812 4.21093 4.09091 5.48285 4.09091 6.8091V9.30942C4.09091 10.9886 3.31944 12.0362 2.65896 12.7987C2.55269 12.9214 2.45616 13.0297 2.36772 13.1289C2.16516 13.3561 2.00504 13.5357 1.86749 13.7318C1.69123 13.9832 1.63636 14.1532 1.63636 14.31C1.63628 14.3139 1.63387 14.4306 1.89917 14.6423C2.16711 14.856 2.61742 15.0867 3.2793 15.2953C4.59472 15.7098 6.55111 15.9769 9 15.9769C11.4489 15.9769 13.4053 15.7098 14.7207 15.2953C15.3826 15.0867 15.8329 14.856 16.1008 14.6423C16.3661 14.4306 16.3637 14.3139 16.3636 14.3101C16.3636 14.1533 16.3088 13.9832 16.1325 13.7318C15.995 13.5357 15.8348 13.3561 15.6323 13.1289C15.5438 13.0297 15.4473 12.9214 15.341 12.7987C14.6806 12.0362 13.9091 10.9886 13.9091 9.30942V6.8091C13.9091 5.48285 13.3919 4.21093 12.4713 3.27313C11.5506 2.33533 10.302 1.80848 9 1.80848Z" fill="white"/>
<path d="M9 18.4772C8.17282 18.4772 7.39555 18.4489 6.66409 18.3939C6.82003 18.9006 7.1307 19.3434 7.55085 19.6577C7.971 19.9721 8.47869 20.1416 9 20.1416C9.52131 20.1416 10.029 19.9721 10.4492 19.6577C10.8693 19.3434 11.18 18.9006 11.3359 18.3939C10.6045 18.4489 9.82718 18.4772 9 18.4772Z" fill="white"/>
</svg>
