<svg width="32" height="32" viewBox="0 0 32 32" fill="none" xmlns="http://www.w3.org/2000/svg">
<rect x="0.5" y="0.5" width="31" height="31" rx="15.5" fill="white"/>
<path d="M20.5 19.06C19.93 19.06 19.42 19.285 19.03 19.6375L13.6825 16.525C13.72 16.3525 13.75 16.18 13.75 16C13.75 15.82 13.72 15.6475 13.6825 15.475L18.97 12.3925C19.375 12.7675 19.9075 13 20.5 13C21.745 13 22.75 11.995 22.75 10.75C22.75 9.505 21.745 8.5 20.5 8.5C19.255 8.5 18.25 9.505 18.25 10.75C18.25 10.93 18.28 11.1025 18.3175 11.275L13.03 14.3575C12.625 13.9825 12.0925 13.75 11.5 13.75C10.255 13.75 9.25 14.755 9.25 16C9.25 17.245 10.255 18.25 11.5 18.25C12.0925 18.25 12.625 18.0175 13.03 17.6425L18.37 20.7625C18.3325 20.92 18.31 21.085 18.31 21.25C18.31 22.4575 19.2925 23.44 20.5 23.44C21.7075 23.44 22.69 22.4575 22.69 21.25C22.69 20.0425 21.7075 19.06 20.5 19.06ZM20.5 10C20.9125 10 21.25 10.3375 21.25 10.75C21.25 11.1625 20.9125 11.5 20.5 11.5C20.0875 11.5 19.75 11.1625 19.75 10.75C19.75 10.3375 20.0875 10 20.5 10ZM11.5 16.75C11.0875 16.75 10.75 16.4125 10.75 16C10.75 15.5875 11.0875 15.25 11.5 15.25C11.9125 15.25 12.25 15.5875 12.25 16C12.25 16.4125 11.9125 16.75 11.5 16.75ZM20.5 22.015C20.0875 22.015 19.75 21.6775 19.75 21.265C19.75 20.8525 20.0875 20.515 20.5 20.515C20.9125 20.515 21.25 20.8525 21.25 21.265C21.25 21.6775 20.9125 22.015 20.5 22.015Z" fill="#C62828"/>
<rect x="0.5" y="0.5" width="31" height="31" rx="15.5" stroke="#C62828"/>
</svg>
