<svg width="32" height="32" viewBox="0 0 32 32" fill="none" xmlns="http://www.w3.org/2000/svg">
<rect x="0.5" y="0.5" width="31" height="31" rx="15.5" fill="white"/>
<path d="M21.6889 11.7337H16L14.5778 10.3115H10.3111C9.52892 10.3115 8.89603 10.9515 8.89603 11.7337L8.88892 20.2671C8.88892 21.0493 9.52892 21.6893 10.3111 21.6893H22.2365C22.72 21.6893 23.1111 21.2911 23.1111 20.8146V13.156C23.1111 12.3737 22.4711 11.7337 21.6889 11.7337ZM21.6889 20.2671H10.3111V11.7337H13.9876L15.4098 13.156H21.6889V20.2671ZM20.2667 16.0004H11.7334V14.5782H20.2667V16.0004ZM17.4222 18.8449H11.7334V17.4226H17.4222V18.8449Z" fill="#C62828"/>
<rect x="0.5" y="0.5" width="31" height="31" rx="15.5" stroke="#C62828"/>
</svg>
