<svg width="160" height="159" viewBox="0 0 160 159" fill="none" xmlns="http://www.w3.org/2000/svg">
<g clip-path="url(#clip0_2925_38452)">
<path d="M156.5 121.604H0.5V121.683H156.5V121.604Z" fill="#EC1E24"/>
<path d="M156.5 121.604H0.5V121.683H156.5V121.604Z" fill="white" fill-opacity="0.7"/>
<path d="M48.0801 123.525H44.8103V123.605H48.0801V123.525Z" fill="#EC1E24"/>
<path d="M48.0801 123.525H44.8103V123.605H48.0801V123.525Z" fill="white" fill-opacity="0.7"/>
<path d="M145.948 125.611H140.379V125.691H145.948V125.611Z" fill="#EC1E24"/>
<path d="M145.948 125.611H140.379V125.691H145.948V125.611Z" fill="white" fill-opacity="0.7"/>
<path d="M119.65 123.562H101.195V123.642H119.65V123.562Z" fill="#EC1E24"/>
<path d="M119.65 123.562H101.195V123.642H119.65V123.562Z" fill="white" fill-opacity="0.7"/>
<path d="M73.4737 125.375H59.3557V125.454H73.4737V125.375Z" fill="#EC1E24"/>
<path d="M73.4737 125.375H59.3557V125.454H73.4737V125.375Z" fill="white" fill-opacity="0.7"/>
<path d="M44.0802 124.873H39.188V124.953H44.0802V124.873Z" fill="#EC1E24"/>
<path d="M44.0802 124.873H39.188V124.953H44.0802V124.873Z" fill="white" fill-opacity="0.7"/>
<path d="M133.518 125.375H126.479V125.454H133.518V125.375Z" fill="#EC1E24"/>
<path d="M133.518 125.375H126.479V125.454H133.518V125.375Z" fill="white" fill-opacity="0.7"/>
<path d="M37.3689 124.834H20.7581V124.913H37.3689V124.834Z" fill="#EC1E24"/>
<path d="M37.3689 124.834H20.7581V124.913H37.3689V124.834Z" fill="white" fill-opacity="0.7"/>
<path d="M74.4471 107.421H14.203C13.2202 107.421 12.4215 106.607 12.4215 105.605V19.2904C12.4215 18.2887 13.2202 17.4746 14.203 17.4746H74.4502C75.433 17.4746 76.2317 18.2887 76.2317 19.2904V105.605C76.2286 106.607 75.4299 107.421 74.4471 107.421ZM14.203 17.5541C13.2639 17.5541 12.4995 18.3332 12.4995 19.2904V105.605C12.4995 106.562 13.2639 107.341 14.203 107.341H74.4502C75.3893 107.341 76.1537 106.562 76.1537 105.605V19.2904C76.1537 18.3332 75.3893 17.5541 74.4502 17.5541H14.203Z" fill="#EC1E24"/>
<path d="M74.4471 107.421H14.203C13.2202 107.421 12.4215 106.607 12.4215 105.605V19.2904C12.4215 18.2887 13.2202 17.4746 14.203 17.4746H74.4502C75.433 17.4746 76.2317 18.2887 76.2317 19.2904V105.605C76.2286 106.607 75.4299 107.421 74.4471 107.421ZM14.203 17.5541C13.2639 17.5541 12.4995 18.3332 12.4995 19.2904V105.605C12.4995 106.562 13.2639 107.341 14.203 107.341H74.4502C75.3893 107.341 76.1537 106.562 76.1537 105.605V19.2904C76.1537 18.3332 75.3893 17.5541 74.4502 17.5541H14.203Z" fill="white" fill-opacity="0.7"/>
<path d="M141.933 107.421H81.6856C80.7028 107.421 79.9041 106.607 79.9041 105.605V19.2904C79.9041 18.2887 80.7028 17.4746 81.6856 17.4746H141.933C142.916 17.4746 143.714 18.2887 143.714 19.2904V105.605C143.714 106.607 142.916 107.421 141.933 107.421ZM81.6856 17.5541C80.7464 17.5541 79.9821 18.3332 79.9821 19.2904V105.605C79.9821 106.562 80.7464 107.341 81.6856 107.341H141.933C142.872 107.341 143.636 106.562 143.636 105.605V19.2904C143.636 18.3332 142.872 17.5541 141.933 17.5541H81.6856Z" fill="#EC1E24"/>
<path d="M141.933 107.421H81.6856C80.7028 107.421 79.9041 106.607 79.9041 105.605V19.2904C79.9041 18.2887 80.7028 17.4746 81.6856 17.4746H141.933C142.916 17.4746 143.714 18.2887 143.714 19.2904V105.605C143.714 106.607 142.916 107.421 141.933 107.421ZM81.6856 17.5541C80.7464 17.5541 79.9821 18.3332 79.9821 19.2904V105.605C79.9821 106.562 80.7464 107.341 81.6856 107.341H141.933C142.872 107.341 143.636 106.562 143.636 105.605V19.2904C143.636 18.3332 142.872 17.5541 141.933 17.5541H81.6856Z" fill="white" fill-opacity="0.7"/>
<path d="M24.6966 86.9961H64.0835L64.0835 26.9132L24.6966 26.9132L24.6966 86.9961Z" fill="#EC1E24"/>
<path d="M24.6966 86.9961H64.0835L64.0835 26.9132L24.6966 26.9132L24.6966 86.9961Z" fill="white" fill-opacity="0.7"/>
<path d="M23.8228 86.9961H63.2097L63.2097 26.9132L23.8228 26.9132L23.8228 86.9961Z" fill="#EC1E24"/>
<path d="M23.8228 86.9961H63.2097L63.2097 26.9132L23.8228 26.9132L23.8228 86.9961Z" fill="white" fill-opacity="0.7"/>
<path d="M61.637 85.1992L61.637 28.7129L25.3919 28.7129L25.3919 85.1992H61.637Z" fill="white"/>
<path d="M26.0557 85.1973L26.0557 28.7109H25.3942L25.3942 85.1973H26.0557Z" fill="#EC1E24"/>
<path d="M26.0557 85.1973L26.0557 28.7109H25.3942L25.3942 85.1973H26.0557Z" fill="white" fill-opacity="0.7"/>
<path d="M24.4718 70.084H62.5576V67.6704H24.4718V70.084Z" fill="#EC1E24"/>
<path d="M24.4718 70.084H62.5576V67.6704H24.4718V70.084Z" fill="white" fill-opacity="0.7"/>
<path d="M22.1091 23.9355H65.7953C65.9295 23.9355 66.0387 24.0468 66.0387 24.1836C66.0387 24.3203 65.9295 24.4316 65.7953 24.4316H22.1091C21.9749 24.4316 21.8657 24.3203 21.8657 24.1836C21.8688 24.0468 21.978 23.9355 22.1091 23.9355Z" fill="#EC1E24"/>
<path d="M22.1091 23.9355H65.7953C65.9295 23.9355 66.0387 24.0468 66.0387 24.1836C66.0387 24.3203 65.9295 24.4316 65.7953 24.4316H22.1091C21.9749 24.4316 21.8657 24.3203 21.8657 24.1836C21.8688 24.0468 21.978 23.9355 22.1091 23.9355Z" fill="white" fill-opacity="0.7"/>
<path d="M20.6582 24.1811C20.6582 24.8616 21.2011 25.4149 21.8688 25.4149C22.5364 25.4149 23.0793 24.8616 23.0793 24.1811C23.0793 23.5006 22.5364 22.9473 21.8688 22.9473C21.2011 22.9504 20.6582 23.5006 20.6582 24.1811Z" fill="#EC1E24"/>
<path d="M20.6582 24.1811C20.6582 24.8616 21.2011 25.4149 21.8688 25.4149C22.5364 25.4149 23.0793 24.8616 23.0793 24.1811C23.0793 23.5006 22.5364 22.9473 21.8688 22.9473C21.2011 22.9504 20.6582 23.5006 20.6582 24.1811Z" fill="white" fill-opacity="0.7"/>
<path d="M63.758 25.561C63.939 25.561 64.0856 25.4116 64.0856 25.2271V24.5116C64.0856 24.3272 63.939 24.1777 63.758 24.1777C63.5771 24.1777 63.4304 24.3272 63.4304 24.5116V25.2271C63.4304 25.4116 63.5771 25.561 63.758 25.561Z" fill="#EC1E24"/>
<path d="M63.758 25.561C63.939 25.561 64.0856 25.4116 64.0856 25.2271V24.5116C64.0856 24.3272 63.939 24.1777 63.758 24.1777C63.5771 24.1777 63.4304 24.3272 63.4304 24.5116V25.2271C63.4304 25.4116 63.5771 25.561 63.758 25.561Z" fill="white" fill-opacity="0.7"/>
<path d="M25.7563 25.561C25.9373 25.561 26.0839 25.4116 26.0839 25.2271V24.5116C26.0839 24.3272 25.9373 24.1777 25.7563 24.1777C25.5753 24.1777 25.4287 24.3272 25.4287 24.5116V25.2271C25.4318 25.4116 25.5785 25.561 25.7563 25.561Z" fill="#EC1E24"/>
<path d="M25.7563 25.561C25.9373 25.561 26.0839 25.4116 26.0839 25.2271V24.5116C26.0839 24.3272 25.9373 24.1777 25.7563 24.1777C25.5753 24.1777 25.4287 24.3272 25.4287 24.5116V25.2271C25.4318 25.4116 25.5785 25.561 25.7563 25.561Z" fill="white" fill-opacity="0.7"/>
<g opacity="0.4">
<path d="M22.1863 36.541L62.5591 36.541V24.1804L22.1863 24.1804V36.541Z" fill="#D6336C"/>
<path d="M22.1863 36.541L62.5591 36.541V24.1804L22.1863 24.1804V36.541Z" fill="white" fill-opacity="0.8"/>
</g>
<path d="M58.6597 24.1811C58.6597 24.8616 59.2025 25.4149 59.8702 25.4149C60.5379 25.4149 61.0808 24.8616 61.0808 24.1811C61.0808 23.5006 60.5379 22.9473 59.8702 22.9473C59.1994 22.9504 58.6597 23.5006 58.6597 24.1811Z" fill="#EC1E24"/>
<path d="M58.6597 24.1811C58.6597 24.8616 59.2025 25.4149 59.8702 25.4149C60.5379 25.4149 61.0808 24.8616 61.0808 24.1811C61.0808 23.5006 60.5379 22.9473 59.8702 22.9473C59.1994 22.9504 58.6597 23.5006 58.6597 24.1811Z" fill="white" fill-opacity="0.7"/>
<path d="M123.025 119.971H134.419V94.2254H123.025V119.971Z" fill="#D63939"/>
<path d="M123.025 119.971H134.419V94.2254H123.025V119.971Z" fill="white" fill-opacity="0.8"/>
<path d="M76.0475 121.602H132.232V119.97H76.0475V121.602Z" fill="#D63939"/>
<path d="M76.0475 121.602H132.232V119.97H76.0475V121.602Z" fill="white" fill-opacity="0.8"/>
<path d="M123.025 94.2266H73.8574V119.972H123.025V94.2266Z" fill="#EC1E24"/>
<path d="M123.025 94.2266H73.8574V119.972H123.025V94.2266Z" fill="white" fill-opacity="0.7"/>
<path d="M118.548 97.3945H78.3376V105.837H118.548V97.3945Z" fill="#D63939"/>
<path d="M118.548 97.3945H78.3376V105.837H118.548V97.3945Z" fill="white" fill-opacity="0.8"/>
<path d="M118.548 108.357H78.3376V116.8H118.548V108.357Z" fill="#D63939"/>
<path d="M118.548 108.357H78.3376V116.8H118.548V108.357Z" fill="white" fill-opacity="0.8"/>
<path d="M93.3199 102.195H103.566C103.841 102.195 104.068 101.966 104.068 101.683V101.549C104.068 101.269 103.844 101.037 103.566 101.037H93.3199C93.0454 101.037 92.8176 101.266 92.8176 101.549V101.683C92.8176 101.962 93.0423 102.195 93.3199 102.195Z" fill="#EC1E24"/>
<path d="M93.3199 102.195H103.566C103.841 102.195 104.068 101.966 104.068 101.683V101.549C104.068 101.269 103.844 101.037 103.566 101.037H93.3199C93.0454 101.037 92.8176 101.266 92.8176 101.549V101.683C92.8176 101.962 93.0423 102.195 93.3199 102.195Z" fill="white" fill-opacity="0.7"/>
<path d="M93.3199 113.159H103.566C103.841 113.159 104.068 112.931 104.068 112.647V112.514C104.068 112.234 103.844 112.002 103.566 112.002H93.3199C93.0454 112.002 92.8176 112.231 92.8176 112.514V112.647C92.8176 112.927 93.0423 113.159 93.3199 113.159Z" fill="#EC1E24"/>
<path d="M93.3199 113.159H103.566C103.841 113.159 104.068 112.931 104.068 112.647V112.514C104.068 112.234 103.844 112.002 103.566 112.002H93.3199C93.0454 112.002 92.8176 112.231 92.8176 112.514V112.647C92.8176 112.927 93.0423 113.159 93.3199 113.159Z" fill="white" fill-opacity="0.7"/>
<path d="M109.488 90.3454C110.828 89.9809 111.624 88.5781 111.267 87.2121C110.909 85.8461 109.533 85.0342 108.193 85.3987C106.852 85.7631 106.056 87.166 106.413 88.532C106.771 89.898 108.147 90.7099 109.488 90.3454Z" fill="#EC1E24"/>
<path d="M109.488 90.3454C110.828 89.9809 111.624 88.5781 111.267 87.2121C110.909 85.8461 109.533 85.0342 108.193 85.3987C106.852 85.7631 106.056 87.166 106.413 88.532C106.771 89.898 108.147 90.7099 109.488 90.3454Z" fill="white" fill-opacity="0.7"/>
<path d="M106.666 89.2007C107.647 88.201 107.647 86.5802 106.666 85.5805C105.685 84.5808 104.095 84.5808 103.114 85.5805C102.133 86.5802 102.133 88.201 103.114 89.2007C104.095 90.2004 105.685 90.2004 106.666 89.2007Z" fill="#EC1E24"/>
<path d="M106.666 89.2007C107.647 88.201 107.647 86.5802 106.666 85.5805C105.685 84.5808 104.095 84.5808 103.114 85.5805C102.133 86.5802 102.133 88.201 103.114 89.2007C104.095 90.2004 105.685 90.2004 106.666 89.2007Z" fill="white" fill-opacity="0.7"/>
<path d="M92.7489 91.1335C94.136 91.1335 95.2605 89.9874 95.2605 88.5736C95.2605 87.1598 94.136 86.0137 92.7489 86.0137C91.3618 86.0137 90.2373 87.1598 90.2373 88.5736C90.2373 89.9874 91.3618 91.1335 92.7489 91.1335Z" fill="#EC1E24"/>
<path d="M92.7489 91.1335C94.136 91.1335 95.2605 89.9874 95.2605 88.5736C95.2605 87.1598 94.136 86.0137 92.7489 86.0137C91.3618 86.0137 90.2373 87.1598 90.2373 88.5736C90.2373 89.9874 91.3618 91.1335 92.7489 91.1335Z" fill="white" fill-opacity="0.7"/>
<path d="M99.6284 92.275C100.998 92.0479 101.927 90.7326 101.704 89.3372C101.481 87.9418 100.191 86.9946 98.8217 87.2217C97.4526 87.4487 96.5234 88.764 96.7461 90.1594C96.9689 91.5549 98.2594 92.502 99.6284 92.275Z" fill="#EC1E24"/>
<path d="M99.6284 92.275C100.998 92.0479 101.927 90.7326 101.704 89.3372C101.481 87.9418 100.191 86.9946 98.8217 87.2217C97.4526 87.4487 96.5234 88.764 96.7461 90.1594C96.9689 91.5549 98.2594 92.502 99.6284 92.275Z" fill="white" fill-opacity="0.7"/>
<path d="M116.137 88.3379C116.137 88.3379 115.731 94.2273 100.144 94.2273C84.556 94.2273 84.1504 88.3379 84.1504 88.3379H116.137Z" fill="#D63939"/>
<path d="M116.137 88.3379C116.137 88.3379 115.731 94.2273 100.144 94.2273C84.556 94.2273 84.1504 88.3379 84.1504 88.3379H116.137Z" fill="white" fill-opacity="0.8"/>
<path d="M57.3667 120.012H63.0544V94.8706H57.3667V120.012Z" fill="#D63939"/>
<path d="M57.3667 120.012H63.0544V94.8706H57.3667V120.012Z" fill="white" fill-opacity="0.8"/>
<path d="M25.0705 121.604H61.9614V120.01H25.0705V121.604Z" fill="#D63939"/>
<path d="M25.0705 121.604H61.9614V120.01H25.0705V121.604Z" fill="white" fill-opacity="0.8"/>
<path d="M57.3649 94.8691H23.9778V120.01H57.3649V94.8691Z" fill="#EC1E24"/>
<path d="M57.3649 94.8691H23.9778V120.01H57.3649V94.8691Z" fill="white" fill-opacity="0.7"/>
<path d="M55.131 97.9629H26.2148V106.209H55.131V97.9629Z" fill="#D63939"/>
<path d="M55.131 97.9629H26.2148V106.209H55.131V97.9629Z" fill="white" fill-opacity="0.8"/>
<path d="M55.131 108.67H26.2148V116.916H55.131V108.67Z" fill="#D63939"/>
<path d="M55.131 108.67H26.2148V116.916H55.131V108.67Z" fill="white" fill-opacity="0.8"/>
<path d="M36.2924 98.972H45.0502C45.643 98.972 46.1298 98.4791 46.1298 97.8718C46.1298 97.2676 45.6462 96.7715 45.0502 96.7715H36.2924C35.6996 96.7715 35.2129 97.2644 35.2129 97.8718C35.216 98.4791 35.6996 98.972 36.2924 98.972Z" fill="#EC1E24"/>
<path d="M36.2924 98.972H45.0502C45.643 98.972 46.1298 98.4791 46.1298 97.8718C46.1298 97.2676 45.6462 96.7715 45.0502 96.7715H36.2924C35.6996 96.7715 35.2129 97.2644 35.2129 97.8718C35.216 98.4791 35.6996 98.972 36.2924 98.972Z" fill="white" fill-opacity="0.7"/>
<path d="M36.2924 109.678H45.0502C45.643 109.678 46.1298 109.185 46.1298 108.581C46.1298 107.977 45.6462 107.48 45.0502 107.48H36.2924C35.6996 107.48 35.2129 107.973 35.2129 108.581C35.216 109.182 35.6996 109.678 36.2924 109.678Z" fill="#EC1E24"/>
<path d="M36.2924 109.678H45.0502C45.643 109.678 46.1298 109.185 46.1298 108.581C46.1298 107.977 45.6462 107.48 45.0502 107.48H36.2924C35.6996 107.48 35.2129 107.973 35.2129 108.581C35.216 109.182 35.6996 109.678 36.2924 109.678Z" fill="white" fill-opacity="0.7"/>
<path d="M87.7495 66.3281H104.08V32.4484H87.7495V66.3281Z" fill="#EC1E24"/>
<path d="M87.7495 66.3281H104.08V32.4484H87.7495V66.3281Z" fill="white" fill-opacity="0.7"/>
<path d="M86.4386 66.3281H103.727V32.4484H86.4386V66.3281Z" fill="#EC1E24"/>
<path d="M86.4386 66.3281H103.727V32.4484H86.4386V66.3281Z" fill="white" fill-opacity="0.7"/>
<path d="M101.211 63.7653V35.0117H88.9529V63.7653H101.211Z" fill="white"/>
<path d="M125.743 60.9766H134.685V50.4762H125.743V60.9766Z" fill="#D63939"/>
<path d="M125.743 60.9766H134.685V50.4762H125.743V60.9766Z" fill="white" fill-opacity="0.8"/>
<path d="M123.934 60.9766H133.625V50.4762H123.934V60.9766Z" fill="#EC1E24"/>
<path d="M123.934 60.9766H133.625V50.4762H123.934V60.9766Z" fill="white" fill-opacity="0.7"/>
<path d="M132.813 60.1502V51.3066H124.748V60.1502H132.813Z" fill="white"/>
<path d="M130.857 57.2811V54.1743C130.857 53.7736 130.538 53.4492 130.145 53.4492H127.412C127.019 53.4492 126.701 53.7736 126.701 54.1743V57.2811C126.701 57.6818 127.019 58.0062 127.412 58.0062H130.145C130.538 58.0062 130.857 57.6786 130.857 57.2811Z" fill="#EC1E24"/>
<path d="M130.857 57.2811V54.1743C130.857 53.7736 130.538 53.4492 130.145 53.4492H127.412C127.019 53.4492 126.701 53.7736 126.701 54.1743V57.2811C126.701 57.6818 127.019 58.0062 127.412 58.0062H130.145C130.538 58.0062 130.857 57.6786 130.857 57.2811Z" fill="white" fill-opacity="0.7"/>
<path d="M118.536 46.3672H127.478V35.8668H118.536V46.3672Z" fill="#D63939"/>
<path d="M118.536 46.3672H127.478V35.8668H118.536V46.3672Z" fill="white" fill-opacity="0.8"/>
<path d="M116.728 46.3672H126.418V35.8668H116.728V46.3672Z" fill="#EC1E24"/>
<path d="M116.728 46.3672H126.418V35.8668H116.728V46.3672Z" fill="white" fill-opacity="0.7"/>
<path d="M125.608 45.5389V36.6953H117.543V45.5389H125.608Z" fill="white"/>
<path d="M123.652 42.6717V39.5649C123.652 39.1642 123.334 38.8398 122.941 38.8398H120.208C119.815 38.8398 119.497 39.1642 119.497 39.5649V42.6717C119.497 43.0724 119.815 43.3968 120.208 43.3968H122.941C123.334 43.3968 123.652 43.0692 123.652 42.6717Z" fill="#EC1E24"/>
<path d="M123.652 42.6717V39.5649C123.652 39.1642 123.334 38.8398 122.941 38.8398H120.208C119.815 38.8398 119.497 39.1642 119.497 39.5649V42.6717C119.497 43.0724 119.815 43.3968 120.208 43.3968H122.941C123.334 43.3968 123.652 43.0692 123.652 42.6717Z" fill="white" fill-opacity="0.7"/>
<path d="M78.5 135.963C111.91 135.963 138.994 134.352 138.994 132.363C138.994 130.375 111.91 128.764 78.5 128.764C45.0903 128.764 18.0063 130.375 18.0063 132.363C18.0063 134.352 45.0903 135.963 78.5 135.963Z" fill="#D6336C"/>
<path d="M78.5 135.963C111.91 135.963 138.994 134.352 138.994 132.363C138.994 130.375 111.91 128.764 78.5 128.764C45.0903 128.764 18.0063 130.375 18.0063 132.363C18.0063 134.352 45.0903 135.963 78.5 135.963Z" fill="white" fill-opacity="0.8"/>
<path d="M102.081 40.1855H34.7172V107.414H102.081V40.1855Z" fill="#C62828"/>
<path d="M100.353 42.3359H36.4518V107.415H100.353V42.3359Z" fill="white"/>
<path d="M102.081 106.467V107.415H68.1324L75.4707 99.9419L85.5732 89.6387L102.081 106.467Z" fill="#C62828"/>
<path d="M34.7172 107.414V100.952L55.59 79.6777L82.8026 107.414H34.7172Z" fill="#C62828"/>
<path d="M79.508 72.2742C85.2046 72.2742 89.8227 67.5673 89.8227 61.7611C89.8227 55.9549 85.2046 51.248 79.508 51.248C73.8113 51.248 69.1932 55.9549 69.1932 61.7611C69.1932 67.5673 73.8113 72.2742 79.508 72.2742Z" fill="#C62828"/>
<path d="M114.256 43.6679L114.226 43.9844L116.455 44.2063L116.486 43.8898L114.256 43.6679Z" fill="#EC1E24"/>
<path d="M114.256 43.6679L114.226 43.9844L116.455 44.2063L116.486 43.8898L114.256 43.6679Z" fill="white" fill-opacity="0.4"/>
<path d="M106.668 42.9101L106.638 43.2266L112.094 43.7696L112.124 43.4531L106.668 42.9101Z" fill="#EC1E24"/>
<path d="M106.668 42.9101L106.638 43.2266L112.094 43.7696L112.124 43.4531L106.668 42.9101Z" fill="white" fill-opacity="0.4"/>
<path d="M54.6912 38.8552L48.2799 105.768L115.327 112.441L121.739 45.5289L54.6912 38.8552Z" fill="#EC1E24"/>
<path d="M54.6912 38.8552L48.2799 105.768L115.327 112.441L121.739 45.5289L54.6912 38.8552Z" fill="white" fill-opacity="0.4"/>
<path d="M56.2135 41.1666L50.0072 105.939L113.608 112.27L119.814 47.4972L56.2135 41.1666Z" fill="white"/>
<path d="M115.413 111.499L115.322 112.443L81.5359 109.079L89.5512 102.369L100.587 93.1152L115.413 111.499Z" fill="#EC1E24"/>
<path d="M115.413 111.499L115.322 112.443L81.5359 109.079L89.5512 102.369L100.587 93.1152L115.413 111.499Z" fill="white" fill-opacity="0.4"/>
<path d="M48.2798 105.77L48.8944 99.3398L71.6985 80.2344L96.1343 110.533L48.2798 105.77Z" fill="#EC1E24"/>
<path d="M48.2798 105.77L48.8944 99.3398L71.6985 80.2344L96.1343 110.533L48.2798 105.77Z" fill="white" fill-opacity="0.4"/>
<path d="M106.655 68.9887C108.942 63.6708 106.566 57.4704 101.349 55.1398C96.1309 52.8092 90.0476 55.2309 87.7609 60.5488C85.4743 65.8667 87.8503 72.0671 93.0679 74.3977C98.2854 76.7283 104.369 74.3066 106.655 68.9887Z" fill="#EC1E24"/>
<path d="M106.655 68.9887C108.942 63.6708 106.566 57.4704 101.349 55.1398C96.1309 52.8092 90.0476 55.2309 87.7609 60.5488C85.4743 65.8667 87.8503 72.0671 93.0679 74.3977C98.2854 76.7283 104.369 74.3066 106.655 68.9887Z" fill="white" fill-opacity="0.4"/>
<path d="M91.8422 47.7461L24.6198 52.2227L28.9203 119.31L96.1428 114.833L91.8422 47.7461Z" fill="#D63939"/>
<path d="M90.2516 50.0055L26.4851 54.252L30.6482 119.194L94.4147 114.948L90.2516 50.0055Z" fill="white"/>
<path d="M96.0749 113.888L96.1342 114.832L62.2604 117.087L69.1025 109.143L78.5249 98.1914L96.0749 113.888Z" fill="#D63939"/>
<path d="M28.9139 119.308L28.5021 112.862L47.9678 90.2461L76.8964 116.115L28.9139 119.308Z" fill="#D63939"/>
<path d="M77.9843 78.2151C82.0124 74.1095 82.0124 67.453 77.9843 63.3474C73.9561 59.2419 67.4253 59.2419 63.3972 63.3474C59.3691 67.453 59.3691 74.1095 63.3972 78.2151C67.4253 82.3206 73.9561 82.3206 77.9843 78.2151Z" fill="#D63939"/>
</g>
<defs>
<clipPath id="clip0_2925_38452">
<rect x="0.5" width="159" height="159" rx="8" fill="white"/>
</clipPath>
</defs>
</svg>
