<svg width="434" height="321" viewBox="0 0 434 321" fill="none" xmlns="http://www.w3.org/2000/svg">
<path d="M433.48 261.582C431.3 269.232 429.28 276.922 425.18 283.872C411.16 307.622 390.26 320.382 362.82 320.572C298.77 321.022 234.71 320.902 170.65 320.622C143.9 320.502 122.54 308.752 104.74 288.992C73.69 254.522 42.12 220.522 10.67 186.412C5.2 180.482 2.32 173.392 0 165.912C0 162.522 0 159.142 0 155.752C2.06 143.302 10.27 134.712 18.38 125.942C48.82 93.0117 79.09 59.9117 109.53 26.9817C125.96 9.20174 146.65 0.301744 170.65 0.191744C234.71 -0.0982564 298.77 -0.0182562 362.83 0.161744C397.41 0.261744 426.07 24.2817 432.83 58.2117C432.9 58.5817 433.26 58.9017 433.48 59.2417C433.48 126.682 433.48 194.132 433.48 261.582Z" fill="#C62828"/>
<path d="M266.31 298.022C233.44 298.022 200.57 298.242 167.71 297.932C151.18 297.772 137.13 290.922 125.99 278.882C92.8598 243.072 59.9698 207.052 26.9998 171.092C20.8498 164.382 20.9498 156.252 27.0998 149.552C59.9098 113.832 92.6398 78.0417 125.53 42.3917C137.79 29.1017 153.2 22.5317 171.29 22.5217C234.91 22.4917 298.53 22.4317 362.15 22.5617C386.69 22.6117 405.27 37.6317 410.96 61.5617C411.84 65.2517 412.17 69.0517 412.17 72.8617C412.16 131.262 412.19 189.662 412.15 248.062C412.14 273.242 395.22 293.382 370.39 297.732C367.23 298.282 363.92 298.112 360.68 298.122C329.22 298.142 297.77 298.132 266.31 298.132C266.31 298.102 266.31 298.062 266.31 298.022Z" fill="#FEFEFE"/>
<path d="M273.65 160.282C287.44 174.122 301.09 187.802 314.71 201.502C320.27 207.102 320.62 213.242 315.75 218.132C310.98 222.922 304.34 222.612 298.95 217.232C285.28 203.592 271.64 189.902 257.81 176.062C244.04 189.852 230.31 203.562 216.63 217.332C213.78 220.202 210.54 221.842 206.47 221.342C202.04 220.792 198.87 218.352 197.39 214.162C195.8 209.642 196.9 205.562 200.28 202.172C210.73 191.682 221.23 181.242 231.68 170.752C235.12 167.302 238.48 163.762 241.88 160.262C238.5 156.862 235.13 153.452 231.75 150.062C221.39 139.682 211.03 129.302 200.64 118.952C197.14 115.462 195.77 111.362 197.38 106.652C198.81 102.452 202.03 100.012 206.39 99.3317C210.47 98.7017 213.69 100.472 216.53 103.322C230.24 117.122 243.99 130.872 257.78 144.692C271.73 130.732 285.58 116.862 299.44 103.012C302.78 99.6717 306.7 98.2517 311.34 99.8517C315.55 101.302 318.04 104.322 318.79 108.702C319.53 112.982 317.68 116.282 314.74 119.222C301.05 132.862 287.4 146.542 273.65 160.282Z" fill="#C62828"/>
</svg>
