<svg width="20" height="20" viewBox="0 0 20 20" fill="none" xmlns="http://www.w3.org/2000/svg">
<path d="M20 10C19.9971 7.34871 18.9426 4.80684 17.0679 2.9321C15.1932 1.05736 12.6514 0.00286757 10.0002 0C9.77917 0 9.56721 0.0877974 9.41093 0.244078C9.25465 0.400358 9.16686 0.612319 9.16686 0.833333C9.16686 1.05435 9.25465 1.26631 9.41093 1.42259C9.56721 1.57887 9.77917 1.66667 10.0002 1.66667C11.5774 1.66656 13.1222 2.11407 14.4552 2.95718C15.7882 3.80029 16.8545 5.00438 17.5303 6.42952C18.206 7.85466 18.4635 9.44231 18.2727 11.008C18.0819 12.5736 17.4508 14.053 16.4525 15.2742L14.4526 13.2742L13.6018 19.2325L19.5592 18.3808L17.6317 16.4533C19.1648 14.6531 20.0046 12.3646 20 10Z" fill="#C62828"/>
<path d="M10.0002 18.3333C8.42296 18.3334 6.87811 17.8859 5.54514 17.0428C4.21218 16.1997 3.14585 14.9956 2.47008 13.5705C1.79432 12.1453 1.53686 10.5577 1.72763 8.99202C1.91841 7.42636 2.54958 5.94699 3.5478 4.72583L5.54776 6.72583L6.39858 0.7675L0.441194 1.61917L2.36866 3.54667C1.13598 5.0016 0.345312 6.77885 0.0899889 8.66861C-0.165334 10.5584 0.12535 12.4817 0.927726 14.2116C1.7301 15.9415 3.01067 17.4057 4.61824 18.4314C6.22582 19.4571 8.09328 20.0013 10.0002 20C10.2212 20 10.4331 19.9122 10.5894 19.7559C10.7457 19.5996 10.8335 19.3877 10.8335 19.1667C10.8335 18.9456 10.7457 18.7337 10.5894 18.5774C10.4331 18.4211 10.2212 18.3333 10.0002 18.3333Z" fill="#C62828"/>
<path d="M13.3193 11.845C13.3272 12.1602 13.265 12.4733 13.1372 12.7615C13.0094 13.0497 12.8191 13.306 12.5801 13.5117C11.9699 13.9961 11.2241 14.2789 10.446 14.3208V15.8333H9.51935V14.3617C8.54727 14.3793 7.58171 14.1995 6.68107 13.8333V12.3608C7.12994 12.573 7.59969 12.7377 8.08271 12.8525C8.55215 12.9758 9.03418 13.0449 9.51935 13.0583V10.45L8.93603 10.2333C8.30249 10.0238 7.72918 9.66378 7.26523 9.18417C6.90856 8.76375 6.72033 8.22608 6.7369 7.675C6.73085 7.37104 6.79544 7.06983 6.92559 6.79508C7.05573 6.52033 7.24787 6.27954 7.48689 6.09167C8.07498 5.64499 8.78291 5.38386 9.52018 5.34167V4.16667H10.4468V5.3175C11.3689 5.34542 12.2783 5.53906 13.1318 5.88917L12.6218 7.16667C11.9264 6.88696 11.193 6.71308 10.446 6.65083V9.18917L10.976 9.39167C11.6592 9.6093 12.2854 9.97622 12.8093 10.4658C13.1493 10.8434 13.3318 11.337 13.3193 11.845ZM8.37521 7.66083C8.36841 7.90566 8.45821 8.14333 8.6252 8.3225C8.88451 8.55731 9.18987 8.73554 9.52185 8.84583V6.67917C9.21111 6.70914 8.91551 6.82773 8.6702 7.02083C8.5766 7.09891 8.50155 7.19686 8.45053 7.30756C8.3995 7.41827 8.37377 7.53894 8.37521 7.66083ZM11.6735 11.9492C11.6772 11.8243 11.6539 11.7 11.6051 11.5849C11.5563 11.4699 11.4833 11.3667 11.391 11.2825C11.1103 11.0564 10.7898 10.8848 10.446 10.7767V13C11.2643 12.8761 11.6735 12.5258 11.6735 11.9492Z" fill="#C62828"/>
</svg>
