<svg width="68" height="68" viewBox="0 0 68 68" fill="none" xmlns="http://www.w3.org/2000/svg">
<path d="M34.0003 0.666687C15.6003 0.666687 0.666992 15.6 0.666992 34C0.666992 52.4 15.6003 67.3334 34.0003 67.3334C52.4003 67.3334 67.3337 52.4 67.3337 34C67.3337 15.6 52.4003 0.666687 34.0003 0.666687ZM34.0003 10.6667C39.5337 10.6667 44.0003 15.1334 44.0003 20.6667C44.0003 26.2 39.5337 30.6667 34.0003 30.6667C28.467 30.6667 24.0003 26.2 24.0003 20.6667C24.0003 15.1334 28.467 10.6667 34.0003 10.6667ZM34.0003 58C25.667 58 18.3003 53.7334 14.0003 47.2667C14.1003 40.6334 27.3337 37 34.0003 37C40.6337 37 53.9003 40.6334 54.0003 47.2667C49.7003 53.7334 42.3337 58 34.0003 58Z" fill="#C62828"/>
</svg>
