<svg width="32" height="32" viewBox="0 0 32 32" fill="none" xmlns="http://www.w3.org/2000/svg">
<path d="M0 16C0 7.16344 7.16344 0 16 0C24.8366 0 32 7.16344 32 16C32 24.8366 24.8366 32 16 32C7.16344 32 0 24.8366 0 16Z" fill="#E8E8E8"/>
<path d="M22.9333 10.1338H9.06666C8.77166 10.1338 8.53333 10.3721 8.53333 10.6671V21.3338C8.53333 21.6288 8.77166 21.8671 9.06666 21.8671H22.9333C23.2283 21.8671 23.4667 21.6288 23.4667 21.3338V10.6671C23.4667 10.3721 23.2283 10.1338 22.9333 10.1338ZM22.2667 20.6671H9.73333V11.3338H22.2667V20.6671ZM17.6383 15.4005H19.695C19.7167 15.4005 19.7333 15.3405 19.7333 15.2671V14.4671C19.7333 14.3938 19.7167 14.3338 19.695 14.3338H17.6383C17.6167 14.3338 17.6 14.3938 17.6 14.4671V15.2671C17.6 15.3405 17.6167 15.4005 17.6383 15.4005ZM17.7183 17.8005H20.8133C20.8783 17.8005 20.9317 17.7405 20.9317 17.6671V16.8671C20.9317 16.7938 20.8783 16.7338 20.8133 16.7338H17.7183C17.6533 16.7338 17.6 16.7938 17.6 16.8671V17.6671C17.6 17.7405 17.6533 17.8005 17.7183 17.8005ZM11.2 18.6838H11.9317C12.0017 18.6838 12.0583 18.6288 12.0633 18.5588C12.1267 17.7171 12.83 17.0505 13.6833 17.0505C14.5367 17.0505 15.24 17.7171 15.3033 18.5588C15.3083 18.6288 15.365 18.6838 15.435 18.6838H16.1667C16.1847 18.6838 16.2026 18.6802 16.2193 18.673C16.2359 18.6659 16.2509 18.6555 16.2634 18.6424C16.2758 18.6293 16.2855 18.6138 16.2918 18.5969C16.2981 18.5799 16.3009 18.5619 16.3 18.5438C16.2533 17.6555 15.7667 16.8821 15.0567 16.4421C15.3698 16.0979 15.5428 15.6491 15.5417 15.1838C15.5417 14.1521 14.71 13.3171 13.685 13.3171C12.66 13.3171 11.8283 14.1521 11.8283 15.1838C11.8283 15.6688 12.0117 16.1088 12.3133 16.4421C11.9519 16.6661 11.65 16.9742 11.4335 17.3402C11.217 17.7062 11.0923 18.1191 11.07 18.5438C11.0633 18.6205 11.1233 18.6838 11.2 18.6838ZM13.6833 14.3171C14.1583 14.3171 14.545 14.7055 14.545 15.1838C14.545 15.6621 14.1583 16.0505 13.6833 16.0505C13.2083 16.0505 12.8217 15.6621 12.8217 15.1838C12.8217 14.7055 13.2083 14.3171 13.6833 14.3171Z" fill="#595959"/>
</svg>
