<svg width="25" height="24" viewBox="0 0 25 24" fill="none" xmlns="http://www.w3.org/2000/svg">
<path d="M21.6394 12H20.3269C20.2238 12 20.1394 12.0844 20.1394 12.1875V19.6875H4.7644V4.3125H12.2644C12.3675 4.3125 12.4519 4.22812 12.4519 4.125V2.8125C12.4519 2.70937 12.3675 2.625 12.2644 2.625H3.8269C3.41206 2.625 3.0769 2.96016 3.0769 3.375V20.625C3.0769 21.0398 3.41206 21.375 3.8269 21.375H21.0769C21.4917 21.375 21.8269 21.0398 21.8269 20.625V12.1875C21.8269 12.0844 21.7425 12 21.6394 12Z" fill="#C62828"/>
<path d="M8.79321 12.5367L8.74868 15.3234C8.74634 15.532 8.91509 15.7031 9.12368 15.7031H9.13306L11.8987 15.6352C11.9456 15.6328 11.9924 15.6141 12.0252 15.5812L21.7729 5.85469C21.8456 5.78203 21.8456 5.6625 21.7729 5.58984L18.8596 2.67891C18.8221 2.64141 18.7752 2.625 18.726 2.625C18.6768 2.625 18.6299 2.64375 18.5924 2.67891L8.84712 12.4055C8.81327 12.4409 8.79402 12.4877 8.79321 12.5367ZM10.2815 13.0898L18.726 4.66406L19.7854 5.72109L11.3362 14.1516L10.2651 14.1773L10.2815 13.0898Z" fill="#C62828"/>
</svg>
