<svg width="14" height="15" viewBox="0 0 14 15" fill="none" xmlns="http://www.w3.org/2000/svg">
<path d="M3.44448 10.1333H8.42226V11.5555H3.44448V10.1333ZM3.44448 7.28885H10.5556V8.71107H3.44448V7.28885ZM3.44448 4.4444H10.5556V5.86662H3.44448V4.4444ZM11.9778 1.59996H9.00537C8.7067 0.775068 7.92448 0.177734 7.00004 0.177734C6.07559 0.177734 5.29337 0.775068 4.9947 1.59996H2.02226C1.9227 1.59996 1.83026 1.60707 1.73781 1.6284C1.46048 1.68529 1.21159 1.82751 1.01959 2.01951C0.891592 2.14751 0.784926 2.30396 0.713814 2.47462C0.642703 2.63818 0.600037 2.82307 0.600037 3.02218V12.9777C0.600037 13.1697 0.642703 13.3617 0.713814 13.5324C0.784926 13.7031 0.891592 13.8524 1.01959 13.9875C1.21159 14.1795 1.46048 14.3217 1.73781 14.3786C1.83026 14.3928 1.9227 14.4 2.02226 14.4H11.9778C12.76 14.4 13.4 13.76 13.4 12.9777V3.02218C13.4 2.23996 12.76 1.59996 11.9778 1.59996ZM7.00004 1.42218C7.29159 1.42218 7.53337 1.66396 7.53337 1.95551C7.53337 2.24707 7.29159 2.48885 7.00004 2.48885C6.70848 2.48885 6.4667 2.24707 6.4667 1.95551C6.4667 1.66396 6.70848 1.42218 7.00004 1.42218ZM11.9778 12.9777H2.02226V3.02218H11.9778V12.9777Z" fill="#C62828"/>
</svg>
