<svg width="18" height="18" viewBox="0 0 18 18" fill="none" xmlns="http://www.w3.org/2000/svg">
<g clip-path="url(#clip0_915_28533)">
<path d="M2.79714 0.479197C3.71934 0.454403 4.64314 0.475998 5.56614 0.4672C5.78951 0.46205 6.00595 0.544866 6.16883 0.6978C6.33172 0.850735 6.42797 1.06154 6.43692 1.28479C6.44583 1.50804 6.36667 1.72585 6.21652 1.89129C6.06633 2.05673 5.8572 2.15655 5.63413 2.16923C4.75831 2.18362 3.88169 2.16363 3.0051 2.17563C2.78783 2.18048 2.58076 2.26874 2.4268 2.42211C2.27283 2.57548 2.18377 2.7822 2.17808 2.99945C2.16608 3.87925 2.18607 4.75906 2.17168 5.63247C2.16711 5.74439 2.14054 5.8543 2.09349 5.95595C2.04644 6.0576 1.97984 6.14897 1.89747 6.22489C1.8151 6.3008 1.71859 6.35971 1.61345 6.39835C1.50831 6.43696 1.39659 6.45447 1.28467 6.44989C1.17276 6.44532 1.06284 6.41876 0.961192 6.37169C0.859547 6.32466 0.768162 6.25806 0.692257 6.17567C0.538961 6.00933 0.458024 5.7889 0.467252 5.56287C0.471251 4.65909 0.457654 3.75528 0.47285 2.85148C0.535237 1.63255 1.58061 0.566378 2.79714 0.479197Z" fill="#B8B8B8"/>
<path d="M12.304 0.477456C13.175 0.456661 14.0501 0.471858 14.9235 0.466259C15.2609 0.460012 15.5963 0.520569 15.9102 0.644444C16.2242 0.768319 16.5105 0.953068 16.7528 1.18805C16.995 1.42304 17.1884 1.70362 17.3219 2.01365C17.4553 2.32367 17.526 2.65702 17.5301 2.9945C17.5301 3.87431 17.5357 4.75411 17.5301 5.63393C17.519 5.83545 17.4366 6.0265 17.2977 6.173C17.1589 6.31947 16.9725 6.4119 16.7718 6.43374C16.3055 6.49693 15.8368 6.10504 15.8297 5.63393C15.8209 4.75411 15.8353 3.87911 15.8248 3.0017C15.8179 2.7857 15.7291 2.58043 15.5764 2.42746C15.4237 2.2745 15.2186 2.18528 15.0026 2.17788C14.1228 2.16749 13.243 2.18188 12.3632 2.17229C12.1503 2.16158 11.9492 2.07136 11.7996 1.91947C11.65 1.76758 11.5629 1.56509 11.5555 1.35205C11.548 1.139 11.6208 0.930922 11.7594 0.768969C11.898 0.607017 12.0924 0.502986 12.304 0.477456Z" fill="#B8B8B8"/>
<path d="M4.45597 4.78062C5.00463 4.56626 5.65009 5.05894 5.58612 5.6444C5.55332 6.11871 5.71409 6.70499 5.31097 7.06571C4.91107 7.46562 4.15362 7.30567 3.94646 6.77858C3.82649 6.41383 3.90649 6.01713 3.88168 5.6388C3.87221 5.45301 3.92298 5.2691 4.02647 5.11444C4.12993 4.95982 4.28056 4.84274 4.45597 4.78062Z" fill="#B8B8B8"/>
<path d="M7.82547 4.79741C8.34535 4.55745 9.00761 4.98698 9.00041 5.55885C9.006 6.41307 9.00041 7.26726 9.00041 8.1223C8.99573 8.26754 9.02843 8.41155 9.09536 8.54054C9.16233 8.66953 9.26125 8.77916 9.38273 8.85893C9.66908 9.07407 10.0778 8.92692 10.3553 9.16606C10.7864 9.4636 10.8168 10.1586 10.4129 10.4922C10.0834 10.7945 9.59627 10.7145 9.19957 10.6209C8.14939 10.3578 7.33757 9.36441 7.2992 8.28064C7.2848 7.40086 7.2992 6.51622 7.29439 5.63401C7.28637 5.45693 7.33303 5.28166 7.42802 5.13198C7.52305 4.98234 7.6618 4.8655 7.82547 4.79741Z" fill="#B8B8B8"/>
<path d="M12.8808 4.82355C13.4335 4.50843 14.179 5.0091 14.119 5.63616C14.0846 6.09369 14.2413 6.63996 13.8958 7.01426C13.5719 7.3926 12.9192 7.3798 12.6121 6.98627C12.3098 6.63596 12.4417 6.14168 12.4089 5.72017C12.3886 5.54063 12.4227 5.3591 12.5068 5.19919C12.591 5.03931 12.7213 4.90841 12.8808 4.82355Z" fill="#B8B8B8"/>
<path d="M5.36273 10.7362C5.53323 10.6906 5.71359 10.6986 5.87941 10.7589C6.04523 10.8193 6.18849 10.9292 6.28976 11.0737C6.59969 11.4789 6.99656 11.8094 7.45118 12.0409C7.90577 12.2724 8.4065 12.3989 8.91649 12.4112C9.42648 12.4235 9.93274 12.3212 10.3979 12.1119C10.8632 11.9025 11.2755 11.5915 11.6046 11.2017C11.747 11.0282 11.8901 10.833 12.1141 10.761C12.3234 10.6838 12.5547 10.6913 12.7586 10.782C12.9625 10.8726 13.1229 11.0393 13.2059 11.2465C13.2603 11.38 13.2796 11.5253 13.2618 11.6685C13.244 11.8116 13.1898 11.9478 13.1043 12.0639C12.6448 12.6803 12.0524 13.1853 11.371 13.5414C10.6896 13.8974 9.93684 14.0955 9.16846 14.1207C8.40009 14.146 7.63588 13.9979 6.93259 13.6874C6.22931 13.3769 5.60498 12.9119 5.10602 12.3271C4.93723 12.1271 4.74929 11.9144 4.73488 11.6392C4.71724 11.439 4.77042 11.2389 4.88514 11.0739C4.99989 10.9089 5.16892 10.7894 5.36273 10.7362Z" fill="#B8B8B8"/>
<path d="M1.03668 11.6071C1.54457 11.4048 2.16523 11.8159 2.17163 12.363C2.18123 13.2388 2.16763 14.1154 2.17723 14.992C2.18286 15.2099 2.2717 15.4173 2.42551 15.5717C2.57931 15.7261 2.78641 15.8157 3.00425 15.8222C3.88405 15.8318 4.75667 15.8182 5.63247 15.827C6.10436 15.8342 6.4971 16.3013 6.43231 16.7668C6.40856 16.9801 6.30585 17.1768 6.14433 17.3182C5.98285 17.4596 5.77426 17.5354 5.55969 17.5307C4.65588 17.5307 3.75208 17.541 2.84828 17.5235C1.61255 17.4635 0.52879 16.3901 0.472803 15.152C0.457606 14.2473 0.472003 13.3427 0.466404 12.4389C0.461622 12.2579 0.514198 12.0799 0.61662 11.9305C0.71904 11.7811 0.866064 11.6679 1.03668 11.6071Z" fill="#B8B8B8"/>
<path d="M16.3912 11.6081C16.9039 11.4009 17.523 11.8144 17.5278 12.3663C17.5318 13.2917 17.5382 14.2187 17.5278 15.1441C17.4678 16.3878 16.3808 17.4716 15.1363 17.5252C14.2381 17.538 13.3391 17.5252 12.4409 17.53C12.2168 17.5368 11.999 17.4549 11.8348 17.3022C11.6707 17.1495 11.5734 16.9382 11.564 16.7141C11.5546 16.4901 11.6339 16.2714 11.7848 16.1055C11.9356 15.9396 12.1458 15.8399 12.3697 15.8279C13.2495 15.8136 14.1237 15.8335 15.0011 15.8215C15.2177 15.8151 15.4236 15.7259 15.5765 15.5724C15.7294 15.4189 15.8177 15.2127 15.8234 14.9961C15.8353 14.1163 15.8153 13.2421 15.8298 12.3663C15.8381 12.1986 15.8959 12.0372 15.9958 11.9023C16.0957 11.7673 16.2333 11.665 16.3912 11.6081Z" fill="#B8B8B8"/>
</g>
<defs>
<clipPath id="clip0_915_28533">
<rect width="17.0667" height="17.0667" fill="white" transform="translate(0.466675 0.466797)"/>
</clipPath>
</defs>
</svg>
