<svg width="24" height="24" viewBox="0 0 24 24" fill="none" xmlns="http://www.w3.org/2000/svg">
<path fill-rule="evenodd" clip-rule="evenodd" d="M4.72892 5.72007C4.83816 5.48462 5.07412 5.33398 5.33367 5.33398H18.667C18.9266 5.33398 19.1625 5.48462 19.2717 5.72007C19.381 5.95551 19.3436 6.23295 19.176 6.43113L14.0003 12.5514V18.0007C14.0003 18.2317 13.8807 18.4463 13.6842 18.5678C13.4876 18.6892 13.2422 18.7003 13.0355 18.5969L10.3689 17.2636C10.143 17.1507 10.0003 16.9198 10.0003 16.6673V12.5514L4.82462 6.43113C4.65702 6.23295 4.61968 5.95551 4.72892 5.72007ZM6.77054 6.66732L11.176 11.8768C11.2778 11.9972 11.3337 12.1497 11.3337 12.3073V16.2553L12.667 16.922V12.3073C12.667 12.1497 12.7228 11.9972 12.8246 11.8768L17.2301 6.66732H6.77054Z" fill="#C62828"/>
</svg>
