<svg width="36" height="33" viewBox="0 0 36 33" fill="none" xmlns="http://www.w3.org/2000/svg">
<path d="M19.498 23.5V14.1689H17.9189C17.4268 14.4287 16.1279 15.2559 15.6494 15.5977V17.1904C16.0938 16.8828 17.4746 15.9941 17.8096 15.8096H17.8643V23.5H19.498Z" fill="#C62828"/>
<path d="M28.9764 5.22054C28.4885 6.13485 28.0357 6.97884 27.5566 7.87557C27.6005 7.86238 27.561 7.88876 27.539 7.87997C27.1346 7.69974 26.739 7.64259 26.4928 8.10414C26.2554 8.54811 26.5544 8.81625 26.884 9.06681C28.6511 10.4119 30.0358 12.0559 30.9017 14.1263C31.0116 14.3901 31.3281 14.6274 31.6007 14.7505C32.0798 14.9615 32.6029 15.0758 33.1084 15.2209C33.4996 15.3351 33.693 15.5857 33.693 15.9901C33.693 17.1682 33.6886 18.3462 33.693 19.5243C33.693 19.9595 33.482 20.2056 33.0776 20.3243C32.5238 20.4869 31.9523 20.6232 31.4248 20.8518C31.1523 20.9705 30.8402 21.2167 30.7347 21.476C29.9347 23.4277 28.6819 25.0278 27.0335 26.3245C26.673 26.6102 26.5236 26.9091 26.5851 27.3575C26.6994 28.1575 26.7829 28.9619 26.8796 29.762C26.9676 30.4961 26.7697 30.7686 26.0532 30.8873C25.6225 30.962 25.1873 31.0279 24.7521 31.0983C23.7806 31.2609 23.7543 31.2477 23.218 30.4038C23.1345 30.2719 23.0553 30.1356 22.9586 29.973C23.0861 29.907 23.1872 29.8455 23.2927 29.8015C23.6839 29.6345 23.8158 29.3268 23.6751 28.9444C23.5389 28.5751 23.2224 28.4872 22.8487 28.5795C21.9784 28.7905 21.1168 29.0455 20.2377 29.1949C17.8771 29.5905 15.5474 29.3883 13.2572 28.6894C13.1078 28.6455 12.9583 28.5839 12.8001 28.5575C12.4352 28.496 12.1143 28.6498 12.0748 28.9927C12.0484 29.2301 12.2374 29.5114 12.3781 29.7444C12.4352 29.8411 12.6198 29.8631 12.7429 29.9202C12.3605 31.0455 12.0396 31.2521 10.9451 31.0851C10.4923 31.0148 10.0439 30.94 9.59557 30.8609C9.01973 30.7598 8.79116 30.4433 8.86149 29.8543C8.9538 29.0675 9.02412 28.2806 9.1516 27.5026C9.24391 26.9267 9.04611 26.5619 8.59775 26.2058C6.61087 24.6277 5.19544 22.6409 4.62839 20.1485C3.70529 16.0956 4.96686 12.6933 7.9252 9.88443C8.63291 9.21188 9.49447 8.70637 10.2813 8.12613C10.3385 8.08657 10.4 8.0514 10.4615 8.01624C10.8396 7.80524 11.0769 7.52391 10.8616 7.07554C10.6769 6.68871 10.2945 6.61839 9.82415 6.87774C8.38234 7.68216 7.10759 8.69318 6.02624 9.94157C4.4086 11.8098 3.40197 13.9549 3.09427 16.4209C3.07669 16.5747 3.04152 16.7286 3.01515 16.8869C3.01075 16.9 2.99317 16.9132 2.98438 16.9264C1.90742 16.878 0.74695 15.2033 1.59093 13.6472C1.77555 13.3087 2.10523 13.0318 2.40853 12.7724C2.73382 12.4911 2.9668 12.2186 2.69427 11.7878C2.4569 11.4185 2.10084 11.3922 1.64368 11.7087C0.395289 12.5658 -0.158572 13.7747 0.0392363 15.2516C0.24144 16.7638 1.15576 17.766 2.59756 18.2407C2.94922 18.355 3.04592 18.4913 3.08548 18.8429C3.43275 22.1353 4.96686 24.7992 7.44166 26.9443C7.77134 27.23 7.85926 27.5026 7.80212 27.8938C7.70981 28.5531 7.62629 29.2169 7.56914 29.8807C7.46804 31.0236 8.1318 31.9027 9.25711 32.1225C9.96482 32.2588 10.6725 32.395 11.3846 32.4829C12.1847 32.5796 12.8265 32.2632 13.2968 31.6126C13.543 31.2697 13.7452 30.8917 14.0089 30.5708C14.1144 30.4433 14.3606 30.3334 14.5144 30.3642C16.7694 30.8038 19.02 30.7862 21.2751 30.3642C21.4245 30.3378 21.6619 30.4653 21.7674 30.5928C22.0311 30.9181 22.2246 31.3005 22.4751 31.639C22.9674 32.2983 23.6356 32.5884 24.4576 32.461C25.1521 32.3555 25.8466 32.2543 26.5368 32.1093C27.6841 31.8675 28.3258 30.94 28.1808 29.7839C28.0973 29.1026 27.9874 28.4257 27.9566 27.7399C27.9434 27.507 28.0665 27.1861 28.2379 27.0322C29.7413 25.7179 30.9413 24.1794 31.7721 22.3595C31.8512 22.1837 32.0578 22.0211 32.2424 21.9463C32.6644 21.7749 33.1128 21.6738 33.548 21.5288C34.4711 21.2211 34.9898 20.5221 34.9986 19.555C35.0074 18.3418 35.0074 17.1286 35.003 15.9154C34.9986 15.0011 34.5106 14.1922 33.6227 14.0252C32.4183 13.7966 31.8468 13.0669 31.2886 12.0603C30.6995 11.0053 29.7896 10.1306 29.0467 9.15473C28.9105 8.9789 28.7918 8.65362 28.8665 8.48218C29.205 7.69974 29.5698 6.9173 30.0094 6.1876C30.3347 5.64253 30.4929 5.13702 30.1633 4.56557C29.8424 4.01171 29.3237 3.86226 28.7215 3.89743C27.5038 3.95897 26.3785 4.3238 25.3191 4.91723C24.9455 5.12383 24.6906 5.39637 24.8972 5.85352C25.0686 6.24035 25.4422 6.31948 25.9258 6.06452C26.862 5.58539 27.8335 5.22054 28.9764 5.22054Z" fill="#EC1E24"/>
<path d="M28.9764 5.22054C28.4885 6.13485 28.0357 6.97884 27.5566 7.87557C27.6005 7.86238 27.561 7.88876 27.539 7.87997C27.1346 7.69974 26.739 7.64259 26.4928 8.10414C26.2554 8.54811 26.5544 8.81625 26.884 9.06681C28.6511 10.4119 30.0358 12.0559 30.9017 14.1263C31.0116 14.3901 31.3281 14.6274 31.6007 14.7505C32.0798 14.9615 32.6029 15.0758 33.1084 15.2209C33.4996 15.3351 33.693 15.5857 33.693 15.9901C33.693 17.1682 33.6886 18.3462 33.693 19.5243C33.693 19.9595 33.482 20.2056 33.0776 20.3243C32.5238 20.4869 31.9523 20.6232 31.4248 20.8518C31.1523 20.9705 30.8402 21.2167 30.7347 21.476C29.9347 23.4277 28.6819 25.0278 27.0335 26.3245C26.673 26.6102 26.5236 26.9091 26.5851 27.3575C26.6994 28.1575 26.7829 28.9619 26.8796 29.762C26.9676 30.4961 26.7697 30.7686 26.0532 30.8873C25.6225 30.962 25.1873 31.0279 24.7521 31.0983C23.7806 31.2609 23.7543 31.2477 23.218 30.4038C23.1345 30.2719 23.0553 30.1356 22.9586 29.973C23.0861 29.907 23.1872 29.8455 23.2927 29.8015C23.6839 29.6345 23.8158 29.3268 23.6751 28.9444C23.5389 28.5751 23.2224 28.4872 22.8487 28.5795C21.9784 28.7905 21.1168 29.0455 20.2377 29.1949C17.8771 29.5905 15.5474 29.3883 13.2572 28.6894C13.1078 28.6455 12.9583 28.5839 12.8001 28.5575C12.4352 28.496 12.1143 28.6498 12.0748 28.9927C12.0484 29.2301 12.2374 29.5114 12.3781 29.7444C12.4352 29.8411 12.6198 29.8631 12.7429 29.9202C12.3605 31.0455 12.0396 31.2521 10.9451 31.0851C10.4923 31.0148 10.0439 30.94 9.59557 30.8609C9.01973 30.7598 8.79116 30.4433 8.86149 29.8543C8.9538 29.0675 9.02412 28.2806 9.1516 27.5026C9.24391 26.9267 9.04611 26.5619 8.59775 26.2058C6.61087 24.6277 5.19544 22.6409 4.62839 20.1485C3.70529 16.0956 4.96686 12.6933 7.9252 9.88443C8.63291 9.21188 9.49447 8.70637 10.2813 8.12613C10.3385 8.08657 10.4 8.0514 10.4615 8.01624C10.8396 7.80524 11.0769 7.52391 10.8616 7.07554C10.6769 6.68871 10.2945 6.61839 9.82415 6.87774C8.38234 7.68216 7.10759 8.69318 6.02624 9.94157C4.4086 11.8098 3.40197 13.9549 3.09427 16.4209C3.07669 16.5747 3.04152 16.7286 3.01515 16.8869C3.01075 16.9 2.99317 16.9132 2.98438 16.9264C1.90742 16.878 0.74695 15.2033 1.59093 13.6472C1.77555 13.3087 2.10523 13.0318 2.40853 12.7724C2.73382 12.4911 2.9668 12.2186 2.69427 11.7878C2.4569 11.4185 2.10084 11.3922 1.64368 11.7087C0.395289 12.5658 -0.158572 13.7747 0.0392363 15.2516C0.24144 16.7638 1.15576 17.766 2.59756 18.2407C2.94922 18.355 3.04592 18.4913 3.08548 18.8429C3.43275 22.1353 4.96686 24.7992 7.44166 26.9443C7.77134 27.23 7.85926 27.5026 7.80212 27.8938C7.70981 28.5531 7.62629 29.2169 7.56914 29.8807C7.46804 31.0236 8.1318 31.9027 9.25711 32.1225C9.96482 32.2588 10.6725 32.395 11.3846 32.4829C12.1847 32.5796 12.8265 32.2632 13.2968 31.6126C13.543 31.2697 13.7452 30.8917 14.0089 30.5708C14.1144 30.4433 14.3606 30.3334 14.5144 30.3642C16.7694 30.8038 19.02 30.7862 21.2751 30.3642C21.4245 30.3378 21.6619 30.4653 21.7674 30.5928C22.0311 30.9181 22.2246 31.3005 22.4751 31.639C22.9674 32.2983 23.6356 32.5884 24.4576 32.461C25.1521 32.3555 25.8466 32.2543 26.5368 32.1093C27.6841 31.8675 28.3258 30.94 28.1808 29.7839C28.0973 29.1026 27.9874 28.4257 27.9566 27.7399C27.9434 27.507 28.0665 27.1861 28.2379 27.0322C29.7413 25.7179 30.9413 24.1794 31.7721 22.3595C31.8512 22.1837 32.0578 22.0211 32.2424 21.9463C32.6644 21.7749 33.1128 21.6738 33.548 21.5288C34.4711 21.2211 34.9898 20.5221 34.9986 19.555C35.0074 18.3418 35.0074 17.1286 35.003 15.9154C34.9986 15.0011 34.5106 14.1922 33.6227 14.0252C32.4183 13.7966 31.8468 13.0669 31.2886 12.0603C30.6995 11.0053 29.7896 10.1306 29.0467 9.15473C28.9105 8.9789 28.7918 8.65362 28.8665 8.48218C29.205 7.69974 29.5698 6.9173 30.0094 6.1876C30.3347 5.64253 30.4929 5.13702 30.1633 4.56557C29.8424 4.01171 29.3237 3.86226 28.7215 3.89743C27.5038 3.95897 26.3785 4.3238 25.3191 4.91723C24.9455 5.12383 24.6906 5.39637 24.8972 5.85352C25.0686 6.24035 25.4422 6.31948 25.9258 6.06452C26.862 5.58539 27.8335 5.22054 28.9764 5.22054Z" fill="white" fill-opacity="0.7"/>
<path d="M18.1541 7.34375C16.176 7.42727 14.3122 7.85805 12.5583 8.74599C12.4176 8.81632 12.2814 8.89544 12.1451 8.97457C11.7891 9.18117 11.6352 9.48008 11.8286 9.85812C12.0352 10.2581 12.3825 10.2757 12.7781 10.1131C13.6177 9.7658 14.4441 9.357 15.3188 9.11963C17.864 8.41631 20.3564 8.65807 22.7696 9.73942C22.8487 9.77459 22.9279 9.80975 23.0114 9.84932C23.4158 10.0383 23.7411 9.94602 23.9389 9.55041C24.1367 9.1504 23.9301 8.83391 23.5828 8.68885C22.7916 8.35917 21.9916 8.01191 21.1652 7.8141C20.1805 7.57673 19.1607 7.49321 18.1541 7.34375Z" fill="#EC1E24"/>
<path d="M18.1541 7.34375C16.176 7.42727 14.3122 7.85805 12.5583 8.74599C12.4176 8.81632 12.2814 8.89544 12.1451 8.97457C11.7891 9.18117 11.6352 9.48008 11.8286 9.85812C12.0352 10.2581 12.3825 10.2757 12.7781 10.1131C13.6177 9.7658 14.4441 9.357 15.3188 9.11963C17.864 8.41631 20.3564 8.65807 22.7696 9.73942C22.8487 9.77459 22.9279 9.80975 23.0114 9.84932C23.4158 10.0383 23.7411 9.94602 23.9389 9.55041C24.1367 9.1504 23.9301 8.83391 23.5828 8.68885C22.7916 8.35917 21.9916 8.01191 21.1652 7.8141C20.1805 7.57673 19.1607 7.49321 18.1541 7.34375Z" fill="white" fill-opacity="0.7"/>
<g opacity="0.5">
<path d="M13.7716 6.14372C13.6573 3.67771 15.5474 1.75237 18.0266 1.81391C20.4179 1.87545 22.2158 3.95904 21.9652 6.38988C21.9564 6.4778 21.9476 6.56571 21.9389 6.65363C21.8949 7.08002 22.04 7.39651 22.4971 7.44926C22.9543 7.50201 23.174 7.21628 23.2356 6.80308C23.4114 5.62502 23.2576 4.48653 22.6993 3.42716C21.4597 1.08423 18.8486 -0.0103212 16.2991 0.728164C13.8639 1.43588 12.255 3.81398 12.4616 6.41626C12.4704 6.53934 12.4924 6.65803 12.51 6.78111C12.5759 7.22068 12.8001 7.51519 13.2792 7.44486C13.7452 7.37892 13.8463 7.03606 13.8023 6.61847C13.7891 6.46022 13.7803 6.30197 13.7716 6.14372Z" fill="#FFAB12"/>
<path d="M20.1234 4.55222C20.1102 4.00715 19.6663 3.51043 19.0201 3.1324C18.7915 2.99613 18.5761 2.8247 18.3915 2.63129C18.0882 2.32359 17.675 2.31919 17.3761 2.63569C17.1783 2.84229 16.9409 3.00932 16.7255 3.19394C16.4881 3.40054 16.2288 3.58956 16.0266 3.82253C15.754 4.13023 15.7628 4.48189 16.0837 4.75442C16.4046 5.02257 16.7431 4.97421 17.0112 4.65772C17.3673 4.24012 17.8025 4.04232 18.3168 4.27969C18.519 4.372 18.6464 4.63575 18.8047 4.82037C18.6201 4.95664 18.4574 5.15444 18.2508 5.21159C17.7805 5.33467 17.2794 5.35226 16.809 5.47973C16.2903 5.6204 16.0617 5.98084 16.1672 6.34568C16.2903 6.76328 16.6288 6.86438 17.2046 6.71932C17.6618 6.60503 18.1365 6.56987 18.6025 6.47756C19.5564 6.27975 20.119 5.65116 20.1234 4.55222Z" fill="#FFAB12"/>
</g>
</svg>
