<svg width="48" height="48" viewBox="0 0 48 48" fill="none" xmlns="http://www.w3.org/2000/svg">
<g clip-path="url(#clip0_1106_21120)">
<path d="M6.5547 0.0348765C9.14838 -0.0348582 11.7466 0.0258785 14.3425 0.00113391C14.9707 -0.0133509 15.5795 0.219569 16.0376 0.649696C16.4957 1.07983 16.7664 1.67272 16.7916 2.3006C16.8166 2.92849 16.594 3.54109 16.1717 4.00639C15.7493 4.47169 15.1611 4.75242 14.5337 4.78809C12.0705 4.82858 9.605 4.77234 7.13957 4.80609C6.52851 4.81974 5.94614 5.06796 5.51311 5.49931C5.08008 5.93066 4.8296 6.51207 4.81358 7.12308C4.77983 9.59753 4.83607 12.072 4.79559 14.5284C4.78273 14.8432 4.70801 15.1524 4.57569 15.4382C4.44336 15.7241 4.25603 15.9811 4.02437 16.1946C3.79271 16.4081 3.52128 16.5738 3.22556 16.6825C2.92984 16.7911 2.61564 16.8403 2.30088 16.8275C1.98612 16.8146 1.67698 16.7399 1.39109 16.6075C1.10521 16.4752 0.848191 16.2879 0.63471 16.0562C0.203564 15.5884 -0.0240707 14.9684 0.00188169 14.3327C0.0131293 11.7908 -0.0251124 9.24886 0.0176283 6.70692C0.193089 3.27867 3.13319 0.280073 6.5547 0.0348765Z" fill="#C62828"/>
<path d="M33.2929 0.0307733C35.7426 -0.0277139 38.2036 0.0150267 40.66 -0.000719815C41.6091 -0.01829 42.5523 0.152026 43.4353 0.500426C44.3183 0.848825 45.1236 1.36843 45.805 2.02932C46.4863 2.69022 47.0303 3.47935 47.4055 4.3513C47.7807 5.22325 47.9797 6.1608 47.9911 7.10997C47.9911 9.58444 48.0069 12.0589 47.9911 14.5334C47.9598 15.1001 47.7282 15.6375 47.3377 16.0495C46.9471 16.4614 46.423 16.7214 45.8586 16.7828C44.5471 16.9605 43.2289 15.8584 43.2087 14.5334C43.1839 12.0589 43.2245 9.59793 43.1952 7.13022C43.1756 6.52271 42.9258 5.94537 42.4964 5.51516C42.067 5.08495 41.4901 4.83403 40.8827 4.81323C38.4082 4.78399 35.9337 4.82448 33.4593 4.79748C32.8605 4.76738 32.2949 4.51363 31.8741 4.08645C31.4534 3.65926 31.2084 3.08975 31.1875 2.49056C31.1666 1.89137 31.3712 1.30615 31.7611 0.850654C32.151 0.395162 32.6976 0.102577 33.2929 0.0307733Z" fill="#C62828"/>
<path d="M11.22 12.1321C12.7631 11.5292 14.5785 12.9149 14.3986 14.5614C14.3063 15.8955 14.7585 17.5444 13.6247 18.5589C12.5 19.6836 10.3697 19.2338 9.78703 17.7513C9.44962 16.7255 9.67461 15.6098 9.60482 14.5457C9.57819 14.0232 9.72098 13.5059 10.0121 13.071C10.303 12.6361 10.7267 12.3068 11.22 12.1321Z" fill="#C62828"/>
<path d="M20.6969 12.1803C22.1591 11.5054 24.0217 12.7134 24.0014 14.3218C24.0172 16.7243 24.0014 19.1267 24.0014 21.5315C23.9883 21.94 24.0803 22.345 24.2685 22.7078C24.4569 23.0706 24.7351 23.379 25.0767 23.6033C25.8821 24.2084 27.0316 23.7945 27.8122 24.4671C29.0246 25.3039 29.1101 27.2587 27.9741 28.1968C27.0473 29.0471 25.6773 28.8222 24.5616 28.5589C21.608 27.8189 19.3247 25.025 19.2168 21.9769C19.1763 19.5025 19.2168 17.0144 19.2033 14.5332C19.1807 14.0352 19.3119 13.5422 19.5791 13.1213C19.8464 12.7004 20.2366 12.3718 20.6969 12.1803Z" fill="#C62828"/>
<path d="M34.9151 12.2552C36.4696 11.3689 38.5661 12.7771 38.3973 14.5407C38.3007 15.8275 38.7415 17.3638 37.7697 18.4166C36.8587 19.4806 35.0231 19.4446 34.1593 18.3379C33.309 17.3526 33.6801 15.9624 33.5879 14.7769C33.5306 14.272 33.6265 13.7614 33.8633 13.3117C34.1 12.862 34.4664 12.4939 34.9151 12.2552Z" fill="#C62828"/>
<path d="M13.7703 28.8829C14.2498 28.7547 14.7571 28.7771 15.2234 28.9468C15.6898 29.1166 16.0927 29.4257 16.3775 29.8321C17.2492 30.9717 18.3654 31.9013 19.644 32.5523C20.9226 33.2032 22.3309 33.5591 23.7652 33.5937C25.1995 33.6282 26.6234 33.3405 27.9318 32.7519C29.2403 32.1631 30.4 31.2884 31.3255 30.192C31.7259 29.704 32.1285 29.155 32.7584 28.9526C33.3473 28.7354 33.9977 28.7565 34.5711 29.0116C35.1446 29.2666 35.5959 29.7353 35.8291 30.3181C35.9823 30.6936 36.0364 31.1023 35.9864 31.5048C35.9364 31.9074 35.7838 32.2904 35.5434 32.6171C34.2511 34.3506 32.5849 35.7709 30.6686 36.7723C28.7522 37.7738 26.6349 38.3308 24.4739 38.4018C22.3128 38.473 20.1635 38.0563 18.1855 37.183C16.2075 36.3097 14.4516 35.002 13.0483 33.3571C12.5735 32.7948 12.045 32.1964 12.0044 31.4225C11.9548 30.8594 12.1044 30.2968 12.427 29.8327C12.7498 29.3685 13.2252 29.0324 13.7703 28.8829Z" fill="#C62828"/>
<path d="M1.6033 31.334C3.03174 30.7648 4.77736 31.9212 4.79535 33.4598C4.82234 35.923 4.7841 38.3885 4.8111 40.854C4.82693 41.4667 5.0768 42.0501 5.50937 42.4843C5.94196 42.9186 6.52441 43.1707 7.13708 43.189C9.61154 43.216 12.0658 43.1777 14.5289 43.2024C15.8561 43.2227 16.9607 44.5364 16.7785 45.8457C16.7117 46.4456 16.4228 46.9988 15.9686 47.3965C15.5144 47.794 14.9277 48.0072 14.3243 47.994C11.7823 47.994 9.24038 48.0232 6.69843 47.9737C3.22294 47.8049 0.17486 44.7861 0.0173951 41.3038C-0.0253456 38.7596 0.0151456 36.2154 -0.000600979 33.6735C-0.0140508 33.1643 0.13382 32.6637 0.42188 32.2436C0.709938 31.8234 1.12344 31.505 1.6033 31.334Z" fill="#C62828"/>
<path d="M44.788 31.3364C46.2299 30.7538 47.9711 31.9169 47.9845 33.469C47.9958 36.0716 48.0138 38.6789 47.9845 41.2816C47.8159 44.7795 44.7587 47.8276 41.2585 47.9783C38.7323 48.0143 36.2039 47.9783 33.6777 47.9919C33.0473 48.011 32.4348 47.7808 31.9731 47.3513C31.5114 46.9217 31.2377 46.3274 31.2113 45.6973C31.185 45.0672 31.4081 44.4522 31.8323 43.9856C32.2566 43.5189 32.8477 43.2384 33.4775 43.2048C35.9519 43.1644 38.4106 43.2206 40.8783 43.1869C41.4874 43.1687 42.0664 42.918 42.4965 42.4863C42.9266 42.0546 43.175 41.4745 43.1909 40.8654C43.2246 38.3909 43.1683 35.9323 43.2088 33.469C43.2323 32.9974 43.3949 32.5434 43.6759 32.1639C43.9569 31.7844 44.3437 31.4966 44.788 31.3364Z" fill="#C62828"/>
</g>
<defs>
<clipPath id="clip0_1106_21120">
<rect width="48" height="48" fill="white"/>
</clipPath>
</defs>
</svg>
