<svg width="25" height="24" viewBox="0 0 25 24" fill="none" xmlns="http://www.w3.org/2000/svg">
<path d="M21.742 4.94801L17.0733 5.51051C16.9186 5.52926 16.853 5.71911 16.9631 5.82926L18.353 7.21911L13.0561 12.516L10.6701 10.1324C10.5225 9.98473 10.2858 9.98707 10.1405 10.1324L2.60061 17.6746C2.56572 17.7098 2.54614 17.7574 2.54614 17.807C2.54614 17.8566 2.56572 17.9042 2.60061 17.9394L3.6553 18.9988C3.72796 19.0715 3.84749 19.0715 3.92014 18.9988L10.4053 12.516L12.7889 14.8996C12.9365 15.0449 13.1733 15.0449 13.3186 14.8996L19.6795 8.54333L21.0694 9.93317C21.0943 9.95795 21.1256 9.97525 21.1599 9.98309C21.1941 9.99093 21.2299 9.98901 21.2631 9.97753C21.2963 9.96605 21.3256 9.94549 21.3477 9.91817C21.3698 9.89086 21.3838 9.85789 21.3881 9.82301L21.9506 5.15426C21.967 5.03473 21.8639 4.93161 21.742 4.94801V4.94801Z" fill="#C62828"/>
</svg>
