<svg width="32" height="32" viewBox="0 0 32 32" fill="none" xmlns="http://www.w3.org/2000/svg">
<path d="M0 16C0 7.16344 7.16344 0 16 0C24.8366 0 32 7.16344 32 16C32 24.8366 24.8366 32 16 32C7.16344 32 0 24.8366 0 16Z" fill="white"/>
<path d="M23.1111 11.7328C23.1111 10.9505 22.4711 10.3105 21.6889 10.3105H10.3111C9.52892 10.3105 8.88892 10.9505 8.88892 11.7328V20.2661C8.88892 21.0483 9.52892 21.6883 10.3111 21.6883H21.6889C22.4711 21.6883 23.1111 21.0483 23.1111 20.2661V11.7328ZM21.6889 11.7328L16 15.2883L10.3111 11.7328H21.6889ZM21.6889 20.2661H10.3111V13.155L16 16.7105L21.6889 13.155V20.2661Z" fill="#C62828"/>
<path d="M16 31C7.71573 31 1 24.2843 1 16H-1C-1 25.3888 6.61116 33 16 33V31ZM31 16C31 24.2843 24.2843 31 16 31V33C25.3888 33 33 25.3888 33 16H31ZM16 1C24.2843 1 31 7.71573 31 16H33C33 6.61116 25.3888 -1 16 -1V1ZM16 -1C6.61116 -1 -1 6.61116 -1 16H1C1 7.71573 7.71573 1 16 1V-1Z" fill="#C62828"/>
</svg>
