<svg width="42" height="42" viewBox="0 0 42 42" fill="none" xmlns="http://www.w3.org/2000/svg">
<path d="M21 0C9.40313 0 0 9.40313 0 21C0 32.5969 9.40313 42 21 42C32.5969 42 42 32.5969 42 21C42 9.40313 32.5969 0 21 0ZM28.7531 28.9781L25.6594 28.9641L21 23.4094L16.3453 28.9594L13.2469 28.9734C13.0406 28.9734 12.8719 28.8094 12.8719 28.5984C12.8719 28.5094 12.9047 28.425 12.9609 28.3547L19.0594 21.0891L12.9609 13.8281C12.9043 13.7594 12.8729 13.6734 12.8719 13.5844C12.8719 13.3781 13.0406 13.2094 13.2469 13.2094L16.3453 13.2234L21 18.7781L25.6547 13.2281L28.7484 13.2141C28.9547 13.2141 29.1234 13.3781 29.1234 13.5891C29.1234 13.6781 29.0906 13.7625 29.0344 13.8328L22.9453 21.0938L29.0391 28.3594C29.0953 28.4297 29.1281 28.5141 29.1281 28.6031C29.1281 28.8094 28.9594 28.9781 28.7531 28.9781Z" fill="#C62828"/>
</svg>
