<svg width="16" height="18" viewBox="0 0 16 18" fill="none" xmlns="http://www.w3.org/2000/svg">
<path d="M12.8417 2.72533C12.7751 2.72533 12.7084 2.70866 12.6501 2.67533C11.0501 1.85033 9.66674 1.50033 8.0084 1.50033C6.3584 1.50033 4.79174 1.89199 3.36674 2.67533C3.16674 2.78366 2.91674 2.70866 2.80007 2.50866C2.69174 2.30866 2.76674 2.05033 2.96674 1.94199C4.51674 1.10033 6.21674 0.666992 8.0084 0.666992C9.7834 0.666992 11.3334 1.05866 13.0334 1.93366C13.2417 2.04199 13.3167 2.29199 13.2084 2.49199C13.1334 2.64199 12.9917 2.72533 12.8417 2.72533ZM0.916736 7.10033C0.833402 7.10033 0.750069 7.07533 0.675069 7.02533C0.483402 6.89199 0.441735 6.63366 0.575069 6.44199C1.40007 5.27533 2.45007 4.35866 3.70007 3.71699C6.31674 2.36699 9.66674 2.35866 12.2917 3.70866C13.5417 4.35033 14.5917 5.25866 15.4167 6.41699C15.5501 6.60033 15.5084 6.86699 15.3167 7.00033C15.1251 7.13366 14.8667 7.09199 14.7334 6.90033C13.9834 5.85033 13.0334 5.02533 11.9084 4.45033C9.51674 3.22533 6.4584 3.22533 4.07507 4.45866C2.94174 5.04199 1.99174 5.87533 1.24174 6.92533C1.17507 7.04199 1.05007 7.10033 0.916736 7.10033ZM6.12507 17.1587C6.01674 17.1587 5.9084 17.117 5.8334 17.0337C5.1084 16.3087 4.71674 15.842 4.1584 14.8337C3.5834 13.8087 3.2834 12.5587 3.2834 11.217C3.2834 8.74199 5.40007 6.72533 8.00007 6.72533C10.6001 6.72533 12.7167 8.74199 12.7167 11.217C12.7167 11.4503 12.5334 11.6337 12.3001 11.6337C12.0667 11.6337 11.8834 11.4503 11.8834 11.217C11.8834 9.20033 10.1417 7.55866 8.00007 7.55866C5.8584 7.55866 4.11674 9.20033 4.11674 11.217C4.11674 12.417 4.3834 13.5253 4.89174 14.4253C5.42507 15.3837 5.79174 15.792 6.4334 16.442C6.59174 16.6087 6.59174 16.867 6.4334 17.0337C6.34174 17.117 6.2334 17.1587 6.12507 17.1587ZM12.1001 15.617C11.1084 15.617 10.2334 15.367 9.51674 14.8753C8.27507 14.0337 7.5334 12.667 7.5334 11.217C7.5334 10.9837 7.71674 10.8003 7.95007 10.8003C8.1834 10.8003 8.36674 10.9837 8.36674 11.217C8.36674 12.392 8.96674 13.5003 9.9834 14.1837C10.5751 14.5837 11.2667 14.7753 12.1001 14.7753C12.3001 14.7753 12.6334 14.7503 12.9667 14.692C13.1917 14.6503 13.4084 14.8003 13.4501 15.0337C13.4917 15.2587 13.3417 15.4753 13.1084 15.517C12.6334 15.6087 12.2167 15.617 12.1001 15.617ZM10.4251 17.3337C10.3917 17.3337 10.3501 17.3253 10.3167 17.317C8.99174 16.9503 8.12507 16.4587 7.21674 15.567C6.05007 14.4087 5.4084 12.867 5.4084 11.217C5.4084 9.86699 6.5584 8.76699 7.97507 8.76699C9.39174 8.76699 10.5417 9.86699 10.5417 11.217C10.5417 12.1087 11.3167 12.8337 12.2751 12.8337C13.2334 12.8337 14.0084 12.1087 14.0084 11.217C14.0084 8.07533 11.3001 5.52533 7.96674 5.52533C5.60007 5.52533 3.4334 6.84199 2.4584 8.88366C2.1334 9.55866 1.96674 10.3503 1.96674 11.217C1.96674 11.867 2.02507 12.892 2.52507 14.2253C2.6084 14.442 2.50007 14.6837 2.2834 14.7587C2.06674 14.842 1.82507 14.7253 1.75007 14.517C1.34174 13.4253 1.14174 12.342 1.14174 11.217C1.14174 10.217 1.3334 9.30866 1.7084 8.51699C2.81674 6.19199 5.27507 4.68366 7.96674 4.68366C11.7584 4.68366 14.8417 7.60866 14.8417 11.2087C14.8417 12.5587 13.6917 13.6587 12.2751 13.6587C10.8584 13.6587 9.7084 12.5587 9.7084 11.2087C9.7084 10.317 8.9334 9.59199 7.97507 9.59199C7.01674 9.59199 6.24174 10.317 6.24174 11.2087C6.24174 12.6337 6.79174 13.967 7.80007 14.967C8.59174 15.7503 9.35007 16.1837 10.5251 16.5087C10.7501 16.567 10.8751 16.8003 10.8167 17.017C10.7751 17.2087 10.6001 17.3337 10.4251 17.3337Z" fill="#C62828"/>
</svg>
