<svg width="20" height="20" viewBox="0 0 20 20" fill="none" xmlns="http://www.w3.org/2000/svg">
<path d="M17.8801 8.46188C17.9826 9.01104 18.0384 9.58521 18.0384 10.1844C18.0384 14.871 14.9018 18.2035 10.1643 18.2035C9.0869 18.2039 8.02003 17.9919 7.0246 17.5798C6.02918 17.1676 5.12472 16.5634 4.36291 15.8016C3.60109 15.0398 2.99685 14.1353 2.58471 13.1399C2.17257 12.1445 1.96061 11.0776 1.96094 10.0002C1.96061 8.92284 2.17257 7.85596 2.58471 6.86054C2.99685 5.86512 3.60109 4.96066 4.36291 4.19884C5.12472 3.43703 6.02918 2.83279 7.0246 2.42065C8.02003 2.00851 9.0869 1.79655 10.1643 1.79688C12.3793 1.79688 14.2301 2.61188 15.6501 3.93521L13.3376 6.24771V6.24188C12.4768 5.42188 11.3843 5.00104 10.1643 5.00104C7.4576 5.00104 5.2576 7.28771 5.2576 9.99521C5.2576 12.7019 7.4576 14.9935 10.1643 14.9935C12.6201 14.9935 14.2918 13.5894 14.6351 11.661H10.1643V8.46188H17.8809H17.8801Z" fill="white"/>
</svg>
