<svg width="49" height="48" viewBox="0 0 49 48" fill="none" xmlns="http://www.w3.org/2000/svg">
<path fill-rule="evenodd" clip-rule="evenodd" d="M8.5 22C9.60457 22 10.5 22.8954 10.5 24V42H38.5V24C38.5 22.8954 39.3954 22 40.5 22C41.6046 22 42.5 22.8954 42.5 24V44C42.5 45.1046 41.6046 46 40.5 46H8.5C7.39543 46 6.5 45.1046 6.5 44V24C6.5 22.8954 7.39543 22 8.5 22Z" fill="#C62828"/>
<path fill-rule="evenodd" clip-rule="evenodd" d="M2.5 14C2.5 12.8954 3.39543 12 4.5 12H44.5C45.6046 12 46.5 12.8954 46.5 14V24C46.5 25.1046 45.6046 26 44.5 26H4.5C3.39543 26 2.5 25.1046 2.5 24V14ZM6.5 16V22H42.5V16H6.5Z" fill="#C62828"/>
<path fill-rule="evenodd" clip-rule="evenodd" d="M24.5 12C25.6046 12 26.5 12.8954 26.5 14V44C26.5 45.1046 25.6046 46 24.5 46C23.3954 46 22.5 45.1046 22.5 44V14C22.5 12.8954 23.3954 12 24.5 12Z" fill="#C62828"/>
<path fill-rule="evenodd" clip-rule="evenodd" d="M15.5 6C14.7044 6 13.9413 6.31607 13.3787 6.87868C12.8161 7.44129 12.5 8.20435 12.5 9C12.5 9.79565 12.8161 10.5587 13.3787 11.1213C13.9413 11.6839 14.7044 12 15.5 12H21.808C21.5639 11.3612 21.2548 10.6588 20.8726 9.96384C19.6146 7.67669 17.8878 6 15.5 6ZM24.5 14C26.4612 13.6078 26.461 13.6071 26.4609 13.6064L26.4606 13.6047L26.4597 13.6008L26.4576 13.5901L26.4508 13.5579C26.4453 13.5317 26.4376 13.4961 26.4277 13.4518C26.408 13.3631 26.3792 13.2393 26.3407 13.0852C26.2637 12.7775 26.1473 12.3469 25.9848 11.8337C25.6621 10.8146 25.1466 9.43469 24.3774 8.03616C22.8854 5.32331 20.1122 2 15.5 2C13.6435 2 11.863 2.7375 10.5503 4.05025C9.2375 5.36301 8.5 7.14348 8.5 9C8.5 10.8565 9.2375 12.637 10.5503 13.9497C11.863 15.2625 13.6435 16 15.5 16H24.5C25.0992 16 25.6668 15.7314 26.0467 15.268C26.4266 14.8046 26.5787 14.1953 26.4612 13.6078L24.5 14Z" fill="#C62828"/>
<path fill-rule="evenodd" clip-rule="evenodd" d="M24.6226 8.03616C26.1147 5.32331 28.8878 2 33.5 2C35.3565 2 37.137 2.7375 38.4498 4.05025C39.7625 5.36301 40.5 7.14348 40.5 9C40.5 10.8565 39.7625 12.637 38.4498 13.9497C37.137 15.2625 35.3565 16 33.5 16H24.5C23.9008 16 23.3332 15.7314 22.9533 15.268C22.5735 14.8046 22.4213 14.1953 22.5389 13.6078L24.5 14C22.5389 13.6078 22.539 13.6071 22.5391 13.6064L22.5395 13.6047L22.5403 13.6008L22.5425 13.5901L22.5492 13.5579C22.5547 13.5317 22.5624 13.4961 22.5723 13.4518C22.5921 13.3631 22.6208 13.2393 22.6593 13.0852C22.7363 12.7775 22.8527 12.3469 23.0152 11.8337C23.3379 10.8146 23.8534 9.43469 24.6226 8.03616ZM27.192 12H33.5C34.2957 12 35.0587 11.6839 35.6213 11.1213C36.1839 10.5587 36.5 9.79565 36.5 9C36.5 8.20435 36.1839 7.44129 35.6213 6.87868C35.0587 6.31607 34.2957 6 33.5 6C31.1122 6 29.3854 7.67669 28.1274 9.96384C27.7452 10.6588 27.4361 11.3612 27.192 12ZM26.4605 14.3956C26.4604 14.3961 26.4604 14.3961 26.4605 14.3954L26.4605 14.3956Z" fill="#C62828"/>
</svg>
