<svg width="32" height="32" viewBox="0 0 32 32" fill="none" xmlns="http://www.w3.org/2000/svg">
<rect x="0.5" y="0.5" width="31" height="31" rx="15.5" fill="white"/>
<path d="M16.8335 8.5C12.6918 8.5 9.3335 11.8583 9.3335 16H6.8335L10.0752 19.2417L10.1335 19.3583L13.5002 16H11.0002C11.0002 12.775 13.6085 10.1667 16.8335 10.1667C20.0585 10.1667 22.6668 12.775 22.6668 16C22.6668 19.225 20.0585 21.8333 16.8335 21.8333C15.2252 21.8333 13.7668 21.175 12.7168 20.1167L11.5335 21.3C12.8918 22.6583 14.7585 23.5 16.8335 23.5C20.9752 23.5 24.3335 20.1417 24.3335 16C24.3335 11.8583 20.9752 8.5 16.8335 8.5ZM16.0002 12.6667V16.8333L19.5668 18.95L20.1668 17.9417L17.2502 16.2083V12.6667H16.0002Z" fill="#C62828"/>
<rect x="0.5" y="0.5" width="31" height="31" rx="15.5" stroke="#C62828"/>
</svg>
