<svg width="32" height="32" viewBox="0 0 32 32" fill="none" xmlns="http://www.w3.org/2000/svg">
<rect x="0.5" y="0.5" width="31" height="31" rx="15.5" fill="white"/>
<path d="M20.9219 11.4863C20.6484 10.8887 20.2598 10.3516 19.7637 9.89258C18.7559 8.95703 17.418 8.44141 16 8.44141C14.582 8.44141 13.2441 8.95703 12.2363 9.89062C11.7402 10.3516 11.3516 10.8867 11.0781 11.4863C10.793 12.1113 10.6484 12.7734 10.6484 13.457V13.9844C10.6484 14.1055 10.7461 14.2031 10.8672 14.2031H11.9219C12.043 14.2031 12.1406 14.1055 12.1406 13.9844V13.457C12.1406 11.5137 13.8711 9.93359 16 9.93359C18.1289 9.93359 19.8594 11.5137 19.8594 13.457C19.8594 14.2539 19.5762 15.0039 19.0391 15.6289C18.5078 16.248 17.7578 16.6914 16.9277 16.8789C16.4531 16.9863 16.0254 17.2539 15.7227 17.6367C15.421 18.0182 15.2565 18.4902 15.2559 18.9766V19.5898C15.2559 19.7109 15.3535 19.8086 15.4746 19.8086H16.5293C16.6504 19.8086 16.748 19.7109 16.748 19.5898V18.9766C16.748 18.6699 16.9609 18.4004 17.2559 18.334C18.3965 18.0762 19.4316 17.4609 20.1719 16.6016C20.5449 16.166 20.8359 15.6816 21.0371 15.1562C21.2461 14.6113 21.3516 14.0391 21.3516 13.457C21.3516 12.7734 21.207 12.1094 20.9219 11.4863ZM16 21.3711C15.3965 21.3711 14.9062 21.8613 14.9062 22.4648C14.9062 23.0684 15.3965 23.5586 16 23.5586C16.6035 23.5586 17.0938 23.0684 17.0938 22.4648C17.0938 21.8613 16.6035 21.3711 16 21.3711Z" fill="#C62828"/>
<rect x="0.5" y="0.5" width="31" height="31" rx="15.5" stroke="#C62828"/>
</svg>
