<svg width="14" height="13" viewBox="0 0 14 13" fill="none" xmlns="http://www.w3.org/2000/svg">
<path d="M13.722 6.59733C13.1727 5.44014 12.519 4.49639 11.761 3.76607L10.966 4.56107C11.6143 5.18061 12.179 5.99108 12.6673 7.00045C11.3673 9.69108 9.52196 10.9692 7.00009 10.9692C6.24311 10.9692 5.54587 10.8526 4.90837 10.6195L4.04696 11.4809C4.93238 11.8898 5.91676 12.0942 7.00009 12.0942C10.0032 12.0942 12.2438 10.5301 13.722 7.40201C13.7814 7.27621 13.8122 7.1388 13.8122 6.99967C13.8122 6.86054 13.7814 6.72313 13.722 6.59733ZM12.7287 1.58732L12.0626 0.92045C12.051 0.908828 12.0372 0.899608 12.022 0.893317C12.0068 0.887027 11.9906 0.883789 11.9742 0.883789C11.9577 0.883789 11.9415 0.887027 11.9263 0.893317C11.9111 0.899608 11.8973 0.908828 11.8857 0.92045L10.1768 2.62857C9.23462 2.14732 8.17571 1.9067 7.00009 1.9067C3.99696 1.9067 1.75634 3.47076 0.278215 6.59889C0.218802 6.7247 0.187988 6.8621 0.187988 7.00123C0.187988 7.14036 0.218802 7.27777 0.278215 7.40357C0.868736 8.64733 1.57967 9.64425 2.41103 10.3944L0.75759 12.0473C0.734166 12.0708 0.721008 12.1025 0.721008 12.1357C0.721008 12.1688 0.734166 12.2006 0.75759 12.224L1.42462 12.8911C1.44806 12.9145 1.47984 12.9277 1.51298 12.9277C1.54612 12.9277 1.5779 12.9145 1.60134 12.8911L12.7287 1.7642C12.7403 1.75259 12.7495 1.7388 12.7558 1.72363C12.7621 1.70846 12.7653 1.69219 12.7653 1.67576C12.7653 1.65934 12.7621 1.64307 12.7558 1.62789C12.7495 1.61272 12.7403 1.59893 12.7287 1.58732ZM1.3329 7.00045C2.63447 4.30983 4.47978 3.0317 7.00009 3.0317C7.85228 3.0317 8.62712 3.17795 9.33009 3.47529L8.23165 4.57373C7.71145 4.29617 7.1158 4.19316 6.5326 4.2799C5.94939 4.36663 5.4095 4.63851 4.99258 5.05544C4.57565 5.47236 4.30377 6.01225 4.21704 6.59546C4.1303 7.17866 4.23331 7.77431 4.51087 8.29451L3.20743 9.59795C2.48603 8.96123 1.86415 8.09858 1.3329 7.00045ZM5.18759 7.00045C5.18786 6.72493 5.25313 6.45335 5.37808 6.20779C5.50303 5.96223 5.68414 5.7496 5.9067 5.58718C6.12926 5.42477 6.387 5.31714 6.65898 5.27305C6.93095 5.22895 7.20949 5.24964 7.47196 5.33342L5.27056 7.53483C5.21538 7.36208 5.18739 7.1818 5.18759 7.00045Z" fill="#8C8C8C"/>
</svg>
