<svg width="32" height="32" viewBox="0 0 32 32" fill="none" xmlns="http://www.w3.org/2000/svg">
<rect x="0.5" y="0.5" width="31" height="31" rx="15.5" fill="white"/>
<path fill-rule="evenodd" clip-rule="evenodd" d="M10.9375 13.1875C9.3842 13.1875 8.125 14.4467 8.125 16C8.125 17.5533 9.3842 18.8125 10.9375 18.8125C12.4908 18.8125 13.75 17.5533 13.75 16C13.75 14.4467 12.4908 13.1875 10.9375 13.1875ZM7 16C7 13.8254 8.76288 12.0625 10.9375 12.0625C13.1121 12.0625 14.875 13.8254 14.875 16C14.875 18.1746 13.1121 19.9375 10.9375 19.9375C8.76288 19.9375 7 18.1746 7 16Z" fill="#C62828"/>
<path fill-rule="evenodd" clip-rule="evenodd" d="M21.0625 13.1875C19.5092 13.1875 18.25 14.4467 18.25 16C18.25 17.5533 19.5092 18.8125 21.0625 18.8125C22.6158 18.8125 23.875 17.5533 23.875 16C23.875 14.4467 22.6158 13.1875 21.0625 13.1875ZM17.125 16C17.125 13.8254 18.8879 12.0625 21.0625 12.0625C23.2371 12.0625 25 13.8254 25 16C25 18.1746 23.2371 19.9375 21.0625 19.9375C18.8879 19.9375 17.125 18.1746 17.125 16Z" fill="#C62828"/>
<path fill-rule="evenodd" clip-rule="evenodd" d="M10.375 19.375C10.375 19.0643 10.6268 18.8125 10.9375 18.8125H21.0625C21.3732 18.8125 21.625 19.0643 21.625 19.375C21.625 19.6857 21.3732 19.9375 21.0625 19.9375H10.9375C10.6268 19.9375 10.375 19.6857 10.375 19.375Z" fill="#C62828"/>
<rect x="0.5" y="0.5" width="31" height="31" rx="15.5" stroke="#C62828"/>
</svg>
