<svg width="14" height="14" viewBox="0 0 14 14" fill="none" xmlns="http://www.w3.org/2000/svg">
<path d="M13.3332 11.3332H11.9999V9.99987C11.9999 9.92654 11.9399 9.86654 11.8666 9.86654H11.0666C10.9932 9.86654 10.9332 9.92654 10.9332 9.99987V11.3332H9.59989C9.52656 11.3332 9.46656 11.3932 9.46656 11.4665V12.2665C9.46656 12.3399 9.52656 12.3999 9.59989 12.3999H10.9332V13.7332C10.9332 13.8065 10.9932 13.8665 11.0666 13.8665H11.8666C11.9399 13.8665 11.9999 13.8065 11.9999 13.7332V12.3999H13.3332C13.4066 12.3999 13.4666 12.3399 13.4666 12.2665V11.4665C13.4666 11.3932 13.4066 11.3332 13.3332 11.3332ZM4.69156 6.7732C4.67656 6.6282 4.66823 6.48154 4.66823 6.3332C4.66823 6.0682 4.69323 5.80987 4.73989 5.5582C4.75156 5.4982 4.71989 5.43654 4.66489 5.41154C4.43823 5.30987 4.22989 5.16987 4.04989 4.9932C3.83779 4.78755 3.67089 4.53994 3.55983 4.26618C3.44878 3.99241 3.39601 3.6985 3.40489 3.4032C3.41989 2.8682 3.63489 2.35987 4.00989 1.97654C4.42156 1.55487 4.97489 1.32487 5.56323 1.33154C6.09489 1.33654 6.60823 1.54154 6.99656 1.90487C7.12823 2.0282 7.24156 2.16487 7.33656 2.31154C7.36989 2.3632 7.43489 2.38487 7.49156 2.36487C7.78489 2.2632 8.09489 2.19154 8.41323 2.1582C8.50656 2.1482 8.55989 2.0482 8.51823 1.96487C7.97656 0.893203 6.86989 0.153204 5.58989 0.133204C3.74323 0.10487 2.20323 1.61987 2.20323 3.46654C2.20323 4.5132 2.68489 5.44654 3.43989 6.0582C2.90989 6.3032 2.42156 6.64154 1.99823 7.06487C1.08489 7.97654 0.568226 9.17987 0.534893 10.4649C0.534448 10.4827 0.537568 10.5004 0.544069 10.5169C0.55057 10.5335 0.560321 10.5486 0.572747 10.5613C0.585173 10.574 0.600022 10.5842 0.61642 10.5911C0.632818 10.598 0.650433 10.6015 0.668226 10.6015H1.60323C1.67489 10.6015 1.73489 10.5449 1.73656 10.4732C1.76823 9.50654 2.15989 8.60154 2.84823 7.91487C3.33823 7.42487 3.93823 7.08487 4.59323 6.91987C4.65656 6.90154 4.69989 6.83987 4.69156 6.7732ZM12.1999 6.3332C12.1999 4.50987 10.7349 3.0282 8.91823 2.99987C7.07156 2.97154 5.53323 4.48654 5.53323 6.3332C5.53323 7.37987 6.01656 8.3132 6.76989 8.92487C6.2344 9.17309 5.74693 9.51387 5.32989 9.93154C4.41656 10.8432 3.89989 12.0465 3.86656 13.3299C3.86611 13.3477 3.86923 13.3654 3.87574 13.3819C3.88224 13.3985 3.89199 13.4136 3.90441 13.4263C3.91684 13.439 3.93169 13.4492 3.94809 13.4561C3.96448 13.463 3.9821 13.4665 3.99989 13.4665H4.93323C5.00489 13.4665 5.06489 13.4099 5.06656 13.3382C5.09823 12.3715 5.48989 11.4665 6.17823 10.7799C6.89656 10.0615 7.84989 9.66654 8.86656 9.66654C10.7066 9.66654 12.1999 8.17487 12.1999 6.3332ZM10.3749 7.84154C9.97156 8.24487 9.43656 8.46654 8.86656 8.46654C8.29656 8.46654 7.76156 8.24487 7.35823 7.84154C7.15696 7.64132 6.99793 7.40273 6.89057 7.13992C6.78321 6.8771 6.72971 6.59541 6.73323 6.31154C6.73823 5.76487 6.95656 5.23654 7.33823 4.84487C7.73823 4.43487 8.27323 4.20654 8.84489 4.19987C9.40989 4.19487 9.95823 4.41487 10.3616 4.80987C10.7749 5.21487 11.0016 5.75654 11.0016 6.3332C10.9999 6.9032 10.7782 7.4382 10.3749 7.84154Z" fill="#C62828"/>
</svg>
