<svg width="16" height="12" viewBox="0 0 16 12" fill="none" xmlns="http://www.w3.org/2000/svg">
<path d="M5.86668 0.311523C2.72357 0.311523 0.177795 2.8573 0.177795 6.00041C0.177795 9.14352 2.72357 11.6893 5.86668 11.6893C9.0098 11.6893 11.5556 9.14352 11.5556 6.00041C11.5556 2.8573 9.0098 0.311523 5.86668 0.311523ZM5.86668 10.2671C3.51291 10.2671 1.60002 8.35419 1.60002 6.00041C1.60002 3.64663 3.51291 1.73375 5.86668 1.73375C8.22046 1.73375 10.1334 3.64663 10.1334 6.00041C10.1334 8.35419 8.22046 10.2671 5.86668 10.2671ZM11.5556 0.496412V1.98263C13.2125 2.56575 14.4 4.14441 14.4 6.00041C14.4 7.85641 13.2125 9.43508 11.5556 10.0182V11.5044C14.0089 10.8715 15.8222 8.65286 15.8222 6.00041C15.8222 3.34797 14.0089 1.1293 11.5556 0.496412Z" fill="#C62828"/>
</svg>
