<svg width="32" height="32" viewBox="0 0 32 32" fill="none" xmlns="http://www.w3.org/2000/svg">
<rect x="0.5" y="0.5" width="31" height="31" rx="15.5" fill="white"/>
<path fill-rule="evenodd" clip-rule="evenodd" d="M11.5 8.5C11.9142 8.5 12.25 8.83579 12.25 9.25V18.25C12.25 18.6642 11.9142 19 11.5 19C11.0858 19 10.75 18.6642 10.75 18.25V9.25C10.75 8.83579 11.0858 8.5 11.5 8.5Z" fill="#C62828"/>
<path fill-rule="evenodd" clip-rule="evenodd" d="M20.5 10C19.6716 10 19 10.6716 19 11.5C19 12.3284 19.6716 13 20.5 13C21.3284 13 22 12.3284 22 11.5C22 10.6716 21.3284 10 20.5 10ZM17.5 11.5C17.5 9.84315 18.8431 8.5 20.5 8.5C22.1569 8.5 23.5 9.84315 23.5 11.5C23.5 13.1569 22.1569 14.5 20.5 14.5C18.8431 14.5 17.5 13.1569 17.5 11.5Z" fill="#C62828"/>
<path fill-rule="evenodd" clip-rule="evenodd" d="M11.5 19C10.6716 19 10 19.6716 10 20.5C10 21.3284 10.6716 22 11.5 22C12.3284 22 13 21.3284 13 20.5C13 19.6716 12.3284 19 11.5 19ZM8.5 20.5C8.5 18.8431 9.84315 17.5 11.5 17.5C13.1569 17.5 14.5 18.8431 14.5 20.5C14.5 22.1569 13.1569 23.5 11.5 23.5C9.84315 23.5 8.5 22.1569 8.5 20.5Z" fill="#C62828"/>
<path fill-rule="evenodd" clip-rule="evenodd" d="M20.5 13C20.9142 13 21.25 13.3358 21.25 13.75C21.25 15.7391 20.4598 17.6468 19.0533 19.0533C17.6468 20.4598 15.7391 21.25 13.75 21.25C13.3358 21.25 13 20.9142 13 20.5C13 20.0858 13.3358 19.75 13.75 19.75C15.3413 19.75 16.8674 19.1179 17.9926 17.9926C19.1179 16.8674 19.75 15.3413 19.75 13.75C19.75 13.3358 20.0858 13 20.5 13Z" fill="#C62828"/>
<rect x="0.5" y="0.5" width="31" height="31" rx="15.5" stroke="#C62828"/>
</svg>
