<svg width="16" height="16" viewBox="0 0 16 16" fill="none" xmlns="http://www.w3.org/2000/svg">
<path d="M5.33334 7.33268H10.6667V8.66602H5.33334V7.33268ZM13.4 7.99935H14.6667C14.6667 6.15935 13.1733 4.66602 11.3333 4.66602H8.66668V5.93268H11.3333C12.4733 5.93268 13.4 6.85935 13.4 7.99935ZM2.60001 7.99935C2.60001 6.85935 3.52668 5.93268 4.66668 5.93268H7.33334V4.66602H4.66668C2.82668 4.66602 1.33334 6.15935 1.33334 7.99935C1.33334 9.83935 2.82668 11.3327 4.66668 11.3327H7.33334V10.066H4.66668C3.52668 10.066 2.60001 9.13935 2.60001 7.99935ZM12.6667 7.99935H11.3333V9.99935H9.33334V11.3327H11.3333V13.3327H12.6667V11.3327H14.6667V9.99935H12.6667V7.99935Z" fill="#8C8C8C"/>
</svg>
