<svg width="16" height="16" viewBox="0 0 16 16" fill="none" xmlns="http://www.w3.org/2000/svg">
<path fill-rule="evenodd" clip-rule="evenodd" d="M8 8C7.58579 8 7.25 8.33579 7.25 8.75C7.25 9.16421 7.58579 9.5 8 9.5C8.41421 9.5 8.75 9.16421 8.75 8.75C8.75 8.33579 8.41421 8 8 8ZM6.25 8.75C6.25 7.7835 7.0335 7 8 7C8.9665 7 9.75 7.7835 9.75 8.75C9.75 9.7165 8.9665 10.5 8 10.5C7.0335 10.5 6.25 9.7165 6.25 8.75Z" fill="#C62828"/>
<path fill-rule="evenodd" clip-rule="evenodd" d="M8 9.5C8.27614 9.5 8.5 9.72386 8.5 10V11.5C8.5 11.7761 8.27614 12 8 12C7.72386 12 7.5 11.7761 7.5 11.5V10C7.5 9.72386 7.72386 9.5 8 9.5Z" fill="#C62828"/>
<path fill-rule="evenodd" clip-rule="evenodd" d="M2 6C2 5.44772 2.44772 5 3 5H13C13.5523 5 14 5.44772 14 6V13C14 13.5523 13.5523 14 13 14H3C2.44772 14 2 13.5523 2 13V6ZM13 6H3V13H13V6Z" fill="#C62828"/>
<path fill-rule="evenodd" clip-rule="evenodd" d="M8 1.5C7.53587 1.5 7.09075 1.68437 6.76256 2.01256C6.43437 2.34075 6.25 2.78587 6.25 3.25V5.5C6.25 5.77614 6.02614 6 5.75 6C5.47386 6 5.25 5.77614 5.25 5.5V3.25C5.25 2.52065 5.53973 1.82118 6.05546 1.30546C6.57118 0.789731 7.27065 0.5 8 0.5C8.72935 0.5 9.42882 0.789731 9.94454 1.30546C10.4603 1.82118 10.75 2.52065 10.75 3.25V5.5C10.75 5.77614 10.5261 6 10.25 6C9.97386 6 9.75 5.77614 9.75 5.5V3.25C9.75 2.78587 9.56563 2.34075 9.23744 2.01256C8.90925 1.68437 8.46413 1.5 8 1.5Z" fill="#C62828"/>
</svg>
