<svg width="206" height="33" viewBox="0 0 206 33" fill="none" xmlns="http://www.w3.org/2000/svg">
<path d="M14.4058 32.434C9.91944 32.434 6.42316 31.2186 3.91698 28.7848C1.4108 26.3229 0.157715 22.8098 0.157715 18.2441V0.450454H6.19111V18.0189C6.19111 24.205 8.94481 27.2989 14.4522 27.2989C19.9287 27.2989 22.6669 24.205 22.6669 18.0189V0.450454H28.6075V18.2441C28.6075 22.8098 27.3544 26.3229 24.8482 28.7848C22.373 31.2186 18.8922 32.434 14.4058 32.434ZM65.9246 0.450454V31.9835H60.9587L43.0441 10.6314V31.9835H37.0571V0.450454H42.0231L59.9376 21.8025V0.450454H65.9246ZM74.6299 0.450454H80.6632V31.9835H74.6299V0.450454ZM118.927 0.450454L104.772 31.9835H98.8309L84.6293 0.450454H91.1732L101.987 24.7759L112.893 0.450454H118.927ZM146.721 27.0737V31.9835H122.355V0.450454H146.071V5.36029H128.388V13.5595H144.075V18.3802H128.388V27.0737H146.721ZM163.518 32.434C161.012 32.434 158.582 32.0883 156.231 31.3985C153.91 30.7072 152.07 29.7921 150.708 28.6503L152.797 24.1002C154.128 25.1216 155.752 25.9631 157.67 26.6232C159.62 27.2535 161.568 27.5695 163.518 27.5695C165.93 27.5695 167.726 27.1941 168.902 26.4433C170.107 25.6925 170.712 24.7009 170.712 23.4699C170.712 22.5689 170.372 21.8338 169.69 21.2629C169.041 20.6623 168.206 20.1961 167.184 19.8661C166.162 19.5361 164.77 19.1607 163.007 18.7399C160.532 18.169 158.521 17.5981 156.974 17.0288C155.457 16.4579 154.142 15.571 153.029 14.3697C151.946 13.1388 151.404 11.487 151.404 9.41454C151.404 7.67365 151.885 6.097 152.844 4.68459C153.833 3.24402 155.303 2.10219 157.253 1.26225C159.233 0.420745 161.645 0 164.493 0C166.472 0 168.422 0.240875 170.339 0.721066C172.259 1.20126 173.914 1.89261 175.306 2.79355L173.403 7.34362C171.98 6.53184 170.494 5.91712 168.947 5.49637C167.4 5.07561 165.9 4.86603 164.446 4.86603C162.063 4.86603 160.284 5.2555 159.109 6.03601C157.963 6.81807 157.391 7.85354 157.391 9.14551C157.391 10.0465 157.717 10.7816 158.366 11.3525C159.046 11.9234 159.897 12.3739 160.919 12.7039C161.94 13.034 163.333 13.4093 165.096 13.8301C167.51 14.3697 169.489 14.9406 171.036 15.5413C172.583 16.1122 173.898 16.9975 174.98 18.1987C176.096 19.4 176.652 21.022 176.652 23.0648C176.652 24.8057 176.157 26.3823 175.167 27.7947C174.207 29.2056 172.737 30.3318 170.758 31.1733C168.778 32.0132 166.364 32.434 163.518 32.434ZM188.772 5.40565H178.004V0.450454H205.573V5.40565H194.805V31.9835H188.772V5.40565Z" fill="url(#paint0_linear_465_54202)"/>
<defs>
<linearGradient id="paint0_linear_465_54202" x1="-3.92643" y1="-9.30929" x2="140.413" y2="87.8823" gradientUnits="userSpaceOnUse">
<stop stop-color="#850001"/>
<stop offset="0.390625" stop-color="#DF2A2B"/>
<stop offset="0.739583" stop-color="#AF1515"/>
<stop offset="1" stop-color="#8C0304"/>
</linearGradient>
</defs>
</svg>
