<svg width="40" height="40" viewBox="0 0 40 40" fill="none" xmlns="http://www.w3.org/2000/svg">
<path d="M19.9998 6.66602V1.66602L13.3332 8.33268L19.9998 14.9993V9.99935C25.5165 9.99935 29.9998 14.4827 29.9998 19.9993C29.9998 21.6827 29.5832 23.2827 28.8332 24.666L31.2665 27.0993C32.5665 25.0493 33.3332 22.616 33.3332 19.9993C33.3332 12.6327 27.3665 6.66602 19.9998 6.66602ZM19.9998 29.9993C14.4832 29.9993 9.99984 25.516 9.99984 19.9993C9.99984 18.316 10.4165 16.716 11.1665 15.3327L8.73317 12.8993C7.43317 14.9493 6.6665 17.3827 6.6665 19.9993C6.6665 27.366 12.6332 33.3327 19.9998 33.3327V38.3327L26.6665 31.666L19.9998 24.9993V29.9993Z" fill="#C62828"/>
</svg>
