<svg width="32" height="32" viewBox="0 0 32 32" fill="none" xmlns="http://www.w3.org/2000/svg">
<path d="M13.9999 18.8001L11.1999 16.0001L10.2666 16.9334L13.9999 20.6667L21.9999 12.6667L21.0666 11.7334L13.9999 18.8001Z" fill="#C62828"/>
<rect x="0.5" y="0.5" width="31" height="31" stroke="#C62828"/>
<path d="M16 31C7.71573 31 1 24.2843 1 16H-1C-1 25.3888 6.61116 33 16 33V31ZM31 16C31 24.2843 24.2843 31 16 31V33C25.3888 33 33 25.3888 33 16H31ZM16 1C24.2843 1 31 7.71573 31 16H33C33 6.61116 25.3888 -1 16 -1V1ZM16 -1C6.61116 -1 -1 6.61116 -1 16H1C1 7.71573 7.71573 1 16 1V-1Z" fill="#C62828"/>
</svg>
