<svg width="34" height="34" viewBox="0 0 34 34" fill="none" xmlns="http://www.w3.org/2000/svg">
<path d="M1 17C1 8.16344 8.16344 1 17 1C25.8366 1 33 8.16344 33 17C33 25.8366 25.8366 33 17 33C8.16344 33 1 25.8366 1 17Z" fill="white"/>
<path d="M15.9333 21.8664C15.9333 22.1493 16.0457 22.4206 16.2458 22.6207C16.4458 22.8207 16.7171 22.9331 17 22.9331C17.2829 22.9331 17.5542 22.8207 17.7543 22.6207C17.9543 22.4206 18.0667 22.1493 18.0667 21.8664C18.0667 21.5835 17.9543 21.3122 17.7543 21.1122C17.5542 20.9121 17.2829 20.7997 17 20.7997C16.7171 20.7997 16.4458 20.9121 16.2458 21.1122C16.0457 21.3122 15.9333 21.5835 15.9333 21.8664ZM16.4667 19.0664H17.5333C17.6067 19.0664 17.6667 19.0064 17.6667 18.9331V11.1997C17.6667 11.1264 17.6067 11.0664 17.5333 11.0664H16.4667C16.3933 11.0664 16.3333 11.1264 16.3333 11.1997V18.9331C16.3333 19.0064 16.3933 19.0664 16.4667 19.0664Z" fill="#C62828"/>
<path d="M17 32C8.71573 32 2 25.2843 2 17H0C0 26.3888 7.61116 34 17 34V32ZM32 17C32 25.2843 25.2843 32 17 32V34C26.3888 34 34 26.3888 34 17H32ZM17 2C25.2843 2 32 8.71573 32 17H34C34 7.61116 26.3888 0 17 0V2ZM17 0C7.61116 0 0 7.61116 0 17H2C2 8.71573 8.71573 2 17 2V0Z" fill="#C62828"/>
</svg>
