<svg width="25" height="24" viewBox="0 0 25 24" fill="none" xmlns="http://www.w3.org/2000/svg">
<path d="M12.5498 10.9C10.2798 10.31 9.54982 9.7 9.54982 8.75C9.54982 7.66 10.5598 6.9 12.2498 6.9C14.0298 6.9 14.6898 7.75 14.7498 9H16.9598C16.8898 7.28 15.8398 5.7 13.7498 5.19V3H10.7498V5.16C8.80982 5.58 7.24982 6.84 7.24982 8.77C7.24982 11.08 9.15982 12.23 11.9498 12.9C14.4498 13.5 14.9498 14.38 14.9498 15.31C14.9498 16 14.4598 17.1 12.2498 17.1C10.1898 17.1 9.37982 16.18 9.26982 15H7.06982C7.18982 17.19 8.82982 18.42 10.7498 18.83V21H13.7498V18.85C15.6998 18.48 17.2498 17.35 17.2498 15.3C17.2498 12.46 14.8198 11.49 12.5498 10.9Z" fill="#C62828"/>
</svg>
