<svg width="32" height="32" viewBox="0 0 32 32" fill="none" xmlns="http://www.w3.org/2000/svg">
<rect x="0.5" y="0.5" width="31" height="31" rx="15.5" fill="white"/>
<path d="M11.45 10.1667C11.5 10.9083 11.625 11.6333 11.825 12.325L10.825 13.325C10.4833 12.325 10.2667 11.2667 10.1917 10.1667H11.45ZM19.6667 20.1833C20.375 20.3833 21.1 20.5083 21.8333 20.5583V21.8C20.7333 21.725 19.675 21.5083 18.6667 21.175L19.6667 20.1833ZM12.25 8.5H9.33333C8.875 8.5 8.5 8.875 8.5 9.33333C8.5 17.1583 14.8417 23.5 22.6667 23.5C23.125 23.5 23.5 23.125 23.5 22.6667V19.7583C23.5 19.3 23.125 18.925 22.6667 18.925C21.6333 18.925 20.625 18.7583 19.6917 18.45C19.6083 18.4167 19.5167 18.4083 19.4333 18.4083C19.2167 18.4083 19.0083 18.4917 18.8417 18.65L17.0083 20.4833C14.65 19.275 12.7167 17.35 11.5167 14.9917L13.35 13.1583C13.5833 12.925 13.65 12.6 13.5583 12.3083C13.25 11.375 13.0833 10.375 13.0833 9.33333C13.0833 8.875 12.7083 8.5 12.25 8.5Z" fill="#C62828"/>
<rect x="0.5" y="0.5" width="31" height="31" rx="15.5" stroke="#C62828"/>
</svg>
