<svg width="148" height="159" viewBox="0 0 148 159" fill="none" xmlns="http://www.w3.org/2000/svg">
<path opacity="0.3" d="M84.2205 153.446C84.2205 156.145 70.5314 158.304 55.454 158.304C40.3767 158.304 29.6182 156.145 29.6182 153.446C29.6182 150.746 40.3767 148.587 55.454 148.587C70.5314 148.587 84.2205 150.785 84.2205 153.446Z" fill="#221F1F"/>
<path opacity="0.3" d="M136.239 147.315C136.239 150.014 124.015 152.173 108.938 152.173C93.8607 152.173 83.5649 150.014 83.5649 147.315C83.5649 144.615 93.8607 142.456 108.938 142.456C124.015 142.456 136.239 144.615 136.239 147.315Z" fill="#221F1F"/>
<path d="M141.021 68.1873C141.021 68.1873 143.065 70.3853 146.381 63.3672C149.697 56.3491 147.461 72.1205 143.798 75.4368C140.173 78.753 139.941 75.244 139.941 75.244L141.021 68.1873Z" fill="#C62828"/>
<path d="M125.288 61.13C125.288 61.13 136.394 56.9268 141.638 67.0684C146.882 77.2099 142.371 82.4542 138.862 84.228C135.314 86.0018 125.288 61.13 125.288 61.13Z" fill="#C62828"/>
<path d="M33.8599 130.617L37.6003 151.402C37.6003 151.402 44.0014 155.952 54.1815 153.137C64.323 150.322 58.6546 140.219 58.6546 140.219L33.8599 130.617Z" fill="#C62828"/>
<path d="M90.583 135.9L93.0509 148.239C93.0509 148.239 99.722 151.054 107.049 148.239C114.414 145.424 108.784 130.655 108.784 130.655L90.583 135.9Z" fill="#C62828"/>
<path d="M48.7443 39.6519C48.7443 39.6519 36.4819 24.0733 32.6258 25.1144C28.7697 26.1556 34.3611 52.1457 32.6258 56.3102C30.8906 60.4748 48.7443 39.6519 48.7443 39.6519Z" fill="#C62828"/>
<path d="M44.6569 43.7781C44.6569 43.7781 35.248 30.7059 34.5539 30.3589C33.8598 30.0118 35.6336 43.9709 35.248 48.6754C34.8624 53.4184 44.6569 43.7781 44.6569 43.7781Z" fill="#C62828"/>
<path d="M103.54 134.204L107.396 148.895C107.396 148.895 117.884 153.947 127.717 146.119C128.758 137.25 129.645 115.617 129.645 115.617L103.54 132.777" fill="#C62828"/>
<path d="M141.908 86.9273C144.53 123.522 111.29 141.491 74.156 141.491C37.0218 141.491 13.7695 121.555 13.7695 91.1305C13.7695 60.7058 42.2661 32.9034 76.7782 32.9034C113.373 32.8648 139.71 56.5798 141.908 86.9273Z" fill="#D63939"/>
<path d="M141.908 86.9273C144.53 123.522 111.29 141.491 74.156 141.491C37.0218 141.491 13.7695 121.555 13.7695 91.1305C13.7695 60.7058 42.2661 32.9034 76.7782 32.9034C113.373 32.8648 139.71 56.5798 141.908 86.9273Z" fill="white" fill-opacity="0.3"/>
<path d="M50.8265 54.8833C50.2867 52.2611 63.5902 29.3559 67.4463 31.2454C71.3024 33.0963 73.3847 64.485 70.9553 69.3822C68.526 74.318 51.3664 57.5054 50.8265 54.8833Z" fill="#C62828"/>
<path d="M55.4539 53.6494C55.4539 53.6494 63.4361 37.6851 65.5569 37.5309C67.6392 37.3766 68.0248 66.9143 64.5158 64.0608C61.0067 61.1688 55.2611 55.7702 55.4539 53.6494Z" fill="#C62828"/>
<path d="M73.5391 38.071C73.5391 38.071 93.2052 35.179 111.29 45.8989C112.833 47.6342 112.871 49.755 112.871 49.755C112.871 49.755 97.1384 41.0017 75.1201 42.7369C74.8887 40.6932 73.5391 38.071 73.5391 38.071Z" fill="#C62828"/>
<path d="M80.0946 140.489L76.5856 154.024C76.5856 154.024 70.9171 156.685 56.5339 154.988C54.1817 150.978 51.4053 132.43 51.4053 132.43L80.0946 140.489Z" fill="#D63939"/>
<path d="M80.0946 140.489L76.5856 154.024C76.5856 154.024 70.9171 156.685 56.5339 154.988C54.1817 150.978 51.4053 132.43 51.4053 132.43L80.0946 140.489Z" fill="white" fill-opacity="0.3"/>
<path d="M25.8393 76.8243C22.6387 75.3205 8.60254 78.3668 8.60254 78.3668L11.726 122.481C11.726 122.481 23.9498 124.254 29.0013 121.247C34.0528 118.239 37.022 110.527 36.1351 98.11C35.2482 85.6163 29.0013 78.2897 25.8393 76.8243Z" fill="#C62828"/>
<path d="M20.2092 99.6529C21.0576 111.838 17.2786 122.018 11.7258 122.404C6.17302 122.789 0.967285 113.226 0.118944 101.08C-0.729398 88.8944 3.04958 78.7143 8.60236 78.3286C14.1551 77.943 19.3223 87.5062 20.2092 99.6529Z" fill="#D63939"/>
<path d="M20.2092 99.6529C21.0576 111.838 17.2786 122.018 11.7258 122.404C6.17302 122.789 0.967285 113.226 0.118944 101.08C-0.729398 88.8944 3.04958 78.7143 8.60236 78.3286C14.1551 77.943 19.3223 87.5062 20.2092 99.6529Z" fill="white" fill-opacity="0.3"/>
<path d="M8.25544 106.554C8.33256 107.596 7.56134 108.483 6.5202 108.56L5.86466 108.598C4.82351 108.675 3.93661 107.904 3.85949 106.863L2.93402 93.9836C2.8569 92.9425 3.62812 92.0556 4.66927 91.9784L5.32481 91.9399C6.36595 91.8628 7.25286 92.634 7.32998 93.6751L8.25544 106.554Z" fill="#C62828"/>
<path d="M15.5435 106.825C15.6207 107.866 14.8494 108.753 13.8083 108.83L13.1527 108.869C12.1116 108.946 11.2247 108.175 11.1476 107.134L10.2221 94.2541C10.145 93.213 10.9162 92.3261 11.9574 92.249L12.6129 92.2104C13.654 92.1333 14.5409 92.9045 14.6181 93.9456L15.5435 106.825Z" fill="#C62828"/>
<path d="M33.4742 68.7652C32.2402 72.6599 34.2454 76.7088 37.9087 77.8656C41.572 79.0224 45.5438 76.8245 46.7392 72.9298C47.9731 69.0351 45.9679 64.9862 42.3047 63.8294C38.6414 62.7111 34.6696 64.9091 33.4742 68.7652Z" fill="white"/>
<path d="M34.207 68.9963C33.243 72.0426 34.824 75.2046 37.6775 76.1301C40.531 77.017 43.6159 75.3203 44.5799 72.274C45.544 69.2276 43.963 66.0656 41.1094 65.1402C38.2559 64.2533 35.1325 65.9885 34.207 68.9963Z" fill="#221F1F"/>
<path d="M28.5383 67.9552C27.1886 70.5388 24.7207 71.927 22.9855 71.0401C21.2502 70.1532 20.9417 67.3382 22.2914 64.7161C23.641 62.1325 26.1089 60.7443 27.8442 61.6312C29.5794 62.5567 29.8879 65.3716 28.5383 67.9552Z" fill="white"/>
<path d="M27.3044 67.3384C26.2633 69.3821 24.2967 70.4618 22.947 69.7677C21.5974 69.0737 21.366 66.8757 22.4072 64.8319C23.4483 62.7882 25.4149 61.7085 26.7646 62.4026C28.0756 63.0967 28.3456 65.2947 27.3044 67.3384Z" fill="#221F1F"/>
<path d="M43.6158 68.4961C43.6158 69.1902 43.0374 69.7687 42.3433 69.7687C41.6492 69.7687 41.0708 69.1902 41.0708 68.4961C41.0708 67.802 41.6492 67.2236 42.3433 67.2236C43.0374 67.2236 43.6158 67.802 43.6158 68.4961Z" fill="white"/>
<path d="M26.8031 64.794C26.6489 65.1025 26.3018 65.2567 25.9548 65.141C25.6463 64.9868 25.4921 64.6397 25.6077 64.2927C25.762 63.9842 26.109 63.83 26.4561 63.9456C26.8031 64.0999 26.9574 64.4469 26.8031 64.794Z" fill="white"/>
<path d="M114.484 26.2567C111.284 37.0923 99.9083 43.2621 89.0727 40.0615C78.237 36.8609 72.0673 25.4855 75.2678 14.6498C78.4684 3.81418 89.8439 -2.35558 100.68 0.844981C111.515 4.04554 117.723 15.421 114.484 26.2567Z" fill="#E8AF2E"/>
<path d="M110.976 25.2157C108.353 34.0848 99.0216 39.1362 90.1526 36.5141C81.2836 33.8919 76.2321 24.5602 78.8542 15.6912C81.4764 6.82214 90.8081 1.77064 99.6772 4.39279C108.508 7.01494 113.598 16.3467 110.976 25.2157Z" fill="#F9CA35"/>
<path d="M99.677 17.0791C99.9469 15.8066 98.9829 14.8426 96.7849 14.1485C94.5869 13.493 93.2759 13.7629 92.9288 14.9197C92.6975 15.6524 92.9288 16.2694 93.5458 16.8092C94.1628 17.3491 95.4738 18.1589 97.5176 19.2C99.5613 20.2797 100.911 21.4365 101.644 22.709C102.376 23.9816 102.492 25.4083 102.029 26.9508C101.489 28.7631 100.255 29.9199 98.3274 30.4212C96.3993 30.9225 94.3941 30.8454 92.3118 30.2284C87.2604 28.7246 84.9467 25.9096 85.4094 21.8221L89.6897 22.7476C89.3812 24.8685 90.5766 26.3338 93.2759 27.1436C95.7823 27.9148 97.2862 27.4135 97.7875 25.7168C98.0189 24.9456 97.8646 24.3286 97.3633 23.7502C96.862 23.2103 95.551 22.362 93.4301 21.2437C91.3093 20.1255 89.8825 18.9686 89.1498 17.7732C88.4172 16.5778 88.2629 15.3053 88.6485 13.9557C89.0727 12.5289 90.0753 11.4878 91.6563 10.8708C93.2373 10.2538 95.2425 10.331 97.7104 11.0636C102.569 12.5289 104.613 14.8812 103.88 18.1588L99.677 17.0791Z" fill="#C38728"/>
<path d="M99.8312 12.1434L95.8594 10.948L96.9391 7.32324L100.911 8.51863L99.8312 12.1434Z" fill="#C38728"/>
<path d="M90.4533 28.9508L89.3672 32.5703L93.356 33.7672L94.4421 30.1477L90.4533 28.9508Z" fill="#C38728"/>
<path d="M110.474 16.0761C110.474 14.4565 111.168 12.0272 111.708 11.4873C112.209 10.986 114.677 10.2534 116.296 10.2534C114.677 10.2534 112.325 9.6364 111.708 9.01942C111.052 8.36388 110.474 6.05023 110.474 4.43066C110.474 6.08879 109.857 8.40244 109.163 9.09654C108.43 9.8292 106.232 10.2534 104.651 10.2534C106.27 10.2534 108.623 10.9089 109.24 11.4873C109.857 12.1043 110.474 14.4565 110.474 16.0761Z" fill="white"/>
<path d="M114.368 16.9625C114.368 16.3841 114.638 15.5357 114.793 15.3429C114.985 15.1501 115.834 14.9187 116.412 14.9187C115.834 14.9187 114.985 14.6874 114.793 14.4946C114.561 14.2632 114.368 13.4534 114.368 12.875C114.368 13.4534 114.137 14.3018 113.906 14.5331C113.636 14.8031 112.865 14.9573 112.286 14.9573C112.865 14.9573 113.713 15.1887 113.906 15.3815C114.137 15.5743 114.368 16.4226 114.368 16.9625Z" fill="white"/>
<path d="M106.811 21.3593C106.811 20.5496 107.158 19.3542 107.428 19.0842C107.697 18.8143 108.893 18.4673 109.703 18.4673C108.893 18.4673 107.736 18.1588 107.428 17.8503C107.119 17.5418 106.811 16.385 106.811 15.5752C106.811 16.385 106.502 17.5418 106.155 17.8889C105.808 18.2359 104.69 18.4673 103.918 18.4673C104.728 18.4673 105.885 18.7758 106.194 19.0842C106.502 19.3927 106.811 20.5496 106.811 21.3593Z" fill="white"/>
</svg>
