<svg width="32" height="32" viewBox="0 0 32 32" fill="none" xmlns="http://www.w3.org/2000/svg">
<rect x="0.5" y="0.5" width="31" height="31" rx="15.5" fill="white"/>
<path fill-rule="evenodd" clip-rule="evenodd" d="M11.5 10.75C11.3011 10.75 11.1103 10.829 10.9697 10.9697C10.829 11.1103 10.75 11.3011 10.75 11.5V22C10.75 22.1989 10.829 22.3897 10.9697 22.5303C11.1103 22.671 11.3011 22.75 11.5 22.75H20.5C20.6989 22.75 20.8897 22.671 21.0303 22.5303C21.171 22.3897 21.25 22.1989 21.25 22V11.5C21.25 11.3011 21.171 11.1103 21.0303 10.9697C20.8897 10.829 20.6989 10.75 20.5 10.75H19C18.5858 10.75 18.25 10.4142 18.25 10C18.25 9.58579 18.5858 9.25 19 9.25H20.5C21.0967 9.25 21.669 9.48705 22.091 9.90901C22.5129 10.331 22.75 10.9033 22.75 11.5V22C22.75 22.5967 22.5129 23.169 22.091 23.591C21.669 24.0129 21.0967 24.25 20.5 24.25H11.5C10.9033 24.25 10.331 24.0129 9.90901 23.591C9.48705 23.169 9.25 22.5967 9.25 22V11.5C9.25 10.9033 9.48705 10.331 9.90901 9.90901C10.331 9.48705 10.9033 9.25 11.5 9.25H13C13.4142 9.25 13.75 9.58579 13.75 10C13.75 10.4142 13.4142 10.75 13 10.75H11.5Z" fill="#C62828"/>
<path fill-rule="evenodd" clip-rule="evenodd" d="M12.25 9.25C12.25 8.42157 12.9216 7.75 13.75 7.75H18.25C19.0784 7.75 19.75 8.42157 19.75 9.25V10.75C19.75 11.5784 19.0784 12.25 18.25 12.25H13.75C12.9216 12.25 12.25 11.5784 12.25 10.75V9.25ZM18.25 9.25H13.75V10.75H18.25V9.25Z" fill="#C62828"/>
<rect x="0.5" y="0.5" width="31" height="31" rx="15.5" stroke="#C62828"/>
</svg>
