<svg width="12" height="16" viewBox="0 0 12 16" fill="none" xmlns="http://www.w3.org/2000/svg">
<path d="M6.00005 11.5555C6.78227 11.5555 7.42227 10.9155 7.42227 10.1333C7.42227 9.35107 6.78227 8.71107 6.00005 8.71107C5.21782 8.71107 4.57782 9.35107 4.57782 10.1333C4.57782 10.9155 5.21782 11.5555 6.00005 11.5555ZM10.2667 5.15551H9.5556V3.73329C9.5556 1.77062 7.96271 0.177734 6.00005 0.177734C4.03738 0.177734 2.44449 1.77062 2.44449 3.73329V5.15551H1.73338C0.951157 5.15551 0.311157 5.79551 0.311157 6.57773V13.6888C0.311157 14.4711 0.951157 15.1111 1.73338 15.1111H10.2667C11.0489 15.1111 11.6889 14.4711 11.6889 13.6888V6.57773C11.6889 5.79551 11.0489 5.15551 10.2667 5.15551ZM3.7956 3.73329C3.7956 2.51729 4.78405 1.52885 6.00005 1.52885C7.21605 1.52885 8.20449 2.51729 8.20449 3.73329V5.15551H3.7956V3.73329ZM10.2667 13.6888H1.73338V6.57773H10.2667V13.6888Z" fill="#B8B8B8"/>
</svg>
