<svg width="25" height="24" viewBox="0 0 25 24" fill="none" xmlns="http://www.w3.org/2000/svg">
<path d="M12.0469 3.5625H13.4531C13.5781 3.5625 13.6406 3.625 13.6406 3.75V20.25C13.6406 20.375 13.5781 20.4375 13.4531 20.4375H12.0469C11.9219 20.4375 11.8594 20.375 11.8594 20.25V3.75C11.8594 3.625 11.9219 3.5625 12.0469 3.5625Z" fill="#C62828"/>
<path d="M4.875 11.1094H20.625C20.75 11.1094 20.8125 11.1719 20.8125 11.2969V12.7031C20.8125 12.8281 20.75 12.8906 20.625 12.8906H4.875C4.75 12.8906 4.6875 12.8281 4.6875 12.7031V11.2969C4.6875 11.1719 4.75 11.1094 4.875 11.1094Z" fill="#C62828"/>
</svg>
