<svg width="32" height="32" viewBox="0 0 32 32" fill="none" xmlns="http://www.w3.org/2000/svg">
<rect x="0.5" y="0.5" width="31" height="31" rx="15.5" fill="white"/>
<path fill-rule="evenodd" clip-rule="evenodd" d="M8.48437 9.41406C8.82955 9.41406 9.10937 9.69388 9.10937 10.0391V13.1641H12.2344C12.5796 13.1641 12.8594 13.4439 12.8594 13.7891C12.8594 14.1342 12.5796 14.4141 12.2344 14.4141H8.48437C8.1392 14.4141 7.85938 14.1342 7.85938 13.7891V10.0391C7.85938 9.69388 8.1392 9.41406 8.48437 9.41406Z" fill="#C62828"/>
<path fill-rule="evenodd" clip-rule="evenodd" d="M13.1303 9.07233C14.04 8.69513 15.0152 8.50098 16 8.50098C16.9848 8.50098 17.96 8.69513 18.8697 9.07233C19.7794 9.44953 20.6058 10.0024 21.3016 10.6993C21.5455 10.9435 21.5452 11.3392 21.301 11.5831C21.0567 11.827 20.661 11.8267 20.4171 11.5825C19.8374 11.0019 19.1488 10.5413 18.3909 10.227C17.633 9.91274 16.8205 9.75098 16 9.75098C15.1795 9.75098 14.367 9.91274 13.6091 10.227C12.8512 10.5413 12.1626 11.0019 11.5829 11.5825L11.5819 11.5835L8.92567 14.2319C8.68123 14.4756 8.2855 14.475 8.04178 14.2306C7.79806 13.9862 7.79865 13.5904 8.04308 13.3467L10.6984 10.6993C10.6985 10.6991 10.6987 10.6989 10.6989 10.6988C11.3946 10.0021 12.2208 9.44944 13.1303 9.07233Z" fill="#C62828"/>
<path fill-rule="evenodd" clip-rule="evenodd" d="M19.1406 18.2109C19.1406 17.8658 19.4204 17.5859 19.7656 17.5859H23.5156C23.8608 17.5859 24.1406 17.8658 24.1406 18.2109V21.9609C24.1406 22.3061 23.8608 22.5859 23.5156 22.5859C23.1704 22.5859 22.8906 22.3061 22.8906 21.9609V18.8359H19.7656C19.4204 18.8359 19.1406 18.5561 19.1406 18.2109Z" fill="#C62828"/>
<path fill-rule="evenodd" clip-rule="evenodd" d="M23.9582 17.7696C24.2019 18.0141 24.2014 18.4098 23.9569 18.6535L21.3016 21.301C21.3015 21.3011 21.3013 21.3013 21.3012 21.3015C20.6054 21.9981 19.7792 22.5508 18.8697 22.9279C17.96 23.3051 16.9848 23.4993 16 23.4993C15.0152 23.4993 14.04 23.3051 13.1303 22.9279C12.2206 22.5507 11.3942 21.9979 10.6984 21.301C10.4545 21.0567 10.4548 20.661 10.699 20.4171C10.9433 20.1732 11.339 20.1735 11.5829 20.4178C12.1626 20.9984 12.8512 21.459 13.6091 21.7732C14.367 22.0875 15.1795 22.2493 16 22.2493C16.8205 22.2493 17.633 22.0875 18.3909 21.7732C19.1488 21.459 19.8374 20.9984 20.4171 20.4178L23.0743 17.7683C23.3188 17.5246 23.7145 17.5252 23.9582 17.7696Z" fill="#C62828"/>
<rect x="0.5" y="0.5" width="31" height="31" rx="15.5" stroke="#C62828"/>
</svg>
