<svg width="36" height="32" viewBox="0 0 36 32" fill="none" xmlns="http://www.w3.org/2000/svg">
<path d="M17.8667 17.2667C16.3534 16.8733 15.8667 16.4667 15.8667 15.8333C15.8667 15.1067 16.54 14.6 17.6667 14.6C18.8534 14.6 19.2934 15.1667 19.3334 16H20.8067C20.76 14.8533 20.06 13.8 18.6667 13.46V12H16.6667V13.44C15.3734 13.72 14.3334 14.56 14.3334 15.8467C14.3334 17.3867 15.6067 18.1533 17.4667 18.6C19.1334 19 19.4667 19.5867 19.4667 20.2067C19.4667 20.6667 19.14 21.4 17.6667 21.4C16.2934 21.4 15.7534 20.7867 15.68 20H14.2134C14.2934 21.46 15.3867 22.28 16.6667 22.5533V24H18.6667V22.5667C19.9667 22.32 21 21.5667 21 20.2C21 18.3067 19.38 17.66 17.8667 17.2667Z" fill="#C62828"/>
<path d="M28.9764 4.72054C28.4885 5.63485 28.0357 6.47884 27.5566 7.37557C27.6005 7.36238 27.561 7.38876 27.539 7.37997C27.1346 7.19974 26.739 7.14259 26.4928 7.60414C26.2554 8.04811 26.5544 8.31625 26.884 8.56681C28.6511 9.91191 30.0358 11.5559 30.9017 13.6263C31.0116 13.8901 31.3281 14.1274 31.6007 14.2505C32.0798 14.4615 32.6029 14.5758 33.1084 14.7208C33.4996 14.8351 33.693 15.0857 33.693 15.4901C33.693 16.6682 33.6886 17.8462 33.693 19.0243C33.693 19.4595 33.482 19.7056 33.0776 19.8243C32.5238 19.9869 31.9523 20.1232 31.4248 20.3518C31.1523 20.4705 30.8402 20.7167 30.7347 20.976C29.9347 22.9277 28.6819 24.5278 27.0335 25.8245C26.673 26.1102 26.5236 26.4091 26.5851 26.8575C26.6994 27.6575 26.7829 28.4619 26.8796 29.262C26.9676 29.9961 26.7697 30.2686 26.0532 30.3873C25.6225 30.462 25.1873 30.5279 24.7521 30.5983C23.7806 30.7609 23.7543 30.7477 23.218 29.9038C23.1345 29.7719 23.0553 29.6356 22.9586 29.473C23.0861 29.407 23.1872 29.3455 23.2927 29.3015C23.6839 29.1345 23.8158 28.8268 23.6751 28.4444C23.5389 28.0751 23.2224 27.9872 22.8487 28.0795C21.9784 28.2905 21.1168 28.5455 20.2377 28.6949C17.8771 29.0905 15.5474 28.8883 13.2572 28.1894C13.1078 28.1455 12.9583 28.0839 12.8001 28.0575C12.4352 27.996 12.1143 28.1498 12.0748 28.4927C12.0484 28.7301 12.2374 29.0114 12.3781 29.2444C12.4352 29.3411 12.6198 29.3631 12.7429 29.4202C12.3605 30.5455 12.0396 30.7521 10.9451 30.5851C10.4923 30.5148 10.0439 30.44 9.59557 30.3609C9.01973 30.2598 8.79116 29.9433 8.86149 29.3543C8.9538 28.5675 9.02412 27.7806 9.1516 27.0026C9.24391 26.4267 9.04611 26.0619 8.59775 25.7058C6.61087 24.1277 5.19544 22.1409 4.62839 19.6485C3.70529 15.5956 4.96686 12.1933 7.9252 9.38443C8.63291 8.71188 9.49447 8.20637 10.2813 7.62613C10.3385 7.58657 10.4 7.5514 10.4615 7.51624C10.8396 7.30524 11.0769 7.02391 10.8615 6.57554C10.6769 6.18871 10.2945 6.11839 9.82415 6.37774C8.38235 7.18216 7.10759 8.19318 6.02624 9.44157C4.4086 11.3098 3.40197 13.4549 3.09427 15.9209C3.07669 16.0747 3.04152 16.2286 3.01515 16.3869C3.01075 16.4 2.99317 16.4132 2.98438 16.4264C1.90742 16.378 0.746952 14.7033 1.59093 13.1472C1.77555 12.8087 2.10523 12.5318 2.40854 12.2724C2.73382 11.9911 2.9668 11.7186 2.69427 11.2878C2.4569 10.9185 2.10084 10.8922 1.64368 11.2087C0.39529 12.0658 -0.158573 13.2747 0.039238 14.7516C0.24144 16.2638 1.15576 17.266 2.59756 17.7407C2.94922 17.855 3.04592 17.9913 3.08548 18.3429C3.43275 21.6353 4.96686 24.2992 7.44166 26.4443C7.77134 26.73 7.85926 27.0026 7.80212 27.3938C7.70981 28.0531 7.62629 28.7169 7.56914 29.3807C7.46804 30.5236 8.1318 31.4027 9.25711 31.6225C9.96482 31.7588 10.6725 31.895 11.3846 31.9829C12.1847 32.0796 12.8265 31.7632 13.2968 31.1126C13.543 30.7697 13.7452 30.3917 14.0089 30.0708C14.1144 29.9433 14.3606 29.8334 14.5144 29.8642C16.7694 30.3038 19.02 30.2862 21.2751 29.8642C21.4245 29.8378 21.6619 29.9653 21.7674 30.0928C22.0311 30.4181 22.2246 30.8005 22.4751 31.139C22.9674 31.7983 23.6356 32.0884 24.4576 31.961C25.1521 31.8555 25.8466 31.7543 26.5368 31.6093C27.6841 31.3675 28.3258 30.44 28.1808 29.2839C28.0973 28.6026 27.9874 27.9257 27.9566 27.2399C27.9434 27.007 28.0665 26.6861 28.2379 26.5322C29.7413 25.2179 30.9413 23.6794 31.7721 21.8595C31.8512 21.6837 32.0578 21.5211 32.2424 21.4463C32.6644 21.2749 33.1128 21.1738 33.548 21.0288C34.4711 20.7211 34.9898 20.0221 34.9986 19.055C35.0074 17.8418 35.0074 16.6286 35.003 15.4154C34.9986 14.5011 34.5106 13.6922 33.6227 13.5252C32.4183 13.2966 31.8468 12.5669 31.2886 11.5603C30.6995 10.5053 29.7896 9.63059 29.0467 8.65473C28.9105 8.4789 28.7918 8.15362 28.8665 7.98218C29.205 7.19974 29.5698 6.4173 30.0094 5.6876C30.3347 5.14253 30.4929 4.63702 30.1633 4.06557C29.8424 3.51171 29.3237 3.36226 28.7215 3.39743C27.5038 3.45897 26.3785 3.8238 25.3191 4.41723C24.9455 4.62383 24.6906 4.89637 24.8972 5.35352C25.0686 5.74035 25.4422 5.81948 25.9258 5.56452C26.862 5.08539 27.8335 4.72054 28.9764 4.72054Z" fill="#EC1E24"/>
<path d="M28.9764 4.72054C28.4885 5.63485 28.0357 6.47884 27.5566 7.37557C27.6005 7.36238 27.561 7.38876 27.539 7.37997C27.1346 7.19974 26.739 7.14259 26.4928 7.60414C26.2554 8.04811 26.5544 8.31625 26.884 8.56681C28.6511 9.91191 30.0358 11.5559 30.9017 13.6263C31.0116 13.8901 31.3281 14.1274 31.6007 14.2505C32.0798 14.4615 32.6029 14.5758 33.1084 14.7208C33.4996 14.8351 33.693 15.0857 33.693 15.4901C33.693 16.6682 33.6886 17.8462 33.693 19.0243C33.693 19.4595 33.482 19.7056 33.0776 19.8243C32.5238 19.9869 31.9523 20.1232 31.4248 20.3518C31.1523 20.4705 30.8402 20.7167 30.7347 20.976C29.9347 22.9277 28.6819 24.5278 27.0335 25.8245C26.673 26.1102 26.5236 26.4091 26.5851 26.8575C26.6994 27.6575 26.7829 28.4619 26.8796 29.262C26.9676 29.9961 26.7697 30.2686 26.0532 30.3873C25.6225 30.462 25.1873 30.5279 24.7521 30.5983C23.7806 30.7609 23.7543 30.7477 23.218 29.9038C23.1345 29.7719 23.0553 29.6356 22.9586 29.473C23.0861 29.407 23.1872 29.3455 23.2927 29.3015C23.6839 29.1345 23.8158 28.8268 23.6751 28.4444C23.5389 28.0751 23.2224 27.9872 22.8487 28.0795C21.9784 28.2905 21.1168 28.5455 20.2377 28.6949C17.8771 29.0905 15.5474 28.8883 13.2572 28.1894C13.1078 28.1455 12.9583 28.0839 12.8001 28.0575C12.4352 27.996 12.1143 28.1498 12.0748 28.4927C12.0484 28.7301 12.2374 29.0114 12.3781 29.2444C12.4352 29.3411 12.6198 29.3631 12.7429 29.4202C12.3605 30.5455 12.0396 30.7521 10.9451 30.5851C10.4923 30.5148 10.0439 30.44 9.59557 30.3609C9.01973 30.2598 8.79116 29.9433 8.86149 29.3543C8.9538 28.5675 9.02412 27.7806 9.1516 27.0026C9.24391 26.4267 9.04611 26.0619 8.59775 25.7058C6.61087 24.1277 5.19544 22.1409 4.62839 19.6485C3.70529 15.5956 4.96686 12.1933 7.9252 9.38443C8.63291 8.71188 9.49447 8.20637 10.2813 7.62613C10.3385 7.58657 10.4 7.5514 10.4615 7.51624C10.8396 7.30524 11.0769 7.02391 10.8615 6.57554C10.6769 6.18871 10.2945 6.11839 9.82415 6.37774C8.38235 7.18216 7.10759 8.19318 6.02624 9.44157C4.4086 11.3098 3.40197 13.4549 3.09427 15.9209C3.07669 16.0747 3.04152 16.2286 3.01515 16.3869C3.01075 16.4 2.99317 16.4132 2.98438 16.4264C1.90742 16.378 0.746952 14.7033 1.59093 13.1472C1.77555 12.8087 2.10523 12.5318 2.40854 12.2724C2.73382 11.9911 2.9668 11.7186 2.69427 11.2878C2.4569 10.9185 2.10084 10.8922 1.64368 11.2087C0.39529 12.0658 -0.158573 13.2747 0.039238 14.7516C0.24144 16.2638 1.15576 17.266 2.59756 17.7407C2.94922 17.855 3.04592 17.9913 3.08548 18.3429C3.43275 21.6353 4.96686 24.2992 7.44166 26.4443C7.77134 26.73 7.85926 27.0026 7.80212 27.3938C7.70981 28.0531 7.62629 28.7169 7.56914 29.3807C7.46804 30.5236 8.1318 31.4027 9.25711 31.6225C9.96482 31.7588 10.6725 31.895 11.3846 31.9829C12.1847 32.0796 12.8265 31.7632 13.2968 31.1126C13.543 30.7697 13.7452 30.3917 14.0089 30.0708C14.1144 29.9433 14.3606 29.8334 14.5144 29.8642C16.7694 30.3038 19.02 30.2862 21.2751 29.8642C21.4245 29.8378 21.6619 29.9653 21.7674 30.0928C22.0311 30.4181 22.2246 30.8005 22.4751 31.139C22.9674 31.7983 23.6356 32.0884 24.4576 31.961C25.1521 31.8555 25.8466 31.7543 26.5368 31.6093C27.6841 31.3675 28.3258 30.44 28.1808 29.2839C28.0973 28.6026 27.9874 27.9257 27.9566 27.2399C27.9434 27.007 28.0665 26.6861 28.2379 26.5322C29.7413 25.2179 30.9413 23.6794 31.7721 21.8595C31.8512 21.6837 32.0578 21.5211 32.2424 21.4463C32.6644 21.2749 33.1128 21.1738 33.548 21.0288C34.4711 20.7211 34.9898 20.0221 34.9986 19.055C35.0074 17.8418 35.0074 16.6286 35.003 15.4154C34.9986 14.5011 34.5106 13.6922 33.6227 13.5252C32.4183 13.2966 31.8468 12.5669 31.2886 11.5603C30.6995 10.5053 29.7896 9.63059 29.0467 8.65473C28.9105 8.4789 28.7918 8.15362 28.8665 7.98218C29.205 7.19974 29.5698 6.4173 30.0094 5.6876C30.3347 5.14253 30.4929 4.63702 30.1633 4.06557C29.8424 3.51171 29.3237 3.36226 28.7215 3.39743C27.5038 3.45897 26.3785 3.8238 25.3191 4.41723C24.9455 4.62383 24.6906 4.89637 24.8972 5.35352C25.0686 5.74035 25.4422 5.81948 25.9258 5.56452C26.862 5.08539 27.8335 4.72054 28.9764 4.72054Z" fill="white" fill-opacity="0.7"/>
<path d="M18.1541 6.84375C16.176 6.92727 14.3122 7.35805 12.5583 8.24599C12.4176 8.31632 12.2814 8.39544 12.1451 8.47457C11.7891 8.68117 11.6352 8.98008 11.8286 9.35812C12.0352 9.75813 12.3825 9.7757 12.7781 9.61306C13.6177 9.2658 14.4441 8.857 15.3188 8.61963C17.864 7.91631 20.3564 8.15807 22.7696 9.23942C22.8487 9.27459 22.9279 9.30975 23.0114 9.34932C23.4158 9.53833 23.7411 9.44602 23.9389 9.05041C24.1367 8.6504 23.9301 8.33391 23.5828 8.18885C22.7916 7.85917 21.9916 7.51191 21.1652 7.3141C20.1805 7.07673 19.1607 6.99321 18.1541 6.84375Z" fill="#EC1E24"/>
<path d="M18.1541 6.84375C16.176 6.92727 14.3122 7.35805 12.5583 8.24599C12.4176 8.31632 12.2814 8.39544 12.1451 8.47457C11.7891 8.68117 11.6352 8.98008 11.8286 9.35812C12.0352 9.75813 12.3825 9.7757 12.7781 9.61306C13.6177 9.2658 14.4441 8.857 15.3188 8.61963C17.864 7.91631 20.3564 8.15807 22.7696 9.23942C22.8487 9.27459 22.9279 9.30975 23.0114 9.34932C23.4158 9.53833 23.7411 9.44602 23.9389 9.05041C24.1367 8.6504 23.9301 8.33391 23.5828 8.18885C22.7916 7.85917 21.9916 7.51191 21.1652 7.3141C20.1805 7.07673 19.1607 6.99321 18.1541 6.84375Z" fill="white" fill-opacity="0.7"/>
<g opacity="0.5">
<path d="M13.7714 5.64372C13.6571 3.17771 15.5473 1.25237 18.0265 1.31391C20.4178 1.37545 22.2157 3.45904 21.9651 5.88988C21.9563 5.9778 21.9475 6.06571 21.9387 6.15363C21.8948 6.58002 22.0398 6.89651 22.497 6.94926C22.9541 7.00201 23.1739 6.71628 23.2355 6.30308C23.4113 5.12502 23.2574 3.98653 22.6992 2.92716C21.4596 0.584225 18.8485 -0.510321 16.299 0.228164C13.8637 0.935878 12.2549 3.31398 12.4615 5.91625C12.4703 6.03934 12.4923 6.15803 12.5099 6.28111C12.5758 6.72068 12.8 7.01519 13.2791 6.94486C13.7451 6.87892 13.8462 6.53606 13.8022 6.11847C13.789 5.96022 13.7802 5.80197 13.7714 5.64372Z" fill="#FFAB12"/>
<path d="M20.1233 4.05222C20.1101 3.50715 19.6661 3.01043 19.02 2.6324C18.7914 2.49613 18.576 2.3247 18.3914 2.13129C18.0881 1.82359 17.6749 1.81919 17.376 2.13569C17.1781 2.34229 16.9408 2.50932 16.7254 2.69394C16.488 2.90054 16.2287 3.08956 16.0265 3.32253C15.7539 3.63023 15.7627 3.98189 16.0836 4.25442C16.4045 4.52257 16.743 4.47421 17.0111 4.15772C17.3672 3.74012 17.8023 3.54232 18.3166 3.77969C18.5188 3.872 18.6463 4.13575 18.8046 4.32037C18.6199 4.45664 18.4573 4.65444 18.2507 4.71159C17.7804 4.83467 17.2792 4.85226 16.8089 4.97973C16.2902 5.1204 16.0616 5.48084 16.1671 5.84568C16.2902 6.26328 16.6287 6.36438 17.2045 6.21932C17.6617 6.10503 18.1364 6.06987 18.6024 5.97756C19.5562 5.77975 20.1189 5.15116 20.1233 4.05222Z" fill="#FFAB12"/>
</g>
</svg>
