<svg width="36" height="32" viewBox="0 0 36 32" fill="none" xmlns="http://www.w3.org/2000/svg">
<path d="M18.3752 17.3583C16.9564 17.0142 16.5002 16.6583 16.5002 16.1042C16.5002 15.4683 17.1314 15.025 18.1877 15.025C19.3002 15.025 19.7127 15.5208 19.7502 16.25H21.1314C21.0877 15.2467 20.4314 14.325 19.1252 14.0275V12.75H17.2502V14.01C16.0377 14.255 15.0627 14.99 15.0627 16.1158C15.0627 17.4633 16.2564 18.1342 18.0002 18.525C19.5627 18.875 19.8752 19.3883 19.8752 19.9308C19.8752 20.3333 19.5689 20.975 18.1877 20.975C16.9002 20.975 16.3939 20.4383 16.3252 19.75H14.9502C15.0252 21.0275 16.0502 21.745 17.2502 21.9842V23.25H19.1252V21.9958C20.3439 21.78 21.3127 21.1208 21.3127 19.925C21.3127 18.2683 19.7939 17.7025 18.3752 17.3583Z" fill="#C62828"/>
<path d="M28.9764 4.71858C28.4885 5.6329 28.0357 6.47688 27.5566 7.37362C27.6005 7.36043 27.561 7.38681 27.539 7.37802C27.1346 7.19779 26.739 7.14064 26.4928 7.60219C26.2554 8.04616 26.5544 8.3143 26.884 8.56486C28.6511 9.90995 30.0358 11.554 30.9017 13.6244C31.0116 13.8881 31.3281 14.1255 31.6007 14.2486C32.0798 14.4596 32.6029 14.5738 33.1084 14.7189C33.4996 14.8332 33.693 15.0837 33.693 15.4882C33.693 16.6662 33.6886 17.8443 33.693 19.0223C33.693 19.4575 33.482 19.7037 33.0776 19.8223C32.5238 19.985 31.9523 20.1213 31.4248 20.3498C31.1523 20.4685 30.8402 20.7147 30.7347 20.9741C29.9347 22.9258 28.6819 24.5258 27.0335 25.8225C26.673 26.1083 26.5236 26.4072 26.5851 26.8555C26.6994 27.6556 26.7829 28.46 26.8796 29.26C26.9676 29.9941 26.7697 30.2666 26.0532 30.3853C25.6225 30.4601 25.1873 30.526 24.7521 30.5963C23.7806 30.759 23.7543 30.7458 23.218 29.9018C23.1345 29.7699 23.0553 29.6336 22.9586 29.471C23.0861 29.4051 23.1872 29.3435 23.2927 29.2996C23.6839 29.1325 23.8158 28.8248 23.6751 28.4424C23.5389 28.0732 23.2224 27.9853 22.8487 28.0776C21.9784 28.2886 21.1168 28.5435 20.2377 28.693C17.8771 29.0886 15.5474 28.8864 13.2572 28.1875C13.1078 28.1435 12.9583 28.082 12.8001 28.0556C12.4352 27.994 12.1143 28.1479 12.0748 28.4908C12.0484 28.7281 12.2374 29.0095 12.3781 29.2424C12.4352 29.3392 12.6198 29.3611 12.7429 29.4183C12.3605 30.5436 12.0396 30.7502 10.9451 30.5831C10.4923 30.5128 10.0439 30.4381 9.59557 30.359C9.01973 30.2579 8.79116 29.9414 8.86149 29.3523C8.9538 28.5655 9.02412 27.7786 9.1516 27.0006C9.24391 26.4248 9.04611 26.0599 8.59775 25.7039C6.61087 24.1258 5.19544 22.1389 4.62839 19.6465C3.70529 15.5937 4.96686 12.1914 7.9252 9.38247C8.63291 8.70992 9.49447 8.20441 10.2813 7.62418C10.3385 7.58461 10.4 7.54945 10.4615 7.51428C10.8396 7.30329 11.0769 7.02195 10.8616 6.57359C10.6769 6.18676 10.2945 6.11644 9.82415 6.37579C8.38234 7.18021 7.10759 8.19123 6.02624 9.43962C4.4086 11.3078 3.40197 13.4529 3.09427 15.9189C3.07669 16.0728 3.04152 16.2267 3.01515 16.3849C3.01075 16.3981 2.99317 16.4113 2.98438 16.4244C1.90742 16.3761 0.74695 14.7013 1.59093 13.1452C1.77555 12.8068 2.10523 12.5298 2.40853 12.2705C2.73382 11.9892 2.9668 11.7166 2.69427 11.2858C2.4569 10.9166 2.10084 10.8902 1.64368 11.2067C0.395289 12.0639 -0.158572 13.2727 0.0392363 14.7497C0.24144 16.2618 1.15576 17.264 2.59756 17.7388C2.94922 17.8531 3.04592 17.9893 3.08548 18.341C3.43275 21.6334 4.96686 24.2972 7.44166 26.4423C7.77134 26.7281 7.85926 27.0006 7.80212 27.3918C7.70981 28.0512 7.62629 28.715 7.56914 29.3787C7.46804 30.5216 8.1318 31.4007 9.25711 31.6205C9.96482 31.7568 10.6725 31.8931 11.3846 31.981C12.1847 32.0777 12.8265 31.7612 13.2968 31.1106C13.543 30.7678 13.7452 30.3897 14.0089 30.0688C14.1144 29.9413 14.3606 29.8315 14.5144 29.8622C16.7694 30.3018 19.02 30.2842 21.2751 29.8622C21.4245 29.8359 21.6619 29.9633 21.7674 30.0908C22.0311 30.4161 22.2246 30.7985 22.4751 31.137C22.9674 31.7964 23.6356 32.0865 24.4576 31.959C25.1521 31.8535 25.8466 31.7524 26.5368 31.6073C27.6841 31.3656 28.3258 30.4381 28.1808 29.282C28.0973 28.6007 27.9874 27.9237 27.9566 27.238C27.9434 27.005 28.0665 26.6841 28.2379 26.5303C29.7413 25.2159 30.9413 23.6774 31.7721 21.8576C31.8512 21.6817 32.0578 21.5191 32.2424 21.4444C32.6644 21.2729 33.1128 21.1719 33.548 21.0268C34.4711 20.7191 34.9898 20.0202 34.9986 19.0531C35.0074 17.8399 35.0074 16.6267 35.003 15.4134C34.9986 14.4991 34.5106 13.6903 33.6227 13.5233C32.4183 13.2947 31.8468 12.565 31.2886 11.5584C30.6995 10.5034 29.7896 9.62863 29.0467 8.65278C28.9105 8.47695 28.7918 8.15166 28.8665 7.98023C29.205 7.19779 29.5698 6.41534 30.0094 5.68565C30.3347 5.14058 30.4929 4.63507 30.1633 4.06362C29.8424 3.50976 29.3237 3.36031 28.7215 3.39547C27.5038 3.45701 26.3785 3.82185 25.3191 4.41528C24.9455 4.62188 24.6906 4.89441 24.8972 5.35157C25.0686 5.7384 25.4422 5.81752 25.9258 5.56257C26.862 5.08344 27.8335 4.71858 28.9764 4.71858Z" fill="#EC1E24"/>
<path d="M28.9764 4.71858C28.4885 5.6329 28.0357 6.47688 27.5566 7.37362C27.6005 7.36043 27.561 7.38681 27.539 7.37802C27.1346 7.19779 26.739 7.14064 26.4928 7.60219C26.2554 8.04616 26.5544 8.3143 26.884 8.56486C28.6511 9.90995 30.0358 11.554 30.9017 13.6244C31.0116 13.8881 31.3281 14.1255 31.6007 14.2486C32.0798 14.4596 32.6029 14.5738 33.1084 14.7189C33.4996 14.8332 33.693 15.0837 33.693 15.4882C33.693 16.6662 33.6886 17.8443 33.693 19.0223C33.693 19.4575 33.482 19.7037 33.0776 19.8223C32.5238 19.985 31.9523 20.1213 31.4248 20.3498C31.1523 20.4685 30.8402 20.7147 30.7347 20.9741C29.9347 22.9258 28.6819 24.5258 27.0335 25.8225C26.673 26.1083 26.5236 26.4072 26.5851 26.8555C26.6994 27.6556 26.7829 28.46 26.8796 29.26C26.9676 29.9941 26.7697 30.2666 26.0532 30.3853C25.6225 30.4601 25.1873 30.526 24.7521 30.5963C23.7806 30.759 23.7543 30.7458 23.218 29.9018C23.1345 29.7699 23.0553 29.6336 22.9586 29.471C23.0861 29.4051 23.1872 29.3435 23.2927 29.2996C23.6839 29.1325 23.8158 28.8248 23.6751 28.4424C23.5389 28.0732 23.2224 27.9853 22.8487 28.0776C21.9784 28.2886 21.1168 28.5435 20.2377 28.693C17.8771 29.0886 15.5474 28.8864 13.2572 28.1875C13.1078 28.1435 12.9583 28.082 12.8001 28.0556C12.4352 27.994 12.1143 28.1479 12.0748 28.4908C12.0484 28.7281 12.2374 29.0095 12.3781 29.2424C12.4352 29.3392 12.6198 29.3611 12.7429 29.4183C12.3605 30.5436 12.0396 30.7502 10.9451 30.5831C10.4923 30.5128 10.0439 30.4381 9.59557 30.359C9.01973 30.2579 8.79116 29.9414 8.86149 29.3523C8.9538 28.5655 9.02412 27.7786 9.1516 27.0006C9.24391 26.4248 9.04611 26.0599 8.59775 25.7039C6.61087 24.1258 5.19544 22.1389 4.62839 19.6465C3.70529 15.5937 4.96686 12.1914 7.9252 9.38247C8.63291 8.70992 9.49447 8.20441 10.2813 7.62418C10.3385 7.58461 10.4 7.54945 10.4615 7.51428C10.8396 7.30329 11.0769 7.02195 10.8616 6.57359C10.6769 6.18676 10.2945 6.11644 9.82415 6.37579C8.38234 7.18021 7.10759 8.19123 6.02624 9.43962C4.4086 11.3078 3.40197 13.4529 3.09427 15.9189C3.07669 16.0728 3.04152 16.2267 3.01515 16.3849C3.01075 16.3981 2.99317 16.4113 2.98438 16.4244C1.90742 16.3761 0.74695 14.7013 1.59093 13.1452C1.77555 12.8068 2.10523 12.5298 2.40853 12.2705C2.73382 11.9892 2.9668 11.7166 2.69427 11.2858C2.4569 10.9166 2.10084 10.8902 1.64368 11.2067C0.395289 12.0639 -0.158572 13.2727 0.0392363 14.7497C0.24144 16.2618 1.15576 17.264 2.59756 17.7388C2.94922 17.8531 3.04592 17.9893 3.08548 18.341C3.43275 21.6334 4.96686 24.2972 7.44166 26.4423C7.77134 26.7281 7.85926 27.0006 7.80212 27.3918C7.70981 28.0512 7.62629 28.715 7.56914 29.3787C7.46804 30.5216 8.1318 31.4007 9.25711 31.6205C9.96482 31.7568 10.6725 31.8931 11.3846 31.981C12.1847 32.0777 12.8265 31.7612 13.2968 31.1106C13.543 30.7678 13.7452 30.3897 14.0089 30.0688C14.1144 29.9413 14.3606 29.8315 14.5144 29.8622C16.7694 30.3018 19.02 30.2842 21.2751 29.8622C21.4245 29.8359 21.6619 29.9633 21.7674 30.0908C22.0311 30.4161 22.2246 30.7985 22.4751 31.137C22.9674 31.7964 23.6356 32.0865 24.4576 31.959C25.1521 31.8535 25.8466 31.7524 26.5368 31.6073C27.6841 31.3656 28.3258 30.4381 28.1808 29.282C28.0973 28.6007 27.9874 27.9237 27.9566 27.238C27.9434 27.005 28.0665 26.6841 28.2379 26.5303C29.7413 25.2159 30.9413 23.6774 31.7721 21.8576C31.8512 21.6817 32.0578 21.5191 32.2424 21.4444C32.6644 21.2729 33.1128 21.1719 33.548 21.0268C34.4711 20.7191 34.9898 20.0202 34.9986 19.0531C35.0074 17.8399 35.0074 16.6267 35.003 15.4134C34.9986 14.4991 34.5106 13.6903 33.6227 13.5233C32.4183 13.2947 31.8468 12.565 31.2886 11.5584C30.6995 10.5034 29.7896 9.62863 29.0467 8.65278C28.9105 8.47695 28.7918 8.15166 28.8665 7.98023C29.205 7.19779 29.5698 6.41534 30.0094 5.68565C30.3347 5.14058 30.4929 4.63507 30.1633 4.06362C29.8424 3.50976 29.3237 3.36031 28.7215 3.39547C27.5038 3.45701 26.3785 3.82185 25.3191 4.41528C24.9455 4.62188 24.6906 4.89441 24.8972 5.35157C25.0686 5.7384 25.4422 5.81752 25.9258 5.56257C26.862 5.08344 27.8335 4.71858 28.9764 4.71858Z" fill="white" fill-opacity="0.7"/>
<path d="M18.1539 6.84375C16.1758 6.92727 14.312 7.35805 12.5581 8.24599C12.4174 8.31632 12.2811 8.39544 12.1449 8.47457C11.7888 8.68117 11.635 8.98008 11.8284 9.35812C12.035 9.75813 12.3822 9.7757 12.7779 9.61306C13.6174 9.2658 14.4438 8.857 15.3186 8.61963C17.8637 7.91631 20.3561 8.15807 22.7694 9.23942C22.8485 9.27459 22.9276 9.30975 23.0111 9.34932C23.4155 9.53833 23.7408 9.44602 23.9386 9.05041C24.1365 8.6504 23.9299 8.33391 23.5826 8.18885C22.7914 7.85917 21.9913 7.51191 21.1649 7.3141C20.1803 7.07673 19.1605 6.99321 18.1539 6.84375Z" fill="#EC1E24"/>
<path d="M18.1539 6.84375C16.1758 6.92727 14.312 7.35805 12.5581 8.24599C12.4174 8.31632 12.2811 8.39544 12.1449 8.47457C11.7888 8.68117 11.635 8.98008 11.8284 9.35812C12.035 9.75813 12.3822 9.7757 12.7779 9.61306C13.6174 9.2658 14.4438 8.857 15.3186 8.61963C17.8637 7.91631 20.3561 8.15807 22.7694 9.23942C22.8485 9.27459 22.9276 9.30975 23.0111 9.34932C23.4155 9.53833 23.7408 9.44602 23.9386 9.05041C24.1365 8.6504 23.9299 8.33391 23.5826 8.18885C22.7914 7.85917 21.9913 7.51191 21.1649 7.3141C20.1803 7.07673 19.1605 6.99321 18.1539 6.84375Z" fill="white" fill-opacity="0.7"/>
<path d="M13.7717 5.64372C13.6574 3.17771 15.5476 1.25237 18.0268 1.31391C20.418 1.37545 22.2159 3.45904 21.9653 5.88988C21.9566 5.9778 21.9478 6.06571 21.939 6.15363C21.895 6.58002 22.0401 6.89651 22.4972 6.94926C22.9544 7.00201 23.1742 6.71628 23.2357 6.30308C23.4115 5.12502 23.2577 3.98653 22.6994 2.92716C21.4598 0.584225 18.8488 -0.510321 16.2992 0.228164C13.864 0.935878 12.2551 3.31398 12.4617 5.91625C12.4705 6.03934 12.4925 6.15803 12.5101 6.28111C12.576 6.72068 12.8002 7.01519 13.2794 6.94486C13.7453 6.87892 13.8464 6.53606 13.8025 6.11847C13.7893 5.96022 13.7805 5.80197 13.7717 5.64372Z" fill="#FFD65A"/>
<path d="M20.123 4.05125C20.1099 3.50618 19.6659 3.00945 19.0197 2.63142C18.7911 2.49515 18.5757 2.32372 18.3911 2.13031C18.0878 1.82261 17.6746 1.81822 17.3757 2.13471C17.1779 2.34131 16.9405 2.50834 16.7251 2.69297C16.4878 2.89957 16.2284 3.08858 16.0262 3.32155C15.7537 3.62926 15.7625 3.98091 16.0834 4.25345C16.4042 4.52159 16.7427 4.47323 17.0109 4.15674C17.3669 3.73915 17.8021 3.54134 18.3164 3.77871C18.5186 3.87102 18.6461 4.13477 18.8043 4.3194C18.6197 4.45566 18.4571 4.65346 18.2505 4.71061C17.7801 4.83369 17.279 4.85128 16.8087 4.97876C16.29 5.11942 16.0614 5.47986 16.1669 5.84471C16.29 6.2623 16.6284 6.36341 17.2043 6.21835C17.6614 6.10406 18.1362 6.0689 18.6021 5.97659C19.556 5.77878 20.1187 5.15018 20.123 4.05125Z" fill="#FFD65A"/>
</svg>
