<svg width="20" height="20" viewBox="0 0 20 20" fill="none" xmlns="http://www.w3.org/2000/svg">
<path d="M5.83333 8.33333H4.16667V0.833333C4.16667 0.3725 4.53917 0 5 0H15C15.4608 0 15.8333 0.3725 15.8333 0.833333V5.83333H14.1667V1.66667H5.83333V8.33333Z" fill="#C62828"/>
<path d="M19.1667 6.66667H11.6667C11.2058 6.66667 10.8333 7.03917 10.8333 7.5V18.3333H9.16667V10.8333C9.16667 10.3725 8.79417 10 8.33333 10H0.833333C0.3725 10 0 10.3725 0 10.8333V19.1667C0 19.6275 0.3725 20 0.833333 20H19.1667C19.6275 20 20 19.6275 20 19.1667V7.5C20 7.03917 19.6275 6.66667 19.1667 6.66667ZM5.83333 17.5H3.33333V15.8333H5.83333V17.5ZM5.83333 14.1667H3.33333V12.5H5.83333V14.1667ZM16.6667 17.5H14.1667V15.8333H16.6667V17.5ZM16.6667 14.1667H14.1667V12.5H16.6667V14.1667ZM16.6667 10.8333H14.1667V9.16667H16.6667V10.8333Z" fill="#C62828"/>
</svg>
