<svg width="32" height="32" viewBox="0 0 32 32" fill="none" xmlns="http://www.w3.org/2000/svg">
<rect x="0.5" y="0.5" width="31" height="31" rx="15.5" fill="white"/>
<path fill-rule="evenodd" clip-rule="evenodd" d="M16 9.75C12.5482 9.75 9.75 12.5482 9.75 16C9.75 19.4518 12.5482 22.25 16 22.25C19.4518 22.25 22.25 19.4518 22.25 16C22.25 12.5482 19.4518 9.75 16 9.75ZM8.5 16C8.5 11.8579 11.8579 8.5 16 8.5C20.1421 8.5 23.5 11.8579 23.5 16C23.5 20.1421 20.1421 23.5 16 23.5C11.8579 23.5 8.5 20.1421 8.5 16Z" fill="#C62828"/>
<path fill-rule="evenodd" clip-rule="evenodd" d="M19.5357 12.4643C19.7798 12.7084 19.7798 13.1041 19.5357 13.3482L16.4419 16.4419C16.1979 16.686 15.8021 16.686 15.5581 16.4419C15.314 16.1979 15.314 15.8021 15.5581 15.5581L18.6518 12.4643C18.8959 12.2202 19.2916 12.2202 19.5357 12.4643Z" fill="#C62828"/>
<path fill-rule="evenodd" clip-rule="evenodd" d="M13.5 6.625C13.5 6.27982 13.7798 6 14.125 6H17.875C18.2202 6 18.5 6.27982 18.5 6.625C18.5 6.97018 18.2202 7.25 17.875 7.25H14.125C13.7798 7.25 13.5 6.97018 13.5 6.625Z" fill="#C62828"/>
<rect x="0.5" y="0.5" width="31" height="31" rx="15.5" stroke="#C62828"/>
</svg>
