<svg width="32" height="32" viewBox="0 0 32 32" fill="none" xmlns="http://www.w3.org/2000/svg">
<rect x="0.5" y="0.5" width="31" height="31" rx="15.5" fill="white"/>
<path d="M12.5279 14.6114H11.139V8.36144C11.139 7.97741 11.4494 7.66699 11.8334 7.66699H20.1667C20.5508 7.66699 20.8612 7.97741 20.8612 8.36144V12.5281H19.4723V9.05588H12.5279V14.6114Z" fill="#C62828"/>
<path d="M23.639 13.2225H17.389C17.0049 13.2225 16.6945 13.533 16.6945 13.917V22.9448H15.3056V16.6948C15.3056 16.3107 14.9952 16.0003 14.6112 16.0003H8.36119C7.97716 16.0003 7.66675 16.3107 7.66675 16.6948V23.6392C7.66675 24.0232 7.97716 24.3337 8.36119 24.3337H23.639C24.023 24.3337 24.3334 24.0232 24.3334 23.6392V13.917C24.3334 13.533 24.023 13.2225 23.639 13.2225ZM12.5279 22.2503H10.4445V20.8614H12.5279V22.2503ZM12.5279 19.4725H10.4445V18.0837H12.5279V19.4725ZM21.5556 22.2503H19.4723V20.8614H21.5556V22.2503ZM21.5556 19.4725H19.4723V18.0837H21.5556V19.4725ZM21.5556 16.6948H19.4723V15.3059H21.5556V16.6948Z" fill="#C62828"/>
<rect x="0.5" y="0.5" width="31" height="31" rx="15.5" stroke="#C62828"/>
</svg>
