<svg width="32" height="32" viewBox="0 0 32 32" fill="none" xmlns="http://www.w3.org/2000/svg">
<rect x="0.5" y="0.5" width="31" height="31" rx="15.5" fill="white"/>
<path d="M20.4297 11.9377C20.1836 11.3998 19.8338 10.9164 19.3873 10.5033C18.4803 9.66133 17.2762 9.19727 16 9.19727C14.7238 9.19727 13.5197 9.66133 12.6127 10.5016C12.1662 10.9164 11.8164 11.398 11.5703 11.9377C11.3137 12.5002 11.1836 13.0961 11.1836 13.7113V14.1859C11.1836 14.2949 11.2715 14.3828 11.3805 14.3828H12.3297C12.4387 14.3828 12.5266 14.2949 12.5266 14.1859V13.7113C12.5266 11.9623 14.084 10.5402 16 10.5402C17.916 10.5402 19.4734 11.9623 19.4734 13.7113C19.4734 14.4285 19.2186 15.1035 18.7352 15.666C18.257 16.2232 17.582 16.6223 16.835 16.791C16.4078 16.8877 16.0229 17.1285 15.7504 17.473C15.4789 17.8164 15.3309 18.2412 15.3303 18.6789V19.2309C15.3303 19.3398 15.4182 19.4277 15.5271 19.4277H16.4764C16.5854 19.4277 16.6732 19.3398 16.6732 19.2309V18.6789C16.6732 18.4029 16.8648 18.1604 17.1303 18.1006C18.1568 17.8686 19.0885 17.3148 19.7547 16.5414C20.0904 16.1494 20.3523 15.7135 20.5334 15.2406C20.7215 14.7502 20.8164 14.2352 20.8164 13.7113C20.8164 13.0961 20.6863 12.4984 20.4297 11.9377V11.9377ZM16 20.834C15.4568 20.834 15.0156 21.2752 15.0156 21.8184C15.0156 22.3615 15.4568 22.8027 16 22.8027C16.5432 22.8027 16.9844 22.3615 16.9844 21.8184C16.9844 21.2752 16.5432 20.834 16 20.834Z" fill="#C62828"/>
<rect x="0.5" y="0.5" width="31" height="31" rx="15.5" stroke="#C62828"/>
</svg>
