<svg width="10" height="14" viewBox="0 0 10 14" fill="none" xmlns="http://www.w3.org/2000/svg">
<path d="M9.20002 3.14814C8.96668 2.63814 8.63502 2.1798 8.21168 1.78814C7.35168 0.989805 6.21002 0.549805 5.00002 0.549805C3.79002 0.549805 2.64835 0.989805 1.78835 1.78647C1.36502 2.1798 1.03335 2.63647 0.800016 3.14814C0.556683 3.68147 0.43335 4.24647 0.43335 4.8298V5.2798C0.43335 5.38314 0.516683 5.46647 0.620016 5.46647H1.52002C1.62335 5.46647 1.70668 5.38314 1.70668 5.2798V4.8298C1.70668 3.17147 3.18335 1.82314 5.00002 1.82314C6.81668 1.82314 8.29335 3.17147 8.29335 4.8298C8.29335 5.5098 8.05168 6.1498 7.59335 6.68314C7.14002 7.21147 6.50002 7.5898 5.79168 7.7498C5.38668 7.84147 5.02168 8.0698 4.76335 8.39647C4.50592 8.72202 4.3656 9.12477 4.36502 9.5398V10.0631C4.36502 10.1665 4.44835 10.2498 4.55168 10.2498H5.45168C5.55502 10.2498 5.63835 10.1665 5.63835 10.0631V9.5398C5.63835 9.27814 5.82002 9.04814 6.07168 8.99147C7.04502 8.77147 7.92835 8.24647 8.56002 7.51314C8.87835 7.14147 9.12668 6.72814 9.29835 6.2798C9.47668 5.8148 9.56668 5.32647 9.56668 4.8298C9.56668 4.24647 9.44335 3.6798 9.20002 3.14814ZM5.00002 11.5831C4.48502 11.5831 4.06668 12.0015 4.06668 12.5165C4.06668 13.0315 4.48502 13.4498 5.00002 13.4498C5.51502 13.4498 5.93335 13.0315 5.93335 12.5165C5.93335 12.0015 5.51502 11.5831 5.00002 11.5831Z" fill="#595959"/>
</svg>
