<svg width="32" height="32" viewBox="0 0 32 32" fill="none" xmlns="http://www.w3.org/2000/svg">
<rect x="0.5" y="0.5" width="31" height="31" rx="15.5" fill="white"/>
<path d="M23.8027 19.6855C23.7958 19.6661 23.785 19.6483 23.7711 19.633C23.7572 19.6178 23.7404 19.6055 23.7217 19.5967C23.703 19.588 23.6827 19.5831 23.6621 19.5823C23.6415 19.5814 23.6209 19.5847 23.6016 19.5918L22.4062 20.0273V9.51562C22.4062 8.78125 21.8125 8.1875 21.0781 8.1875H10.9219C10.1875 8.1875 9.59375 8.78125 9.59375 9.51562V20.0273L8.39648 19.5918C8.37891 19.5859 8.36133 19.582 8.34375 19.582C8.25781 19.582 8.1875 19.6523 8.1875 19.7383V20.9023C8.1875 20.9668 8.22852 21.0254 8.29102 21.0488L15.7852 23.7754C15.9238 23.8262 16.0742 23.8262 16.2129 23.7754L23.709 21.0508C23.7715 21.0273 23.8125 20.9687 23.8125 20.9043V19.7402C23.8125 19.7207 23.8086 19.7031 23.8027 19.6855ZM16 22.3574L11 20.5391V9.59375H21V20.5391L16 22.3574ZM18.9023 12.0938H17.8379C17.7793 12.0938 17.7246 12.127 17.6992 12.1797L16.0449 15.4766H15.9805L14.3262 12.1797C14.3132 12.154 14.2934 12.1323 14.2689 12.1172C14.2445 12.102 14.2163 12.0939 14.1875 12.0938H13.0996C13.0742 12.0938 13.0488 12.0996 13.0254 12.1133C12.9492 12.1543 12.9219 12.25 12.9629 12.3242L14.9922 16.0664H13.8789C13.793 16.0664 13.7227 16.1367 13.7227 16.2227V16.752C13.7227 16.8379 13.793 16.9082 13.8789 16.9082H15.3633V17.6699H13.8789C13.793 17.6699 13.7227 17.7402 13.7227 17.8262V18.3555C13.7227 18.4414 13.793 18.5117 13.8789 18.5117H15.3633V19.75C15.3633 19.8359 15.4336 19.9062 15.5195 19.9062H16.4941C16.5801 19.9062 16.6504 19.8359 16.6504 19.75V18.5098H18.1406C18.2266 18.5098 18.2969 18.4395 18.2969 18.3535V17.8242C18.2969 17.7383 18.2266 17.668 18.1406 17.668H16.6504V16.9062H18.1406C18.2266 16.9062 18.2969 16.8359 18.2969 16.75V16.2207C18.2969 16.1348 18.2266 16.0645 18.1406 16.0645H17.0156L19.041 12.3223C19.0527 12.2988 19.0605 12.2734 19.0605 12.248C19.0586 12.1641 18.9883 12.0938 18.9023 12.0938Z" fill="#C62828"/>
<rect x="0.5" y="0.5" width="31" height="31" rx="15.5" stroke="#C62828"/>
</svg>
