<svg width="20" height="20" viewBox="0 0 20 20" fill="none" xmlns="http://www.w3.org/2000/svg">
<path fill-rule="evenodd" clip-rule="evenodd" d="M12.0044 6.12056C12.2485 6.36464 12.2485 6.76036 12.0044 7.00444L5.12944 13.8794C4.88536 14.1235 4.48964 14.1235 4.24556 13.8794L0.808058 10.4419C0.563981 10.1979 0.563981 9.80214 0.808058 9.55806C1.05214 9.31398 1.44786 9.31398 1.69194 9.55806L4.6875 12.5536L11.1206 6.12056C11.3646 5.87648 11.7604 5.87648 12.0044 6.12056Z" fill="white"/>
<path fill-rule="evenodd" clip-rule="evenodd" d="M19.1919 6.12056C19.436 6.36464 19.436 6.76036 19.1919 7.00444L12.3169 13.8794C12.0729 14.1235 11.6771 14.1235 11.4331 13.8794L9.60493 12.0513C9.36086 11.8072 9.36086 11.4115 9.60493 11.1674C9.84901 10.9234 10.2447 10.9234 10.4888 11.1674L11.875 12.5536L18.3081 6.12056C18.5521 5.87648 18.9479 5.87648 19.1919 6.12056Z" fill="white"/>
</svg>
