<svg width="12" height="14" viewBox="0 0 12 14" fill="none" xmlns="http://www.w3.org/2000/svg">
<path d="M10 9.58589C9.49333 9.58589 9.04 9.78589 8.69333 10.0992L3.94 7.33255C3.97333 7.17922 4 7.02589 4 6.86589C4 6.70589 3.97333 6.55255 3.94 6.39922L8.64 3.65922C9 3.99255 9.47333 4.19922 10 4.19922C11.1067 4.19922 12 3.30589 12 2.19922C12 1.09255 11.1067 0.199219 10 0.199219C8.89333 0.199219 8 1.09255 8 2.19922C8 2.35922 8.02667 2.51255 8.06 2.66589L3.36 5.40589C3 5.07255 2.52667 4.86589 2 4.86589C0.893333 4.86589 0 5.75922 0 6.86589C0 7.97255 0.893333 8.86589 2 8.86589C2.52667 8.86589 3 8.65922 3.36 8.32589L8.10667 11.0992C8.07333 11.2392 8.05333 11.3859 8.05333 11.5326C8.05333 12.6059 8.92667 13.4792 10 13.4792C11.0733 13.4792 11.9467 12.6059 11.9467 11.5326C11.9467 10.4592 11.0733 9.58589 10 9.58589Z" fill="#C62828"/>
</svg>
