<svg width="22" height="21" viewBox="0 0 22 21" fill="none" xmlns="http://www.w3.org/2000/svg">
<path d="M11 0C5.20156 0 0.5 4.70156 0.5 10.5C0.5 16.2984 5.20156 21 11 21C16.7984 21 21.5 16.2984 21.5 10.5C21.5 4.70156 16.7984 0 11 0ZM15.5352 7.07109L10.5992 13.9148C10.5302 14.0111 10.4393 14.0896 10.3339 14.1437C10.2286 14.1978 10.1118 14.2261 9.99336 14.2261C9.87491 14.2261 9.75816 14.1978 9.6528 14.1437C9.54743 14.0896 9.45649 14.0111 9.3875 13.9148L6.46484 9.86484C6.37578 9.74062 6.46484 9.56719 6.61719 9.56719H7.71641C7.95547 9.56719 8.18281 9.68203 8.32344 9.87891L9.99219 12.1945L13.6766 7.08516C13.8172 6.89062 14.0422 6.77344 14.2836 6.77344H15.3828C15.5352 6.77344 15.6242 6.94688 15.5352 7.07109Z" fill="#C62828"/>
</svg>
