<svg width="32" height="32" viewBox="0 0 32 32" fill="none" xmlns="http://www.w3.org/2000/svg">
<rect x="0.5" y="0.5" width="31" height="31" rx="15.5" fill="white"/>
<path d="M23.5 12.235V19C23.5 19.825 22.825 20.5 22 20.5H11.5L8.5 23.5V10C8.5 9.175 9.175 8.5 10 8.5H17.575C17.53 8.74 17.5 8.995 17.5 9.25C17.5 9.505 17.53 9.76 17.575 10H10V19H22V12.925C22.555 12.8125 23.065 12.565 23.5 12.235ZM19 9.25C19 10.495 20.005 11.5 21.25 11.5C22.495 11.5 23.5 10.495 23.5 9.25C23.5 8.005 22.495 7 21.25 7C20.005 7 19 8.005 19 9.25Z" fill="#C62828"/>
<rect x="0.5" y="0.5" width="31" height="31" rx="15.5" stroke="#C62828"/>
</svg>
