<svg width="16" height="16" viewBox="0 0 16 16" fill="none" xmlns="http://www.w3.org/2000/svg">
<path fill-rule="evenodd" clip-rule="evenodd" d="M2.53228 8.73781C3.57082 8.39618 5.16061 7.99978 6.9631 7.99978V9.18497C5.33505 9.18497 3.8818 9.54465 2.92071 9.86078C2.43319 10.0218 2.10375 10.4719 2.10375 10.9817V12.7405H6.35568V13.9257H0.888916V10.9817C0.888916 9.97105 1.54393 9.06398 2.53228 8.73781Z" fill="#C62828"/>
<path fill-rule="evenodd" clip-rule="evenodd" d="M6.9631 2.07386C5.62148 2.07386 4.53343 3.13536 4.53343 4.44423V5.03682C4.53343 5.7075 4.81798 6.47024 5.29378 7.06267C5.7714 7.65737 6.37149 7.99978 6.9631 7.99978C7.55471 7.99978 8.1548 7.65737 8.63242 7.06267C9.10821 6.47024 9.39277 5.7075 9.39277 5.03682V4.44423C9.39277 3.13536 8.30471 2.07386 6.9631 2.07386ZM3.31859 4.44423C3.31859 2.4808 4.95055 0.888672 6.9631 0.888672C8.97565 0.888672 10.6076 2.4808 10.6076 4.44423V5.03682C10.6076 6.00229 10.2122 7.01732 9.58868 7.79364C8.96703 8.56768 8.04857 9.18497 6.9631 9.18497C5.87763 9.18497 4.95917 8.56768 4.33752 7.79364C3.71404 7.01732 3.31859 6.00229 3.31859 5.03682V4.44423Z" fill="#C62828"/>
<path fill-rule="evenodd" clip-rule="evenodd" d="M12.4299 8.34692L15.1111 10.9627L10.8592 15.1109H8.17794V12.4951L12.4299 8.34692ZM9.39277 12.986V13.9257H10.356L13.3931 10.9627L12.4299 10.023L9.39277 12.986Z" fill="#C62828"/>
</svg>
