<svg width="14" height="16" viewBox="0 0 14 16" fill="none" xmlns="http://www.w3.org/2000/svg">
<path d="M11.2667 10.9011C10.7263 10.9011 10.2427 11.1144 9.87293 11.4487L4.8027 8.49756C4.83826 8.334 4.8667 8.17045 4.8667 7.99978C4.8667 7.82912 4.83826 7.66556 4.8027 7.50201L9.81604 4.57934C10.2 4.93489 10.7049 5.15534 11.2667 5.15534C12.4471 5.15534 13.4 4.20245 13.4 3.02201C13.4 1.84156 12.4471 0.888672 11.2667 0.888672C10.0863 0.888672 9.13337 1.84156 9.13337 3.02201C9.13337 3.19267 9.16181 3.35623 9.19737 3.51978L4.18404 6.44245C3.80004 6.08689 3.29515 5.86645 2.73337 5.86645C1.55293 5.86645 0.600037 6.81934 0.600037 7.99978C0.600037 9.18023 1.55293 10.1331 2.73337 10.1331C3.29515 10.1331 3.80004 9.91267 4.18404 9.55712L9.24715 12.5153C9.21159 12.6647 9.19026 12.8211 9.19026 12.9776C9.19026 14.1224 10.1218 15.054 11.2667 15.054C12.4116 15.054 13.3431 14.1224 13.3431 12.9776C13.3431 11.8327 12.4116 10.9011 11.2667 10.9011ZM11.2667 2.31089C11.6578 2.31089 11.9778 2.63089 11.9778 3.02201C11.9778 3.41312 11.6578 3.73312 11.2667 3.73312C10.8756 3.73312 10.5556 3.41312 10.5556 3.02201C10.5556 2.63089 10.8756 2.31089 11.2667 2.31089ZM2.73337 8.71089C2.34226 8.71089 2.02226 8.39089 2.02226 7.99978C2.02226 7.60867 2.34226 7.28867 2.73337 7.28867C3.12448 7.28867 3.44448 7.60867 3.44448 7.99978C3.44448 8.39089 3.12448 8.71089 2.73337 8.71089ZM11.2667 13.7029C10.8756 13.7029 10.5556 13.3829 10.5556 12.9918C10.5556 12.6007 10.8756 12.2807 11.2667 12.2807C11.6578 12.2807 11.9778 12.6007 11.9778 12.9918C11.9778 13.3829 11.6578 13.7029 11.2667 13.7029Z" fill="#C62828"/>
</svg>
