<svg width="32" height="32" viewBox="0 0 32 32" fill="none" xmlns="http://www.w3.org/2000/svg">
<rect x="0.5" y="0.5" width="31" height="31" rx="15.5" fill="white"/>
<path d="M25.1668 12.6667C25.1668 13.5833 24.4168 14.3333 23.5002 14.3333C23.3502 14.3333 23.2085 14.3167 23.0752 14.275L20.1085 17.2333C20.1502 17.3667 20.1668 17.5167 20.1668 17.6667C20.1668 18.5833 19.4168 19.3333 18.5002 19.3333C17.5835 19.3333 16.8335 18.5833 16.8335 17.6667C16.8335 17.5167 16.8502 17.3667 16.8918 17.2333L14.7668 15.1083C14.6335 15.15 14.4835 15.1667 14.3335 15.1667C14.1835 15.1667 14.0335 15.15 13.9002 15.1083L10.1085 18.9083C10.1502 19.0417 10.1668 19.1833 10.1668 19.3333C10.1668 20.25 9.41683 21 8.50016 21C7.5835 21 6.8335 20.25 6.8335 19.3333C6.8335 18.4167 7.5835 17.6667 8.50016 17.6667C8.65016 17.6667 8.79183 17.6833 8.92516 17.725L12.7252 13.9333C12.6835 13.8 12.6668 13.65 12.6668 13.5C12.6668 12.5833 13.4168 11.8333 14.3335 11.8333C15.2502 11.8333 16.0002 12.5833 16.0002 13.5C16.0002 13.65 15.9835 13.8 15.9418 13.9333L18.0668 16.0583C18.2002 16.0167 18.3502 16 18.5002 16C18.6502 16 18.8002 16.0167 18.9335 16.0583L21.8918 13.0917C21.8502 12.9583 21.8335 12.8167 21.8335 12.6667C21.8335 11.75 22.5835 11 23.5002 11C24.4168 11 25.1668 11.75 25.1668 12.6667Z" fill="#C62828"/>
<rect x="0.5" y="0.5" width="31" height="31" rx="15.5" stroke="#C62828"/>
</svg>
