<svg width="32" height="32" viewBox="0 0 32 32" fill="none" xmlns="http://www.w3.org/2000/svg">
<rect x="0.5" y="0.5" width="31" height="31" rx="15.5" fill="white"/>
<path d="M15.6709 13.5121C15.7427 13.6244 15.8667 13.6924 16.0001 13.6924C16.1333 13.6924 16.2574 13.6244 16.3292 13.5121L18.8961 9.49547C18.9729 9.37523 18.9781 9.22265 18.9095 9.0975C18.8409 8.97235 18.7096 8.89453 18.5669 8.89453H17.5535V6.39063C17.5535 6.17492 17.3787 6 17.1629 6H14.8371C14.6213 6 14.4465 6.17492 14.4465 6.39063V8.89449H13.4331C13.2904 8.89449 13.1591 8.97231 13.0905 9.09746C13.0219 9.22262 13.0271 9.37519 13.1039 9.49543L15.6709 13.5121ZM14.8371 9.67574C15.0529 9.67574 15.2277 9.50082 15.2277 9.28512V6.78125H16.7723V9.28512C16.7723 9.50082 16.9472 9.67574 17.163 9.67574H17.8537L16.0001 12.5763L14.1463 9.6757H14.8371V9.67574Z" fill="#C62828"/>
<path d="M23.8231 15.0137H8.17695C7.48437 15.0137 6.9209 15.5771 6.9209 16.2697V24.7443C6.9209 25.4368 7.48437 26.0003 8.17695 26.0003H23.8231C24.5157 26.0003 25.0792 25.4368 25.0792 24.7443V16.2697C25.0792 15.5771 24.5157 15.0137 23.8231 15.0137ZM24.2979 24.7443C24.2979 25.0061 24.0849 25.2191 23.8231 25.2191H8.17695C7.91512 25.2191 7.70215 25.0061 7.70215 24.7443V16.2697C7.70215 16.0079 7.91515 15.7949 8.17695 15.7949H23.8231C24.0849 15.7949 24.2979 16.0079 24.2979 16.2697V24.7443Z" fill="#C62828"/>
<path d="M22.7977 18.3188C22.2629 18.3188 21.8277 17.8879 21.8277 17.3582C21.8277 17.3398 21.8283 17.3216 21.8293 17.3035C21.8354 17.1962 21.7971 17.0911 21.7233 17.013C21.6495 16.9349 21.5468 16.8906 21.4393 16.8906H10.5606C10.4532 16.8906 10.3505 16.9348 10.2767 17.0129C10.2029 17.091 10.1645 17.196 10.1705 17.3032C10.1716 17.3214 10.1721 17.3397 10.1721 17.3582C10.1721 17.8879 9.73699 18.3188 9.20214 18.3188C8.9864 18.3188 8.81152 18.4938 8.81152 18.7095V22.3795C8.81152 22.5952 8.9864 22.7701 9.20214 22.7701C9.73695 22.7701 10.1721 23.201 10.1721 23.7308C10.1721 23.9465 10.347 24.1214 10.5627 24.1214H21.4371C21.6528 24.1214 21.8277 23.9465 21.8277 23.7308C21.8277 23.201 22.2628 22.7701 22.7977 22.7701C23.0134 22.7701 23.1883 22.5952 23.1883 22.3795V18.7095C23.1883 18.4938 23.0135 18.3188 22.7977 18.3188ZM22.4071 22.0326C21.7553 22.1808 21.2407 22.6921 21.0909 23.3402H10.909C10.7592 22.6921 10.2447 22.1808 9.59285 22.0326V19.0564C10.2703 18.9023 10.7994 18.3563 10.925 17.6719H21.075C21.2005 18.3563 21.7297 18.9023 22.4071 19.0564V22.0326Z" fill="#C62828"/>
<path d="M15.9999 18.1992C14.7277 18.1992 13.6929 19.2342 13.6929 20.5062C13.6929 21.7784 14.7277 22.8133 15.9999 22.8133C17.272 22.8133 18.3069 21.7784 18.3069 20.5062C18.3069 19.2342 17.272 18.1992 15.9999 18.1992ZM15.9999 22.032C15.1585 22.032 14.4741 21.3476 14.4741 20.5062C14.4741 19.6649 15.1585 18.9804 15.9999 18.9804C16.8412 18.9804 17.5257 19.6649 17.5257 20.5062C17.5257 21.3475 16.8412 22.032 15.9999 22.032Z" fill="#C62828"/>
<rect x="0.5" y="0.5" width="31" height="31" rx="15.5" stroke="#C62828"/>
</svg>
