
<svg width="37" height="40" viewBox="0 0 37 40" fill="none" xmlns="http://www.w3.org/2000/svg">
<path d="M30.62 4.94C30.46 4.94 30.3 4.9 30.16 4.82C26.32 2.84 23 2 19.02 2C15.06 2 11.3 2.94 7.87997 4.82C7.39997 5.08 6.79997 4.9 6.51997 4.42C6.25997 3.94 6.43997 3.32 6.91997 3.06C10.64 1.04 14.72 0 19.02 0C23.28 0 27 0.94 31.08 3.04C31.58 3.3 31.76 3.9 31.5 4.38C31.32 4.74 30.98 4.94 30.62 4.94ZM1.99997 15.44C1.79997 15.44 1.59997 15.38 1.41997 15.26C0.95997 14.94 0.85997 14.32 1.17997 13.86C3.15997 11.06 5.67997 8.86 8.67997 7.32C14.96 4.08 23 4.06 29.3 7.3C32.3 8.84 34.82 11.02 36.8 13.8C37.12 14.24 37.02 14.88 36.56 15.2C36.1 15.52 35.48 15.42 35.16 14.96C33.36 12.44 31.08 10.46 28.38 9.08C22.64 6.14 15.3 6.14 9.57997 9.1C6.85997 10.5 4.57997 12.5 2.77997 15.02C2.61997 15.3 2.31997 15.44 1.99997 15.44ZM14.5 39.58C14.24 39.58 13.98 39.48 13.8 39.28C12.06 37.54 11.12 36.42 9.77997 34C8.39997 31.54 7.67997 28.54 7.67997 25.32C7.67997 19.38 12.76 14.54 19 14.54C25.24 14.54 30.32 19.38 30.32 25.32C30.32 25.88 29.88 26.32 29.32 26.32C28.76 26.32 28.32 25.88 28.32 25.32C28.32 20.48 24.14 16.54 19 16.54C13.86 16.54 9.67997 20.48 9.67997 25.32C9.67997 28.2 10.32 30.86 11.54 33.02C12.82 35.32 13.7 36.3 15.24 37.86C15.62 38.26 15.62 38.88 15.24 39.28C15.02 39.48 14.76 39.58 14.5 39.58ZM28.84 35.88C26.46 35.88 24.36 35.28 22.64 34.1C19.66 32.08 17.88 28.8 17.88 25.32C17.88 24.76 18.32 24.32 18.88 24.32C19.44 24.32 19.88 24.76 19.88 25.32C19.88 28.14 21.32 30.8 23.76 32.44C25.18 33.4 26.84 33.86 28.84 33.86C29.32 33.86 30.12 33.8 30.92 33.66C31.46 33.56 31.98 33.92 32.08 34.48C32.18 35.02 31.82 35.54 31.26 35.64C30.12 35.86 29.12 35.88 28.84 35.88ZM24.82 40C24.74 40 24.64 39.98 24.56 39.96C21.38 39.08 19.3 37.9 17.12 35.76C14.32 32.98 12.78 29.28 12.78 25.32C12.78 22.08 15.54 19.44 18.94 19.44C22.34 19.44 25.1 22.08 25.1 25.32C25.1 27.46 26.96 29.2 29.26 29.2C31.56 29.2 33.42 27.46 33.42 25.32C33.42 17.78 26.92 11.66 18.92 11.66C13.24 11.66 8.03997 14.82 5.69997 19.72C4.91997 21.34 4.51997 23.24 4.51997 25.32C4.51997 26.88 4.65997 29.34 5.85997 32.54C6.05997 33.06 5.79997 33.64 5.27997 33.82C4.75997 34.02 4.17997 33.74 3.99997 33.24C3.01997 30.62 2.53997 28.02 2.53997 25.32C2.53997 22.92 2.99997 20.74 3.89997 18.84C6.55997 13.26 12.46 9.64 18.92 9.64C28.02 9.64 35.42 16.66 35.42 25.3C35.42 28.54 32.66 31.18 29.26 31.18C25.86 31.18 23.1 28.54 23.1 25.3C23.1 23.16 21.24 21.42 18.94 21.42C16.64 21.42 14.78 23.16 14.78 25.3C14.78 28.72 16.1 31.92 18.52 34.32C20.42 36.2 22.24 37.24 25.06 38.02C25.6 38.16 25.9 38.72 25.76 39.24C25.66 39.7 25.24 40 24.82 40Z" fill="#C62828"/>
</svg>
