<svg width="32" height="32" viewBox="0 0 32 32" fill="none" xmlns="http://www.w3.org/2000/svg">
<rect x="0.5" y="0.5" width="31" height="31" rx="15.5" fill="white"/>
<path fill-rule="evenodd" clip-rule="evenodd" d="M12.625 12.0625C11.3824 12.0625 10.375 13.0699 10.375 14.3125C10.375 15.5551 11.3824 16.5625 12.625 16.5625C13.8676 16.5625 14.875 15.5551 14.875 14.3125C14.875 13.0699 13.8676 12.0625 12.625 12.0625ZM9.25 14.3125C9.25 12.4485 10.761 10.9375 12.625 10.9375C14.489 10.9375 16 12.4485 16 14.3125C16 16.1765 14.489 17.6875 12.625 17.6875C10.761 17.6875 9.25 16.1765 9.25 14.3125Z" fill="#C62828"/>
<path fill-rule="evenodd" clip-rule="evenodd" d="M17.125 12.625C17.125 12.3143 17.3768 12.0625 17.6875 12.0625H24.4375C24.7482 12.0625 25 12.3143 25 12.625C25 12.9357 24.7482 13.1875 24.4375 13.1875H17.6875C17.3768 13.1875 17.125 12.9357 17.125 12.625Z" fill="#C62828"/>
<path fill-rule="evenodd" clip-rule="evenodd" d="M17.125 16C17.125 15.6893 17.3768 15.4375 17.6875 15.4375H24.4375C24.7482 15.4375 25 15.6893 25 16C25 16.3107 24.7482 16.5625 24.4375 16.5625H17.6875C17.3768 16.5625 17.125 16.3107 17.125 16Z" fill="#C62828"/>
<path fill-rule="evenodd" clip-rule="evenodd" d="M18.8125 19.375C18.8125 19.0643 19.0643 18.8125 19.375 18.8125H24.4375C24.7482 18.8125 25 19.0643 25 19.375C25 19.6857 24.7482 19.9375 24.4375 19.9375H19.375C19.0643 19.9375 18.8125 19.6857 18.8125 19.375Z" fill="#C62828"/>
<path fill-rule="evenodd" clip-rule="evenodd" d="M12.625 17.6787C11.7507 17.6787 10.9013 17.9697 10.2106 18.5058C9.52 19.0419 9.02742 19.7926 8.81056 20.6396C8.7335 20.9405 8.42707 21.122 8.12612 21.045C7.82516 20.9679 7.64366 20.6615 7.72072 20.3605C7.99953 19.2715 8.63285 18.3064 9.52083 17.6171C10.4088 16.9278 11.5009 16.5537 12.625 16.5537C13.7491 16.5537 14.8412 16.9278 15.7292 17.6171C16.6172 18.3064 17.2505 19.2715 17.5293 20.3605C17.6064 20.6615 17.4249 20.9679 17.1239 21.045C16.823 21.122 16.5165 20.9405 16.4395 20.6396C16.2226 19.7926 15.73 19.0419 15.0394 18.5058C14.3487 17.9697 13.4993 17.6787 12.625 17.6787Z" fill="#C62828"/>
<rect x="0.5" y="0.5" width="31" height="31" rx="15.5" stroke="#C62828"/>
</svg>
