<svg width="28" height="28" viewBox="0 0 28 28" fill="none" xmlns="http://www.w3.org/2000/svg">
<path d="M10.5334 12.0003L16.8934 0.986992C15.96 0.786992 15 0.666992 14 0.666992C10.8 0.666992 7.86669 1.80033 5.57335 3.66699L10.4534 12.1337L10.5334 12.0003ZM26.72 10.0003C25.4934 6.10699 22.52 2.98699 18.72 1.54699L13.84 10.0003H26.72ZM27.0667 11.3337H17.08L17.4667 12.0003L23.8134 23.0003C26 20.627 27.3334 17.4803 27.3334 14.0003C27.3334 13.0803 27.24 12.2003 27.0667 11.3337ZM9.38669 14.0003L4.18669 5.00033C2.01335 7.37366 0.666687 10.5203 0.666687 14.0003C0.666687 14.9203 0.76002 15.8003 0.933354 16.667H10.92L9.38669 14.0003V14.0003ZM1.28002 18.0003C2.50669 21.8937 5.48002 25.0137 9.28002 26.4537L14.16 18.0003H1.28002V18.0003ZM16.3067 18.0003L11.1067 27.0137C12.04 27.2137 13 27.3337 14 27.3337C17.2 27.3337 20.1334 26.2003 22.4267 24.3337L17.5467 15.867L16.3067 18.0003V18.0003Z" fill="#C62828"/>
</svg>
