<svg width="14" height="16" viewBox="0 0 14 16" fill="none" xmlns="http://www.w3.org/2000/svg">
<path d="M11.1316 2.64512C11.0747 2.64512 11.0178 2.63089 10.968 2.60245C9.60269 1.89845 8.42225 1.59978 7.00713 1.59978C5.59913 1.59978 4.26225 1.93401 3.04625 2.60245C2.87558 2.69489 2.66225 2.63089 2.56269 2.46023C2.47025 2.28956 2.53425 2.06912 2.70491 1.97667C4.02758 1.25845 5.47825 0.888672 7.00713 0.888672C8.5218 0.888672 9.84447 1.22289 11.2951 1.96956C11.4729 2.06201 11.5369 2.27534 11.4445 2.44601C11.3805 2.57401 11.2596 2.64512 11.1316 2.64512ZM0.95558 6.37845C0.884469 6.37845 0.813358 6.35712 0.749358 6.31445C0.585802 6.20067 0.550247 5.98023 0.664025 5.81667C1.36802 4.82112 2.26402 4.03889 3.33069 3.49134C5.56358 2.33934 8.42225 2.33223 10.6622 3.48423C11.7289 4.03178 12.6249 4.80689 13.3289 5.79534C13.4427 5.95178 13.4071 6.17934 13.2436 6.29312C13.08 6.40689 12.8596 6.37134 12.7458 6.20778C12.1058 5.31178 11.2951 4.60778 10.3351 4.11712C8.29425 3.07178 5.68447 3.07178 3.65069 4.12423C2.68358 4.62201 1.87291 5.33312 1.23291 6.22912C1.17602 6.32867 1.06936 6.37845 0.95558 6.37845ZM5.40002 14.9616C5.30758 14.9616 5.21514 14.926 5.15113 14.8549C4.53247 14.2362 4.19825 13.838 3.7218 12.9776C3.23114 12.1029 2.97514 11.0362 2.97514 9.89134C2.97514 7.77934 4.78136 6.05845 7.00002 6.05845C9.21869 6.05845 11.0249 7.77934 11.0249 9.89134C11.0249 10.0904 10.8685 10.2469 10.6694 10.2469C10.4702 10.2469 10.3138 10.0904 10.3138 9.89134C10.3138 8.17045 8.82758 6.76956 7.00002 6.76956C5.17247 6.76956 3.68625 8.17045 3.68625 9.89134C3.68625 10.9153 3.9138 11.8611 4.34758 12.6291C4.80269 13.4469 5.11558 13.7953 5.66314 14.35C5.79825 14.4922 5.79825 14.7127 5.66314 14.8549C5.58491 14.926 5.49247 14.9616 5.40002 14.9616ZM10.4987 13.646C9.65247 13.646 8.9058 13.4327 8.29425 13.0131C7.23469 12.2949 6.6018 11.1287 6.6018 9.89134C6.6018 9.69223 6.75825 9.53578 6.95736 9.53578C7.15647 9.53578 7.31291 9.69223 7.31291 9.89134C7.31291 10.894 7.82491 11.8398 8.69247 12.4229C9.19736 12.7642 9.78758 12.9278 10.4987 12.9278C10.6694 12.9278 10.9538 12.9064 11.2382 12.8567C11.4302 12.8211 11.6151 12.9491 11.6507 13.1482C11.6862 13.3402 11.5582 13.5251 11.3591 13.5607C10.9538 13.6389 10.5982 13.646 10.4987 13.646ZM9.06936 15.1109C9.04091 15.1109 9.00536 15.1038 8.97691 15.0967C7.84625 14.7838 7.10669 14.3642 6.33158 13.6033C5.33602 12.6149 4.78847 11.2993 4.78847 9.89134C4.78847 8.73934 5.7698 7.80067 6.97869 7.80067C8.18758 7.80067 9.16891 8.73934 9.16891 9.89134C9.16891 10.6522 9.83025 11.2709 10.648 11.2709C11.4658 11.2709 12.1271 10.6522 12.1271 9.89134C12.1271 7.21045 9.81602 5.03445 6.97158 5.03445C4.95202 5.03445 3.10314 6.158 2.27114 7.90023C1.9938 8.47623 1.85158 9.15178 1.85158 9.89134C1.85158 10.446 1.90136 11.3207 2.32802 12.4584C2.39914 12.6433 2.30669 12.8496 2.1218 12.9136C1.93691 12.9847 1.73069 12.8851 1.66669 12.7073C1.31825 11.7758 1.14758 10.8513 1.14758 9.89134C1.14758 9.038 1.31114 8.26289 1.63114 7.58734C2.57691 5.60334 4.67469 4.31623 6.97158 4.31623C10.2071 4.31623 12.8382 6.81223 12.8382 9.88423C12.8382 11.0362 11.8569 11.9749 10.648 11.9749C9.43913 11.9749 8.4578 11.0362 8.4578 9.88423C8.4578 9.12334 7.79647 8.50467 6.97869 8.50467C6.16091 8.50467 5.49958 9.12334 5.49958 9.88423C5.49958 11.1002 5.96891 12.238 6.82936 13.0913C7.50491 13.7598 8.15202 14.1296 9.15469 14.4069C9.34669 14.4567 9.45336 14.6558 9.40358 14.8407C9.36802 15.0042 9.21869 15.1109 9.06936 15.1109Z" fill="#B8B8B8"/>
</svg>
