<svg width="35" height="32" viewBox="0 0 35 32" fill="none" xmlns="http://www.w3.org/2000/svg">
<path d="M17.5628 9.31833C15.7178 9.29732 13.9173 9.31749 12.1177 9.26117C11.7495 9.24941 11.5805 9.10315 11.5091 8.73919C11.4805 8.59041 11.5125 8.45844 11.6007 8.33992C11.6335 8.29621 11.6747 8.26006 11.7075 8.2172C11.8378 8.04488 11.9991 7.9894 12.2227 7.99024C15.7808 7.99865 19.3381 7.99613 22.8962 7.99613C23.2097 7.99613 23.5544 8.41221 23.4997 8.72321C23.435 9.08886 23.2383 9.25361 22.8701 9.26538C21.0865 9.32254 19.3019 9.299 17.5628 9.31833Z" fill="#EC1E24"/>
<path d="M17.5628 9.31833C15.7178 9.29732 13.9173 9.31749 12.1177 9.26117C11.7495 9.24941 11.5805 9.10315 11.5091 8.73919C11.4805 8.59041 11.5125 8.45844 11.6007 8.33992C11.6335 8.29621 11.6747 8.26006 11.7075 8.2172C11.8378 8.04488 11.9991 7.9894 12.2227 7.99024C15.7808 7.99865 19.3381 7.99613 22.8962 7.99613C23.2097 7.99613 23.5544 8.41221 23.4997 8.72321C23.435 9.08886 23.2383 9.25361 22.8701 9.26538C21.0865 9.32254 19.3019 9.299 17.5628 9.31833Z" fill="white" fill-opacity="0.7"/>
<path fill-rule="evenodd" clip-rule="evenodd" d="M19.5306 10.6982C18.8732 10.698 18.2289 10.6978 17.6057 10.6907C17.2472 10.6907 16.8936 10.6908 16.5439 10.6908C14.9914 10.6911 13.5168 10.6913 12.0412 10.6865C11.9151 10.6865 11.831 10.7252 11.7461 10.8143C10.2028 12.4366 8.79406 14.1681 7.508 15.9997C6.68005 17.179 5.92354 18.4004 5.37297 19.7377C5.03339 20.5623 4.78878 21.4087 4.83754 22.3149C4.89049 23.2941 5.09391 24.2389 5.47636 25.1434C6.24044 26.9489 7.48279 28.3594 9.07817 29.4672C11.1476 30.9046 13.4567 31.7014 15.9573 31.9233C17.2863 32.0419 18.6202 32.0334 19.9441 31.8233C21.69 31.5459 23.345 30.9962 24.8858 30.1237C26.5905 29.1579 28.011 27.8886 29.0088 26.1831C29.6711 25.0517 30.067 23.8304 30.157 22.52C30.2259 21.5172 29.9838 20.569 29.598 19.6528C29.1096 18.492 28.4557 17.4236 27.7538 16.3839C26.4669 14.4775 25.0136 12.7056 23.451 11.0211C23.2585 10.8134 23.045 10.7353 22.7651 10.7277C21.6757 10.6987 20.5864 10.6984 19.5306 10.6982ZM18.3236 12.0035C18.0515 12.0035 17.7794 12.0035 17.5073 12.0035C16.9599 12.0035 16.4123 12.0036 15.8647 12.0037C14.7695 12.0039 13.6744 12.0041 12.58 12.0035C12.4959 12.0035 12.4312 12.0144 12.3665 12.0859C11.1569 13.4207 10.0171 14.8118 8.95378 16.266C8.0258 17.5361 7.17683 18.8507 6.58087 20.315C6.57408 20.3317 6.56729 20.3484 6.56048 20.3651C6.40132 20.7563 6.24078 21.1509 6.20934 21.5741C6.13957 22.5223 6.26566 23.4486 6.59012 24.3455C7.15329 25.9039 8.17542 27.1151 9.47493 28.1062C11.6142 29.7368 14.0661 30.4883 16.7223 30.6455C18.0041 30.7211 19.275 30.622 20.5317 30.3555C22.5801 29.9218 24.4361 29.0837 26.0248 27.7027C27.4722 26.4444 28.4666 24.9187 28.7482 22.9838C28.8734 22.1197 28.8364 21.2791 28.4935 20.457C28.053 19.4013 27.5126 18.4002 26.8805 17.4512C25.6205 15.5608 24.189 13.8048 22.6676 12.1203C22.5919 12.0363 22.5179 12.001 22.4036 12.001C21.0433 12.0038 19.6837 12.0037 18.3236 12.0035Z" fill="#EC1E24"/>
<path fill-rule="evenodd" clip-rule="evenodd" d="M19.5306 10.6982C18.8732 10.698 18.2289 10.6978 17.6057 10.6907C17.2472 10.6907 16.8936 10.6908 16.5439 10.6908C14.9914 10.6911 13.5168 10.6913 12.0412 10.6865C11.9151 10.6865 11.831 10.7252 11.7461 10.8143C10.2028 12.4366 8.79406 14.1681 7.508 15.9997C6.68005 17.179 5.92354 18.4004 5.37297 19.7377C5.03339 20.5623 4.78878 21.4087 4.83754 22.3149C4.89049 23.2941 5.09391 24.2389 5.47636 25.1434C6.24044 26.9489 7.48279 28.3594 9.07817 29.4672C11.1476 30.9046 13.4567 31.7014 15.9573 31.9233C17.2863 32.0419 18.6202 32.0334 19.9441 31.8233C21.69 31.5459 23.345 30.9962 24.8858 30.1237C26.5905 29.1579 28.011 27.8886 29.0088 26.1831C29.6711 25.0517 30.067 23.8304 30.157 22.52C30.2259 21.5172 29.9838 20.569 29.598 19.6528C29.1096 18.492 28.4557 17.4236 27.7538 16.3839C26.4669 14.4775 25.0136 12.7056 23.451 11.0211C23.2585 10.8134 23.045 10.7353 22.7651 10.7277C21.6757 10.6987 20.5864 10.6984 19.5306 10.6982ZM18.3236 12.0035C18.0515 12.0035 17.7794 12.0035 17.5073 12.0035C16.9599 12.0035 16.4123 12.0036 15.8647 12.0037C14.7695 12.0039 13.6744 12.0041 12.58 12.0035C12.4959 12.0035 12.4312 12.0144 12.3665 12.0859C11.1569 13.4207 10.0171 14.8118 8.95378 16.266C8.0258 17.5361 7.17683 18.8507 6.58087 20.315C6.57408 20.3317 6.56729 20.3484 6.56048 20.3651C6.40132 20.7563 6.24078 21.1509 6.20934 21.5741C6.13957 22.5223 6.26566 23.4486 6.59012 24.3455C7.15329 25.9039 8.17542 27.1151 9.47493 28.1062C11.6142 29.7368 14.0661 30.4883 16.7223 30.6455C18.0041 30.7211 19.275 30.622 20.5317 30.3555C22.5801 29.9218 24.4361 29.0837 26.0248 27.7027C27.4722 26.4444 28.4666 24.9187 28.7482 22.9838C28.8734 22.1197 28.8364 21.2791 28.4935 20.457C28.053 19.4013 27.5126 18.4002 26.8805 17.4512C25.6205 15.5608 24.189 13.8048 22.6676 12.1203C22.5919 12.0363 22.5179 12.001 22.4036 12.001C21.0433 12.0038 19.6837 12.0037 18.3236 12.0035Z" fill="white" fill-opacity="0.7"/>
<path fill-rule="evenodd" clip-rule="evenodd" d="M15.4043 6.6797C15.9777 6.67913 16.4982 6.67862 16.9316 6.68292C17.6328 6.68292 18.2394 6.68334 18.79 6.68373C19.5838 6.68428 20.2614 6.68475 20.9394 6.68376C21.0041 6.68351 21.0687 6.68333 21.1334 6.68315C21.7319 6.68147 22.3304 6.67978 22.9281 6.62744C23.0988 6.61315 23.2291 6.5375 23.319 6.39629L23.3241 6.38828C23.4207 6.23541 23.518 6.08164 23.6023 5.92137C24.0742 5.02531 24.529 4.12053 24.9837 3.21581C25.3518 2.48341 25.7199 1.75106 26.0971 1.02341C26.2383 0.751068 26.1836 0.539246 26.0508 0.317337C25.8768 0.0273429 25.5885 -0.0592352 25.2834 0.0735737C25.0144 0.190412 24.7471 0.310612 24.4849 0.439218C23.1425 1.09906 21.8001 1.7589 20.4619 2.42715C20.3291 2.49355 20.261 2.47422 20.1618 2.37419C19.5793 1.78664 18.9909 1.20665 18.4 0.627504C18.2067 0.437537 18.0108 0.246729 17.7788 0.101312C17.5485 -0.0432646 17.3787 -0.0340183 17.1669 0.134935C17.04 0.236643 16.9181 0.345916 16.7979 0.45603C16.2691 0.942676 15.7623 1.45136 15.2555 1.96005C15.1058 2.11033 14.9561 2.26062 14.8058 2.41034C14.7318 2.48347 14.6788 2.49523 14.5855 2.44648C14.2493 2.2708 13.9089 2.10353 13.5685 1.93626C13.2514 1.77991 12.9349 1.62227 12.6184 1.46461C11.6639 0.989112 10.7093 0.513565 9.73718 0.0735737C9.50098 -0.0340183 9.30766 0.0122127 9.11349 0.138297C8.86132 0.301366 8.75541 0.698112 8.88737 0.960368C8.9052 0.995876 8.92302 1.03141 8.94086 1.06696C9.02982 1.2443 9.11898 1.42204 9.20931 1.5992C9.51189 2.19317 9.81159 2.7885 10.1113 3.38383C10.5551 4.26537 10.9989 5.14689 11.4519 6.02392C11.6856 6.47698 11.9924 6.65686 12.5018 6.66527C13.5112 6.68158 14.5205 6.68058 15.4043 6.6797ZM23.2178 3.75699C23.4703 3.24646 23.7227 2.73617 23.9746 2.2254C23.9645 2.21532 23.9545 2.20523 23.9435 2.19682C23.9001 2.21763 23.8566 2.23837 23.8131 2.25911C23.6966 2.31465 23.5801 2.37023 23.4644 2.42714C23.17 2.57148 22.8763 2.71725 22.5826 2.863C21.8911 3.20615 21.1998 3.54927 20.4989 3.87375C20.1669 4.02841 19.9248 3.98302 19.6718 3.73001C19.3119 3.37061 18.9472 3.01613 18.5824 2.66165C18.2724 2.36033 17.9623 2.05902 17.6553 1.75469C17.5384 1.63869 17.472 1.63028 17.351 1.75133C17.0789 2.02267 16.8036 2.2907 16.5282 2.55874C16.1527 2.92423 15.7772 3.28972 15.4101 3.66361C15.1067 3.97293 14.826 4.03429 14.4183 3.8376C13.8814 3.57839 13.3465 3.31467 12.8114 3.05092C12.3939 2.84511 11.9764 2.63928 11.5578 2.43554C11.4653 2.39045 11.3728 2.34587 11.2755 2.29896C11.1968 2.26105 11.115 2.22162 11.0274 2.17917C11.0355 2.19965 11.0415 2.2152 11.0463 2.22761C11.0545 2.24881 11.0591 2.26081 11.0644 2.27247C11.3671 2.92205 11.6875 3.56272 12.0079 4.20329C12.1796 4.54664 12.3513 4.88996 12.5203 5.23462C12.5604 5.31706 12.6189 5.31528 12.6815 5.31337C12.691 5.31308 12.7006 5.31279 12.7103 5.31279C13.6224 5.31303 14.5344 5.31313 15.4465 5.31324C17.7274 5.31349 20.0081 5.31375 22.2893 5.31615C22.4112 5.31615 22.47 5.27749 22.5205 5.16905C22.6161 4.9625 22.7186 4.75902 22.821 4.55576C22.8699 4.45876 22.9187 4.36182 22.9668 4.26461C23.0505 4.09536 23.1342 3.92616 23.2178 3.75699Z" fill="#FFD65A"/>
<path d="M17.698 20.2667C16.1846 19.8733 15.698 19.4667 15.698 18.8333C15.698 18.1067 16.3713 17.6 17.498 17.6C18.6846 17.6 19.1246 18.1667 19.1646 19H20.638C20.5913 17.8533 19.8913 16.8 18.498 16.46V15H16.498V16.44C15.2046 16.72 14.1646 17.56 14.1646 18.8467C14.1646 20.3867 15.438 21.1533 17.298 21.6C18.9646 22 19.298 22.5867 19.298 23.2067C19.298 23.6667 18.9713 24.4 17.498 24.4C16.1246 24.4 15.5846 23.7867 15.5113 23H14.0446C14.1246 24.46 15.218 25.28 16.498 25.5533V27H18.498V25.5667C19.798 25.32 20.8313 24.5667 20.8313 23.2C20.8313 21.3067 19.2113 20.66 17.698 20.2667Z" fill="#C62828"/>
</svg>
