<svg width="28" height="24" viewBox="0 0 28 24" fill="none" xmlns="http://www.w3.org/2000/svg">
<path d="M27.5598 6.51934L23.6123 2.60178C23.4179 2.4074 23.1488 2.30273 22.8796 2.30273C22.6105 2.30273 22.3413 2.4074 22.1469 2.60178L13.8633 10.8107L20.2779 17.1805L18.7677 18.6757L12.353 12.306L9.6616 14.9825C9.46722 15.1768 9.36255 15.431 9.36255 15.7151C9.36255 15.9843 9.46722 16.2534 9.6616 16.4478L16.9734 23.6998C17.0631 23.7895 17.1827 23.8642 17.3023 23.9241C17.422 23.9689 17.5565 23.9988 17.6911 23.9988C17.8257 23.9988 17.9602 23.9689 18.0799 23.9241C18.1995 23.8792 18.3191 23.7895 18.4088 23.6998L27.5298 14.6386C27.6495 14.5189 27.7541 14.3694 27.8139 14.2049C27.8738 14.0405 27.9186 13.876 27.9186 13.6965V7.46135C27.9485 7.10249 27.799 6.77354 27.5598 6.51934Z" fill="#FAA819"/>
<path d="M13.5496 5.8017L12.9963 5.24846C13.6991 4.56064 14.6411 4.17188 15.6429 4.17188C16.6298 4.17188 17.5868 4.56064 18.2895 5.24846L17.7213 5.8017C17.1681 5.24845 16.4205 4.9494 15.6429 4.9494C14.8504 4.9494 14.1028 5.26341 13.5496 5.8017Z" fill="#0661AB"/>
<path d="M19.1418 4.38124C18.2147 3.45419 16.9438 2.9458 15.6279 2.9458C14.3121 2.9458 13.0561 3.46914 12.1141 4.38124L11.5459 3.828C12.6225 2.75142 14.0878 2.15332 15.613 2.15332C17.1381 2.15332 18.6035 2.75142 19.6801 3.828L19.1418 4.38124Z" fill="#0661AB"/>
<path d="M20.6968 2.85593C20.0389 2.19802 19.2464 1.67468 18.3792 1.31582C17.512 0.956959 16.5849 0.77753 15.6429 0.77753C14.7009 0.77753 13.7738 0.956959 12.9066 1.31582C12.0393 1.67468 11.2469 2.19802 10.5889 2.85593L10.0208 2.30269C10.7534 1.57001 11.6356 0.986865 12.5926 0.5981C13.5495 0.194383 14.5962 0 15.6279 0C16.6746 0 17.7063 0.209335 18.6633 0.5981C19.6203 1.00182 20.5025 1.57001 21.2351 2.30269L20.6968 2.85593Z" fill="#0661AB"/>
<path d="M21.938 15.2374L8.92928 2.33342C8.82461 2.22875 8.67508 2.16895 8.52556 2.16895C8.37603 2.16895 8.22651 2.22875 8.12184 2.33342L0.24187 10.1536C0.137202 10.2583 0.0773926 10.4078 0.0773926 10.5423C0.0773926 10.6769 0.137202 10.8264 0.24187 10.9311L13.2505 23.8351C13.3552 23.9398 13.5047 23.9996 13.6543 23.9996C13.8038 23.9996 13.9533 23.9398 14.058 23.8351L21.938 16.015C22.0426 15.9103 22.1024 15.7757 22.1024 15.6262C22.1024 15.4916 22.0426 15.3421 21.938 15.2374ZM18.768 18.6915L5.46029 5.4884L6.9705 3.99315L20.2782 17.1962L18.768 18.6915Z" fill="#0661AB"/>
</svg>
