<svg width="32" height="32" viewBox="0 0 32 32" fill="none" xmlns="http://www.w3.org/2000/svg">
<path d="M27.3003 11.4339L24.0106 8.16914C23.8486 8.00715 23.6243 7.91992 23.4 7.91992C23.1757 7.91992 22.9514 8.00715 22.7894 8.16914L15.886 15.0103L21.2318 20.3187L19.9732 21.5648L14.6275 16.2564L12.3845 18.4869C12.2225 18.6489 12.1353 18.8607 12.1353 19.0975C12.1353 19.3218 12.2225 19.5461 12.3845 19.7081L18.4779 25.7517C18.5527 25.8264 18.6524 25.8887 18.7521 25.9386C18.8518 25.976 18.9639 26.0009 19.0761 26.0009C19.1882 26.0009 19.3004 25.976 19.4 25.9386C19.4997 25.9012 19.5994 25.8264 19.6742 25.7517L27.2754 18.2003C27.3751 18.1006 27.4623 17.976 27.5122 17.8389C27.562 17.7018 27.5994 17.5648 27.5994 17.4152V12.219C27.6243 11.9199 27.4997 11.6458 27.3003 11.4339Z" fill="#FAA819"/>
<path d="M15.6237 10.8348L15.1626 10.3738C15.7483 9.80055 16.5333 9.47656 17.3682 9.47656C18.1906 9.47656 18.9881 9.80055 19.5738 10.3738L19.1003 10.8348C18.6392 10.3738 18.0162 10.1245 17.3682 10.1245C16.7078 10.1245 16.0847 10.3862 15.6237 10.8348Z" fill="#0661AB"/>
<path d="M20.2848 9.65162C19.5122 8.87903 18.453 8.45536 17.3565 8.45536C16.2599 8.45536 15.2132 8.89149 14.4281 9.65162L13.9546 9.19056C14.8518 8.29336 16.073 7.79492 17.344 7.79492C18.615 7.79492 19.8362 8.29336 20.7334 9.19056L20.2848 9.65162Z" fill="#0661AB"/>
<path d="M21.5813 8.38006C21.033 7.83177 20.3725 7.39564 19.6498 7.09657C18.9271 6.79751 18.1545 6.64797 17.3694 6.64797C16.5844 6.64797 15.8118 6.79751 15.0891 7.09657C14.3663 7.39564 13.7059 7.83177 13.1576 8.38006L12.6841 7.919C13.2947 7.30841 14.0299 6.82243 14.8274 6.49844C15.6249 6.16199 16.4972 6 17.357 6C18.2292 6 19.0891 6.17445 19.8866 6.49844C20.6841 6.83489 21.4193 7.30841 22.0299 7.919L21.5813 8.38006Z" fill="#0661AB"/>
<path d="M22.615 18.6976L11.7739 7.94371C11.6867 7.85648 11.5621 7.80664 11.4375 7.80664C11.3128 7.80664 11.1882 7.85648 11.101 7.94371L4.53404 14.4608C4.44682 14.5481 4.39697 14.6727 4.39697 14.7848C4.39697 14.897 4.44682 15.0216 4.53404 15.1088L15.3751 25.8627C15.4624 25.9499 15.587 25.9998 15.7116 25.9998C15.8362 25.9998 15.9608 25.9499 16.048 25.8627L22.615 19.3456C22.7022 19.2583 22.7521 19.1462 22.7521 19.0216C22.7521 18.9094 22.7022 18.7848 22.615 18.6976ZM19.9733 21.5761L8.88295 10.573L10.1415 9.32689L21.2318 20.33L19.9733 21.5761Z" fill="#0661AB"/>
<rect x="0.5" y="0.5" width="31" height="31" rx="15.5" stroke="#C62828"/>
</svg>
