<svg width="32" height="32" viewBox="0 0 32 32" fill="none" xmlns="http://www.w3.org/2000/svg">
<rect x="0.5" y="0.5" width="31" height="31" rx="15.5" fill="white"/>
<path d="M14.75 21.7031C14.75 22.0346 14.8817 22.3526 15.1161 22.587C15.3505 22.8214 15.6685 22.9531 16 22.9531C16.3315 22.9531 16.6495 22.8214 16.8839 22.587C17.1183 22.3526 17.25 22.0346 17.25 21.7031C17.25 21.3716 17.1183 21.0537 16.8839 20.8192C16.6495 20.5848 16.3315 20.4531 16 20.4531C15.6685 20.4531 15.3505 20.5848 15.1161 20.8192C14.8817 21.0537 14.75 21.3716 14.75 21.7031ZM15.375 18.4219H16.625C16.7109 18.4219 16.7812 18.3516 16.7812 18.2656V9.20312C16.7812 9.11719 16.7109 9.04688 16.625 9.04688H15.375C15.2891 9.04688 15.2188 9.11719 15.2188 9.20312V18.2656C15.2188 18.3516 15.2891 18.4219 15.375 18.4219Z" fill="#C62828"/>
<rect x="0.5" y="0.5" width="31" height="31" rx="15.5" stroke="#C62828"/>
</svg>
