<svg width="32" height="32" viewBox="0 0 32 32" fill="none" xmlns="http://www.w3.org/2000/svg">
<rect x="0.5" y="0.5" width="31" height="31" rx="15.5" fill="white"/>
<path d="M13.4331 10.7979H14.4464V13.3017C14.4464 13.5175 14.6213 13.6924 14.837 13.6924H17.1629C17.3786 13.6924 17.5535 13.5175 17.5535 13.3017V10.7979H18.5669C18.7095 10.7979 18.8409 10.7201 18.9095 10.5949C18.978 10.4698 18.9729 10.3172 18.896 10.197L16.3292 6.18027C16.2574 6.06797 16.1333 6 16 6C15.8667 6 15.7426 6.06797 15.6708 6.18027L13.1039 10.1969C13.0271 10.3171 13.0219 10.4697 13.0905 10.5949C13.1591 10.72 13.2904 10.7979 13.4331 10.7979ZM16 7.11601L17.8537 10.0166H17.1629C16.9472 10.0166 16.7723 10.1916 16.7723 10.4073V12.9111H15.2277V10.4073C15.2277 10.1916 15.0527 10.0166 14.837 10.0166H14.1463L16 7.11601Z" fill="#C62828"/>
<path d="M23.8231 15.0137H8.17695C7.48437 15.0137 6.9209 15.5771 6.9209 16.2697V24.7443C6.9209 25.4368 7.48437 26.0003 8.17695 26.0003H23.8231C24.5157 26.0003 25.0792 25.4368 25.0792 24.7443V16.2697C25.0792 15.5771 24.5157 15.0137 23.8231 15.0137ZM24.2979 24.7443C24.2979 25.0061 24.0849 25.2191 23.8231 25.2191H8.17695C7.91515 25.2191 7.70215 25.0061 7.70215 24.7443V16.2697C7.70215 16.0079 7.91515 15.7949 8.17695 15.7949H23.8231C24.0849 15.7949 24.2979 16.0079 24.2979 16.2697V24.7443Z" fill="#C62828"/>
<path d="M22.7977 18.3198C22.2629 18.3198 21.8277 17.8889 21.8277 17.3591C21.8277 17.3405 21.8283 17.3221 21.8293 17.3039C21.8352 17.1967 21.7968 17.0917 21.723 17.0137C21.6492 16.9357 21.5466 16.8916 21.4393 16.8916H10.5605C10.4531 16.8916 10.3504 16.9358 10.2766 17.0139C10.2028 17.0921 10.1644 17.1971 10.1705 17.3044C10.1716 17.3225 10.1721 17.3408 10.1721 17.3591C10.1721 17.8889 9.73695 18.3198 9.20214 18.3198C8.98644 18.3198 8.81152 18.4947 8.81152 18.7105V22.3805C8.81152 22.5961 8.98644 22.7711 9.20214 22.7711C9.73695 22.7711 10.1721 23.202 10.1721 23.7317C10.1721 23.9475 10.347 24.1224 10.5627 24.1224H21.4371C21.6528 24.1224 21.8277 23.9475 21.8277 23.7317C21.8277 23.202 22.2629 22.7711 22.7977 22.7711C23.0134 22.7711 23.1883 22.5961 23.1883 22.3805V18.7105C23.1883 18.4947 23.0134 18.3198 22.7977 18.3198ZM22.4071 22.0335C21.7552 22.1818 21.2407 22.693 21.0909 23.3411H10.909C10.7591 22.693 10.2446 22.1818 9.59281 22.0335V19.0574C10.2703 18.9033 10.7993 18.3572 10.925 17.6729H21.075C21.2006 18.3573 21.7297 18.9033 22.4071 19.0574V22.0335H22.4071Z" fill="#C62828"/>
<path d="M15.9999 18.1992C14.7279 18.1992 13.6929 19.2342 13.6929 20.5062C13.6929 21.7784 14.7278 22.8133 15.9999 22.8133C17.2721 22.8133 18.307 21.7784 18.307 20.5062C18.307 19.2342 17.2721 18.1992 15.9999 18.1992ZM15.9999 22.032C15.1586 22.032 14.4741 21.3476 14.4741 20.5062C14.4741 19.6649 15.1586 18.9804 15.9999 18.9804C16.8413 18.9804 17.5258 19.6649 17.5258 20.5062C17.5258 21.3476 16.8413 22.032 15.9999 22.032Z" fill="#C62828"/>
<rect x="0.5" y="0.5" width="31" height="31" rx="15.5" stroke="#C62828"/>
</svg>
