<svg width="16" height="16" viewBox="0 0 16 16" fill="none" xmlns="http://www.w3.org/2000/svg">
<path fill-rule="evenodd" clip-rule="evenodd" d="M5.02145 6.52145C5.21671 6.32618 5.53329 6.32618 5.72855 6.52145L8 8.79289L10.2714 6.52145C10.4667 6.32618 10.7833 6.32618 10.9786 6.52145C11.1738 6.71671 11.1738 7.03329 10.9786 7.22855L8.35355 9.85355C8.15829 10.0488 7.84171 10.0488 7.64645 9.85355L5.02145 7.22855C4.82618 7.03329 4.82618 6.71671 5.02145 6.52145Z" fill="#C62828"/>
<path fill-rule="evenodd" clip-rule="evenodd" d="M8 2C8.27614 2 8.5 2.22386 8.5 2.5V9.5C8.5 9.77614 8.27614 10 8 10C7.72386 10 7.5 9.77614 7.5 9.5V2.5C7.5 2.22386 7.72386 2 8 2Z" fill="#C62828"/>
<path fill-rule="evenodd" clip-rule="evenodd" d="M2.5 9C2.77614 9 3 9.22386 3 9.5V13H13V9.5C13 9.22386 13.2239 9 13.5 9C13.7761 9 14 9.22386 14 9.5V13C14 13.2652 13.8946 13.5196 13.7071 13.7071C13.5196 13.8946 13.2652 14 13 14H3C2.73478 14 2.48043 13.8946 2.29289 13.7071C2.10536 13.5196 2 13.2652 2 13V9.5C2 9.22386 2.22386 9 2.5 9Z" fill="#C62828"/>
</svg>
