<svg width="206" height="33" viewBox="0 0 206 33" fill="none" xmlns="http://www.w3.org/2000/svg">
<path d="M14.2481 32.434C9.76172 32.434 6.26545 31.2186 3.75927 28.7848C1.25309 26.3229 0 22.8098 0 18.2441V0.450454H6.03339V18.0189C6.03339 24.205 8.7871 27.2989 14.2945 27.2989C19.771 27.2989 22.5092 24.205 22.5092 18.0189V0.450454H28.4498V18.2441C28.4498 22.8098 27.1967 26.3229 24.6905 28.7848C22.2153 31.2186 18.7345 32.434 14.2481 32.434ZM65.7669 0.450454V31.9835H60.801L42.8864 10.6314V31.9835H36.8994V0.450454H41.8654L59.7799 21.8025V0.450454H65.7669ZM74.4721 0.450454H80.5055V31.9835H74.4721V0.450454ZM118.769 0.450454L104.614 31.9835H98.6732L84.4715 0.450454H91.0155L101.829 24.7759L112.736 0.450454H118.769ZM146.563 27.0737V31.9835H122.197V0.450454H145.913V5.36029H128.231V13.5595H143.918V18.3802H128.231V27.0737H146.563ZM163.36 32.434C160.854 32.434 158.424 32.0883 156.073 31.3985C153.753 30.7072 151.912 29.7921 150.551 28.6503L152.639 24.1002C153.97 25.1216 155.595 25.9631 157.512 26.6232C159.462 27.2535 161.41 27.5695 163.36 27.5695C165.773 27.5695 167.568 27.1941 168.744 26.4433C169.95 25.6925 170.554 24.7009 170.554 23.4699C170.554 22.5689 170.214 21.8338 169.532 21.2629C168.883 20.6623 168.048 20.1961 167.026 19.8661C166.005 19.5361 164.612 19.1607 162.849 18.7399C160.374 18.169 158.363 17.5981 156.816 17.0288C155.3 16.4579 153.985 15.571 152.871 14.3697C151.788 13.1388 151.247 11.487 151.247 9.41454C151.247 7.67365 151.727 6.097 152.686 4.68459C153.675 3.24402 155.145 2.10219 157.095 1.26225C159.075 0.420745 161.488 0 164.335 0C166.314 0 168.264 0.240875 170.182 0.721066C172.101 1.20126 173.756 1.89261 175.148 2.79355L173.245 7.34362C171.822 6.53183 170.336 5.91712 168.789 5.49637C167.242 5.07561 165.742 4.86603 164.288 4.86603C161.905 4.86603 160.126 5.2555 158.951 6.03601C157.805 6.81807 157.233 7.85354 157.233 9.14551C157.233 10.0465 157.559 10.7816 158.208 11.3525C158.888 11.9234 159.739 12.3739 160.761 12.7039C161.783 13.034 163.175 13.4093 164.938 13.8301C167.352 14.3697 169.331 14.9406 170.878 15.5413C172.425 16.1122 173.74 16.9975 174.823 18.1987C175.938 19.4 176.494 21.022 176.494 23.0648C176.494 24.8057 175.999 26.3823 175.01 27.7947C174.049 29.2056 172.58 30.3318 170.601 31.1733C168.62 32.0132 166.206 32.434 163.36 32.434ZM188.614 5.40565H177.846V0.450454H205.415V5.40565H194.647V31.9835H188.614V5.40565Z" fill="#C62828"/>
</svg>
