<svg width="206" height="33" viewBox="0 0 206 33" fill="none" xmlns="http://www.w3.org/2000/svg">
<path d="M14.5401 32.434C10.0537 32.434 6.55744 31.2186 4.05126 28.7848C1.54508 26.3229 0.291992 22.8098 0.291992 18.2441V0.450454H6.32539V18.0189C6.32539 24.205 9.07909 27.2989 14.5865 27.2989C20.063 27.2989 22.8012 24.205 22.8012 18.0189V0.450454H28.7418V18.2441C28.7418 22.8098 27.4887 26.3229 24.9825 28.7848C22.5073 31.2186 19.0265 32.434 14.5401 32.434ZM66.0589 0.450454V31.9835H61.0929L43.1784 10.6314V31.9835H37.1914V0.450454H42.1574L60.0719 21.8025V0.450454H66.0589ZM74.7641 0.450454H80.7975V31.9835H74.7641V0.450454ZM119.061 0.450454L104.906 31.9835H98.9652L84.7635 0.450454H91.3075L102.121 24.7759L113.028 0.450454H119.061ZM146.855 27.0737V31.9835H122.489V0.450454H146.205V5.36029H128.523V13.5595H144.21V18.3802H128.523V27.0737H146.855ZM163.652 32.434C161.146 32.434 158.716 32.0883 156.365 31.3985C154.045 30.7072 152.204 29.7921 150.843 28.6503L152.931 24.1002C154.262 25.1216 155.887 25.9631 157.804 26.6232C159.754 27.2535 161.702 27.5695 163.652 27.5695C166.065 27.5695 167.86 27.1941 169.036 26.4433C170.242 25.6925 170.846 24.7009 170.846 23.4699C170.846 22.5689 170.506 21.8338 169.824 21.2629C169.175 20.6623 168.34 20.1961 167.318 19.8661C166.297 19.5361 164.904 19.1607 163.141 18.7399C160.666 18.169 158.655 17.5981 157.108 17.0288C155.592 16.4579 154.277 15.571 153.163 14.3697C152.08 13.1388 151.539 11.487 151.539 9.41454C151.539 7.67365 152.019 6.097 152.978 4.68459C153.967 3.24402 155.437 2.10219 157.387 1.26225C159.367 0.420745 161.78 0 164.627 0C166.606 0 168.556 0.240875 170.474 0.721066C172.393 1.20126 174.048 1.89261 175.44 2.79355L173.537 7.34362C172.114 6.53183 170.628 5.91712 169.081 5.49637C167.534 5.07561 166.034 4.86603 164.58 4.86603C162.197 4.86603 160.418 5.2555 159.243 6.03601C158.097 6.81807 157.525 7.85354 157.525 9.14551C157.525 10.0465 157.851 10.7816 158.5 11.3525C159.18 11.9234 160.031 12.3739 161.053 12.7039C162.075 13.034 163.467 13.4093 165.23 13.8301C167.644 14.3697 169.623 14.9406 171.17 15.5413C172.717 16.1122 174.032 16.9975 175.115 18.1987C176.23 19.4 176.786 21.022 176.786 23.0648C176.786 24.8057 176.291 26.3823 175.302 27.7947C174.341 29.2056 172.872 30.3318 170.893 31.1733C168.912 32.0132 166.498 32.434 163.652 32.434ZM188.906 5.40565H178.138V0.450454H205.707V5.40565H194.939V31.9835H188.906V5.40565Z" fill="#C62828"/>
</svg>
