<svg width="60" height="18" viewBox="0 0 60 18" fill="none" xmlns="http://www.w3.org/2000/svg">
<path d="M19.0506 5.17761L16.3133 2.44027C16.1788 2.30593 15.9964 2.23047 15.8063 2.23047C15.6162 2.23047 15.4339 2.30593 15.2993 2.44027L9.55888 8.17998L14.0101 12.6312L12.9632 13.6788L8.51197 9.22763L6.64144 11.0945C6.5071 11.229 6.43164 11.4114 6.43164 11.6015C6.43164 11.7916 6.5071 11.9739 6.64144 12.1085L11.7069 17.1739C11.7734 17.2405 11.8525 17.2934 11.9395 17.3294C12.0265 17.3655 12.1197 17.384 12.2139 17.384C12.308 17.384 12.4013 17.3655 12.4883 17.3294C12.5753 17.2934 12.6543 17.2405 12.7209 17.1739L19.0499 10.8448C19.136 10.7588 19.2043 10.6567 19.2509 10.5443C19.2975 10.4318 19.3215 10.3113 19.3215 10.1896V5.83212C19.3215 5.58667 19.2241 5.35127 19.0506 5.17761Z" fill="#FAA819"/>
<path d="M9.33772 4.67372L8.95117 4.28351C9.4372 3.79925 10.0953 3.52734 10.7814 3.52734C11.4675 3.52734 12.1257 3.79925 12.6117 4.28351L12.2222 4.67299C11.8392 4.2913 11.3205 4.07703 10.7798 4.07717C10.2391 4.0773 9.72051 4.29183 9.33772 4.67372Z" fill="#0661AB"/>
<path d="M13.2177 3.68218C12.5715 3.03738 11.6959 2.67525 10.7831 2.67525C9.87022 2.67525 8.99464 3.03738 8.34846 3.68218L7.95898 3.2927C8.70849 2.54494 9.72399 2.125 10.7827 2.125C11.8414 2.125 12.8569 2.54494 13.6065 3.2927L13.2177 3.68218Z" fill="#0661AB"/>
<path d="M14.2898 2.61019C13.8295 2.14931 13.2828 1.78369 12.6811 1.53424C12.0794 1.28478 11.4344 1.15639 10.783 1.15639C10.1316 1.15639 9.48661 1.28478 8.88489 1.53424C8.28317 1.78369 7.73652 2.14931 7.2762 2.61019L6.88672 2.22071C7.39817 1.70865 8.00553 1.30243 8.67408 1.02528C9.34264 0.748124 10.0593 0.605469 10.783 0.605469C11.5067 0.605469 12.2233 0.748124 12.8919 1.02528C13.5604 1.30243 14.1678 1.70865 14.6793 2.22071L14.2898 2.61019Z" fill="#0661AB"/>
<path d="M15.1526 11.2661L6.13308 2.24652C6.05983 2.17369 5.96074 2.13281 5.85745 2.13281C5.75415 2.13281 5.65506 2.17369 5.58181 2.24652L0.113706 7.71169C0.0408785 7.78494 0 7.88404 0 7.98733C0 8.09062 0.0408785 8.18972 0.113706 8.26297L9.13326 17.2825C9.2065 17.3553 9.3056 17.3962 9.40889 17.3962C9.51219 17.3962 9.61128 17.3553 9.68453 17.2825L15.1497 11.8173C15.2229 11.7445 15.2643 11.6456 15.2649 11.5423C15.2654 11.439 15.2251 11.3397 15.1526 11.2661ZM12.9622 13.6776L3.73763 4.45309L4.78528 3.40617L14.0098 12.6307L12.9622 13.6776Z" fill="#0661AB"/>
<path d="M32.1872 5.38867C32.3417 5.38867 32.4845 5.49556 32.3776 5.72105L28.042 14.7355C27.9827 14.8541 27.8993 14.9851 27.769 14.9851H27.6416C27.5113 14.9851 27.4278 14.8548 27.3685 14.7355L23.0293 5.70933C22.9224 5.49556 23.0652 5.38867 23.2196 5.38867H25.1795C25.3098 5.38867 25.3933 5.49556 25.4884 5.68591L27.7089 10.6262L29.9177 5.68591C30.0129 5.49556 30.0956 5.38867 30.2266 5.38867H32.1858H32.1872Z" fill="#0661AB"/>
<path d="M35.7263 5.38877H33.9209C33.8895 5.38786 33.8582 5.39337 33.8291 5.40497C33.7999 5.41657 33.7733 5.43401 33.7511 5.45622C33.7289 5.47843 33.7115 5.50494 33.6999 5.53413C33.6883 5.56332 33.6828 5.59457 33.6837 5.62597V14.6404C33.683 14.6733 33.689 14.7061 33.7013 14.7366C33.7136 14.7672 33.732 14.795 33.7553 14.8182C33.7786 14.8415 33.8064 14.8598 33.837 14.872C33.8676 14.8842 33.9004 14.8901 33.9333 14.8893H35.7387C35.8027 14.8863 35.863 14.8587 35.9072 14.8124C35.9514 14.766 35.976 14.7044 35.9759 14.6404V5.6267C35.9729 5.56261 35.9452 5.50216 35.8987 5.45796C35.8522 5.41377 35.7904 5.38924 35.7263 5.3895V5.38877Z" fill="#0661AB"/>
<path d="M35.725 1.92002H33.9197C33.8882 1.91911 33.8568 1.92464 33.8276 1.93628C33.7983 1.94791 33.7717 1.9654 33.7494 1.98768C33.7271 2.00996 33.7096 2.03655 33.698 2.06583C33.6864 2.09511 33.6808 2.12646 33.6817 2.15795V3.85498C33.6809 3.88798 33.6868 3.9208 33.6991 3.95145C33.7114 3.98211 33.7297 4.00995 33.7531 4.03329C33.7764 4.05663 33.8043 4.075 33.8349 4.08726C33.8656 4.09952 33.8984 4.10543 33.9314 4.10462H35.7375C35.8017 4.10179 35.8623 4.07422 35.9067 4.02768C35.951 3.98115 35.9757 3.91926 35.9754 3.85498V2.15795C35.9726 2.09373 35.945 2.0331 35.8985 1.98875C35.852 1.9444 35.7901 1.91977 35.7258 1.92002H35.725Z" fill="#FAA819"/>
<path d="M48.4577 5.38867C48.5218 5.38841 48.5836 5.41294 48.6301 5.45714C48.6766 5.50133 48.7043 5.56178 48.7073 5.62588V14.6403C48.7074 14.7045 48.6827 14.7662 48.6383 14.8125C48.594 14.8589 48.5335 14.8864 48.4694 14.8892H46.6523C46.6194 14.89 46.5866 14.8841 46.556 14.8719C46.5254 14.8597 46.4976 14.8414 46.4742 14.8181C46.4509 14.7949 46.4325 14.7671 46.4202 14.7366C46.4079 14.706 46.4019 14.6732 46.4026 14.6403V10.0207L43.565 14.2479C43.5369 14.3022 43.4942 14.3476 43.4417 14.3791C43.3892 14.4105 43.3289 14.4267 43.2678 14.4258H43.1726C43.1134 14.4249 43.0556 14.4078 43.0054 14.3765C42.9553 14.3451 42.9146 14.3007 42.8878 14.2479L40.1204 10.0317V14.6396C40.1205 14.7036 40.0959 14.7652 40.0517 14.8116C40.0075 14.8579 39.9472 14.8855 39.8832 14.8885H38.0662C38.0332 14.8893 38.0005 14.8834 37.9699 14.8712C37.9392 14.859 37.9114 14.8407 37.8881 14.8174C37.8648 14.7941 37.8464 14.7664 37.8341 14.7358C37.8218 14.7053 37.8158 14.6725 37.8165 14.6396V5.62661C37.8156 5.59521 37.8211 5.56396 37.8327 5.53477C37.8443 5.50558 37.8617 5.47906 37.884 5.45685C37.9062 5.43464 37.9327 5.4172 37.9619 5.40561C37.9911 5.39401 38.0223 5.38849 38.0537 5.38941H39.7873C39.8942 5.38941 39.9652 5.44871 40.037 5.55559L43.2195 10.4724L46.4737 5.55559C46.5469 5.44871 46.604 5.38941 46.7233 5.38941H48.4569L48.4577 5.38867Z" fill="#0661AB"/>
<path d="M55.1678 5.30859C54.2122 5.30859 53.278 5.59198 52.4834 6.12292C51.6888 6.65385 51.0695 7.40849 50.7037 8.29141C50.338 9.17432 50.2423 10.1459 50.4288 11.0832C50.6152 12.0204 51.0754 12.8814 51.7512 13.5572C52.4269 14.2329 53.2879 14.6931 54.2252 14.8796C55.1625 15.066 56.134 14.9703 57.0169 14.6046C57.8998 14.2389 58.6545 13.6196 59.1854 12.825C59.7164 12.0304 59.9997 11.0962 59.9997 10.1405C59.9997 8.859 59.4907 7.62998 58.5845 6.72383C57.6784 5.81767 56.4493 5.30859 55.1678 5.30859ZM55.1554 12.7307C53.8134 12.7307 52.6611 11.4956 52.6611 10.1288C52.6611 8.76194 53.8134 7.55177 55.1554 7.55177C56.5083 7.55177 57.6497 8.7634 57.6497 10.1288C57.6497 11.4942 56.5076 12.7278 55.1547 12.7278L55.1554 12.7307Z" fill="#0661AB"/>
</svg>
