<svg width="301" height="186" viewBox="0 0 301 186" fill="none" xmlns="http://www.w3.org/2000/svg">
<path d="M32.1117 47.2655C27.8544 80.7548 45.0333 115.088 72.1741 135.166C99.315 155.245 135.03 161.853 168.45 157.062C192.307 153.643 215.969 144.29 232.783 127.026C249.598 109.762 258.462 83.8243 251.689 60.6961C249.129 51.9619 244.103 43.4973 236.127 39.1102C223.39 32.1079 207.669 37.2436 194.113 42.4941C180.558 47.7446 164.861 52.9152 152.094 45.9678C142.282 40.6325 137.246 29.6474 130.059 21.1028C117.836 6.57413 97.9774 -1.1419 79.1465 1.32863C76.7908 1.63807 74.465 2.10223 72.1791 2.71612C52.1504 8.09139 37.0078 24.5466 32.6357 44.8199L32.1117 47.2655Z" fill="#F9E4E4"/>
<path d="M15.0883 61.3465L62.7767 29.4471C64.8425 28.0653 67.6373 28.6198 69.0191 30.6855L118.617 104.833C119.999 106.899 119.445 109.694 117.379 111.075L69.6905 142.975C67.6247 144.357 64.8299 143.802 63.4481 141.736L13.8499 67.5889C12.4681 65.5232 13.0225 62.7284 15.0883 61.3465Z" fill="white" stroke="#E8E8E8"/>
<path d="M92.8729 104.808L92.239 108.741L64.3994 104.728L65.0333 100.795L92.8729 104.808Z" fill="#D1CCCC"/>
<path d="M78.8529 90.7793L82.8456 91.3533L78.4187 118.764L74.4209 118.185L78.8529 90.7793Z" fill="#D1CCCC"/>
<path d="M53.2086 55.9402C53.2485 56.0001 47.6387 59.8231 40.6763 64.4797C33.7139 69.1363 28.0392 72.8645 27.9992 72.8046C27.9593 72.7447 33.5692 68.9217 40.5315 64.2651C47.4939 59.6035 53.1687 55.8803 53.2086 55.9402Z" fill="#D1CCCC"/>
<path d="M73.8079 50.77C73.8478 50.8299 64.5147 57.1434 52.9656 64.8644C41.4116 72.5905 32.0186 78.8042 31.9786 78.7443C31.9387 78.6844 41.2668 72.3758 52.8209 64.6448C64.37 56.9238 73.768 50.7101 73.8079 50.77Z" fill="#D1CCCC"/>
<path d="M77.9349 56.9399C77.9748 56.9998 68.6417 63.3133 57.0926 71.0344C45.5385 78.7604 36.1455 84.9741 36.1056 84.9142C36.0657 84.8543 45.3938 78.5458 56.9479 70.8148C68.4969 63.0987 77.8949 56.88 77.9349 56.9399Z" fill="#D1CCCC"/>
<path d="M82.0618 63.1118C82.1017 63.1716 72.7686 69.4852 61.2195 77.2062C49.6655 84.9322 40.2725 91.146 40.2325 91.0861C40.1926 91.0262 49.5207 84.7176 61.0748 76.9866C72.6239 69.2656 82.0219 63.0519 82.0618 63.1118Z" fill="#D1CCCC"/>
<path d="M86.1897 69.2875C86.2297 69.3474 76.8966 75.661 65.3475 83.382C53.7934 91.108 44.4004 97.3218 44.3605 97.2619C44.3206 97.202 53.6487 90.8934 65.2027 83.1624C76.7518 75.4414 86.1498 69.2276 86.1897 69.2875Z" fill="#D1CCCC"/>
<path d="M211.315 110.6L250.034 84.7006C252.1 83.3187 254.895 83.8732 256.277 85.939L297.039 146.878C298.421 148.943 297.867 151.738 295.801 153.12L257.082 179.02C255.016 180.402 252.221 179.847 250.839 177.782L210.076 116.843C208.695 114.777 209.249 111.982 211.315 110.6Z" fill="white" stroke="#E8E8E8"/>
<path d="M275.931 147.49L275.397 150.794L252.02 147.425L252.549 144.121L275.931 147.49Z" fill="#D1CCCC"/>
<path d="M264.158 135.705L267.512 136.189L263.793 159.208L260.435 158.723L264.158 135.705Z" fill="#D1CCCC"/>
<path d="M242.621 106.448C242.661 106.508 237.955 109.727 232.105 113.635C226.256 117.548 221.485 120.667 221.445 120.607C221.405 120.548 226.111 117.328 231.961 113.415C237.81 109.508 242.581 106.388 242.621 106.448Z" fill="#D1CCCC"/>
<path d="M259.916 102.106C259.956 102.166 252.125 107.476 242.422 113.965C232.72 120.453 224.824 125.663 224.784 125.603C224.744 125.544 232.575 120.238 242.278 113.745C251.98 107.257 259.876 102.046 259.916 102.106Z" fill="#D1CCCC"/>
<path d="M263.383 107.289C263.423 107.349 255.593 112.66 245.89 119.148C236.188 125.636 228.292 130.847 228.252 130.787C228.212 130.727 236.043 125.422 245.745 118.928C255.448 112.445 263.344 107.235 263.383 107.289Z" fill="#D1CCCC"/>
<path d="M266.852 112.473C266.892 112.533 259.061 117.843 249.359 124.332C239.656 130.82 231.761 136.031 231.721 135.971C231.681 135.911 239.512 130.605 249.214 124.112C258.912 117.624 266.812 112.413 266.852 112.473Z" fill="#D1CCCC"/>
<path d="M270.315 117.659C270.355 117.719 262.524 123.029 252.822 129.517C243.119 136.005 235.224 141.216 235.184 141.156C235.144 141.096 242.975 135.791 252.677 129.298C262.379 122.809 270.275 117.599 270.315 117.659Z" fill="#D1CCCC"/>
<path d="M132.359 4.63288L174.857 27.3615C177.048 28.5335 177.875 31.2602 176.703 33.4518L141.007 100.195C139.835 102.387 137.109 103.213 134.917 102.041L92.419 79.3124C90.2275 78.1403 89.4011 75.4136 90.5731 73.2221L126.268 6.47878C127.441 4.28726 130.167 3.46083 132.359 4.63288Z" fill="white" stroke="#E8E8E8"/>
<path d="M130.305 81.2061L127.051 82.319L118.786 59.4754L122.04 58.3574L130.305 81.2061Z" fill="#D1CCCC"/>
<path d="M135.296 64.8164L136.484 68.0955L113.795 75.8664L112.607 72.5873L135.296 64.8164Z" fill="#D1CCCC"/>
<path d="M151.417 31.1052C151.377 31.1801 146.171 28.475 139.793 25.0612C133.409 21.6474 128.274 18.8225 128.314 18.7476C128.354 18.6727 133.559 21.3778 139.938 24.7917C146.321 28.2055 151.457 31.0304 151.417 31.1052Z" fill="#D1CCCC"/>
<path d="M163.735 44.7019C163.695 44.7768 155.081 40.25 144.5 34.5902C133.914 28.9305 125.365 24.2789 125.404 24.204C125.444 24.1292 134.059 28.656 144.645 34.3207C155.225 39.9755 163.775 44.6271 163.735 44.7019Z" fill="#D1CCCC"/>
<path d="M160.71 50.3562C160.67 50.4311 152.055 45.9043 141.474 40.2445C130.889 34.5848 122.339 29.9332 122.379 29.8583C122.419 29.7835 131.033 34.3103 141.619 39.975C152.2 45.6298 160.75 50.2814 160.71 50.3562Z" fill="#D1CCCC"/>
<path d="M157.685 56.0125C157.645 56.0873 149.031 51.5605 138.45 45.9008C127.864 40.241 119.315 35.5895 119.355 35.5146C119.395 35.4397 128.009 39.9665 138.595 45.6313C149.176 51.286 157.725 55.9376 157.685 56.0125Z" fill="#D1CCCC"/>
<path d="M154.66 61.6648C154.62 61.7397 146.005 57.2129 135.425 51.5531C124.839 45.8934 116.289 41.2418 116.329 41.1669C116.369 41.0921 124.984 45.6189 135.569 51.2836C146.15 56.9384 154.7 61.59 154.66 61.6648Z" fill="#D1CCCC"/>
<path d="M288.143 184.747C288.143 184.817 223.635 184.877 144.079 184.877C64.4932 184.877 0 184.817 0 184.747C0 184.677 64.4932 184.617 144.079 184.617C223.635 184.617 288.143 184.672 288.143 184.747Z" fill="#263238"/>
<path d="M106.119 82.286L88.471 173.022L86.1602 184.9L203.977 184.321C209.262 184.296 213.949 179.6 215.651 172.627L236.543 86.9626C237.836 81.6671 235.001 76.1621 230.988 76.1621L111.744 76.2869C109.109 76.2919 106.808 78.7474 106.119 82.286Z" fill="#EC1E24"/>
<path d="M106.119 82.286L88.471 173.022L86.1602 184.9L203.977 184.321C209.262 184.296 213.949 179.6 215.651 172.627L236.543 86.9626C237.836 81.6671 235.001 76.1621 230.988 76.1621L111.744 76.2869C109.109 76.2919 106.808 78.7474 106.119 82.286Z" fill="white" fill-opacity="0.4"/>
<g opacity="0.5">
<path opacity="0.5" d="M106.119 82.286L88.471 173.022L86.1602 184.9L203.977 184.321C209.262 184.296 213.949 179.6 215.651 172.627L236.543 86.9626C237.836 81.6671 235.001 76.1621 230.988 76.1621L111.744 76.2869C109.109 76.2919 106.808 78.7474 106.119 82.286Z" fill="black"/>
</g>
<path d="M192.677 166.878L180.205 66.3548C179.696 62.2372 176.411 59.1628 172.538 59.1778L145.183 59.2676C143.157 59.2726 141.215 60.1361 139.778 61.6633L126.791 75.4683L50.7141 75.8676C46.0675 75.8925 42.494 80.2896 43.1078 85.2356L54.6919 178.142C55.2059 182.255 58.48 185.324 62.348 185.314L194.933 185.055C209.701 185.359 211.109 181.002 211.109 181.002C194.184 184.745 192.677 166.888 192.677 166.878Z" fill="#EC1E24"/>
<path d="M192.677 166.878L180.205 66.3548C179.696 62.2372 176.411 59.1628 172.538 59.1778L145.183 59.2676C143.157 59.2726 141.215 60.1361 139.778 61.6633L126.791 75.4683L50.7141 75.8676C46.0675 75.8925 42.494 80.2896 43.1078 85.2356L54.6919 178.142C55.2059 182.255 58.48 185.324 62.348 185.314L194.933 185.055C209.701 185.359 211.109 181.002 211.109 181.002C194.184 184.745 192.677 166.888 192.677 166.878Z" fill="white" fill-opacity="0.7"/>
<path d="M114.014 140.379C113.695 140.244 113.465 139.93 113.45 139.56L113.251 134.929C113.236 134.639 113.36 134.355 113.585 134.17C113.81 133.985 114.109 133.915 114.393 133.98C115.137 134.155 115.961 133.995 116.644 133.536C117.278 133.112 117.703 132.493 117.807 131.829C117.917 131.17 117.712 130.437 117.248 129.823C116.749 129.164 116.016 128.725 115.282 128.64C113.78 128.465 112.158 129.618 111.738 131.155C111.604 131.649 111.094 131.944 110.595 131.809C110.091 131.669 109.807 131.16 109.942 130.666C110.595 128.251 113.091 126.514 115.496 126.788C116.744 126.933 117.927 127.627 118.736 128.7C119.504 129.718 119.839 130.966 119.649 132.129C119.459 133.297 118.741 134.375 117.678 135.083C116.909 135.597 116.031 135.877 115.152 135.907L115.307 139.48C115.327 139.994 114.933 140.429 114.418 140.449C114.279 140.459 114.139 140.434 114.014 140.379Z" fill="white"/>
<path d="M115.383 142.275C115.413 142.694 115.093 143.059 114.674 143.089C114.255 143.119 113.89 142.799 113.86 142.38C113.83 141.961 114.15 141.596 114.569 141.566C114.988 141.536 115.353 141.856 115.383 142.275Z" fill="white"/>
<path d="M97.978 133.845C97.983 133.845 97.9979 133.741 98.0229 133.541C98.0478 133.326 98.0778 133.027 98.1227 132.648C98.1427 132.253 98.2475 131.774 98.3623 131.215C98.4272 130.936 98.4621 130.626 98.5669 130.312C98.6667 129.997 98.7665 129.658 98.8763 129.304C99.3605 127.901 100.104 126.219 101.357 124.547C102.6 122.88 104.351 121.228 106.597 119.981C107.705 119.322 108.968 118.863 110.296 118.453C111.643 118.134 113.071 117.859 114.563 117.894C115.307 117.854 116.06 117.964 116.829 118.029C117.213 118.064 117.587 118.169 117.972 118.234C118.356 118.304 118.745 118.378 119.12 118.513C120.662 118.907 122.159 119.636 123.582 120.535C126.446 122.336 128.857 125.266 130.18 128.82C130.843 130.596 131.158 132.543 131.158 134.514C131.198 136.486 130.814 138.487 130.115 140.374L129.89 140.943L129.86 141.017L129.89 141.087C131.143 143.972 132.371 146.797 133.559 149.537L133.768 149.297C131.193 148.309 128.692 147.346 126.292 146.428L126.197 146.393L126.122 146.463C124.046 148.474 121.57 149.831 119.065 150.535C116.549 151.244 114.014 151.279 111.713 150.87C109.402 150.46 107.326 149.577 105.589 148.444C103.852 147.311 102.455 145.929 101.382 144.526C100.314 143.109 99.61 141.651 99.081 140.354C98.6118 139.026 98.3273 137.848 98.1876 136.87C98.1277 136.381 98.0778 135.952 98.0329 135.572C98.0229 135.198 98.0129 134.884 98.0079 134.619C97.9979 134.374 97.9929 134.18 97.988 134.035C97.988 133.915 97.983 133.845 97.978 133.845C97.973 133.845 97.968 133.91 97.968 134.045C97.968 134.19 97.963 134.384 97.958 134.629C97.958 134.894 97.958 135.213 97.958 135.587C97.9979 135.967 98.0429 136.406 98.0878 136.895C98.2126 137.878 98.4821 139.071 98.9412 140.419C99.4603 141.736 100.159 143.213 101.227 144.661C102.305 146.088 103.708 147.501 105.464 148.664C107.216 149.826 109.322 150.735 111.668 151.159C114.009 151.583 116.584 151.558 119.145 150.845C121.7 150.131 124.225 148.758 126.347 146.712L126.182 146.747C128.578 147.67 131.078 148.634 133.653 149.632L134.028 149.777L133.863 149.392C132.675 146.652 131.447 143.822 130.2 140.938V141.082L130.429 140.498C131.148 138.572 131.537 136.521 131.497 134.509C131.497 132.498 131.173 130.506 130.494 128.69C129.142 125.061 126.671 122.077 123.751 120.25C122.294 119.337 120.772 118.603 119.2 118.204C118.815 118.074 118.421 117.999 118.032 117.924C117.642 117.859 117.258 117.755 116.869 117.72C116.09 117.655 115.327 117.55 114.568 117.595C113.051 117.565 111.603 117.849 110.236 118.179C108.888 118.598 107.611 119.072 106.493 119.746C104.222 121.029 102.46 122.711 101.212 124.412C99.9594 126.114 99.2207 127.826 98.7566 129.244C98.6518 129.603 98.5519 129.942 98.4571 130.267C98.3573 130.586 98.3273 130.901 98.2674 131.18C98.1576 131.749 98.0678 132.228 98.0578 132.628C98.0279 133.012 98.0079 133.306 97.9929 133.526C97.973 133.746 97.968 133.845 97.978 133.845Z" fill="#C62828"/>
</svg>
