<svg width="20" height="20" viewBox="0 0 20 20" fill="none" xmlns="http://www.w3.org/2000/svg">
<path fill-rule="evenodd" clip-rule="evenodd" d="M9.67243 1.96771C9.87331 1.8441 10.1267 1.8441 10.3276 1.96771L18.4526 6.96771C18.6907 7.11426 18.8025 7.40116 18.7264 7.67021C18.6502 7.93927 18.4046 8.125 18.125 8.125H1.87499C1.59537 8.125 1.34977 7.93927 1.27362 7.67021C1.19746 7.40116 1.30929 7.11426 1.54743 6.96771L9.67243 1.96771ZM4.08314 6.875H15.9168L9.99999 3.23386L4.08314 6.875Z" fill="#C62828"/>
<path fill-rule="evenodd" clip-rule="evenodd" d="M4.375 6.875C4.72018 6.875 5 7.15482 5 7.5V13.75C5 14.0952 4.72018 14.375 4.375 14.375C4.02982 14.375 3.75 14.0952 3.75 13.75V7.5C3.75 7.15482 4.02982 6.875 4.375 6.875Z" fill="#C62828"/>
<path fill-rule="evenodd" clip-rule="evenodd" d="M8.125 6.875C8.47018 6.875 8.75 7.15482 8.75 7.5V13.75C8.75 14.0952 8.47018 14.375 8.125 14.375C7.77982 14.375 7.5 14.0952 7.5 13.75V7.5C7.5 7.15482 7.77982 6.875 8.125 6.875Z" fill="#C62828"/>
<path fill-rule="evenodd" clip-rule="evenodd" d="M11.875 6.875C12.2202 6.875 12.5 7.15482 12.5 7.5V13.75C12.5 14.0952 12.2202 14.375 11.875 14.375C11.5298 14.375 11.25 14.0952 11.25 13.75V7.5C11.25 7.15482 11.5298 6.875 11.875 6.875Z" fill="#C62828"/>
<path fill-rule="evenodd" clip-rule="evenodd" d="M15.625 6.875C15.9702 6.875 16.25 7.15482 16.25 7.5V13.75C16.25 14.0952 15.9702 14.375 15.625 14.375C15.2798 14.375 15 14.0952 15 13.75V7.5C15 7.15482 15.2798 6.875 15.625 6.875Z" fill="#C62828"/>
<path fill-rule="evenodd" clip-rule="evenodd" d="M1.875 13.75C1.875 13.4048 2.15482 13.125 2.5 13.125H17.5C17.8452 13.125 18.125 13.4048 18.125 13.75C18.125 14.0952 17.8452 14.375 17.5 14.375H2.5C2.15482 14.375 1.875 14.0952 1.875 13.75Z" fill="#C62828"/>
<path fill-rule="evenodd" clip-rule="evenodd" d="M0.625 16.25C0.625 15.9048 0.904822 15.625 1.25 15.625H18.75C19.0952 15.625 19.375 15.9048 19.375 16.25C19.375 16.5952 19.0952 16.875 18.75 16.875H1.25C0.904822 16.875 0.625 16.5952 0.625 16.25Z" fill="#C62828"/>
</svg>
