<svg width="60" height="14" viewBox="0 0 60 14" fill="none" xmlns="http://www.w3.org/2000/svg">
<path d="M2.20849 10.7959C2.34589 10.8755 2.48762 10.9473 2.63302 11.0111C3.21759 11.2673 3.85147 11.3913 4.48947 11.3743C5.12747 11.3574 5.75387 11.1999 6.32401 10.913C6.43197 10.859 6.54045 10.7987 6.64589 10.7356C7.16552 10.4175 7.61309 9.99455 7.96002 9.49371L8.21499 9.129H4.66264C4.54935 9.129 4.40641 9.129 4.37599 9.12317L4.44341 9.14268C3.69952 8.71345 3.07238 8.10816 2.61705 7.37994C2.5433 7.26919 2.47512 7.15666 2.4143 7.04463C1.88514 6.10048 1.69011 5.00537 1.86076 3.93658L1.96341 3.29688L1.4778 3.72774C0.956428 4.1875 0.552416 4.76514 0.299393 5.41258C0.0463702 6.06003 -0.0483432 6.75854 0.0231367 7.44999C0.0946167 8.14143 0.330222 8.8058 0.710341 9.38779C1.09046 9.96978 1.6041 10.4526 2.20849 10.7959Z" fill="#010101"/>
<path d="M11.1811 3.20144C11.0437 3.12179 10.902 3.04995 10.7565 2.98626C10.172 2.72995 9.53818 2.60578 8.90018 2.6226C8.26217 2.63942 7.63574 2.79683 7.06556 3.08358C6.95657 3.13858 6.84734 3.19865 6.74317 3.261C6.20425 3.58212 5.73766 4.01135 5.37277 4.52165L5.12109 4.88586H8.81056L8.71146 4.86406L8.76215 4.88738C9.579 5.26893 10.2752 5.86779 10.7745 6.61844C10.8473 6.72793 10.916 6.84173 10.9773 6.95401C11.3778 7.67829 11.588 8.49232 11.5884 9.31996C11.5878 9.56922 11.5674 9.81804 11.5275 10.0641L11.4262 10.6977L11.91 10.2684C12.4312 9.80872 12.8351 9.23126 13.0881 8.58404C13.3411 7.93681 13.4359 7.23852 13.3646 6.54727C13.2933 5.85602 13.0579 5.19179 12.6782 4.60983C12.2984 4.02787 11.7851 3.54502 11.1811 3.20144Z" fill="#010101"/>
<path d="M9.01336 2.10282C9.26244 2.10367 9.51107 2.12401 9.75698 2.16364L10.3962 2.26502L9.96709 1.78068C9.26431 0.986729 8.29691 0.475269 7.24506 0.341552C6.19321 0.207835 5.12861 0.460977 4.24952 1.05383C3.37044 1.64669 2.73679 2.53885 2.46659 3.56416C2.19639 4.58947 2.30806 5.67804 2.78079 6.62714C2.83401 6.73435 2.89408 6.84283 2.9582 6.94851C3.27563 7.48564 3.69872 7.95279 4.20188 8.3217L4.56659 8.57667V5.98262C4.56659 5.47775 4.56659 4.70802 4.56938 4.6586L4.54404 4.75998C4.97339 4.00981 5.58122 3.37717 6.31362 2.91816C6.42311 2.84593 6.53691 2.7775 6.64944 2.7154C7.37287 2.31444 8.18624 2.10367 9.01336 2.10282Z" fill="#F47920"/>
<path d="M4.37815 11.8945C4.12934 11.8933 3.88098 11.873 3.63529 11.8336L2.99609 11.731L3.42518 12.2153C3.88506 12.737 4.46293 13.1412 5.11066 13.3944C5.75839 13.6475 6.45723 13.7422 7.14897 13.6706C7.84071 13.599 8.50533 13.3632 9.08747 12.9827C9.6696 12.6022 10.1524 12.0882 10.4957 11.4834C10.5751 11.3464 10.6468 11.2051 10.7103 11.0601C10.9665 10.4756 11.0905 9.84184 11.0736 9.20393C11.0567 8.56602 10.8993 7.9397 10.6125 7.36962C10.5585 7.26114 10.4982 7.15318 10.4351 7.04723C10.113 6.52195 9.68376 6.07046 9.17544 5.7222L8.81174 5.46875V9.15391L8.83101 9.06013C8.44793 9.88451 7.83979 10.5839 7.07663 11.0778C6.96866 11.1506 6.85562 11.219 6.74182 11.2806C6.01856 11.6819 5.20529 11.8931 4.37815 11.8945Z" fill="#F47920"/>
<path d="M16.6944 2.66797L18.9823 5.54411V3.5487C19.0022 3.35277 18.9604 3.15551 18.8627 2.98453C18.7915 2.91271 18.7049 2.85811 18.6095 2.8249C18.514 2.79169 18.4122 2.78075 18.3119 2.79292V2.66797H19.844V2.79469C19.7076 2.80372 19.5739 2.83666 19.4489 2.89202C19.3767 2.93823 19.3215 3.00675 19.2917 3.08717C19.2458 3.23707 19.2267 3.39393 19.2355 3.55048V7.41153H19.1194L15.9842 3.5487V6.49505C15.9715 6.59308 15.9813 6.69273 16.013 6.78635C16.0447 6.87998 16.0975 6.96509 16.1672 7.03516C16.2871 7.12798 16.4349 7.17739 16.5864 7.17531H16.6944V7.30204H15.0508V7.17658C15.2429 7.19462 15.4346 7.13838 15.5866 7.01944C15.7032 6.87142 15.7572 6.68367 15.7371 6.49632V3.22429L15.638 3.10111C15.5684 3.00387 15.4801 2.92149 15.3782 2.85882C15.2758 2.81433 15.165 2.79229 15.0533 2.79419V2.66797H16.6944Z" fill="#010101"/>
<path d="M22.298 4.14391H23.3751V4.52155H22.763C22.8569 4.60939 22.9355 4.71216 22.9957 4.82569C23.0507 4.94773 23.0791 5.08011 23.0788 5.21397C23.0836 5.42739 23.0167 5.63626 22.889 5.8073C22.7542 5.9813 22.5761 6.11692 22.3725 6.20065C22.1906 6.28685 21.9932 6.33514 21.7921 6.34258C21.7784 6.34258 21.6416 6.33692 21.3817 6.3256C21.3341 6.32445 21.2868 6.33283 21.2425 6.35024C21.1982 6.36765 21.1578 6.39374 21.1237 6.42698C21.0904 6.45763 21.064 6.49491 21.046 6.53643C21.028 6.57794 21.0189 6.62277 21.0193 6.66801C21.0191 6.7061 21.0275 6.74373 21.044 6.77807C21.0604 6.81241 21.0845 6.84255 21.1144 6.86621C21.2044 6.92661 21.3125 6.95433 21.4205 6.94478L22.0121 6.93819C22.3493 6.91225 22.6879 6.96608 23.0005 7.09533C23.1223 7.15927 23.2234 7.2566 23.2918 7.37591C23.3603 7.49523 23.3933 7.63158 23.387 7.769C23.388 7.95985 23.3256 8.14563 23.2096 8.29718C23.0901 8.4564 22.9275 8.57803 22.741 8.64771C22.4154 8.76464 22.0713 8.82132 21.7254 8.81498C21.4604 8.81834 21.1959 8.79104 20.9372 8.73362C20.75 8.70197 20.5743 8.62175 20.4278 8.50096C20.3823 8.46196 20.3452 8.41417 20.3188 8.36046C20.2923 8.30676 20.2769 8.24825 20.2737 8.18846C20.2742 8.08257 20.3166 7.98119 20.3915 7.90637C20.5171 7.79915 20.6685 7.72663 20.8307 7.696C20.704 7.65097 20.5937 7.56891 20.5141 7.46045C20.4345 7.352 20.3893 7.22215 20.3844 7.08772C20.3889 6.91831 20.4531 6.75593 20.5656 6.62923C20.7227 6.45538 20.92 6.32267 21.1402 6.24272C20.8811 6.16269 20.6508 6.00935 20.4769 5.80122C20.34 5.61869 20.2678 5.39575 20.2716 5.16759C20.2722 5.01261 20.3067 4.85963 20.3729 4.71948C20.4391 4.57933 20.5353 4.45544 20.6546 4.35656C20.9273 4.12119 21.2793 3.99833 21.6393 4.01288C21.8651 4.0145 22.0887 4.05896 22.298 4.14391ZM21.5047 7.77533C21.3485 7.76382 21.1915 7.78372 21.0431 7.83388C20.9864 7.85787 20.9378 7.89774 20.9032 7.94867C20.8686 7.99961 20.8494 8.05946 20.848 8.12104C20.8529 8.18647 20.874 8.24966 20.9094 8.30492C20.9448 8.36018 20.9934 8.40577 21.0507 8.4376C21.2856 8.55443 21.5484 8.60357 21.8096 8.57953C22.0648 8.59058 22.3194 8.54739 22.5567 8.4528C22.6331 8.42818 22.7001 8.38076 22.7487 8.31691C22.7974 8.25307 22.8253 8.17587 22.8287 8.09569C22.8304 8.04312 22.8123 7.99182 22.778 7.95199C22.7027 7.87628 22.6049 7.82694 22.4992 7.81132C22.1692 7.77805 21.8375 7.76611 21.5059 7.77559L21.5047 7.77533ZM21.7074 4.22248C21.6391 4.22431 21.5724 4.24366 21.5137 4.27868C21.4549 4.31369 21.4062 4.3632 21.3721 4.42245C21.2557 4.68253 21.2087 4.96832 21.2355 5.25199C21.2139 5.49309 21.2603 5.73542 21.3693 5.95151C21.4022 6.00756 21.4488 6.05436 21.5047 6.08756C21.5606 6.12075 21.624 6.13926 21.6889 6.14135C21.7571 6.14098 21.824 6.12358 21.8838 6.09074C21.9435 6.0579 21.994 6.01065 22.0308 5.95329C22.1441 5.72701 22.1914 5.47346 22.1674 5.22158C22.1931 4.93466 22.14 4.64619 22.0138 4.38722C21.9815 4.33538 21.9361 4.29293 21.8822 4.26411C21.8283 4.23529 21.7678 4.22111 21.7067 4.22299L21.7074 4.22248Z" fill="#010101"/>
<path d="M25.5126 6.83088C25.2355 7.12288 24.863 7.30595 24.4626 7.3469C24.3787 7.34968 24.2951 7.33539 24.2169 7.3049C24.1387 7.2744 24.0675 7.22833 24.0076 7.16949C23.9481 7.11104 23.9013 7.04094 23.8701 6.96358C23.8389 6.88621 23.8241 6.80325 23.8264 6.71987C23.8287 6.59413 23.8577 6.47031 23.9116 6.35668C23.9655 6.24305 24.043 6.14221 24.1389 6.0609C24.559 5.74102 25.0203 5.47929 25.5103 5.28281V4.96093C25.5198 4.80775 25.5066 4.65402 25.471 4.50472C25.4396 4.43595 25.3876 4.37859 25.3223 4.34049C25.2488 4.29352 25.1631 4.26911 25.0759 4.27028C24.9466 4.26497 24.8189 4.29957 24.7099 4.36938C24.6841 4.38381 24.6624 4.40457 24.6468 4.42971C24.6312 4.45485 24.6222 4.48354 24.6207 4.51309C24.6315 4.58148 24.6654 4.64412 24.7168 4.6905C24.7935 4.76598 24.8397 4.867 24.8468 4.97436C24.8474 5.02803 24.8365 5.08121 24.815 5.13036C24.7934 5.17952 24.7617 5.22354 24.7219 5.25949C24.6328 5.34031 24.5153 5.38267 24.3952 5.37735C24.2628 5.38144 24.1338 5.33495 24.0345 5.24733C23.9899 5.21015 23.9541 5.16364 23.9295 5.11109C23.9049 5.05854 23.8921 5.00122 23.8921 4.94319C23.8967 4.76773 23.9663 4.60023 24.0872 4.47304C24.2348 4.31238 24.4224 4.19379 24.6309 4.12936C24.8643 4.04929 25.1094 4.00869 25.3562 4.00923C25.6107 3.99552 25.8629 4.06326 26.0763 4.20261C26.231 4.30395 26.3509 4.45025 26.42 4.62182C26.4626 4.83872 26.4786 5.06001 26.4676 5.28078V6.52269C26.4634 6.61486 26.4691 6.70723 26.4846 6.79818C26.4926 6.83064 26.5103 6.8599 26.5353 6.88208C26.5575 6.90004 26.5853 6.90964 26.6138 6.9092C26.6733 6.9092 26.7337 6.86695 26.7951 6.78247L26.8977 6.86459C26.8061 7.01032 26.6853 7.13546 26.5429 7.23209C26.4184 7.30935 26.2743 7.3492 26.1277 7.3469C25.9746 7.35608 25.8231 7.31073 25.7002 7.21891C25.5904 7.11828 25.5233 6.97943 25.5126 6.83088ZM25.6594 2.42314L26.3541 3.72942H26.0907L25.2769 3.02331L24.439 3.70762H24.1587L24.8871 2.42188H25.6599L25.6594 2.42314ZM25.5126 6.58149V5.5099C25.2742 5.63961 25.0647 5.81658 24.897 6.02998C24.8136 6.13652 24.7667 6.26705 24.7632 6.4023C24.7629 6.45367 24.7727 6.5046 24.7921 6.55218C24.8115 6.59976 24.8401 6.64304 24.8762 6.67957C24.9072 6.7112 24.9445 6.73582 24.9858 6.75178C25.0271 6.76774 25.0713 6.77466 25.1155 6.77208C25.2663 6.75713 25.407 6.68946 25.5129 6.58098L25.5126 6.58149Z" fill="#010101"/>
<path d="M28.5549 4.10753V4.52141C28.6898 4.36735 28.849 4.23636 29.0261 4.13363C29.1752 4.05304 29.3422 4.01129 29.5117 4.01223C29.6991 4.00541 29.8827 4.06683 30.0282 4.18508C30.1622 4.2959 30.2579 4.44599 30.302 4.61417C30.3488 4.86091 30.3672 5.11219 30.357 5.36312V6.60781C30.3408 6.76419 30.3636 6.92214 30.4234 7.06756C30.46 7.10412 30.5034 7.13304 30.5513 7.15266C30.5992 7.17229 30.6504 7.18221 30.7022 7.18187V7.30505H29.0844V7.18187C29.1364 7.17846 29.1868 7.1631 29.2319 7.13699C29.277 7.11088 29.3154 7.07472 29.3442 7.03132C29.3931 6.89565 29.4116 6.75092 29.3987 6.6073V5.18545C29.4061 5.01948 29.3957 4.8532 29.3678 4.68945C29.3508 4.62668 29.3142 4.57098 29.2633 4.53053C29.2171 4.49383 29.1599 4.47382 29.1009 4.47376C28.9047 4.47376 28.7223 4.61392 28.5537 4.89424V6.60755C28.5392 6.76187 28.5621 6.91742 28.6206 7.06097C28.6508 7.0976 28.6886 7.12726 28.7314 7.14791C28.7742 7.16856 28.821 7.17971 28.8685 7.1806V7.30378H27.252V7.1806C27.3062 7.17984 27.3597 7.1679 27.4091 7.14553C27.4585 7.12316 27.5028 7.09084 27.5391 7.05058C27.5933 6.90845 27.6132 6.75553 27.5972 6.60426V4.80173C27.6133 4.64807 27.5905 4.49283 27.5307 4.35033C27.4563 4.277 27.3564 4.23524 27.252 4.23375V4.10702L28.5549 4.10753Z" fill="#010101"/>
<path d="M35.3288 5.67616L35.1547 7.30381H31.0371V7.17709H31.1912C31.3035 7.18207 31.4151 7.15743 31.5149 7.10561C31.5785 7.06871 31.627 7.01055 31.652 6.94138C31.6866 6.80054 31.6992 6.65521 31.6895 6.51052V3.46C31.6988 3.31019 31.6861 3.15983 31.652 3.01367C31.6196 2.94655 31.5662 2.89183 31.4999 2.8578C31.4043 2.809 31.2976 2.7861 31.1905 2.7914H31.0384V2.66797H33.5115V2.79469H33.3088C33.1961 2.78953 33.084 2.81418 32.9839 2.86617C32.9198 2.90344 32.8702 2.96133 32.8432 3.0304C32.8086 3.17124 32.7959 3.31657 32.8057 3.46127V6.41598C32.796 6.56825 32.8099 6.72109 32.8467 6.86914C32.8621 6.9031 32.8844 6.93353 32.912 6.95855C32.9396 6.98358 32.9721 7.00266 33.0074 7.01463C33.1433 7.04257 33.2823 7.05296 33.4208 7.04555H33.8073C34.02 7.05285 34.2313 7.00822 34.4229 6.91553C34.5983 6.81833 34.7451 6.67685 34.8487 6.50519C34.9984 6.24569 35.1128 5.9674 35.1889 5.67768H35.329L35.3288 5.67616Z" fill="#010101"/>
<path d="M39.324 4.89265C39.3565 4.87294 39.3817 4.84299 39.3954 4.80749C39.4 4.79841 39.4024 4.78838 39.4024 4.77821C39.4024 4.76805 39.4 4.75802 39.3954 4.74894C39.3564 4.70686 39.3101 4.67209 39.2588 4.64629C39.2229 4.62172 39.1935 4.58875 39.1731 4.55024C39.1457 4.51076 39.1274 4.46574 39.1193 4.41837C39.1112 4.371 39.1136 4.32244 39.1264 4.27611C39.1392 4.22978 39.162 4.18683 39.1932 4.15028C39.2244 4.11374 39.2632 4.0845 39.307 4.06463C39.3528 4.03892 39.4035 4.02291 39.4558 4.01759C39.5081 4.01228 39.561 4.01776 39.6111 4.03371C39.7073 4.05799 39.7916 4.11582 39.8489 4.19677C39.9062 4.27771 39.9327 4.37646 39.9236 4.47522C39.9227 4.54166 39.9113 4.60754 39.8897 4.67037C39.8618 4.74873 39.8161 4.81952 39.7562 4.87711C39.6962 4.93471 39.6236 4.97752 39.5442 5.00214C39.3379 5.07414 39.1198 5.10656 38.9014 5.09769V6.60977C38.8874 6.7657 38.9108 6.92274 38.9699 7.06775C39.0055 7.10485 39.0486 7.13405 39.0963 7.15343C39.144 7.17282 39.1952 7.18197 39.2466 7.18028V7.30346H37.9437V6.87563C37.8327 7.03105 37.6877 7.15906 37.5197 7.24989C37.3518 7.34073 37.1653 7.39199 36.9745 7.39977C36.8004 7.40036 36.6315 7.34113 36.496 7.23199C36.3641 7.13705 36.2654 7.00309 36.2139 6.84902C36.1534 6.5939 36.1287 6.33159 36.1406 6.06967V4.80014C36.1555 4.64633 36.132 4.49124 36.0722 4.34875C36.0363 4.31147 35.9933 4.28191 35.9456 4.26186C35.8979 4.24182 35.8466 4.23171 35.7949 4.23216V4.10543H37.0954V6.29067C37.0954 6.61796 37.1411 6.81514 37.2325 6.88222C37.2788 6.9164 37.3351 6.93423 37.3927 6.93292C37.5591 6.93292 37.7426 6.79157 37.9431 6.50889V4.80014C37.9581 4.64635 37.9346 4.49127 37.875 4.34875C37.8391 4.31147 37.796 4.28191 37.7484 4.26186C37.7007 4.24182 37.6494 4.23171 37.5977 4.23216V4.10543H38.9035V4.97046C39.0471 4.96979 39.1896 4.94344 39.324 4.89265V4.89265Z" fill="#010101"/>
<path d="M43.7906 4.41505C43.7626 4.49582 43.7169 4.56932 43.6569 4.63019C43.5969 4.69105 43.524 4.73774 43.4436 4.76684C43.2508 4.82457 43.0495 4.84874 42.8485 4.83831C42.9727 5.11102 43.0352 5.40776 43.0315 5.70739C43.0459 6.11479 42.9244 6.5154 42.6861 6.84614C42.5515 7.01497 42.3814 7.15213 42.1879 7.24789C41.9944 7.34365 41.7822 7.39567 41.5663 7.40027C41.3505 7.40486 41.1362 7.36192 40.9388 7.27448C40.7414 7.18704 40.5657 7.05724 40.424 6.89429C40.1582 6.56231 40.0199 6.14615 40.0342 5.72108C40.0202 5.28668 40.1607 4.86138 40.4306 4.52074C40.5611 4.35694 40.7279 4.22566 40.9177 4.13722C41.1076 4.04878 41.3154 4.00559 41.5247 4.01105C41.8071 4.00386 42.085 4.08261 42.3216 4.23688C42.4388 4.33167 42.5497 4.43412 42.6534 4.54355C42.6915 4.58707 42.7382 4.62228 42.7905 4.647C42.8428 4.67172 42.8997 4.68542 42.9575 4.68726C43.028 4.692 43.0987 4.68402 43.1663 4.66369C43.1935 4.65534 43.2185 4.64123 43.2396 4.62234C43.2608 4.60344 43.2776 4.5802 43.289 4.5542C43.2946 4.54625 43.2979 4.5369 43.2985 4.5272C43.2992 4.51749 43.2971 4.5078 43.2926 4.4992C43.2079 4.44465 43.1318 4.37786 43.0667 4.301C43.0421 4.26146 43.0254 4.21745 43.0178 4.17149C43.0101 4.12552 43.0116 4.0785 43.0221 4.0331C43.0346 3.98642 43.0569 3.94293 43.0875 3.90552C43.1181 3.86811 43.1563 3.83765 43.1995 3.81615C43.2449 3.7899 43.2953 3.77343 43.3474 3.7678C43.3995 3.76217 43.4522 3.7675 43.5022 3.78346C43.5614 3.80172 43.616 3.83255 43.6622 3.87384C43.7085 3.91513 43.7452 3.96591 43.7701 4.02271C43.8286 4.14562 43.8359 4.28671 43.7906 4.41505ZM41.5146 7.65312C41.5898 7.65238 41.6644 7.66664 41.7341 7.69506C41.8037 7.72349 41.867 7.76551 41.9202 7.81868C41.9734 7.87185 42.0155 7.93509 42.044 8.00471C42.0725 8.07432 42.0868 8.14892 42.0861 8.22414C42.0873 8.29902 42.0731 8.37334 42.0443 8.44246C42.0154 8.51158 41.9727 8.57401 41.9186 8.62586C41.8663 8.67918 41.8037 8.72137 41.7347 8.7499C41.6657 8.77843 41.5916 8.79271 41.5169 8.79187C41.4423 8.79204 41.3684 8.77746 41.2994 8.74899C41.2305 8.72052 41.1678 8.67871 41.1151 8.62596C41.0623 8.57321 41.0205 8.51055 40.992 8.4416C40.9636 8.37264 40.949 8.29874 40.9492 8.22414C40.9483 8.14944 40.9625 8.07533 40.991 8.00628C41.0196 7.93724 41.0618 7.87469 41.1152 7.82242C41.1663 7.76861 41.2278 7.72582 41.2961 7.69671C41.3644 7.66759 41.4379 7.65276 41.5121 7.65312H41.5146ZM42.0311 5.44076C42.0401 5.17355 42.0184 4.90619 41.9665 4.64392C41.9391 4.51975 41.8718 4.40796 41.7749 4.32558C41.708 4.27546 41.6257 4.25019 41.5422 4.25411C41.278 4.25411 41.1241 4.47064 41.0807 4.9037C41.0533 5.16374 41.0396 5.52398 41.0396 5.98441C41.0385 6.2134 41.0546 6.44215 41.0878 6.66872C41.1385 6.99939 41.2855 7.16472 41.5288 7.16472C41.7615 7.16472 41.9063 7.02795 41.9632 6.75439C42.0197 6.31902 42.0415 5.87984 42.0283 5.44102L42.0311 5.44076Z" fill="#010101"/>
<path d="M45.2014 4.10779V4.52167C45.3366 4.36754 45.496 4.23648 45.6734 4.13364C45.8218 4.05345 45.988 4.01171 46.1567 4.01224C46.3441 4.00537 46.5277 4.06679 46.6732 4.18509C46.8073 4.2958 46.903 4.44594 46.9469 4.61418C46.9937 4.86092 47.0122 5.1122 47.0019 5.36312V6.60781C46.9858 6.7642 47.0086 6.92215 47.0683 7.06757C47.1049 7.10412 47.1484 7.13305 47.1963 7.15267C47.2441 7.17229 47.2954 7.18222 47.3471 7.18187V7.30505H45.7299V7.18187C45.7819 7.17854 45.8324 7.16322 45.8774 7.1371C45.9225 7.11098 45.9609 7.07478 45.9897 7.03133C46.039 6.89577 46.0578 6.75097 46.0447 6.60731V5.18571C46.0521 5.01975 46.0419 4.85347 46.014 4.68971C45.9972 4.62686 45.9606 4.57111 45.9096 4.53079C45.8635 4.49416 45.8064 4.47415 45.7476 4.47402C45.5514 4.47402 45.369 4.61418 45.2004 4.8945V6.60781C45.1855 6.7626 45.2083 6.91869 45.2668 7.06276C45.2971 7.09939 45.3349 7.12904 45.3777 7.14969C45.4204 7.17034 45.4672 7.18149 45.5147 7.18238V7.30556H43.8984V7.18238C43.9526 7.18159 44.0061 7.16963 44.0554 7.14726C44.1048 7.12489 44.149 7.09259 44.1853 7.05236C44.24 6.91034 44.2601 6.75735 44.2439 6.60604V4.80199C44.2601 4.64833 44.2372 4.49308 44.1775 4.35059C44.103 4.27726 44.0032 4.2355 43.8987 4.23401V4.10728H45.2017L45.2014 4.10779Z" fill="#010101"/>
<path d="M49.8414 4.14381H50.919V4.52018H50.3079C50.4018 4.60801 50.4804 4.71078 50.5406 4.82432C50.5945 4.94661 50.6217 5.07897 50.6205 5.2126C50.6251 5.42601 50.5583 5.63486 50.4306 5.80593C50.2957 5.9799 50.1177 6.11552 49.9141 6.19928C49.7323 6.28547 49.5348 6.33376 49.3337 6.34121C49.32 6.34121 49.1832 6.33555 48.9234 6.32423C48.8758 6.32308 48.8284 6.33145 48.7841 6.34886C48.7398 6.36627 48.6994 6.39237 48.6654 6.42561C48.6321 6.45626 48.6056 6.49354 48.5876 6.53506C48.5696 6.57657 48.5605 6.6214 48.5609 6.66664C48.5607 6.70472 48.5692 6.74234 48.5857 6.77668C48.6021 6.81101 48.6262 6.84116 48.656 6.86484C48.7461 6.9251 48.8541 6.95282 48.9621 6.94341L49.5537 6.93682C49.8909 6.91087 50.2296 6.9647 50.5422 7.09396C50.664 7.1578 50.7651 7.25511 50.8336 7.37445C50.9021 7.49378 50.935 7.63019 50.9286 7.76762C50.9296 7.95848 50.8672 8.14425 50.7512 8.29581C50.6319 8.4551 50.4693 8.57676 50.2829 8.64633C49.9573 8.76325 49.6132 8.81993 49.2673 8.81361C49.003 8.81597 48.7394 8.78782 48.4816 8.72972C48.2944 8.69806 48.1187 8.61783 47.9722 8.49705C47.9267 8.45805 47.8897 8.41026 47.8632 8.35656C47.8367 8.30285 47.8213 8.24434 47.8181 8.18455C47.8186 8.07866 47.861 7.97728 47.9359 7.90246C48.0616 7.79517 48.2132 7.72265 48.3756 7.6921C48.2489 7.64706 48.1386 7.565 48.059 7.45655C47.9794 7.34809 47.9343 7.21824 47.9293 7.08382C47.9338 6.91441 47.998 6.75203 48.1105 6.62533C48.2676 6.45147 48.4649 6.31876 48.6851 6.23882C48.426 6.15878 48.1957 6.00544 48.0218 5.79731C47.8849 5.61477 47.8127 5.39184 47.8166 5.16369C47.8171 5.0087 47.8516 4.85572 47.9178 4.71557C47.984 4.57542 48.0802 4.45153 48.1995 4.35265C48.4722 4.11728 48.8242 3.99442 49.1842 4.00897C49.4098 4.01199 49.6328 4.05775 49.8414 4.14381ZM49.0481 7.77523C48.8919 7.76371 48.7349 7.78362 48.5865 7.83377C48.5299 7.85787 48.4813 7.89776 48.4467 7.94868C48.4121 7.99959 48.3929 8.05939 48.3914 8.12093C48.3961 8.18622 48.417 8.24932 48.4521 8.30456C48.4872 8.3598 48.5355 8.40548 48.5926 8.43749C48.8275 8.55439 49.0902 8.60353 49.3515 8.57942C49.6067 8.59041 49.8613 8.54722 50.0986 8.4527C50.1751 8.42817 50.2421 8.38077 50.2907 8.31691C50.3394 8.25305 50.3672 8.17579 50.3706 8.09559C50.3723 8.04302 50.3542 7.99172 50.3199 7.95188C50.2446 7.87611 50.1468 7.82676 50.0411 7.81122C49.7113 7.77793 49.3797 7.76599 49.0483 7.77548L49.0481 7.77523ZM49.2493 4.22237C49.181 4.2239 49.1142 4.24313 49.0555 4.27818C48.9968 4.31323 48.9482 4.3629 48.9145 4.42235C48.7984 4.68252 48.7512 4.96819 48.7774 5.25189C48.7558 5.49298 48.8021 5.7353 48.9112 5.95141C48.9441 6.00744 48.9907 6.05423 49.0466 6.08742C49.1025 6.12061 49.1658 6.13913 49.2308 6.14124C49.2989 6.14083 49.3659 6.12342 49.4256 6.09058C49.4853 6.05774 49.5359 6.01051 49.5727 5.95318C49.6857 5.72682 49.733 5.47335 49.7093 5.22147C49.735 4.93456 49.6819 4.64608 49.5557 4.38712C49.5234 4.33535 49.4781 4.29295 49.4242 4.26413C49.3704 4.23532 49.3101 4.2211 49.249 4.22288L49.2493 4.22237Z" fill="#010101"/>
<path d="M51.9328 6.25005C52.0644 6.24979 52.192 6.29516 52.2939 6.37844C52.3958 6.46171 52.4657 6.57774 52.4916 6.70675C52.5175 6.83576 52.4979 6.96977 52.4361 7.08594C52.3743 7.20211 52.2741 7.29325 52.1526 7.34383C52.0311 7.39441 51.8959 7.40131 51.7699 7.36334C51.6439 7.32537 51.535 7.2449 51.4617 7.13562C51.3884 7.02634 51.3552 6.89502 51.3679 6.76404C51.3805 6.63307 51.4383 6.51053 51.5311 6.41733C51.5831 6.36351 51.6456 6.32091 51.7147 6.29214C51.7838 6.26338 51.858 6.24905 51.9328 6.25005Z" fill="#010101"/>
<path d="M54.4867 7.39904L53.4096 4.9198C53.3329 4.71834 53.2307 4.52755 53.1055 4.35207C53.0432 4.28778 52.9615 4.24574 52.873 4.23245V4.10572H54.5724V4.23245C54.4947 4.22361 54.4166 4.24453 54.3537 4.29099C54.328 4.31287 54.3073 4.34006 54.2932 4.37069C54.279 4.40132 54.2716 4.43466 54.2716 4.46841C54.2954 4.63407 54.3463 4.7947 54.4221 4.94388L54.9488 6.14422L55.3693 5.10811C55.4635 4.9096 55.5247 4.69704 55.5505 4.4788C55.5516 4.44613 55.5454 4.41361 55.5322 4.38369C55.5191 4.35376 55.4993 4.32719 55.4745 4.30595C55.3941 4.25247 55.2986 4.22658 55.2023 4.23219V4.10547H56.2477V4.23219C56.1556 4.24205 56.0691 4.28174 56.0016 4.34523C55.8794 4.51117 55.7825 4.6944 55.7142 4.88888L54.6497 7.39955H54.4896L54.4867 7.39904Z" fill="#010101"/>
<path d="M57.8523 4.10803V4.52166C57.9875 4.36751 58.1469 4.23645 58.3242 4.13363C58.4734 4.05307 58.6403 4.01133 58.8098 4.01222C58.9968 4.00546 59.18 4.06669 59.3254 4.18457C59.4594 4.29528 59.5552 4.44542 59.5991 4.61366C59.6459 4.8604 59.6643 5.11168 59.6541 5.3626V6.60729C59.6379 6.76368 59.6607 6.92163 59.7205 7.06705C59.757 7.10364 59.8005 7.13259 59.8484 7.15221C59.8963 7.17183 59.9475 7.18174 59.9993 7.18135V7.30453H58.382V7.18135C58.434 7.178 58.4845 7.16267 58.5296 7.13655C58.5746 7.11043 58.613 7.07424 58.6418 7.03081C58.6911 6.89524 58.7099 6.75045 58.6968 6.60679V5.18569C58.7042 5.01973 58.6939 4.85345 58.6659 4.68969C58.6491 4.62683 58.6125 4.57108 58.5614 4.53078C58.5154 4.49415 58.4584 4.47414 58.3995 4.47401C58.2033 4.47401 58.0209 4.61417 57.8523 4.89448V6.6078C57.8374 6.76258 57.8602 6.91868 57.9187 7.06274C57.9489 7.09937 57.9868 7.12903 58.0296 7.14968C58.0723 7.17033 58.1191 7.18148 58.1666 7.18237V7.30555H56.5488V7.18237C56.6031 7.18161 56.6566 7.16967 56.706 7.1473C56.7554 7.12493 56.7996 7.0926 56.836 7.05235C56.8906 6.91033 56.9107 6.75734 56.8945 6.60603V4.80197C56.9106 4.64832 56.8878 4.49308 56.8281 4.35058C56.7537 4.27725 56.6538 4.23548 56.5493 4.23399V4.10727L57.8523 4.10803Z" fill="#010101"/>
<path d="M14.9407 9.27344H16.097V9.54361H15.7041V11.6417H15.347V9.54361H14.9395V9.27344H14.9407Z" fill="#F26922"/>
<path d="M16.2317 11.6431V9.26953H16.5612V10.2382H16.5688C16.6 10.1731 16.6499 10.1187 16.7122 10.0821C16.7745 10.0456 16.8463 10.0284 16.9183 10.0329H17.0162C17.0643 10.0351 17.1107 10.0516 17.1493 10.0803C17.188 10.109 17.2172 10.1487 17.2331 10.1941C17.268 10.3065 17.2841 10.4238 17.2808 10.5413V11.6413H16.9531V10.5307C16.96 10.4653 16.9419 10.3997 16.9024 10.3472C16.8633 10.3122 16.8128 10.2928 16.7604 10.2927C16.6253 10.2927 16.5577 10.3866 16.5577 10.5743V11.6431H16.2305H16.2317Z" fill="#F26922"/>
<path d="M18.2685 11.4432C18.2441 11.5108 18.2 11.5694 18.1418 11.6115C18.0871 11.6497 18.0219 11.67 17.9552 11.6695C17.8733 11.6692 17.7941 11.6398 17.7319 11.5864C17.6624 11.5286 17.6127 11.4505 17.5895 11.3631C17.5492 11.1945 17.5283 11.0218 17.5274 10.8484C17.5258 10.6633 17.5514 10.479 17.6035 10.3014C17.6295 10.2208 17.6787 10.1497 17.7449 10.0969C17.8015 10.0542 17.8704 10.0312 17.9413 10.0313C18.0161 10.0311 18.0894 10.0528 18.1519 10.0939C18.2074 10.1245 18.2491 10.1751 18.2688 10.2353H18.2753L18.2819 10.0579H18.6096V11.6485H18.2753V11.4475H18.2688L18.2685 11.4432ZM17.9008 10.4464C17.8736 10.5861 17.8595 10.7281 17.8587 10.8704C17.8594 10.9964 17.8735 11.122 17.9008 11.245C17.9088 11.288 17.9303 11.3274 17.9622 11.3573C17.9941 11.3872 18.0347 11.4062 18.0782 11.4115C18.1034 11.4092 18.1279 11.4016 18.1501 11.3892C18.1722 11.3768 18.1915 11.3599 18.2067 11.3396C18.2459 11.2898 18.2691 11.2292 18.2731 11.1659C18.2825 10.9745 18.2873 10.8635 18.2873 10.8329C18.2868 10.7203 18.2774 10.6079 18.2591 10.4968C18.2539 10.4419 18.2308 10.3902 18.1935 10.3496C18.1787 10.3337 18.1608 10.3211 18.1409 10.3124C18.121 10.3036 18.0996 10.2991 18.0779 10.2989C18.0365 10.3008 17.9968 10.3163 17.9649 10.3429C17.9331 10.3696 17.9109 10.4059 17.9018 10.4464H17.9008Z" fill="#F26922"/>
<path d="M19.9661 10.484V11.6445H19.6383V10.5293C19.6383 10.3722 19.5745 10.2936 19.4467 10.2936C19.4163 10.2917 19.3859 10.2974 19.3582 10.3102C19.3306 10.323 19.3065 10.3425 19.2883 10.3669C19.2517 10.4461 19.2363 10.5334 19.2437 10.6203V11.6443H18.916V10.0534H19.2437V10.2391H19.2513C19.2822 10.1744 19.3312 10.12 19.3924 10.0827C19.4536 10.0453 19.5243 10.0266 19.596 10.0288C19.6485 10.0239 19.7014 10.0314 19.7505 10.0506C19.7995 10.0699 19.8434 10.1003 19.8786 10.1395C19.9445 10.2417 19.9753 10.3627 19.9661 10.484Z" fill="#F26922"/>
<path d="M20.2715 11.6431V9.26953H20.5992V10.2382H20.6068C20.6383 10.1729 20.6886 10.1186 20.7511 10.082C20.8137 10.0454 20.8857 10.0283 20.9581 10.0329H21.0559C21.104 10.0351 21.1504 10.0516 21.1891 10.0803C21.2277 10.109 21.2569 10.1487 21.2729 10.1941C21.3077 10.3065 21.3238 10.4238 21.3205 10.5413V11.6413H20.9933V10.5307C21.0003 10.4653 20.9822 10.3997 20.9426 10.3472C20.9036 10.3122 20.8531 10.2928 20.8007 10.2927C20.6655 10.2927 20.5979 10.3866 20.5979 10.5743V11.6431H20.2715Z" fill="#F26922"/>
<path d="M22.405 9.60938H22.7281V10.0557H22.9056V10.2891H22.7281V11.6471H22.404V10.2901H22.2266V10.0567H22.404L22.405 9.60938Z" fill="#F26922"/>
<path d="M23.0636 10.6846C23.0621 10.5062 23.1187 10.3321 23.2248 10.1886C23.2722 10.1351 23.3309 10.0929 23.3967 10.0651C23.4625 10.0373 23.5337 10.0246 23.605 10.0279C23.6819 10.0243 23.7586 10.0378 23.8296 10.0675C23.9006 10.0972 23.964 10.1424 24.0153 10.1998C24.1354 10.3848 24.1885 10.6054 24.1659 10.8248V10.9414C24.1502 11.4258 23.9667 11.668 23.6154 11.668C23.5065 11.6721 23.3988 11.6438 23.3059 11.5866C23.2176 11.5247 23.1518 11.4358 23.1184 11.3332C23.0712 11.1899 23.0485 11.0397 23.051 10.8889C23.0594 10.7968 23.0636 10.7287 23.0636 10.6846ZM23.3913 10.8511C23.3853 10.9917 23.4003 11.1324 23.436 11.2686C23.4458 11.3073 23.4684 11.3416 23.5001 11.3659C23.5319 11.3902 23.5709 11.403 23.6108 11.4024C23.6185 11.3978 23.6273 11.3956 23.6362 11.3961C23.6748 11.3901 23.7106 11.3723 23.7386 11.345C23.7666 11.3178 23.7854 11.2824 23.7923 11.244C23.8249 11.1127 23.8391 10.9775 23.8344 10.8423C23.8344 10.806 23.8316 10.7566 23.8298 10.6935C23.8282 10.6314 23.8213 10.5696 23.8093 10.5087C23.7998 10.4536 23.7775 10.4016 23.7441 10.3567C23.7284 10.3365 23.708 10.3204 23.6847 10.3098C23.6614 10.2992 23.6359 10.2944 23.6103 10.2958C23.5684 10.2941 23.5273 10.3077 23.4947 10.334C23.462 10.3604 23.4401 10.3977 23.4329 10.439C23.4025 10.5628 23.3865 10.6897 23.3853 10.8172C23.3907 10.8274 23.3934 10.839 23.3929 10.8506L23.3913 10.8511Z" fill="#F26922"/>
<path d="M25.0986 11.4432C25.0742 11.5108 25.0301 11.5694 24.9719 11.6115C24.9172 11.6497 24.852 11.67 24.7853 11.6695C24.7034 11.6692 24.6242 11.6398 24.562 11.5864C24.4925 11.5286 24.4427 11.4505 24.4196 11.3631C24.3793 11.1945 24.3584 11.0218 24.3575 10.8484C24.3559 10.6633 24.3815 10.479 24.4335 10.3014C24.4595 10.2208 24.5087 10.1497 24.5749 10.0969C24.6315 10.0542 24.7005 10.0312 24.7714 10.0313C24.8462 10.0311 24.9194 10.0528 24.982 10.0939C25.0374 10.1245 25.0792 10.1751 25.0988 10.2353H25.1054L25.112 10.0579H25.4397V11.6485H25.1044V11.4475H25.0978L25.0986 11.4432ZM24.7326 10.4469C24.7054 10.5866 24.6913 10.7286 24.6905 10.8709C24.6913 10.9969 24.7054 11.1225 24.7326 11.2455C24.7406 11.2885 24.7621 11.3279 24.7941 11.3578C24.826 11.3878 24.8666 11.4068 24.91 11.412C24.9353 11.4097 24.9598 11.4021 24.9819 11.3897C25.004 11.3773 25.0233 11.3604 25.0385 11.3401C25.0777 11.2903 25.1009 11.2297 25.1049 11.1665C25.1147 10.975 25.1194 10.864 25.1191 10.8334C25.1187 10.7208 25.1092 10.6084 25.091 10.4973C25.0857 10.4424 25.0627 10.3907 25.0253 10.3501C25.0105 10.3342 24.9926 10.3216 24.9728 10.3128C24.9529 10.3041 24.9314 10.2996 24.9097 10.2994C24.8679 10.3005 24.8277 10.3156 24.7955 10.3423C24.7633 10.369 24.7411 10.4058 24.7323 10.4467L24.7326 10.4469Z" fill="#F26922"/>
<path d="M25.2204 9.52597L24.8727 9.94999L24.6953 9.85621L24.9804 9.39062L25.2204 9.52597Z" fill="#F26922"/>
<path d="M26.7971 10.484V11.6445H26.4704V10.5293C26.4704 10.3722 26.4065 10.2936 26.2788 10.2936C26.2484 10.2917 26.2179 10.2974 26.1903 10.3102C26.1626 10.323 26.1386 10.3425 26.1204 10.3669C26.0837 10.4461 26.0683 10.5334 26.0757 10.6203V11.6443H25.748V10.0534H26.0757V10.2391H26.0834C26.1142 10.1744 26.1632 10.12 26.2244 10.0827C26.2856 10.0453 26.3564 10.0266 26.428 10.0288C26.4805 10.0239 26.5334 10.0314 26.5825 10.0506C26.6316 10.0699 26.6754 10.1003 26.7106 10.1395C26.7764 10.2418 26.8068 10.3628 26.7971 10.484Z" fill="#F26922"/>
<path d="M27.8825 9.60938H28.2067V10.0557H28.3841V10.2891H28.2067V11.6471H27.8825V10.2901H27.7051V10.0567H27.8825V9.60938Z" fill="#F26922"/>
<path d="M28.5898 11.6438V10.0531H28.9175L28.911 10.2513H28.9269C28.9593 10.1809 29.0122 10.1218 29.0788 10.082C29.1453 10.0421 29.2223 10.0233 29.2997 10.0281V10.3236C29.1932 10.3115 29.0859 10.34 28.9994 10.4034C28.9707 10.4361 28.9488 10.4742 28.9351 10.5155C28.9214 10.5567 28.9161 10.6003 28.9196 10.6437V11.6433H28.5919L28.5898 11.6438Z" fill="#F26922"/>
<path d="M30.5771 10.1106V11.1591C30.5822 11.2841 30.5487 11.4075 30.4811 11.5127C30.4363 11.5653 30.3798 11.6066 30.3162 11.6335C30.2525 11.6604 30.1835 11.6721 30.1146 11.6676C29.9535 11.6827 29.7925 11.6387 29.6614 11.5439C29.6112 11.4887 29.5729 11.4238 29.5488 11.3532C29.5247 11.2827 29.5153 11.2079 29.5213 11.1335V10.0528H29.849V11.1533C29.8463 11.2151 29.8607 11.2765 29.8905 11.3307C29.9094 11.355 29.9342 11.3739 29.9626 11.3855C29.9911 11.3972 30.022 11.4012 30.0525 11.3971C30.083 11.4015 30.1142 11.3977 30.1428 11.386C30.1713 11.3744 30.1962 11.3553 30.215 11.3307C30.2396 11.2788 30.2516 11.2217 30.2497 11.1642V10.0518H30.5323C30.5431 10.0501 30.5538 10.0471 30.564 10.0429C30.5472 10.0366 30.5321 10.0266 30.5197 10.0137C30.5073 10.0008 30.4978 9.98537 30.4921 9.96842C30.4863 9.95148 30.4844 9.93347 30.4864 9.91569C30.4884 9.8979 30.4942 9.88078 30.5036 9.86554C30.511 9.84623 30.5225 9.82875 30.5372 9.8143C30.552 9.79985 30.5697 9.78876 30.5892 9.7818C30.6086 9.77484 30.6294 9.77218 30.6499 9.77399C30.6705 9.7758 30.6905 9.78204 30.7084 9.79229C30.8039 9.83031 30.8311 9.89282 30.79 9.97984L30.7743 10.0027C30.752 10.0345 30.7227 10.0609 30.6887 10.0798C30.6546 10.0986 30.6168 10.1095 30.5779 10.1116L30.5771 10.1106Z" fill="#F26922"/>
<path d="M30.1361 11.7853C30.2677 11.7853 30.3335 11.8444 30.3335 11.9627C30.3335 12.0809 30.2677 12.1401 30.1361 12.1401C30.0847 12.1401 30.0353 12.1206 29.9977 12.0856C29.9795 12.0701 29.9648 12.0509 29.9547 12.0292C29.9447 12.0074 29.9395 11.9838 29.9395 11.9599C29.9395 11.9359 29.9447 11.9123 29.9547 11.8906C29.9648 11.8689 29.9795 11.8496 29.9977 11.8342C30.0361 11.8012 30.0855 11.7837 30.1361 11.7853Z" fill="#F26922"/>
<path d="M31.6128 11.3284V11.6115C31.5294 11.6485 31.4393 11.6678 31.3482 11.6683C31.2637 11.6772 31.1786 11.6596 31.1046 11.618C31.0305 11.5764 30.9712 11.5129 30.9348 11.4361C30.8596 11.2591 30.8213 11.0686 30.8223 10.8763C30.8243 10.7414 30.8382 10.607 30.8638 10.4746C30.8857 10.3582 30.9391 10.2501 31.0182 10.1621C31.0625 10.1165 31.1162 10.0812 31.1756 10.0584C31.2349 10.0357 31.2985 10.0261 31.3619 10.0303C31.4482 10.029 31.5337 10.0463 31.6128 10.0809V10.3831H31.6052C31.5859 10.3564 31.5598 10.3353 31.5298 10.322C31.4997 10.3086 31.4666 10.3035 31.4338 10.307C31.3978 10.3043 31.3616 10.3111 31.329 10.3267C31.2964 10.3424 31.2685 10.3664 31.2481 10.3962C31.2097 10.4527 31.185 10.5174 31.1758 10.5851C31.1676 10.6499 31.1609 10.7392 31.1558 10.853C31.1577 10.9804 31.1769 11.107 31.2128 11.2293C31.2267 11.2771 31.2557 11.3191 31.2956 11.3489C31.3355 11.3786 31.3841 11.3945 31.4338 11.3941C31.4986 11.3901 31.5608 11.3673 31.6128 11.3284Z" fill="#F26922"/>
<path d="M32.6276 9.60938H32.9508V10.0557H33.1282V10.2891H32.9508V11.6471H32.6266V10.2901H32.4492V10.0567H32.6266L32.6276 9.60938Z" fill="#F26922"/>
<path d="M33.3279 10.0547H33.6556V11.1552C33.6531 11.217 33.6676 11.2784 33.6977 11.3326C33.7407 11.3752 33.7987 11.399 33.8592 11.399C33.9197 11.399 33.9778 11.3752 34.0208 11.3326C34.0462 11.2808 34.0585 11.2237 34.0565 11.1661V10.0547H34.3843V11.1597C34.3889 11.2843 34.3554 11.4073 34.2882 11.5123C34.2434 11.5652 34.1868 11.6068 34.123 11.6339C34.0592 11.6609 33.9899 11.6727 33.9207 11.6681C33.7599 11.6828 33.5991 11.6388 33.468 11.5445C33.4173 11.4897 33.3786 11.4248 33.3545 11.3542C33.3305 11.2835 33.3216 11.2085 33.3284 11.1341V10.0547H33.3279Z" fill="#F26922"/>
<path d="M34.457 10.0547H34.823L35.0863 11.1676H35.0934L35.3859 10.0552H35.7172L34.9959 12.2962H34.658L34.9294 11.5168L34.457 10.0547Z" fill="#F26922"/>
<path d="M36.1726 10.9101C36.1726 11.2448 36.2436 11.4122 36.3855 11.4122C36.414 11.4123 36.4421 11.4054 36.4673 11.3922C36.4926 11.3789 36.5142 11.3597 36.5302 11.3362C36.573 11.2686 36.5929 11.1891 36.587 11.1093H36.8947C36.8985 11.2245 36.8723 11.3386 36.8187 11.4406C36.776 11.5167 36.7104 11.5775 36.6311 11.6142C36.5516 11.6486 36.4661 11.667 36.3794 11.6682C36.2844 11.6707 36.1905 11.6465 36.1085 11.5985C36.0282 11.5472 35.965 11.4731 35.9273 11.3856C35.8786 11.2725 35.8514 11.1514 35.8469 11.0285C35.8476 10.9692 35.8452 10.91 35.8398 10.851C35.85 10.3022 36.0253 10.0278 36.3658 10.0278C36.4294 10.0249 36.4929 10.0352 36.5523 10.0583C36.6116 10.0813 36.6655 10.1165 36.7104 10.1617C36.7913 10.252 36.8453 10.3631 36.8663 10.4825C36.8921 10.6224 36.9045 10.7644 36.9033 10.9066H36.1746L36.1726 10.9101ZM36.1792 10.699H36.5652C36.5652 10.4329 36.5001 10.2998 36.3698 10.2998C36.3407 10.2992 36.312 10.3067 36.2869 10.3216C36.2618 10.3364 36.2414 10.3579 36.2279 10.3837C36.1862 10.4832 36.1688 10.5912 36.1772 10.6987L36.1792 10.699Z" fill="#F26922"/>
<path d="M36.372 9.38537L36.8005 9.82282L36.6363 9.94422L36.3649 9.68038L36.1114 9.94422L35.9297 9.82155L36.372 9.38537ZM37.0948 9.21175L36.7476 9.63501L36.6039 9.55543L36.889 9.08984L37.0948 9.21175Z" fill="#F26922"/>
<path d="M38.2082 10.484V11.6446H37.8805V10.5294C37.8805 10.3722 37.8167 10.2937 37.6889 10.2937C37.6585 10.2917 37.6281 10.2973 37.6004 10.3101C37.5727 10.3229 37.5487 10.3424 37.5305 10.3669C37.4939 10.4461 37.4785 10.5334 37.4859 10.6204V11.6443H37.1582V10.0534H37.4859V10.2392H37.4966C37.5273 10.1744 37.5763 10.12 37.6376 10.0826C37.6988 10.0453 37.7696 10.0266 37.8413 10.0288C37.8937 10.0239 37.9466 10.0313 37.9957 10.0506C38.0448 10.0698 38.0887 10.1003 38.1238 10.1396C38.1892 10.2419 38.2189 10.363 38.2082 10.484Z" fill="#F26922"/>
<path d="M39.1816 10.7109H39.8077V10.9502H39.1816V10.7109Z" fill="#F26922"/>
<path d="M40.8457 9.27476H41.2667C41.401 9.26687 41.5351 9.29431 41.6555 9.35434C41.7344 9.39615 41.7962 9.46418 41.8304 9.54671C41.8607 9.63532 41.8787 9.72768 41.8838 9.8212V9.93196C41.8885 10.0461 41.8639 10.1595 41.8124 10.2614C41.7848 10.3067 41.7479 10.3456 41.7042 10.3756C41.6606 10.4056 41.611 10.426 41.5589 10.4356V10.4419C41.6723 10.4684 41.7721 10.5354 41.8395 10.6304C41.9069 10.7253 41.9373 10.8416 41.9249 10.9574C41.9255 10.9872 41.9241 11.017 41.9208 11.0466C41.918 11.066 41.9164 11.0856 41.916 11.1052C41.905 11.4659 41.6927 11.6463 41.2791 11.6463H40.8457V9.27476ZM41.177 9.5386V10.3172C41.2556 10.3221 41.3341 10.3068 41.4051 10.2726C41.4575 10.2434 41.4972 10.1957 41.5163 10.1388C41.5386 10.0665 41.5488 9.99107 41.5467 9.91548C41.5546 9.81521 41.527 9.71535 41.4687 9.63339C41.4422 9.60301 41.4091 9.579 41.3721 9.56316C41.335 9.54731 41.2948 9.54005 41.2545 9.5419H41.1752L41.177 9.5386ZM41.177 10.5689V11.3723C41.2777 11.3828 41.3789 11.3565 41.4618 11.2983C41.5205 11.2344 41.5524 11.1505 41.5511 11.0639V10.9541C41.5608 10.8481 41.5305 10.7422 41.4661 10.6573C41.4319 10.6255 41.3914 10.6011 41.3472 10.5857C41.303 10.5703 41.256 10.5643 41.2094 10.5681H41.1752L41.177 10.5689Z" fill="#F26922"/>
<path d="M42.9235 11.4416C42.8993 11.5092 42.8551 11.5679 42.7968 11.6099C42.7421 11.6481 42.6769 11.6684 42.6102 11.6679C42.5283 11.6676 42.4491 11.6381 42.3869 11.5848C42.3174 11.527 42.2676 11.4489 42.2445 11.3615C42.2043 11.1921 42.1839 11.0186 42.1837 10.8445C42.1821 10.6594 42.2077 10.4751 42.2597 10.2975C42.2857 10.2169 42.3349 10.1458 42.4011 10.093C42.4577 10.0504 42.5267 10.0273 42.5975 10.0273C42.6724 10.027 42.7457 10.0488 42.8082 10.09C42.8636 10.1206 42.9054 10.1711 42.925 10.2314H42.9321L42.9387 10.054H43.2664V11.6446H42.9321V11.4436H42.925L42.9235 11.4416ZM42.5578 10.4453C42.5307 10.585 42.5166 10.727 42.5157 10.8693C42.5165 10.9953 42.5306 11.1209 42.5578 11.2439C42.5659 11.2869 42.5874 11.3262 42.6193 11.3561C42.6512 11.386 42.6918 11.4051 42.7352 11.4104C42.7604 11.4081 42.7849 11.4005 42.8071 11.3881C42.8292 11.3757 42.8485 11.3588 42.8637 11.3384C42.9029 11.2886 42.9261 11.2281 42.9301 11.1648C42.9395 10.9734 42.9443 10.8624 42.9443 10.8318C42.9437 10.7192 42.9343 10.6068 42.9161 10.4957C42.9108 10.4408 42.8877 10.3892 42.8505 10.3485C42.8357 10.3326 42.8178 10.32 42.7979 10.3112C42.7781 10.3025 42.7566 10.2979 42.7349 10.2978C42.6931 10.2988 42.6528 10.3139 42.6207 10.3406C42.5885 10.3673 42.5662 10.4041 42.5575 10.445L42.5578 10.4453Z" fill="#F26922"/>
<path d="M42.5332 9.58288C42.5327 9.55496 42.538 9.52723 42.5489 9.50153C42.5662 9.47385 42.5934 9.45388 42.625 9.44577C42.6842 9.42747 42.7461 9.41958 42.808 9.42245C43.0011 9.42245 43.0975 9.47483 43.0972 9.57959V9.58263C43.0977 9.6095 43.0961 9.63636 43.0924 9.66297C43.0898 9.68387 43.081 9.7035 43.067 9.71924C43.051 9.73825 43.0295 9.7518 43.0054 9.75801C42.9678 9.76844 42.9288 9.77314 42.8898 9.77196V9.90223H42.7162V9.71569H42.7545C42.7973 9.72037 42.8406 9.71216 42.8787 9.69212C42.8895 9.68279 42.8978 9.67103 42.9031 9.6578C42.9084 9.64457 42.9105 9.63027 42.9091 9.61608V9.59277C42.9081 9.57398 42.9021 9.55579 42.8919 9.54001C42.8817 9.52423 42.8675 9.51141 42.8507 9.50282C42.834 9.49423 42.8153 9.49018 42.7965 9.49106C42.7777 9.49195 42.7595 9.49774 42.7436 9.50786C42.7331 9.52087 42.7257 9.53614 42.7221 9.55247C42.7258 9.5612 42.7276 9.57061 42.7274 9.58009H42.5358L42.5332 9.58288Z" fill="#F26922"/>
<path d="M43.523 10.6846C43.5215 10.5062 43.5781 10.3321 43.6842 10.1886C43.7315 10.1351 43.7903 10.0929 43.8561 10.0651C43.9218 10.0373 43.993 10.0246 44.0644 10.0279C44.1412 10.0243 44.218 10.0378 44.2889 10.0675C44.3599 10.0973 44.4234 10.1424 44.4747 10.1998C44.5947 10.3848 44.6478 10.6054 44.6253 10.8248V10.9414C44.6116 11.4253 44.4293 11.6672 44.0783 11.6672C43.9694 11.6713 43.8617 11.643 43.7689 11.5859C43.6804 11.524 43.6143 11.4351 43.5808 11.3324C43.5338 11.1891 43.5112 11.0389 43.5139 10.8881C43.52 10.7966 43.523 10.7287 43.523 10.6846ZM43.8507 10.8511C43.8447 10.9917 43.8597 11.1324 43.8953 11.2686C43.9051 11.3073 43.9278 11.3416 43.9595 11.3659C43.9912 11.3902 44.0303 11.403 44.0702 11.4024C44.0779 11.3979 44.0867 11.3957 44.0956 11.396C44.1342 11.3902 44.1701 11.3724 44.1981 11.3451C44.2261 11.3179 44.2449 11.2825 44.2517 11.244C44.2843 11.1127 44.2985 10.9775 44.2938 10.8423C44.2938 10.806 44.291 10.7566 44.2897 10.6935C44.288 10.6314 44.2811 10.5696 44.2692 10.5087C44.2597 10.4536 44.2374 10.4015 44.204 10.3566C44.1883 10.3364 44.1679 10.3203 44.1446 10.3097C44.1213 10.2991 44.0958 10.2943 44.0702 10.2958C44.0283 10.2942 43.9872 10.3077 43.9546 10.3341C43.922 10.3604 43.9 10.3977 43.8928 10.439C43.8625 10.5628 43.8465 10.6897 43.8451 10.8172C43.8512 10.8273 43.8545 10.8388 43.8545 10.8506L43.8507 10.8511Z" fill="#F26922"/>
<path d="M45.4805 10.0605H45.8328L46.0657 11.2573H46.0723L46.3232 10.0605H46.6357L46.1719 11.6438H45.9521L45.4805 10.0605Z" fill="#F26922"/>
<path d="M47.1126 10.9101C47.1126 11.2448 47.1836 11.4122 47.3255 11.4122C47.354 11.4123 47.3821 11.4054 47.4073 11.3922C47.4325 11.3789 47.4541 11.3597 47.4702 11.3362C47.5129 11.2686 47.5328 11.1891 47.527 11.1093H47.8341C47.838 11.2245 47.8118 11.3386 47.7581 11.4406C47.7154 11.5167 47.6498 11.5775 47.5706 11.6142C47.491 11.6486 47.4055 11.6669 47.3189 11.6682C47.2238 11.6707 47.13 11.6466 47.048 11.5985C46.9676 11.5473 46.9044 11.4731 46.8667 11.3856C46.8181 11.2725 46.7908 11.1514 46.7864 11.0285C46.7864 10.9552 46.7839 10.8946 46.7793 10.851C46.7894 10.3022 46.9647 10.0278 47.3052 10.0278C47.3688 10.0249 47.4324 10.0352 47.4917 10.0583C47.5511 10.0813 47.605 10.1165 47.6499 10.1617C47.7308 10.252 47.7848 10.3631 47.8058 10.4825C47.8316 10.6224 47.844 10.7644 47.8428 10.9066H47.1141L47.1126 10.9101ZM47.1194 10.699H47.5064C47.5064 10.4329 47.4413 10.2998 47.311 10.2998C47.2819 10.2992 47.2532 10.3067 47.2281 10.3216C47.2031 10.3364 47.1826 10.3579 47.1691 10.3837C47.1278 10.4836 47.1108 10.5919 47.1194 10.6997V10.699Z" fill="#F26922"/>
<path d="M47.3129 9.38672L47.7415 9.82417L47.5778 9.94558L47.3063 9.68173L47.0508 9.94558L46.8691 9.82291L47.3129 9.38672ZM47.283 11.7856C47.4145 11.7856 47.4802 11.8448 47.4802 11.963C47.4802 12.0813 47.4145 12.1404 47.283 12.1404C47.1514 12.1404 47.0856 12.0813 47.0856 11.963C47.0856 11.8448 47.1514 11.7856 47.283 11.7856Z" fill="#F26922"/>
<path d="M49.8626 10.4839V11.6445H49.5348V10.5293C49.5348 10.3721 49.471 10.2936 49.3432 10.2936C49.3128 10.2917 49.2824 10.2974 49.2548 10.3102C49.2271 10.3229 49.2031 10.3424 49.1848 10.3668C49.1482 10.446 49.1328 10.5333 49.1402 10.6203V11.6442H48.8125V10.0533H49.1402V10.2391H49.1483C49.1792 10.1744 49.2282 10.12 49.2894 10.0827C49.3506 10.0453 49.4214 10.0266 49.493 10.0287C49.5454 10.024 49.5982 10.0315 49.6472 10.0507C49.6961 10.07 49.7399 10.1004 49.7751 10.1395C49.8415 10.2415 49.8723 10.3626 49.8626 10.4839Z" fill="#F26922"/>
<path d="M50.8557 11.4568C50.8346 11.5197 50.7944 11.5744 50.7407 11.6133C50.687 11.6522 50.6225 11.6733 50.5561 11.6738C50.4871 11.6765 50.4186 11.6595 50.3589 11.6248C50.2991 11.5901 50.2504 11.5392 50.2185 11.4778C50.1305 11.2788 50.092 11.0614 50.1065 10.8442C50.1022 10.6719 50.1229 10.4999 50.1681 10.3335C50.1906 10.2394 50.2442 10.1555 50.3202 10.0955C50.3871 10.053 50.4642 10.0295 50.5434 10.0273C50.6119 10.029 50.6783 10.0512 50.734 10.091C50.7897 10.1308 50.8322 10.1864 50.856 10.2506L50.863 10.2382V10.0608H51.1907V11.6441C51.194 11.772 51.1806 11.8998 51.1507 12.0243C51.1283 12.1136 51.0743 12.1918 50.9986 12.2443C50.9019 12.3005 50.7907 12.3269 50.6791 12.3203C50.5337 12.3273 50.3902 12.2854 50.2715 12.2012C50.2222 12.1523 50.1844 12.093 50.1608 12.0277C50.1373 11.9624 50.1286 11.8926 50.1354 11.8235H50.4563C50.4563 11.9792 50.5272 12.057 50.6691 12.057C50.7989 12.057 50.864 11.9792 50.8643 11.8235V11.4593H50.8572L50.8557 11.4568ZM50.4423 10.8447C50.4373 10.9838 50.4539 11.1228 50.4915 11.2568C50.5 11.2971 50.521 11.3337 50.5515 11.3613C50.5821 11.3889 50.6206 11.4061 50.6616 11.4104C50.7015 11.4106 50.7401 11.3962 50.7701 11.3698C50.8002 11.3435 50.8195 11.3071 50.8245 11.2675C50.8549 11.1287 50.8679 10.9867 50.8633 10.8447C50.8633 10.4801 50.7957 10.2978 50.6605 10.2978C50.6363 10.2963 50.612 10.3005 50.5896 10.3101C50.5672 10.3196 50.5473 10.3342 50.5315 10.3528C50.4959 10.403 50.4738 10.4616 50.4674 10.5228C50.4523 10.6295 50.4439 10.737 50.4423 10.8447Z" fill="#F26922"/>
<path d="M52.5544 10.1106V11.1591C52.5594 11.2841 52.5258 11.4075 52.4581 11.5127C52.4133 11.5653 52.3568 11.6066 52.2932 11.6335C52.2295 11.6604 52.1605 11.6721 52.0916 11.6676C51.9305 11.6827 51.7695 11.6387 51.6384 11.5439C51.5882 11.4887 51.5498 11.4238 51.5256 11.3533C51.5014 11.2827 51.4919 11.2079 51.4978 11.1335V10.0528H51.8272V11.1533C51.8246 11.2151 51.8389 11.2765 51.8688 11.3307C51.9121 11.3734 51.9704 11.3973 52.0311 11.3973C52.0919 11.3973 52.1502 11.3734 52.1935 11.3307C52.2182 11.2788 52.23 11.2217 52.2282 11.1642V10.0518H52.5098C52.5206 10.0501 52.5313 10.0471 52.5415 10.0429C52.5247 10.0366 52.5096 10.0266 52.4972 10.0137C52.4848 10.0008 52.4754 9.98537 52.4696 9.96842C52.4638 9.95148 52.4619 9.93347 52.4639 9.91569C52.4659 9.8979 52.4718 9.88078 52.4811 9.86554C52.4885 9.84623 52.5 9.82875 52.5147 9.8143C52.5295 9.79985 52.5472 9.78876 52.5667 9.7818C52.5861 9.77484 52.6069 9.77218 52.6274 9.77399C52.648 9.7758 52.668 9.78204 52.6859 9.79229C52.7815 9.83031 52.8083 9.89367 52.7675 9.97984L52.7518 10.0027C52.7295 10.0345 52.7002 10.0609 52.6661 10.0798C52.6321 10.0986 52.5942 10.1095 52.5554 10.1116L52.5544 10.1106Z" fill="#F26922"/>
<path d="M52.8098 10.6859C52.8076 10.5073 52.8639 10.333 52.9699 10.1894C53.0174 10.136 53.0761 10.094 53.1419 10.0662C53.2077 10.0385 53.2788 10.0259 53.3501 10.0292C53.4264 10.0277 53.5022 10.0411 53.5734 10.0685C53.6015 10.0635 53.6293 10.0567 53.6565 10.0479C53.6396 10.0418 53.6243 10.0319 53.6117 10.0191C53.5991 10.0064 53.5894 9.99096 53.5834 9.97401C53.5774 9.95706 53.5752 9.939 53.577 9.92111C53.5787 9.90322 53.5844 9.88595 53.5937 9.87052C53.6009 9.85092 53.6123 9.83315 53.6272 9.81846C53.6421 9.80378 53.66 9.79254 53.6797 9.78556C53.6994 9.77857 53.7203 9.77599 53.7411 9.77801C53.7619 9.78004 53.782 9.78661 53.8 9.79727C53.895 9.83478 53.9226 9.89688 53.8813 9.98305C53.8775 9.9914 53.8727 9.9993 53.8672 10.0066C53.8436 10.0388 53.8132 10.0653 53.7781 10.0843C53.7431 10.1032 53.7042 10.1141 53.6644 10.1161C53.6995 10.1403 53.7316 10.1686 53.7599 10.2005C53.8805 10.3854 53.9342 10.6059 53.912 10.8255V10.9421C53.8987 11.4253 53.7164 11.667 53.3653 11.667C53.2564 11.6715 53.1486 11.6435 53.0556 11.5866C52.9664 11.5256 52.9004 11.4363 52.8681 11.3332C52.8203 11.19 52.7976 11.0397 52.8011 10.8889C52.8104 10.7907 52.8151 10.7231 52.8151 10.6861L52.8098 10.6859ZM53.1364 10.8524C53.1308 10.9932 53.1458 11.1341 53.1811 11.2706C53.1909 11.3093 53.2135 11.3436 53.2452 11.3679C53.277 11.3922 53.316 11.405 53.3559 11.4044C53.3635 11.3997 53.3724 11.3974 53.3813 11.3978C53.4202 11.3923 53.4563 11.3747 53.4844 11.3473C53.5126 11.32 53.5313 11.2844 53.5379 11.2457C53.5716 11.1146 53.5866 10.9794 53.5825 10.844C53.5825 10.8088 53.5795 10.7591 53.5777 10.6952C53.5758 10.6332 53.569 10.5714 53.5572 10.5105C53.5468 10.4556 53.5246 10.4037 53.492 10.3584C53.4763 10.3382 53.456 10.322 53.4327 10.3114C53.4093 10.3008 53.3838 10.2959 53.3582 10.2973C53.3163 10.2955 53.2751 10.309 53.2424 10.3354C53.2098 10.3618 53.1879 10.3991 53.1808 10.4405C53.1498 10.5649 53.1339 10.6925 53.1334 10.8207C53.1378 10.8305 53.14 10.8411 53.14 10.8519L53.1364 10.8524Z" fill="#F26922"/>
<path d="M53.1328 9.51203L53.3427 9.39062L53.6278 9.85621L53.4813 9.93529L53.1328 9.51203Z" fill="#F26922"/>
<path d="M54.0957 9.57663C54.096 9.55031 54.1019 9.52436 54.1132 9.50056C54.1244 9.47676 54.1407 9.45567 54.1609 9.43875C54.2026 9.39948 54.2579 9.37802 54.3152 9.37894C54.3718 9.37797 54.4265 9.39947 54.4673 9.43875C54.4868 9.45594 54.5025 9.47701 54.5134 9.50061C54.5243 9.52421 54.5302 9.54982 54.5306 9.57582C54.5311 9.60181 54.5261 9.62761 54.516 9.65158C54.5059 9.67555 54.491 9.69715 54.4721 9.71501C54.453 9.73339 54.4305 9.74783 54.4058 9.75748C54.3812 9.76714 54.3549 9.77183 54.3284 9.77127C54.2671 9.77392 54.207 9.75338 54.1601 9.71374C54.1399 9.69706 54.1237 9.67611 54.1125 9.6524C54.1014 9.62869 54.0956 9.60282 54.0957 9.57663ZM54.4782 10.0539V11.6445H54.1505V10.0539H54.4782Z" fill="#F26922"/>
<path d="M55.4922 11.6434V10.0528H55.827V10.251H55.8346C55.8624 10.1831 55.9103 10.1253 55.972 10.0853C56.0336 10.0454 56.1059 10.0253 56.1793 10.0277C56.2514 10.0292 56.3217 10.0509 56.382 10.0903C56.4381 10.1275 56.4776 10.1849 56.4923 10.2505H56.4989C56.5321 10.1757 56.5892 10.1142 56.6614 10.0756C56.7362 10.042 56.8176 10.0258 56.8996 10.0282C56.9482 10.0247 56.9971 10.032 57.0425 10.0498C57.088 10.0675 57.1289 10.0951 57.1623 10.1307C57.1957 10.1662 57.2208 10.2088 57.2357 10.2553C57.2506 10.3017 57.2549 10.3509 57.2483 10.3993V11.6434H56.9201V10.5283C56.9277 10.4622 56.9119 10.3956 56.8755 10.3399C56.8581 10.3236 56.8375 10.3111 56.815 10.303C56.7925 10.2949 56.7686 10.2916 56.7447 10.2931C56.715 10.2901 56.685 10.2941 56.6571 10.3048C56.6292 10.3155 56.6042 10.3326 56.584 10.3546C56.5466 10.413 56.5295 10.482 56.5354 10.5511V11.6442H56.2077V10.5698C56.2128 10.4982 56.2005 10.4264 56.1719 10.3605C56.1561 10.338 56.1347 10.32 56.1098 10.3084C56.0849 10.2967 56.0574 10.2918 56.03 10.2941C55.9989 10.2908 55.9675 10.2958 55.939 10.3086C55.9105 10.3214 55.8858 10.3415 55.8675 10.3668C55.8286 10.4543 55.8125 10.5502 55.8207 10.6456V11.6452H55.493L55.4922 11.6434Z" fill="#F26922"/>
<path d="M57.5503 10.0547H57.878V11.1552C57.8755 11.217 57.89 11.2784 57.9201 11.3326C57.9631 11.3752 58.0212 11.399 58.0817 11.399C58.1422 11.399 58.2002 11.3752 58.2432 11.3326C58.2686 11.2808 58.2809 11.2237 58.279 11.1661V10.0547H58.6067V11.1597C58.6117 11.285 58.5783 11.4088 58.5109 11.5146C58.4661 11.5674 58.4095 11.609 58.3458 11.6361C58.282 11.6632 58.2128 11.6749 58.1436 11.6704C57.9826 11.6851 57.8217 11.6412 57.6904 11.5467C57.6397 11.4919 57.6011 11.4271 57.5771 11.3564C57.5531 11.2857 57.5442 11.2108 57.5511 11.1364V10.0547H57.5503Z" fill="#F26922"/>
<path d="M59.5009 11.4432C59.4765 11.5108 59.4324 11.5694 59.3742 11.6115C59.3195 11.6497 59.2543 11.67 59.1877 11.6695C59.1057 11.6692 59.0266 11.6398 58.9644 11.5864C58.8949 11.5285 58.8452 11.4505 58.8219 11.3631C58.7817 11.1945 58.7609 11.0218 58.7598 10.8484C58.7583 10.6633 58.7839 10.479 58.8359 10.3014C58.8621 10.2208 58.9115 10.1497 58.9778 10.0969C59.0344 10.0542 59.1034 10.0312 59.1742 10.0313C59.249 10.0311 59.3222 10.0529 59.3848 10.0939C59.4402 10.1246 59.482 10.1751 59.5017 10.2353H59.5083L59.5154 10.0579H59.8431V11.6485H59.5088V11.4475H59.5022L59.5009 11.4432ZM59.1349 10.4469C59.1077 10.5866 59.0936 10.7286 59.0929 10.8709C59.0935 10.9969 59.1076 11.1225 59.1349 11.2455C59.143 11.2885 59.1645 11.3279 59.1964 11.3578C59.2283 11.3878 59.2689 11.4068 59.3124 11.412C59.3376 11.4097 59.3621 11.4021 59.3842 11.3897C59.4064 11.3773 59.4257 11.3604 59.4409 11.3401C59.4804 11.2904 59.5036 11.2298 59.5072 11.1665C59.5171 10.9748 59.5215 10.8643 59.5215 10.8334C59.5211 10.7208 59.5117 10.6084 59.4933 10.4973C59.4882 10.4425 59.4653 10.3908 59.4282 10.3501C59.4133 10.3342 59.3954 10.3215 59.3754 10.3127C59.3554 10.304 59.3339 10.2995 59.3121 10.2994C59.2703 10.3006 59.2301 10.3157 59.198 10.3424C59.1658 10.3691 59.1435 10.4058 59.1347 10.4467L59.1349 10.4469Z" fill="#F26922"/>
</svg>
