<svg width="358" height="159" viewBox="0 0 358 159" fill="none" xmlns="http://www.w3.org/2000/svg">
<rect x="0.5" y="0.5" width="357" height="158" rx="7.5" fill="#F5F5F5"/>
<g clip-path="url(#clip0_190_74333)">
<path d="M255.5 121.604H99.5V121.683H255.5V121.604Z" fill="#EC1E24"/>
<path d="M255.5 121.604H99.5V121.683H255.5V121.604Z" fill="white" fill-opacity="0.7"/>
<path d="M147.08 123.525H143.81V123.605H147.08V123.525Z" fill="#EC1E24"/>
<path d="M147.08 123.525H143.81V123.605H147.08V123.525Z" fill="white" fill-opacity="0.7"/>
<path d="M244.948 125.611H239.379V125.691H244.948V125.611Z" fill="#EC1E24"/>
<path d="M244.948 125.611H239.379V125.691H244.948V125.611Z" fill="white" fill-opacity="0.7"/>
<path d="M218.65 123.562H200.195V123.642H218.65V123.562Z" fill="#EC1E24"/>
<path d="M218.65 123.562H200.195V123.642H218.65V123.562Z" fill="white" fill-opacity="0.7"/>
<path d="M172.474 125.375H158.356V125.454H172.474V125.375Z" fill="#EC1E24"/>
<path d="M172.474 125.375H158.356V125.454H172.474V125.375Z" fill="white" fill-opacity="0.7"/>
<path d="M143.08 124.873H138.188V124.953H143.08V124.873Z" fill="#EC1E24"/>
<path d="M143.08 124.873H138.188V124.953H143.08V124.873Z" fill="white" fill-opacity="0.7"/>
<path d="M232.518 125.375H225.479V125.454H232.518V125.375Z" fill="#EC1E24"/>
<path d="M232.518 125.375H225.479V125.454H232.518V125.375Z" fill="white" fill-opacity="0.7"/>
<path d="M136.369 124.834H119.758V124.913H136.369V124.834Z" fill="#EC1E24"/>
<path d="M136.369 124.834H119.758V124.913H136.369V124.834Z" fill="white" fill-opacity="0.7"/>
<path d="M173.447 107.421H113.203C112.22 107.421 111.422 106.607 111.422 105.605V19.2904C111.422 18.2887 112.22 17.4746 113.203 17.4746H173.45C174.433 17.4746 175.232 18.2887 175.232 19.2904V105.605C175.229 106.607 174.43 107.421 173.447 107.421ZM113.203 17.5541C112.264 17.5541 111.5 18.3332 111.5 19.2904V105.605C111.5 106.562 112.264 107.341 113.203 107.341H173.45C174.389 107.341 175.154 106.562 175.154 105.605V19.2904C175.154 18.3332 174.389 17.5541 173.45 17.5541H113.203Z" fill="#EC1E24"/>
<path d="M173.447 107.421H113.203C112.22 107.421 111.422 106.607 111.422 105.605V19.2904C111.422 18.2887 112.22 17.4746 113.203 17.4746H173.45C174.433 17.4746 175.232 18.2887 175.232 19.2904V105.605C175.229 106.607 174.43 107.421 173.447 107.421ZM113.203 17.5541C112.264 17.5541 111.5 18.3332 111.5 19.2904V105.605C111.5 106.562 112.264 107.341 113.203 107.341H173.45C174.389 107.341 175.154 106.562 175.154 105.605V19.2904C175.154 18.3332 174.389 17.5541 173.45 17.5541H113.203Z" fill="white" fill-opacity="0.7"/>
<path d="M240.933 107.421H180.686C179.703 107.421 178.904 106.607 178.904 105.605V19.2904C178.904 18.2887 179.703 17.4746 180.686 17.4746H240.933C241.916 17.4746 242.714 18.2887 242.714 19.2904V105.605C242.714 106.607 241.916 107.421 240.933 107.421ZM180.686 17.5541C179.746 17.5541 178.982 18.3332 178.982 19.2904V105.605C178.982 106.562 179.746 107.341 180.686 107.341H240.933C241.872 107.341 242.636 106.562 242.636 105.605V19.2904C242.636 18.3332 241.872 17.5541 240.933 17.5541H180.686Z" fill="#EC1E24"/>
<path d="M240.933 107.421H180.686C179.703 107.421 178.904 106.607 178.904 105.605V19.2904C178.904 18.2887 179.703 17.4746 180.686 17.4746H240.933C241.916 17.4746 242.714 18.2887 242.714 19.2904V105.605C242.714 106.607 241.916 107.421 240.933 107.421ZM180.686 17.5541C179.746 17.5541 178.982 18.3332 178.982 19.2904V105.605C178.982 106.562 179.746 107.341 180.686 107.341H240.933C241.872 107.341 242.636 106.562 242.636 105.605V19.2904C242.636 18.3332 241.872 17.5541 240.933 17.5541H180.686Z" fill="white" fill-opacity="0.7"/>
<path d="M123.697 86.9961H163.083V26.9132L123.697 26.9132V86.9961Z" fill="#EC1E24"/>
<path d="M123.697 86.9961H163.083V26.9132L123.697 26.9132V86.9961Z" fill="white" fill-opacity="0.7"/>
<path d="M122.823 86.9961H162.21V26.9132L122.823 26.9132V86.9961Z" fill="#EC1E24"/>
<path d="M122.823 86.9961H162.21V26.9132L122.823 26.9132V86.9961Z" fill="white" fill-opacity="0.7"/>
<path d="M160.637 85.1992V28.7129L124.392 28.7129V85.1992H160.637Z" fill="white"/>
<path d="M125.056 85.1973L125.056 28.7109H124.394L124.394 85.1973H125.056Z" fill="#EC1E24"/>
<path d="M125.056 85.1973L125.056 28.7109H124.394L124.394 85.1973H125.056Z" fill="white" fill-opacity="0.7"/>
<path d="M123.472 70.084H161.558V67.6704H123.472V70.084Z" fill="#EC1E24"/>
<path d="M123.472 70.084H161.558V67.6704H123.472V70.084Z" fill="white" fill-opacity="0.7"/>
<path d="M121.109 23.9355H164.795C164.929 23.9355 165.039 24.0468 165.039 24.1836C165.039 24.3203 164.929 24.4316 164.795 24.4316H121.109C120.975 24.4316 120.866 24.3203 120.866 24.1836C120.869 24.0468 120.978 23.9355 121.109 23.9355Z" fill="#EC1E24"/>
<path d="M121.109 23.9355H164.795C164.929 23.9355 165.039 24.0468 165.039 24.1836C165.039 24.3203 164.929 24.4316 164.795 24.4316H121.109C120.975 24.4316 120.866 24.3203 120.866 24.1836C120.869 24.0468 120.978 23.9355 121.109 23.9355Z" fill="white" fill-opacity="0.7"/>
<path d="M119.658 24.1811C119.658 24.8616 120.201 25.4149 120.869 25.4149C121.536 25.4149 122.079 24.8616 122.079 24.1811C122.079 23.5006 121.536 22.9473 120.869 22.9473C120.201 22.9504 119.658 23.5006 119.658 24.1811Z" fill="#EC1E24"/>
<path d="M119.658 24.1811C119.658 24.8616 120.201 25.4149 120.869 25.4149C121.536 25.4149 122.079 24.8616 122.079 24.1811C122.079 23.5006 121.536 22.9473 120.869 22.9473C120.201 22.9504 119.658 23.5006 119.658 24.1811Z" fill="white" fill-opacity="0.7"/>
<path d="M162.758 25.561C162.939 25.561 163.086 25.4116 163.086 25.2271V24.5116C163.086 24.3272 162.939 24.1777 162.758 24.1777C162.577 24.1777 162.43 24.3272 162.43 24.5116V25.2271C162.43 25.4116 162.577 25.561 162.758 25.561Z" fill="#EC1E24"/>
<path d="M162.758 25.561C162.939 25.561 163.086 25.4116 163.086 25.2271V24.5116C163.086 24.3272 162.939 24.1777 162.758 24.1777C162.577 24.1777 162.43 24.3272 162.43 24.5116V25.2271C162.43 25.4116 162.577 25.561 162.758 25.561Z" fill="white" fill-opacity="0.7"/>
<path d="M124.756 25.561C124.937 25.561 125.084 25.4116 125.084 25.2271V24.5116C125.084 24.3272 124.937 24.1777 124.756 24.1777C124.575 24.1777 124.429 24.3272 124.429 24.5116V25.2271C124.432 25.4116 124.578 25.561 124.756 25.561Z" fill="#EC1E24"/>
<path d="M124.756 25.561C124.937 25.561 125.084 25.4116 125.084 25.2271V24.5116C125.084 24.3272 124.937 24.1777 124.756 24.1777C124.575 24.1777 124.429 24.3272 124.429 24.5116V25.2271C124.432 25.4116 124.578 25.561 124.756 25.561Z" fill="white" fill-opacity="0.7"/>
<g opacity="0.4">
<path d="M121.186 36.541L161.559 36.541V24.1804L121.186 24.1804V36.541Z" fill="#D6336C"/>
<path d="M121.186 36.541L161.559 36.541V24.1804L121.186 24.1804V36.541Z" fill="white" fill-opacity="0.8"/>
</g>
<path d="M157.66 24.1811C157.66 24.8616 158.203 25.4149 158.87 25.4149C159.538 25.4149 160.081 24.8616 160.081 24.1811C160.081 23.5006 159.538 22.9473 158.87 22.9473C158.199 22.9504 157.66 23.5006 157.66 24.1811Z" fill="#EC1E24"/>
<path d="M157.66 24.1811C157.66 24.8616 158.203 25.4149 158.87 25.4149C159.538 25.4149 160.081 24.8616 160.081 24.1811C160.081 23.5006 159.538 22.9473 158.87 22.9473C158.199 22.9504 157.66 23.5006 157.66 24.1811Z" fill="white" fill-opacity="0.7"/>
<path d="M222.025 119.971H233.419V94.2254H222.025V119.971Z" fill="#D63939"/>
<path d="M222.025 119.971H233.419V94.2254H222.025V119.971Z" fill="white" fill-opacity="0.8"/>
<path d="M175.047 121.602H231.232V119.97H175.047V121.602Z" fill="#D63939"/>
<path d="M175.047 121.602H231.232V119.97H175.047V121.602Z" fill="white" fill-opacity="0.8"/>
<path d="M222.025 94.2266H172.857V119.972H222.025V94.2266Z" fill="#EC1E24"/>
<path d="M222.025 94.2266H172.857V119.972H222.025V94.2266Z" fill="white" fill-opacity="0.7"/>
<path d="M217.548 97.3945H177.338V105.837H217.548V97.3945Z" fill="#D63939"/>
<path d="M217.548 97.3945H177.338V105.837H217.548V97.3945Z" fill="white" fill-opacity="0.8"/>
<path d="M217.548 108.357H177.338V116.8H217.548V108.357Z" fill="#D63939"/>
<path d="M217.548 108.357H177.338V116.8H217.548V108.357Z" fill="white" fill-opacity="0.8"/>
<path d="M192.32 102.195H202.566C202.841 102.195 203.068 101.966 203.068 101.683V101.549C203.068 101.269 202.844 101.037 202.566 101.037H192.32C192.045 101.037 191.818 101.266 191.818 101.549V101.683C191.818 101.962 192.042 102.195 192.32 102.195Z" fill="#EC1E24"/>
<path d="M192.32 102.195H202.566C202.841 102.195 203.068 101.966 203.068 101.683V101.549C203.068 101.269 202.844 101.037 202.566 101.037H192.32C192.045 101.037 191.818 101.266 191.818 101.549V101.683C191.818 101.962 192.042 102.195 192.32 102.195Z" fill="white" fill-opacity="0.7"/>
<path d="M192.32 113.159H202.566C202.841 113.159 203.068 112.931 203.068 112.647V112.514C203.068 112.234 202.844 112.002 202.566 112.002H192.32C192.045 112.002 191.818 112.231 191.818 112.514V112.647C191.818 112.927 192.042 113.159 192.32 113.159Z" fill="#EC1E24"/>
<path d="M192.32 113.159H202.566C202.841 113.159 203.068 112.931 203.068 112.647V112.514C203.068 112.234 202.844 112.002 202.566 112.002H192.32C192.045 112.002 191.818 112.231 191.818 112.514V112.647C191.818 112.927 192.042 113.159 192.32 113.159Z" fill="white" fill-opacity="0.7"/>
<path d="M208.488 90.3454C209.828 89.9809 210.624 88.5781 210.267 87.2121C209.909 85.8461 208.533 85.0342 207.193 85.3987C205.852 85.7631 205.056 87.166 205.413 88.532C205.771 89.898 207.147 90.7099 208.488 90.3454Z" fill="#EC1E24"/>
<path d="M208.488 90.3454C209.828 89.9809 210.624 88.5781 210.267 87.2121C209.909 85.8461 208.533 85.0342 207.193 85.3987C205.852 85.7631 205.056 87.166 205.413 88.532C205.771 89.898 207.147 90.7099 208.488 90.3454Z" fill="white" fill-opacity="0.7"/>
<path d="M205.666 89.2007C206.647 88.201 206.647 86.5802 205.666 85.5805C204.685 84.5808 203.095 84.5808 202.114 85.5805C201.133 86.5802 201.133 88.201 202.114 89.2007C203.095 90.2004 204.685 90.2004 205.666 89.2007Z" fill="#EC1E24"/>
<path d="M205.666 89.2007C206.647 88.201 206.647 86.5802 205.666 85.5805C204.685 84.5808 203.095 84.5808 202.114 85.5805C201.133 86.5802 201.133 88.201 202.114 89.2007C203.095 90.2004 204.685 90.2004 205.666 89.2007Z" fill="white" fill-opacity="0.7"/>
<path d="M191.749 91.1335C193.136 91.1335 194.261 89.9874 194.261 88.5736C194.261 87.1598 193.136 86.0137 191.749 86.0137C190.362 86.0137 189.237 87.1598 189.237 88.5736C189.237 89.9874 190.362 91.1335 191.749 91.1335Z" fill="#EC1E24"/>
<path d="M191.749 91.1335C193.136 91.1335 194.261 89.9874 194.261 88.5736C194.261 87.1598 193.136 86.0137 191.749 86.0137C190.362 86.0137 189.237 87.1598 189.237 88.5736C189.237 89.9874 190.362 91.1335 191.749 91.1335Z" fill="white" fill-opacity="0.7"/>
<path d="M198.628 92.275C199.998 92.0479 200.927 90.7326 200.704 89.3372C200.481 87.9418 199.191 86.9946 197.822 87.2217C196.453 87.4487 195.523 88.764 195.746 90.1594C195.969 91.5549 197.259 92.502 198.628 92.275Z" fill="#EC1E24"/>
<path d="M198.628 92.275C199.998 92.0479 200.927 90.7326 200.704 89.3372C200.481 87.9418 199.191 86.9946 197.822 87.2217C196.453 87.4487 195.523 88.764 195.746 90.1594C195.969 91.5549 197.259 92.502 198.628 92.275Z" fill="white" fill-opacity="0.7"/>
<path d="M215.137 88.3379C215.137 88.3379 214.731 94.2273 199.144 94.2273C183.556 94.2273 183.15 88.3379 183.15 88.3379H215.137Z" fill="#D63939"/>
<path d="M215.137 88.3379C215.137 88.3379 214.731 94.2273 199.144 94.2273C183.556 94.2273 183.15 88.3379 183.15 88.3379H215.137Z" fill="white" fill-opacity="0.8"/>
<path d="M156.367 120.012H162.054V94.8706H156.367V120.012Z" fill="#D63939"/>
<path d="M156.367 120.012H162.054V94.8706H156.367V120.012Z" fill="white" fill-opacity="0.8"/>
<path d="M124.071 121.604H160.961V120.01H124.071V121.604Z" fill="#D63939"/>
<path d="M124.071 121.604H160.961V120.01H124.071V121.604Z" fill="white" fill-opacity="0.8"/>
<path d="M156.365 94.8691H122.978V120.01H156.365V94.8691Z" fill="#EC1E24"/>
<path d="M156.365 94.8691H122.978V120.01H156.365V94.8691Z" fill="white" fill-opacity="0.7"/>
<path d="M154.131 97.9629H125.215V106.209H154.131V97.9629Z" fill="#D63939"/>
<path d="M154.131 97.9629H125.215V106.209H154.131V97.9629Z" fill="white" fill-opacity="0.8"/>
<path d="M154.131 108.67H125.215V116.916H154.131V108.67Z" fill="#D63939"/>
<path d="M154.131 108.67H125.215V116.916H154.131V108.67Z" fill="white" fill-opacity="0.8"/>
<path d="M135.292 98.972H144.05C144.643 98.972 145.13 98.4791 145.13 97.8718C145.13 97.2676 144.646 96.7715 144.05 96.7715H135.292C134.7 96.7715 134.213 97.2644 134.213 97.8718C134.216 98.4791 134.7 98.972 135.292 98.972Z" fill="#EC1E24"/>
<path d="M135.292 98.972H144.05C144.643 98.972 145.13 98.4791 145.13 97.8718C145.13 97.2676 144.646 96.7715 144.05 96.7715H135.292C134.7 96.7715 134.213 97.2644 134.213 97.8718C134.216 98.4791 134.7 98.972 135.292 98.972Z" fill="white" fill-opacity="0.7"/>
<path d="M135.292 109.678H144.05C144.643 109.678 145.13 109.185 145.13 108.581C145.13 107.977 144.646 107.48 144.05 107.48H135.292C134.7 107.48 134.213 107.973 134.213 108.581C134.216 109.182 134.7 109.678 135.292 109.678Z" fill="#EC1E24"/>
<path d="M135.292 109.678H144.05C144.643 109.678 145.13 109.185 145.13 108.581C145.13 107.977 144.646 107.48 144.05 107.48H135.292C134.7 107.48 134.213 107.973 134.213 108.581C134.216 109.182 134.7 109.678 135.292 109.678Z" fill="white" fill-opacity="0.7"/>
<path d="M186.75 66.3281H203.08V32.4484H186.75V66.3281Z" fill="#EC1E24"/>
<path d="M186.75 66.3281H203.08V32.4484H186.75V66.3281Z" fill="white" fill-opacity="0.7"/>
<path d="M185.439 66.3281H202.727V32.4484H185.439V66.3281Z" fill="#EC1E24"/>
<path d="M185.439 66.3281H202.727V32.4484H185.439V66.3281Z" fill="white" fill-opacity="0.7"/>
<path d="M200.211 63.7653V35.0117H187.953V63.7653H200.211Z" fill="white"/>
<path d="M224.743 60.9766H233.685V50.4762H224.743V60.9766Z" fill="#D63939"/>
<path d="M224.743 60.9766H233.685V50.4762H224.743V60.9766Z" fill="white" fill-opacity="0.8"/>
<path d="M222.934 60.9766H232.625V50.4762H222.934V60.9766Z" fill="#EC1E24"/>
<path d="M222.934 60.9766H232.625V50.4762H222.934V60.9766Z" fill="white" fill-opacity="0.7"/>
<path d="M231.813 60.1502V51.3066H223.748V60.1502H231.813Z" fill="white"/>
<path d="M229.857 57.2811V54.1743C229.857 53.7736 229.538 53.4492 229.145 53.4492H226.412C226.019 53.4492 225.701 53.7736 225.701 54.1743V57.2811C225.701 57.6818 226.019 58.0062 226.412 58.0062H229.145C229.538 58.0062 229.857 57.6786 229.857 57.2811Z" fill="#EC1E24"/>
<path d="M229.857 57.2811V54.1743C229.857 53.7736 229.538 53.4492 229.145 53.4492H226.412C226.019 53.4492 225.701 53.7736 225.701 54.1743V57.2811C225.701 57.6818 226.019 58.0062 226.412 58.0062H229.145C229.538 58.0062 229.857 57.6786 229.857 57.2811Z" fill="white" fill-opacity="0.7"/>
<path d="M217.536 46.3672H226.478V35.8668H217.536V46.3672Z" fill="#D63939"/>
<path d="M217.536 46.3672H226.478V35.8668H217.536V46.3672Z" fill="white" fill-opacity="0.8"/>
<path d="M215.728 46.3672H225.418V35.8668H215.728V46.3672Z" fill="#EC1E24"/>
<path d="M215.728 46.3672H225.418V35.8668H215.728V46.3672Z" fill="white" fill-opacity="0.7"/>
<path d="M224.608 45.5389V36.6953H216.543V45.5389H224.608Z" fill="white"/>
<path d="M222.652 42.6717V39.5649C222.652 39.1642 222.334 38.8398 221.941 38.8398H219.208C218.815 38.8398 218.497 39.1642 218.497 39.5649V42.6717C218.497 43.0724 218.815 43.3968 219.208 43.3968H221.941C222.334 43.3968 222.652 43.0692 222.652 42.6717Z" fill="#EC1E24"/>
<path d="M222.652 42.6717V39.5649C222.652 39.1642 222.334 38.8398 221.941 38.8398H219.208C218.815 38.8398 218.497 39.1642 218.497 39.5649V42.6717C218.497 43.0724 218.815 43.3968 219.208 43.3968H221.941C222.334 43.3968 222.652 43.0692 222.652 42.6717Z" fill="white" fill-opacity="0.7"/>
<path d="M177.5 135.963C210.91 135.963 237.994 134.352 237.994 132.363C237.994 130.375 210.91 128.764 177.5 128.764C144.09 128.764 117.006 130.375 117.006 132.363C117.006 134.352 144.09 135.963 177.5 135.963Z" fill="#D6336C"/>
<path d="M177.5 135.963C210.91 135.963 237.994 134.352 237.994 132.363C237.994 130.375 210.91 128.764 177.5 128.764C144.09 128.764 117.006 130.375 117.006 132.363C117.006 134.352 144.09 135.963 177.5 135.963Z" fill="white" fill-opacity="0.8"/>
<path d="M201.081 40.1855H133.717V107.414H201.081V40.1855Z" fill="#C62828"/>
<path d="M199.353 42.3359H135.452V107.415H199.353V42.3359Z" fill="white"/>
<path d="M201.081 106.467V107.415H167.132L174.471 99.9419L184.573 89.6387L201.081 106.467Z" fill="#C62828"/>
<path d="M133.717 107.414V100.952L154.59 79.6777L181.803 107.414H133.717Z" fill="#C62828"/>
<path d="M178.508 72.2742C184.205 72.2742 188.823 67.5673 188.823 61.7611C188.823 55.9549 184.205 51.248 178.508 51.248C172.811 51.248 168.193 55.9549 168.193 61.7611C168.193 67.5673 172.811 72.2742 178.508 72.2742Z" fill="#C62828"/>
<path d="M213.256 43.6679L213.226 43.9844L215.455 44.2063L215.486 43.8898L213.256 43.6679Z" fill="#EC1E24"/>
<path d="M213.256 43.6679L213.226 43.9844L215.455 44.2063L215.486 43.8898L213.256 43.6679Z" fill="white" fill-opacity="0.4"/>
<path d="M205.668 42.9101L205.638 43.2266L211.094 43.7696L211.124 43.4531L205.668 42.9101Z" fill="#EC1E24"/>
<path d="M205.668 42.9101L205.638 43.2266L211.094 43.7696L211.124 43.4531L205.668 42.9101Z" fill="white" fill-opacity="0.4"/>
<path d="M153.691 38.8552L147.28 105.768L214.327 112.441L220.739 45.5289L153.691 38.8552Z" fill="#EC1E24"/>
<path d="M153.691 38.8552L147.28 105.768L214.327 112.441L220.739 45.5289L153.691 38.8552Z" fill="white" fill-opacity="0.4"/>
<path d="M155.213 41.1666L149.007 105.939L212.608 112.27L218.814 47.4972L155.213 41.1666Z" fill="white"/>
<path d="M214.413 111.499L214.322 112.443L180.536 109.079L188.551 102.369L199.587 93.1152L214.413 111.499Z" fill="#EC1E24"/>
<path d="M214.413 111.499L214.322 112.443L180.536 109.079L188.551 102.369L199.587 93.1152L214.413 111.499Z" fill="white" fill-opacity="0.4"/>
<path d="M147.28 105.77L147.894 99.3398L170.698 80.2344L195.134 110.533L147.28 105.77Z" fill="#EC1E24"/>
<path d="M147.28 105.77L147.894 99.3398L170.698 80.2344L195.134 110.533L147.28 105.77Z" fill="white" fill-opacity="0.4"/>
<path d="M205.655 68.9887C207.942 63.6708 205.566 57.4704 200.349 55.1398C195.131 52.8092 189.048 55.2309 186.761 60.5488C184.474 65.8667 186.85 72.0671 192.068 74.3977C197.285 76.7283 203.369 74.3066 205.655 68.9887Z" fill="#EC1E24"/>
<path d="M205.655 68.9887C207.942 63.6708 205.566 57.4704 200.349 55.1398C195.131 52.8092 189.048 55.2309 186.761 60.5488C184.474 65.8667 186.85 72.0671 192.068 74.3977C197.285 76.7283 203.369 74.3066 205.655 68.9887Z" fill="white" fill-opacity="0.4"/>
<path d="M190.842 47.7461L123.62 52.2227L127.92 119.31L195.143 114.833L190.842 47.7461Z" fill="#D63939"/>
<path d="M189.252 50.0055L125.485 54.252L129.648 119.194L193.415 114.948L189.252 50.0055Z" fill="white"/>
<path d="M195.075 113.888L195.134 114.832L161.26 117.087L168.103 109.143L177.525 98.1914L195.075 113.888Z" fill="#D63939"/>
<path d="M127.914 119.308L127.502 112.862L146.968 90.2461L175.896 116.115L127.914 119.308Z" fill="#D63939"/>
<path d="M176.984 78.2151C181.012 74.1095 181.012 67.453 176.984 63.3474C172.956 59.2419 166.425 59.2419 162.397 63.3474C158.369 67.453 158.369 74.1095 162.397 78.2151C166.425 82.3206 172.956 82.3206 176.984 78.2151Z" fill="#D63939"/>
</g>
<rect x="0.5" y="0.5" width="357" height="158" rx="7.5" stroke="#D9D9D9"/>
<defs>
<clipPath id="clip0_190_74333">
<rect x="99.5" width="159" height="159" rx="8" fill="white"/>
</clipPath>
</defs>
</svg>
