<svg width="16" height="16" viewBox="0 0 16 16" fill="none" xmlns="http://www.w3.org/2000/svg">
<path fill-rule="evenodd" clip-rule="evenodd" d="M9.02468 0.056763C9.9561 0.182021 10.7112 0.410808 11.5327 0.814701C13.1413 1.60715 14.3973 2.86484 15.1894 4.47275C15.6021 5.30865 15.8372 6.10494 15.9611 7.08655C16.0186 7.51601 16.011 8.60243 15.9471 9.03188C15.6826 10.8635 14.9224 12.4062 13.6652 13.6626C12.408 14.919 10.8735 15.6782 9.03618 15.9454C8.55194 16.0182 7.45954 16.0182 6.9753 15.9454C5.14696 15.6782 3.6112 14.9228 2.36036 13.6779C-0.0135471 11.3146 -0.666435 7.73201 0.719835 4.68236C1.91573 2.05706 4.41485 0.29194 7.32283 0.0196958C7.71635 -0.0186485 8.60944 0.00180288 9.02468 0.056763Z" fill="#C62828"/>
<path fill-rule="evenodd" clip-rule="evenodd" d="M3.85228 3.92187C3.81139 3.94488 3.75901 3.99984 3.7424 4.04713C3.71684 4.11104 3.71046 4.81658 3.7194 6.96002C3.7309 9.99178 3.72834 9.88953 3.88166 10.4941C4.22408 11.8272 5.15294 12.805 6.46766 13.2229C6.97234 13.3827 7.24832 13.4172 8.00598 13.4172C8.77513 13.4172 9.04472 13.3827 9.57368 13.2076C10.1742 13.0133 10.6482 12.7283 11.089 12.3052C11.8326 11.5856 12.221 10.682 12.3028 9.47668C12.3168 9.2479 12.3322 7.96081 12.3322 6.61364C12.3322 3.98067 12.3347 4.0318 12.184 3.92443C12.1226 3.88353 11.9949 3.87842 11.1337 3.87842C10.0681 3.87842 10.0272 3.88481 9.95826 4.03819C9.9327 4.09315 9.92376 4.75522 9.92376 6.68906C9.92376 8.80822 9.91481 9.31436 9.88032 9.54954C9.72061 10.6091 9.02683 11.1498 7.89226 11.0999C7.37225 11.0769 7.06561 10.9721 6.73981 10.7114C6.5801 10.5784 6.37439 10.273 6.28112 10.0237C6.1278 9.61472 6.12142 9.48308 6.12142 6.69033C6.12142 4.7565 6.11247 4.09442 6.08692 4.03946C6.01665 3.88609 5.97704 3.8797 4.91146 3.8797C4.11931 3.88097 3.9136 3.88992 3.85228 3.92187Z" fill="white"/>
</svg>
