<svg width="16" height="16" viewBox="0 0 16 16" fill="none" xmlns="http://www.w3.org/2000/svg">
<rect width="16" height="16" rx="8" fill="#C62828"/>
<g clip-path="url(#clip0_7537_85814)">
<path fill-rule="evenodd" clip-rule="evenodd" d="M7.99992 7.16671C7.53968 7.16671 7.16659 7.5398 7.16659 8.00004C7.16659 8.46028 7.53968 8.83337 7.99992 8.83337C8.46016 8.83337 8.83325 8.46028 8.83325 8.00004C8.83325 7.5398 8.46016 7.16671 7.99992 7.16671ZM6.33325 8.00004C6.33325 7.07957 7.07944 6.33337 7.99992 6.33337C8.92039 6.33337 9.66659 7.07957 9.66659 8.00004C9.66659 8.92052 8.92039 9.66671 7.99992 9.66671C7.07944 9.66671 6.33325 8.92052 6.33325 8.00004Z" fill="white"/>
<path fill-rule="evenodd" clip-rule="evenodd" d="M8 3.83333C7.88949 3.83333 7.78351 3.87723 7.70537 3.95537C7.62723 4.03351 7.58333 4.13949 7.58333 4.25V4.3225C7.58247 4.53783 7.51866 4.74822 7.39977 4.92776C7.28087 5.10729 7.11206 5.24815 6.91414 5.33297C6.87891 5.34807 6.84184 5.35821 6.804 5.36315C6.62416 5.42613 6.43055 5.44166 6.24208 5.40748C6.025 5.36812 5.82469 5.26463 5.66697 5.11036L5.66369 5.10715L5.63871 5.08213C5.60001 5.04339 5.55389 5.01249 5.50331 4.99152C5.45273 4.97055 5.39851 4.95976 5.34375 4.95976C5.28899 4.95976 5.23477 4.97055 5.18419 4.99152C5.13361 5.01249 5.08766 5.04322 5.04896 5.08196L5.04863 5.08229C5.00989 5.12099 4.97916 5.16694 4.95819 5.21752C4.93722 5.26811 4.92643 5.32233 4.92643 5.37708C4.92643 5.43184 4.93722 5.48606 4.95819 5.53664C4.97916 5.58722 5.00989 5.63318 5.04863 5.67187L5.07704 5.70029C5.23132 5.858 5.33479 6.05833 5.37415 6.27542C5.41273 6.48818 5.38797 6.70749 5.3031 6.90616C5.22579 7.10889 5.09041 7.28445 4.91377 7.41078C4.73356 7.53967 4.51874 7.61137 4.29724 7.61655L4.2875 7.61667H4.25C4.13949 7.61667 4.03351 7.66057 3.95537 7.73871C3.87723 7.81685 3.83333 7.92283 3.83333 8.03333C3.83333 8.14384 3.87723 8.24982 3.95537 8.32796C4.03351 8.4061 4.13949 8.45 4.25 8.45H4.3225C4.53783 8.45086 4.74822 8.51467 4.92776 8.63357C5.10667 8.75205 5.24717 8.9201 5.33209 9.11713C5.42045 9.31844 5.44671 9.54156 5.40748 9.75792C5.36812 9.975 5.26463 10.1753 5.11036 10.333L5.10714 10.3363L5.08213 10.3613C5.04339 10.4 5.01249 10.4461 4.99152 10.4967C4.97055 10.5473 4.95976 10.6015 4.95976 10.6562C4.95976 10.711 4.97055 10.7652 4.99152 10.8158C5.01249 10.8664 5.04322 10.9123 5.08196 10.951L5.08229 10.9514C5.12099 10.9901 5.16694 11.0208 5.21752 11.0418C5.26811 11.0628 5.32233 11.0736 5.37708 11.0736C5.43184 11.0736 5.48606 11.0628 5.53664 11.0418C5.58723 11.0208 5.63318 10.9901 5.67187 10.9514L5.70029 10.923C5.858 10.7687 6.05834 10.6652 6.27542 10.6258C6.48818 10.5873 6.70748 10.612 6.90615 10.6969C7.10889 10.7742 7.28445 10.9096 7.41078 11.0862C7.53967 11.2664 7.61137 11.4813 7.61655 11.7028L7.61667 11.7125V11.75C7.61667 11.8605 7.66057 11.9665 7.73871 12.0446C7.81685 12.1228 7.92283 12.1667 8.03333 12.1667C8.14384 12.1667 8.24982 12.1228 8.32796 12.0446C8.4061 11.9665 8.45 11.8605 8.45 11.75V11.6792L8.45 11.6775C8.45086 11.4622 8.51467 11.2518 8.63357 11.0722C8.75206 10.8933 8.92012 10.7528 9.11718 10.6679C9.31848 10.5795 9.54158 10.5533 9.75792 10.5925C9.975 10.6319 10.1753 10.7354 10.333 10.8896L10.3363 10.8929L10.3613 10.9179C10.4 10.9566 10.4461 10.9875 10.4967 11.0085C10.5473 11.0294 10.6015 11.0402 10.6562 11.0402C10.711 11.0402 10.7652 11.0294 10.8158 11.0085C10.8664 10.9875 10.9123 10.9568 10.951 10.918L10.9514 10.9177C10.9901 10.879 11.0208 10.8331 11.0418 10.7825C11.0628 10.7319 11.0736 10.6777 11.0736 10.6229C11.0736 10.5682 11.0628 10.5139 11.0418 10.4634C11.0208 10.4128 10.9901 10.3668 10.9514 10.3281L10.923 10.2997C10.7687 10.142 10.6652 9.94166 10.6258 9.72458C10.5866 9.50825 10.6129 9.28514 10.7012 9.08385C10.7861 8.88679 10.9266 8.71873 11.1056 8.60023C11.2851 8.48134 11.4955 8.41753 11.7108 8.41667L11.7125 8.41666L11.75 8.41667C11.8605 8.41667 11.9665 8.37277 12.0446 8.29463C12.1228 8.21649 12.1667 8.11051 12.1667 8C12.1667 7.88949 12.1228 7.78351 12.0446 7.70537C11.9665 7.62723 11.8605 7.58333 11.75 7.58333H11.6792L11.6775 7.58333C11.4622 7.58247 11.2518 7.51866 11.0722 7.39977C10.8927 7.28087 10.7519 7.11207 10.667 6.91414C10.6519 6.87891 10.6418 6.84184 10.6368 6.804C10.5739 6.62416 10.5583 6.43055 10.5925 6.24208C10.6319 6.025 10.7354 5.82469 10.8896 5.66697L10.8929 5.66369L10.9179 5.63871C10.9566 5.60001 10.9875 5.55389 11.0085 5.50331C11.0294 5.45273 11.0402 5.39851 11.0402 5.34375C11.0402 5.28899 11.0294 5.23477 11.0085 5.18419C10.9875 5.13361 10.9568 5.08766 10.918 5.04896L10.9177 5.04863C10.879 5.00989 10.8331 4.97916 10.7825 4.95819C10.7319 4.93722 10.6777 4.92643 10.6229 4.92643C10.5682 4.92643 10.5139 4.93722 10.4634 4.95819C10.4128 4.97916 10.3668 5.00989 10.3281 5.04863L10.2997 5.07704C10.142 5.23132 9.94166 5.33479 9.72458 5.37415C9.50823 5.41338 9.28511 5.38712 9.0838 5.29876C8.88676 5.21383 8.71872 5.07334 8.60023 4.89442C8.48133 4.71489 8.41753 4.5045 8.41667 4.28916L8.41667 4.2875V4.25C8.41667 4.13949 8.37277 4.03351 8.29463 3.95537C8.21649 3.87723 8.11051 3.83333 8 3.83333ZM11.0833 9.25L11.4645 9.41824C11.4427 9.46774 11.4362 9.52266 11.4458 9.57591C11.4554 9.62857 11.4803 9.67721 11.5174 9.71569L11.5403 9.73854C11.5404 9.73859 11.5402 9.73849 11.5403 9.73854C11.6564 9.8546 11.7487 9.99256 11.8116 10.1442C11.8745 10.296 11.9069 10.4586 11.9069 10.6229C11.9069 10.7872 11.8745 10.9498 11.8116 11.1016C11.7487 11.2533 11.6565 11.3912 11.5403 11.5073L11.2458 11.2125L11.5406 11.507C11.4245 11.6232 11.2867 11.7154 11.1349 11.7783C10.9832 11.8412 10.8205 11.8736 10.6562 11.8736C10.492 11.8736 10.3293 11.8412 10.1776 11.7783C10.0259 11.7154 9.8881 11.6233 9.77204 11.5071C9.77198 11.5071 9.77209 11.5072 9.77204 11.5071L9.74903 11.4841C9.71054 11.447 9.6619 11.422 9.60924 11.4125C9.55599 11.4028 9.50108 11.4093 9.45157 11.4312L9.44748 11.433C9.39893 11.4538 9.35752 11.4883 9.32835 11.5324C9.2993 11.5762 9.28366 11.6276 9.28333 11.6802V11.75C9.28333 12.0815 9.15164 12.3995 8.91722 12.6339C8.6828 12.8683 8.36485 13 8.03333 13C7.70181 13 7.38387 12.8683 7.14945 12.6339C6.91503 12.3995 6.78333 12.0815 6.78333 11.75V11.7185C6.78136 11.6655 6.76386 11.6142 6.73298 11.571C6.70136 11.5268 6.65718 11.4931 6.60617 11.4744C6.59794 11.4714 6.5898 11.4681 6.58176 11.4645C6.53226 11.4427 6.47734 11.4362 6.42409 11.4458C6.37142 11.4554 6.32278 11.4803 6.28429 11.5175L6.26146 11.5403C6.2614 11.5404 6.26151 11.5402 6.26146 11.5403C6.1454 11.6564 6.00744 11.7487 5.85576 11.8116C5.70401 11.8745 5.54135 11.9069 5.37708 11.9069C5.21281 11.9069 5.05015 11.8745 4.89841 11.8116C4.7468 11.7488 4.60906 11.6567 4.49304 11.5406C4.37682 11.4245 4.28462 11.2867 4.22171 11.1349C4.15881 10.9832 4.12643 10.8205 4.12643 10.6562C4.12643 10.492 4.15881 10.3293 4.22171 10.1776C4.28462 10.0258 4.37682 9.88797 4.49304 9.77187L4.51588 9.74903C4.55304 9.71054 4.57797 9.6619 4.58752 9.60924C4.59717 9.55599 4.59066 9.50108 4.56881 9.45157L4.567 9.44748C4.5462 9.39893 4.51167 9.35752 4.46763 9.32835C4.42377 9.29931 4.37239 9.28366 4.31979 9.28333H4.25C3.91848 9.28333 3.60054 9.15164 3.36612 8.91722C3.1317 8.6828 3 8.36485 3 8.03333C3 7.70181 3.1317 7.38387 3.36612 7.14945C3.60054 6.91503 3.91848 6.78333 4.25 6.78333H4.28152C4.33451 6.78136 4.3858 6.76386 4.42898 6.73298C4.47318 6.70136 4.50685 6.65718 4.52561 6.60617C4.52864 6.59794 4.53193 6.5898 4.53547 6.58176C4.55732 6.53226 4.56384 6.47734 4.55419 6.42409C4.54464 6.37143 4.5197 6.32278 4.48254 6.2843L4.4597 6.26146C4.34348 6.14537 4.25128 6.00751 4.18838 5.85576C4.12547 5.70401 4.09309 5.54135 4.09309 5.37708C4.09309 5.21281 4.12547 5.05016 4.18838 4.89841C4.25125 4.74673 4.3434 4.60893 4.45954 4.49287C4.5756 4.37673 4.7134 4.28459 4.86507 4.22171C5.01682 4.15881 5.17948 4.12643 5.34375 4.12643C5.50802 4.12643 5.67068 4.15881 5.82243 4.22171C5.97417 4.28462 6.11203 4.37682 6.22812 4.49304L6.25096 4.51587C6.28945 4.55303 6.33809 4.57797 6.39076 4.58752C6.44401 4.59717 6.49892 4.59066 6.54843 4.56881C6.57511 4.55703 6.60289 4.54812 6.63128 4.54218C6.66033 4.52246 6.68541 4.49718 6.70498 4.46763C6.73403 4.42377 6.74967 4.37239 6.75 4.31979V4.25C6.75 3.91848 6.8817 3.60054 7.11612 3.36612C7.35054 3.1317 7.66848 3 8 3C8.33152 3 8.64946 3.1317 8.88388 3.36612C9.1183 3.60054 9.25 3.91848 9.25 4.25V4.28646C9.25033 4.33906 9.26597 4.39043 9.29502 4.4343C9.32419 4.47834 9.36559 4.51288 9.41414 4.53369L9.41825 4.53545C9.46775 4.5573 9.52266 4.56384 9.57591 4.55419C9.62857 4.54464 9.67721 4.5197 9.7157 4.48255L9.73854 4.4597C9.85463 4.34348 9.99249 4.25128 10.1442 4.18838C10.296 4.12547 10.4586 4.09309 10.6229 4.09309C10.7872 4.09309 10.9498 4.12547 11.1016 4.18838C11.2533 4.25128 11.3912 4.34348 11.5073 4.4597C11.6234 4.57573 11.7154 4.71347 11.7783 4.86507C11.8412 5.01682 11.8736 5.17948 11.8736 5.34375C11.8736 5.50802 11.8412 5.67068 11.7783 5.82243C11.7154 5.9741 11.6233 6.1119 11.5071 6.22796C11.5071 6.22802 11.5072 6.2279 11.5071 6.22796L11.4841 6.25096C11.447 6.28945 11.422 6.33809 11.4125 6.39076C11.4028 6.44401 11.4093 6.49892 11.4312 6.54843C11.443 6.57511 11.4519 6.60288 11.4578 6.63128C11.4775 6.66033 11.5028 6.68541 11.5324 6.70498C11.5762 6.73403 11.6276 6.74967 11.6802 6.75H11.75C12.0815 6.75 12.3995 6.8817 12.6339 7.11612C12.8683 7.35054 13 7.66848 13 8C13 8.33152 12.8683 8.64946 12.6339 8.88388C12.3995 9.1183 12.0815 9.25 11.75 9.25H11.7135C11.6609 9.25033 11.6096 9.26597 11.5657 9.29502C11.5217 9.32419 11.4871 9.36559 11.4663 9.41414L11.0833 9.25Z" fill="white"/>
</g>
<defs>
<clipPath id="clip0_7537_85814">
<rect width="10" height="10" fill="white" transform="translate(3 3)"/>
</clipPath>
</defs>
</svg>
